<svg width="41" height="18" viewBox="0 0 41 18" fill="none" xmlns="http://www.w3.org/2000/svg">
<path d="M30.5312 17.6827C30.3529 17.5025 30.2527 17.2582 30.2527 17.0035C30.2527 16.7488 30.3529 16.5045 30.5312 16.3243L36.841 9.95525L1.52784 9.95525C1.2753 9.95525 1.03311 9.85399 0.854541 9.67374C0.675972 9.4935 0.575653 9.24903 0.575653 8.99413C0.575653 8.73922 0.675972 8.49476 0.854541 8.31451C1.03311 8.13427 1.2753 8.033 1.52784 8.033L36.841 8.03301L30.5312 1.66396C30.4059 1.54649 30.3142 1.39706 30.266 1.23143C30.2177 1.0658 30.2146 0.890091 30.257 0.722825C30.2994 0.555559 30.3856 0.402925 30.5067 0.281003C30.6278 0.159082 30.7793 0.0723878 30.9451 0.0300547C31.1106 -0.0127686 31.2845 -0.00978103 31.4485 0.0387032C31.6125 0.0871874 31.7605 0.179376 31.877 0.305576L39.8118 8.31493C39.9901 8.49515 40.0903 8.73943 40.0903 8.99413C40.0903 9.24883 39.9901 9.49311 39.8118 9.67332L31.877 17.6827C31.6984 17.8627 31.4564 17.9638 31.2041 17.9638C30.9518 17.9638 30.7097 17.8627 30.5312 17.6827Z" fill="#7D927D"/>
</svg>
