<svg width="40" height="19" viewBox="0 0 40 19" fill="none" xmlns="http://www.w3.org/2000/svg">
<path d="M9.63738 0.665772C9.81569 0.845982 9.91585 1.09027 9.91585 1.34497C9.91585 1.59966 9.81569 1.84395 9.63738 2.02416L3.32759 8.3932L38.6408 8.3932C38.8933 8.3932 39.1355 8.49446 39.3141 8.67471C39.4926 8.85495 39.5929 9.09942 39.5929 9.35432C39.5929 9.60923 39.4926 9.85369 39.3141 10.0339C39.1355 10.2142 38.8933 10.3154 38.6408 10.3154L3.32759 10.3154L9.63738 16.6845C9.76272 16.802 9.85435 16.9514 9.90261 17.117C9.95087 17.2827 9.95398 17.4584 9.91161 17.6256C9.86924 17.7929 9.78296 17.9455 9.66186 18.0674C9.54076 18.1894 9.38932 18.2761 9.2235 18.3184C9.05798 18.3612 8.88408 18.3582 8.7201 18.3097C8.55611 18.2613 8.4081 18.1691 8.29163 18.0429L0.356777 10.0335C0.178465 9.8533 0.0783082 9.60902 0.0783082 9.35432C0.0783082 9.09962 0.178465 8.85534 0.356777 8.67513L8.29163 0.665772C8.47016 0.485785 8.71218 0.384689 8.9645 0.384689C9.21683 0.384689 9.45885 0.485785 9.63738 0.665772Z" fill="white"/>
</svg>
