<svg width="40" height="18" viewBox="0 0 40 18" fill="none" xmlns="http://www.w3.org/2000/svg">
<path d="M9.55907 0.281189C9.73738 0.461399 9.83754 0.705685 9.83754 0.960383C9.83754 1.21508 9.73738 1.45937 9.55907 1.63958L3.24928 8.00862L38.5625 8.00862C38.815 8.00862 39.0572 8.10988 39.2357 8.29012C39.4143 8.47037 39.5146 8.71483 39.5146 8.96974C39.5146 9.22465 39.4143 9.46911 39.2357 9.64936C39.0572 9.8296 38.815 9.93086 38.5625 9.93086L3.24928 9.93086L9.55907 16.2999C9.68441 16.4174 9.77604 16.5668 9.8243 16.7324C9.87256 16.8981 9.87567 17.0738 9.8333 17.241C9.79093 17.4083 9.70465 17.5609 9.58355 17.6829C9.46245 17.8048 9.31101 17.8915 9.14519 17.9338C8.97967 17.9766 8.80577 17.9736 8.64179 17.9252C8.47781 17.8767 8.32979 17.7845 8.21332 17.6583L0.278469 9.64893C0.100156 9.46872 1.04217e-07 9.22444 1.07254e-07 8.96974C1.10291e-07 8.71504 0.100157 8.47076 0.278469 8.29055L8.21332 0.281189C8.39186 0.101202 8.63387 0.000106914 8.8862 0.000106917C9.13853 0.00010692 9.38054 0.101202 9.55907 0.281189Z" fill="#7D927D"/>
</svg>
