<svg width="40" height="19" viewBox="0 0 40 19" fill="none" xmlns="http://www.w3.org/2000/svg">
<path d="M30.3626 18.0902C30.1843 17.91 30.0842 17.6657 30.0842 17.411C30.0842 17.1563 30.1843 16.912 30.3626 16.7318L36.6724 10.3628L1.35924 10.3628C1.10671 10.3628 0.864513 10.2615 0.685947 10.0812C0.507377 9.901 0.407058 9.65653 0.407058 9.40163C0.407058 9.14672 0.507377 8.90226 0.685947 8.72201C0.864513 8.54177 1.10671 8.44051 1.35924 8.44051L36.6724 8.44051L30.3626 2.07146C30.2373 1.95399 30.1457 1.80456 30.0974 1.63893C30.0491 1.4733 30.046 1.29759 30.0884 1.13033C30.1308 0.96306 30.217 0.810426 30.3381 0.688505C30.4592 0.566583 30.6107 0.479889 30.7765 0.437556C30.942 0.394733 31.1159 0.39772 31.2799 0.446204C31.4439 0.494689 31.5919 0.586877 31.7084 0.713077L39.6432 8.72244C39.8215 8.90265 39.9217 9.14693 39.9217 9.40163C39.9217 9.65633 39.8215 9.90061 39.6432 10.0808L31.7084 18.0902C31.5298 18.2702 31.2878 18.3713 31.0355 18.3713C30.7832 18.3713 30.5412 18.2702 30.3626 18.0902Z" fill="white"/>
</svg>
