<svg width="964" height="5" viewBox="0 0 964 5" fill="none" xmlns="http://www.w3.org/2000/svg">
<path d="M82.7974 4.93457C86.5282 4.93457 84.5263 4.42863 85.3453 4.11231C89.804 3.98578 87.4382 4.4918 88.9851 4.80812C91.806 4.68159 93.9899 4.17544 96.0828 4.17544C96.2647 4.2387 96.6287 4.30202 96.0828 4.42855C99.0856 3.9857 104.909 4.42857 108.367 3.8592C108.64 3.8592 108.731 3.92239 108.822 3.98565C108.276 3.7326 108.185 3.41631 108.276 3.22652C110.005 3.22652 111.37 2.9102 112.007 3.22652C111.006 3.22652 110.915 3.3531 110.369 3.47963L112.098 3.35298C113.736 3.85909 109.641 3.54294 109.641 3.92252C113.099 3.73273 117.103 3.3531 119.742 3.47963C120.288 3.98574 113.554 3.66946 117.103 4.11231L113.008 3.92252C116.102 4.68169 110.551 3.92249 113.372 4.68166C118.741 4.80819 119.378 4.42848 124.746 4.55501C125.929 4.30195 124.382 4.17552 125.565 3.8592C133.209 3.35309 131.571 5.12445 137.213 4.42855C138.669 4.11223 139.215 3.47955 143.219 3.79587L141.854 4.36522C147.04 4.36522 144.856 3.54294 150.316 3.92252C149.315 4.11231 146.221 4.11217 147.04 4.17544C150.589 4.61829 149.588 3.8592 152.227 3.8592L152.773 4.36522C158.324 4.30196 164.421 3.92246 170.608 3.8592C170.244 3.98572 169.243 4.17556 170.608 4.30209C178.343 4.04903 187.169 4.30207 194.631 4.68166L197.452 4.23876C198.089 4.23876 198.726 4.42861 197.998 4.49187C200.91 4.68167 198.18 4.23877 199.545 4.04898C201.183 4.04898 201.729 4.30202 200.728 4.42855C205.915 4.04896 215.378 3.66946 220.838 4.11231L219.746 4.23876C223.932 4.42856 224.478 3.35296 228.391 3.73255H227.663C236.853 3.9856 246.954 3.60613 253.96 4.23876C255.325 3.60613 263.06 4.49184 263.606 3.66941C268.884 4.11226 267.337 4.23869 274.707 4.55501C276.709 4.55501 277.619 4.04905 280.076 3.92252V4.36522L283.443 3.92252L285.172 4.42855L287.447 4.30209C286.537 4.30209 285.536 4.11218 285.627 3.98565C289.176 3.79586 294.362 4.30195 294.362 4.55501L302.825 4.17544C302.825 4.17544 301.187 4.42848 300.095 4.55501C304.554 4.11216 300.914 4.99785 305.009 4.55501C304.463 4.42848 305.282 4.30197 305.373 4.17544C307.466 4.42849 312.107 4.42849 315.564 4.36522L314.927 4.68166C321.206 4.74492 328.122 4.55501 335.129 4.55501C332.581 4.42848 333.218 3.85913 335.22 3.79587L336.038 4.23876C337.403 3.92244 333.855 4.04886 336.584 3.73255C339.223 3.73255 338.313 4.23876 336.857 4.42855L340.042 4.23876C340.042 4.23876 339.496 4.42854 339.314 4.61833C340.588 4.30201 344.774 5.06118 346.685 4.61833L346.867 4.74479C353.874 4.74479 357.059 4.55501 362.791 4.55501C362.882 4.17542 365.157 4.23884 366.886 3.92252C371.072 4.04905 375.713 4.36522 380.808 4.36522C384.357 4.17543 381.809 4.04893 383.447 3.79587C383.72 4.17545 388.725 4.11223 386.177 4.42855C392.274 4.42855 393.912 4.3653 401.646 4.04898C400.827 3.92245 399.917 3.85907 400.372 3.73255C401.737 3.73255 403.557 3.85919 403.375 4.04898H403.011C411.656 3.54287 422.939 5.18765 429.764 4.36522H429.4L436.498 3.98565C439.774 4.04892 434.496 4.23882 436.953 4.49187C444.596 3.85924 449.055 4.55502 455.425 4.17544C460.339 5.25092 472.805 4.11221 479.448 4.80812L479.084 4.55501C480.813 4.30195 481.177 4.68153 482.451 4.74479C482.269 4.555 480.631 4.49175 481.632 4.36522C496.1 4.0489 511.478 4.74484 526.311 4.9979C531.77 5.06116 529.404 3.66945 536.229 4.30209L534.318 4.80812C545.238 4.23874 556.703 4.80807 567.441 4.36522C566.804 4.49175 566.804 4.61833 565.712 4.61833C567.987 4.99792 574.083 4.61828 574.083 4.36522C575.721 4.36522 574.447 4.61826 575.539 4.74479C577.814 4.93458 581.272 4.30201 582.455 4.61833C582.637 4.61833 581.818 4.74479 581.363 4.74479C582.819 4.555 588.279 4.74481 586.823 4.36522C590.827 4.55501 594.557 4.17543 597.742 4.36522C599.835 3.92238 604.658 4.55516 605.295 3.92252C605.022 4.55516 612.393 4.42863 614.94 4.11231C614.121 4.3021 617.124 4.30201 616.123 4.61833C619.035 4.61833 621.674 4.49176 621.219 4.17544C626.588 4.93461 631.957 3.54278 634.959 4.55501C643.604 4.17542 651.612 3.98566 659.346 3.79587C659.073 4.42851 650.793 3.8591 651.066 4.55501C658.436 4.30195 662.713 3.73267 669.993 3.8592C671.904 3.92246 668.901 4.11224 668.264 4.23876C675.635 3.98571 682.459 4.23884 689.011 3.92252C689.011 3.92252 688.283 4.04904 687.646 4.11231C688.92 4.11231 690.649 4.23884 690.467 3.92252H689.193C687.1 3.54294 694.289 3.10001 694.562 2.84695C692.378 3.66938 701.022 3.03682 697.565 4.11231C698.384 4.11231 699.475 3.92234 699.293 3.73255C700.567 3.73255 700.931 3.92251 699.657 4.11231C704.298 3.92251 702.66 3.60615 706.846 3.66941C706.846 3.79594 706.027 3.85919 705.572 4.04898C707.665 3.79592 709.849 3.47956 713.398 3.60609C713.216 3.66935 713.58 3.79587 712.579 3.79587C718.676 3.79587 722.952 3.03679 729.595 3.28984C727.593 3.92248 731.87 3.47961 732.234 4.04898L735.783 3.8592L734.327 3.60609C737.421 3.60609 740.242 3.22651 742.971 3.4163L740.606 3.66941L746.52 3.54276L743.153 3.35298C746.338 3.09992 742.789 2.65716 746.975 2.84695C746.156 2.84695 750.16 2.84687 751.707 3.16319C753.254 2.9734 754.892 2.78362 757.167 2.97341C757.804 3.1632 756.712 3.54288 757.076 3.66941C758.623 3.22657 764.446 3.54285 766.357 3.03674C765.72 3.16326 765.72 3.41636 765.902 3.47963L767.176 3.10006C768.632 3.22659 768.814 3.28984 768.632 3.47963C773 3.54289 767.267 2.78374 772.454 3.10006C772.09 3.10006 772.272 3.16326 771.362 3.22652C776.549 3.35305 781.463 2.97346 786.194 3.22652C787.65 3.79589 782.009 3.35302 783.647 3.79587C790.562 3.66934 797.933 3.16332 804.667 3.28984H803.393C804.303 2.46741 808.397 3.60616 811.764 3.28984C810.945 3.28984 810.672 3.73261 810.945 3.60609C815.495 3.73261 820.318 3.41625 827.233 3.16319L826.414 3.35298C829.144 3.54277 833.512 3.4795 836.424 3.54276C837.334 3.35297 838.972 3.35312 837.971 3.10006C846.98 4.23881 855.078 2.46734 863.086 3.4163C862.176 3.4163 860.811 3.60609 861.539 3.60609L868.364 3.4163C867.818 3.09998 867.454 3.22646 866.089 2.97341C866.908 2.78362 868.91 2.59384 870.547 2.59384C867.454 2.8469 870.547 3.16332 871.912 3.28984C871.73 3.16332 872.185 3.09994 872.003 2.97341C875.552 3.54278 872.64 2.27765 877.463 2.72049L877.19 2.91028C879.01 2.84701 880.648 2.5939 882.65 2.65717C883.469 3.03675 880.739 2.84687 880.557 3.16319C883.287 3.16319 886.017 2.40404 888.474 2.78363C887.291 2.91015 885.653 2.91015 884.47 2.97341C887.2 3.41626 887.473 3.28978 889.475 3.4163H889.293L893.933 3.60609L892.75 3.47963C896.208 2.46741 899.757 3.28981 904.398 2.65717C899.939 3.28981 903.67 3.03678 903.306 3.47963C904.489 3.60616 906.309 3.73267 905.763 3.8592C907.947 3.47961 909.403 4.1122 912.497 3.60609C912.678 3.73261 914.862 3.60607 914.316 3.98565C917.137 3.85913 913.679 3.73255 913.861 3.54276C918.229 3.03665 924.144 4.11227 930.514 3.47963C935.973 3.22657 936.974 2.72044 941.979 2.46738C943.708 2.72044 940.614 2.97341 940.614 2.97341C943.344 3.1632 945.437 3.1632 947.985 2.97341C947.439 3.09994 947.985 3.22645 948.804 3.35298C950.897 3.35298 950.169 2.84694 952.898 3.03674C952.444 3.16326 951.807 3.4163 950.806 3.60609C953.263 3.47956 955.628 3.22659 958.176 3.10006C958.813 3.35312 956.629 3.47956 955.719 3.60609C958.54 3.47956 963.09 3.35299 964 2.97341L962.18 2.84695C963.181 2.84695 962.726 3.16326 961.907 3.22652C959.45 3.54284 958.358 3.09994 958.267 2.97341H960.087C958.267 2.02445 952.808 2.97341 949.168 2.97341L950.715 2.34093L946.984 2.84695C946.165 2.72042 945.619 2.34086 947.439 2.2776C944.8 1.96128 945.164 2.46727 942.889 2.15095C942.616 2.15095 942.798 2.08775 942.98 2.02449L940.432 2.21427C940.887 2.08775 939.977 1.7715 941.615 1.89803C937.065 1.51845 934.244 2.34088 932.516 1.89803H932.879C926.51 2.08782 932.242 2.27758 927.511 2.84695L924.326 1.77138L923.689 2.21427C923.052 2.21427 921.778 2.21422 921.96 1.96116C919.503 2.27748 922.415 2.15106 920.959 2.46738C917.774 2.0878 912.314 2.65707 911.586 1.96116C910.495 2.27748 914.589 2.21433 911.223 2.46738C910.222 1.70822 907.31 2.59392 904.489 2.2776C905.399 1.89802 908.129 2.0877 905.217 1.77138C903.488 2.40402 899.575 1.64485 897.209 1.77138C897.118 2.27749 891.931 1.96116 887.837 2.15095C888.11 1.96116 880.193 1.83471 876.371 1.64492H876.462C875.734 2.08777 871.821 1.96129 869.001 2.08782C869.092 1.7715 869.637 1.64499 871.184 1.51846H868.546C867.909 1.70826 867.09 1.77144 865.361 1.83471L865.998 1.45514C862.449 1.45514 858.809 1.89798 854.259 1.64492C853.986 2.02451 857.899 2.65722 853.076 2.91028C852.894 2.72049 852.712 2.34086 853.986 2.2776C853.531 2.2776 852.53 2.46745 851.711 2.34093L853.622 2.02449C851.529 1.89796 852.53 2.2776 850.892 2.2776C850.892 1.96128 849.618 2.08776 849.891 1.83471C850.346 1.83471 851.347 1.96123 851.984 1.83471C850.073 1.83471 847.799 1.5816 847.071 1.39181C847.253 1.5816 847.071 1.77144 845.706 1.83471C842.157 1.83471 844.523 1.51847 842.43 1.32868C841.611 1.51847 839.336 1.32853 839.245 1.77138C838.244 1.77138 837.971 1.58167 837.607 1.45514C835.787 1.64493 828.962 1.45505 831.055 1.96116H831.51C831.51 1.96116 831.328 1.96116 831.237 1.96116C825.232 2.40401 818.68 1.70811 812.674 1.96116V1.83471C809.125 2.0245 804.758 1.96122 802.21 2.21427C801.118 2.21427 799.753 1.96117 800.208 1.77138C797.478 1.89791 797.205 2.02444 793.201 1.77138C795.931 1.51833 792.291 1.51833 796.022 1.5816C792.473 1.45507 791.654 1.20201 787.832 1.5816C789.106 1.20201 785.193 1.13877 783.464 1.20203L785.921 1.45514C784.01 1.45514 782.373 1.45514 780.644 1.45514L781.554 0.949112C774.274 0.379738 768.45 1.96133 762.899 0.949112C760.989 1.26543 766.812 1.20201 765.083 1.5816C761.717 1.51833 758.259 0.822461 757.258 0.822461C752.708 0.569406 752.981 1.51847 748.158 1.32868C748.795 1.51847 749.341 1.96116 745.792 2.15095C742.425 2.08768 741.697 1.45515 743.79 1.26535C744.609 1.26535 744.973 1.26529 744.973 1.39181C746.065 1.39181 747.43 1.26536 746.156 1.07557L745.701 1.26535C744.063 1.07556 739.423 1.13878 740.514 0.822461C737.967 1.01225 739.423 1.0755 741.333 1.20203C737.057 0.948973 734.6 1.20204 730.232 1.01225C730.96 1.07551 731.597 1.32868 730.869 1.32868C724.408 1.13889 728.048 1.64498 723.589 1.70825C721.132 1.45519 724.499 1.07562 720.04 1.32868C717.311 1.13889 719.495 0.885856 720.586 0.759329C716.583 1.07565 713.034 0.569483 710.759 0.506219L712.852 0.379568C711.578 0.442832 710.577 0.442893 709.485 0.442893L710.668 0.759329C709.394 0.759329 708.393 0.759143 708.393 0.569352C707.119 0.822407 709.394 1.13882 706.846 1.45514C705.208 1.26535 701.75 1.64488 701.204 1.20203C706.391 1.32856 700.658 0.759267 705.026 0.696003C704.207 0.696003 703.115 0.696003 701.841 0.696003C701.659 0.696003 702.023 0.632616 702.387 0.569352C697.383 0.189768 700.112 1.07557 694.926 1.07557C695.563 0.822515 693.743 0.569413 692.924 0.632677C695.017 0.632677 693.925 1.07556 692.014 1.26535C688.738 1.07556 688.374 1.39181 686.645 1.39181H688.647C688.01 1.7714 686.281 1.70812 684.006 1.77138C683.824 1.58159 686.099 1.64499 685.28 1.51846C682.732 1.96131 679.456 1.07562 675.908 1.32868C674.27 1.13889 675.726 0.822531 674.27 0.696003C670.266 1.01232 669.902 0.316358 665.716 0.632677C666.899 0.948997 667.172 0.88571 664.169 1.20203L671.085 0.949112L666.626 1.45514C668.719 1.45514 671.085 1.26535 672.268 1.26535C670.175 1.51841 670.357 1.45506 671.358 1.77138C668.537 1.26527 665.716 2.0877 662.349 1.77138V0.885787C657.435 0.506204 653.614 1.32869 647.153 1.1389L649.246 1.26535C648.336 1.58167 645.242 1.26535 643.149 1.45514C643.331 1.13882 642.057 1.07558 641.147 0.885787C641.238 1.07558 636.415 0.885764 635.869 1.45514L632.958 1.07557C627.771 0.949043 627.043 1.89791 621.947 1.77138C623.494 1.45506 621.219 1.2653 624.495 1.01225C622.857 1.01225 621.31 1.01237 621.31 1.1389C620.309 0.949105 616.669 1.51841 615.122 1.26535C614.394 1.39188 614.212 1.70819 612.302 1.64492C612.12 1.64492 612.302 1.51846 612.302 1.51846C612.302 1.64499 609.39 1.70817 611.028 2.02449C605.841 1.1388 596.65 2.08785 592.1 1.32868C588.461 1.45521 584.002 1.51846 580.726 1.51846C580.908 1.4552 580.726 1.39181 581.363 1.39181C576.813 1.13876 578.542 2.21435 573.355 1.89803C570.716 1.45518 576.085 1.64493 574.447 1.45514C573.719 0.50618 568.169 1.58162 564.62 1.01225H565.439C562.8 0.632662 558.887 1.32862 554.519 1.26535C554.519 1.26535 554.701 1.20216 554.519 1.1389C551.516 1.64501 545.875 1.7715 541.689 1.89803C542.963 1.51845 543.6 1.70826 542.781 1.32868C540.87 1.32868 543.327 1.96123 539.596 2.02449C538.413 1.8347 535.683 1.64494 535.319 1.26535H538.868C537.048 0.69598 534.227 1.26529 532.407 1.20203L532.68 0.949112C527.221 1.01238 527.13 1.5816 521.306 1.5816L521.943 1.77138C518.758 2.34076 519.304 1.45518 516.028 1.89803L515.027 1.32868C512.934 1.45521 507.656 1.8979 503.835 1.96116C506.019 1.51832 510.386 1.32863 513.116 1.07557C511.023 1.07557 506.018 1.07549 504.927 1.39181C505.746 1.39181 506.837 1.20209 507.656 1.26535C505.109 1.7082 501.742 1.9613 497.556 1.89803C498.284 0.759282 486.727 1.64502 483.634 0.759329C476.263 1.13891 468.983 0.569413 460.43 0.632677C463.523 1.51837 457.882 0.63277 458.428 1.51846C456.426 1.51846 455.698 1.51846 455.516 1.51846L449.419 1.01225C447.963 0.75919 451.33 0.822469 451.148 0.632677C446.78 0.569413 449.328 0.253055 446.416 0C447.053 0.316319 444.869 0.442963 442.413 0.316435L445.961 0.696003C439.865 1.13885 440.684 -0.0632175 434.496 0.442893L436.407 0.189784C433.222 0.379575 424.759 0.189884 421.574 0.885787C421.029 0.759259 420.301 0.569483 421.665 0.506219C414.113 0.379691 404.831 1.26531 398.917 0.822461L399.463 0.632677C398.007 0.632677 397.006 1.01225 395.277 0.822461C395.368 0.759197 395.823 0.632616 395.277 0.569352C394.549 0.632616 391.546 0.948989 389.635 0.822461L391.273 0.569352C383.902 0.316296 379.898 1.13889 373.711 1.32868C373.711 0.696042 367.887 0.506096 364.975 0.379568H365.066C356.422 0.189776 350.416 0.822515 342.499 1.07557C337.585 0.379668 325.756 0.759151 317.839 0.379568C319.022 0.506096 317.657 0.885849 316.201 0.949112C314.382 0.822585 311.015 1.39184 311.379 0.822461H312.016C310.651 0.253086 306.738 0.442832 303.826 0.379568L303.371 1.1389C295.545 0.000146685 282.897 1.51831 278.62 0.569352C276.709 0.759143 274.434 0.759321 272.523 0.949112V0.569352C267.428 0.442824 264.789 0.442824 258.328 0.569352L259.602 0.25311C255.962 0.25311 254.961 1.45514 251.594 1.45514L250.594 0.822461C244.224 0.822461 237.763 0.31635 231.484 0.822461C231.575 0.759197 231.757 0.569483 232.849 0.506219C229.846 0.506219 221.293 0.0634183 222.385 0.949112C222.385 0.379738 215.833 0.949105 212.375 1.1389L212.921 0.759329C210.009 1.26544 209.918 1.39181 205.915 1.5816C204.914 1.5816 205.096 1.26529 206.37 1.39181C203.185 1.20202 203.913 1.77139 200 1.5816L201.456 1.32868C198.18 1.32868 198.453 1.45519 196.633 1.70825C194.54 1.89804 190.354 1.58167 189.899 1.26535C189.444 1.51841 187.624 1.77151 185.714 1.70825C185.441 1.58172 186.169 1.45514 186.533 1.45514C181.073 1.20208 178.343 1.89805 174.521 1.51846C174.521 1.39194 174.157 1.32862 173.884 1.26535C178.252 1.26535 181.801 1.26535 181.437 1.26535C181.437 0.885771 177.888 0.822546 180.709 0.316435C177.888 0.569491 173.065 1.20204 169.607 1.01225C169.425 1.01225 169.243 0.949051 169.152 0.885787H169.516C168.697 0.822523 167.969 0.885787 167.332 0.885787C166.24 0.885787 165.512 0.759329 164.512 0.759329C164.148 0.443009 160.417 0.569352 158.688 0.569352C158.87 0.948935 156.504 0.885771 158.688 1.26535C158.415 1.26535 159.052 1.26529 160.235 1.20203C160.508 1.20203 160.781 1.20203 160.963 1.20203C160.963 1.20203 160.963 1.20203 160.872 1.20203C162.055 1.20203 163.511 1.20203 165.24 1.20203C163.875 1.39182 162.419 1.58174 160.417 1.32868C159.507 1.58174 158.506 1.83464 157.96 1.96116C155.594 1.39179 150.862 1.07565 150.225 0.759329C144.856 1.01238 137.577 0.885756 134.21 1.64492C132.663 1.77145 132.481 1.45521 131.844 1.32868C132.754 1.26542 133.755 1.26542 134.21 1.1389C131.116 1.32869 125.11 1.20201 124.382 1.77138C120.561 1.51833 126.566 1.26529 121.289 1.39181L122.017 1.20203C111.643 0.316335 105.091 2.59389 93.5349 1.45514C94.3539 1.5184 94.7178 1.58166 94.8998 1.64492C81.7054 1.13881 67.7831 2.08785 54.7707 1.32868C51.0399 1.20215 50.6759 1.51833 48.401 1.77138L47.582 1.32868L43.7602 1.83471C38.3005 2.21429 34.2967 0.759236 27.381 1.45514L28.2909 1.77138C25.834 1.77138 20.4653 1.96118 20.8293 1.5816C20.5563 1.5816 20.0103 1.89804 19.0094 1.70825V1.45514L12.8216 1.83471C8.08987 1.64491 13.5496 0.949051 6.63394 0.885787C4.08606 0.949051 -0.645694 1.58172 0.264263 1.70825C1.26522 1.70825 2.90313 1.83476 2.99413 2.08782L0.628219 2.21427C0.173241 2.91018 -1.64668 3.60613 4.17705 4.04898L8.18088 3.60609L9.45482 3.92252H6.08798C7.99889 4.23884 9.18182 3.9224 10.5468 3.79587C10.9107 3.98566 11.4567 4.11217 12.1847 4.17544L16.0975 3.54276C16.5525 3.79582 14.3686 4.04897 17.0075 4.23876C18.8274 3.92244 15.2786 3.66942 18.2814 3.47963C20.1923 3.79595 19.6463 4.04893 21.9212 3.79587C22.1942 3.98566 21.7392 4.11217 20.8293 4.17544C22.8312 3.98565 26.107 4.11213 27.199 3.73255C29.2009 4.11213 33.9327 3.60619 33.7507 4.30209C34.3876 4.17556 37.2995 3.79587 39.1194 3.79587C35.7526 4.55504 46.0351 3.79596 45.1251 4.68166C47.582 3.98575 54.1337 4.36524 58.5015 3.98565C58.2285 3.98565 57.7736 4.17557 57.4096 4.11231C59.8665 4.11231 60.5944 4.36535 62.2323 4.49187C62.5963 3.9225 66.4182 3.79589 68.5111 3.4163C71.5139 3.98568 66.6911 4.11222 67.6011 4.61833C67.4191 4.17548 72.8788 4.17545 71.8779 3.79587C74.2438 4.11219 73.8798 3.9857 75.0627 4.42855C75.4267 3.73265 77.2466 4.30204 79.1575 3.8592C82.5244 4.23878 80.0675 4.55515 83.7073 4.30209C85.4362 4.49188 82.1604 4.74479 82.1604 4.74479L82.7974 4.93457ZM170.881 3.73255C170.153 3.73255 169.516 3.73255 169.061 3.73255C169.425 3.73255 169.971 3.73255 170.881 3.73255ZM178.252 3.73255C177.342 3.73255 176.25 3.73255 175.067 3.73255C174.794 3.60602 175.067 3.41636 175.795 3.47963C175.431 3.54289 177.16 3.66934 178.252 3.79587V3.73255ZM162.601 0.885787C163.784 0.885787 164.148 0.885717 164.33 1.01225C163.784 1.01225 163.147 1.01225 162.237 1.01225C162.237 1.01225 162.146 1.01225 162.055 1.01225C162.146 0.948981 162.328 0.885725 162.51 0.822461L162.601 0.885787Z" fill="#4D4D4D"/>
</svg>
