<svg width="23" height="23" viewBox="0 0 23 23" fill="none" xmlns="http://www.w3.org/2000/svg">
<g clip-path="url(#clip0_797_315)">
<path d="M1.38973 12.3868L1.42274 12.0457L1.42067 12.4148L1.42065 12.4171L1.42061 12.4245L1.42042 12.4594C1.41852 12.4599 1.41658 12.4602 1.41459 12.4606C1.40199 12.4628 1.39086 12.4629 1.38244 12.4621L1.38577 12.4277L1.38644 12.4208L1.38973 12.3868ZM1.46808 12.4649C5.72558 12.5179 7.87675 13.2377 9.02534 14.5949C9.60442 15.2791 9.96664 16.1682 10.1864 17.3264C10.405 18.4789 10.4767 19.8644 10.4981 21.527C5.71451 21.0572 1.92418 17.2538 1.46808 12.4649ZM10.498 1.47261C10.4766 3.13427 10.4048 4.51885 10.1864 5.67064C9.96664 6.82915 9.60442 7.71817 9.02534 8.40242C7.87672 9.75965 5.72556 10.4794 1.46808 10.5346C1.92415 5.74127 5.70994 1.94235 10.498 1.47261ZM12.4651 1.4679C17.2676 1.92855 21.0712 5.73259 21.5273 10.5347C17.2531 10.4817 15.0926 9.76286 13.9396 8.40521C13.3586 7.72104 12.9953 6.83197 12.7754 5.67316C12.5565 4.51982 12.4853 3.13291 12.4651 1.4679ZM13.9438 14.5971C15.0911 13.2451 17.2362 12.5266 21.4704 12.4702L21.5321 12.4724C21.0768 17.2797 17.2729 21.0802 12.4696 21.5409C12.4898 19.8738 12.5609 18.4851 12.7799 17.3303C12.9998 16.1711 13.3629 15.2816 13.9438 14.5971Z" stroke="white" stroke-miterlimit="10"/>
</g>
<defs>
<clipPath id="clip0_797_315">
<rect width="23" height="23" fill="white"/>
</clipPath>
</defs>
</svg>
