<svg width="32" height="32" viewBox="0 0 32 32" fill="none" xmlns="http://www.w3.org/2000/svg">
<g clip-path="url(#clip0_220_10778)">
<path d="M16 32C24.8366 32 32 24.8366 32 16C32 7.16344 24.8366 0 16 0C7.16344 0 0 7.16344 0 16C0 24.8366 7.16344 32 16 32Z" fill="#6C846D"/>
<path d="M11.52 16.9702C11.58 16.9702 11.65 16.9902 11.71 16.9802C12.06 16.9302 12.41 16.9502 12.75 16.8302C12.87 16.7902 13 16.8302 13.14 16.8002C13.3 16.7602 13.46 16.6302 13.64 16.7102C13.81 16.6302 13.98 16.6702 14.16 16.6602C14.31 16.6602 14.47 16.6402 14.61 16.5802C14.85 16.4802 15.1 16.4802 15.35 16.4702C15.68 16.4502 16.01 16.4402 16.33 16.4302C16.66 16.4102 16.98 16.3802 17.31 16.3302C17.64 16.2802 17.99 16.3102 18.33 16.3102C18.75 16.3102 19.16 16.3102 19.58 16.3302C19.75 16.3302 19.93 16.3502 20.1 16.3702C20.21 16.3802 20.32 16.4102 20.42 16.4102C20.5 16.4102 20.55 16.4502 20.62 16.4902C20.75 16.5802 20.91 16.6602 21.08 16.6602C21.3 16.6602 21.51 16.7402 21.72 16.8002C21.85 16.8402 21.97 16.8802 22.1 16.9002C22.58 16.9802 23.01 17.1902 23.45 17.4002C23.47 17.4002 23.48 17.4302 23.49 17.4502C23.46 17.5102 23.42 17.4702 23.38 17.4502C23.36 17.4502 23.34 17.4102 23.32 17.3902L23.23 17.4202V17.4402L23.32 17.3902L23.29 17.4802C23.38 17.6302 23.59 17.6802 23.64 17.8802L23.27 18.0202C23.2 17.9902 23.11 17.9702 23.03 17.9302C22.57 17.7302 22.09 17.6402 21.6 17.5902C21.35 17.5602 21.1 17.5202 20.86 17.4502C20.69 17.4002 20.52 17.3802 20.34 17.4102C20.28 17.4202 20.21 17.4302 20.14 17.4202C19.75 17.3902 19.35 17.3602 18.96 17.3402C18.57 17.3202 18.17 17.2902 17.78 17.3002C16.79 17.3002 15.81 17.3002 14.82 17.3402C13.34 17.4102 11.88 17.6202 10.46 18.0802C9.92997 18.2502 9.38997 18.3802 8.87997 18.6302C8.55997 18.7902 8.23997 18.9702 7.91997 19.1402C7.85997 19.1702 7.79997 19.1902 7.73997 19.2202C7.54997 19.1402 7.45997 19.0102 7.46997 18.8102C7.46997 18.7102 7.44997 18.6202 7.42997 18.5202C7.63997 18.2702 7.86997 18.1602 8.15997 18.1602C8.23331 18.1602 8.33331 18.1235 8.45997 18.0502L8.48997 17.3302C8.48997 17.3302 8.34997 17.2102 8.39997 17.0902C8.42997 17.0002 8.48997 17.0102 8.55997 17.0702C8.65997 16.9302 8.74997 16.8002 8.62997 16.6202C8.74997 16.4902 8.80997 16.3302 8.79997 16.1402C8.93997 15.9502 9.05997 15.7602 9.13997 15.5302C9.23997 15.2702 9.33997 15.0002 9.56997 14.8102C9.58997 14.8002 9.60997 14.7802 9.60997 14.7602C9.62997 14.4902 9.85997 14.3602 9.99997 14.1702C10.24 13.8302 10.47 13.4902 10.65 13.1102C10.68 13.0402 10.72 12.9602 10.77 12.9302C10.93 12.8402 11.01 12.6902 11.11 12.5402C11.2 12.4002 11.3 12.2702 11.46 12.2402C11.49 12.1502 11.49 12.0602 11.53 12.0102C11.66 11.8802 11.72 11.7202 11.82 11.5802L11.91 11.5502L11.87 11.5002C12.15 11.3802 12.38 11.1902 12.59 10.9802C12.72 10.8602 12.86 10.7702 13 10.6802C13.16 10.5302 13.34 10.4002 13.42 10.1802C13.46 10.0802 13.58 10.0102 13.66 9.93018C13.66 9.93018 13.66 9.87018 13.66 9.83018C13.76 9.89018 13.79 9.88018 13.87 9.75018C13.96 9.77018 14.01 9.71018 14.07 9.67018C14.49 9.36018 14.91 9.05018 15.34 8.76018C15.71 8.51018 16.1 8.29018 16.48 8.06018C16.64 7.97018 16.8 7.88018 16.96 7.79018C17.02 7.87018 17.03 7.87018 17.11 7.79018C17.21 7.79018 17.31 7.79018 17.42 7.79018C17.42 7.79018 17.44 7.79018 17.45 7.77018C17.45 7.77018 17.45 7.76018 17.45 7.75018L17.41 7.80018C17.45 7.72018 17.51 7.67018 17.62 7.70018C17.68 7.72018 17.71 7.66018 17.75 7.62018C17.77 7.62018 17.79 7.62018 17.81 7.63018V7.61018C17.81 7.61018 17.76 7.62018 17.74 7.63018L17.87 7.51018C18 7.60018 18.14 7.61018 18.3 7.56018C18.39 7.53018 18.49 7.53018 18.64 7.52018L18.47 7.75018C18.67 7.84018 18.9 7.81018 19.1 7.92018C19.09 7.96018 19.08 7.98018 19.07 8.01018C19.05 8.04018 19.03 8.06018 19.02 8.09018C19.02 8.11018 19.02 8.14018 19.04 8.15018C19.12 8.28018 19.18 8.42018 19.35 8.46018C19.4 8.47018 19.45 8.56018 19.45 8.61018C19.45 8.75018 19.53 8.85018 19.6 8.96018L19.66 8.99018L19.6 8.95018L19.84 9.10018C19.85 9.29018 19.97 9.44018 20.08 9.59018C20.09 9.73018 20.13 9.86018 20.25 9.96018C20.16 10.0402 20.21 10.1402 20.24 10.2302C20.28 10.3802 20.34 10.5202 20.39 10.6702C20.43 10.7802 20.45 10.9002 20.44 11.0202C20.44 11.1102 20.44 11.2402 20.5 11.3002C20.61 11.4202 20.6 11.5602 20.62 11.7102C20.67 11.6902 20.72 11.6802 20.75 11.6602C21.03 11.5002 21.31 11.3302 21.6 11.1602C21.69 11.1102 21.8 11.0702 21.9 11.0302C22.06 10.9602 22.2 11.0202 22.31 11.1402C22.4 11.2302 22.49 11.3302 22.57 11.4302C22.61 11.4702 22.64 11.5202 22.66 11.5702C22.71 11.7402 22.82 11.8802 22.91 12.0302C23.11 12.3402 23.31 12.6602 23.46 13.0102C23.55 13.0602 23.64 13.1102 23.74 13.1602C23.83 13.2102 23.9 13.1902 23.97 13.1202C24.08 13.0102 24.18 12.9002 24.29 12.7902C24.43 12.6502 24.6 12.5902 24.78 12.5402C24.84 12.5202 24.92 12.5402 24.97 12.5602C25.07 12.6202 25.17 12.7002 25.24 12.7902C25.49 13.1002 25.71 13.4202 25.96 13.7302C26.15 13.9702 26.28 14.2602 26.54 14.4402C26.57 14.4602 26.61 14.5102 26.61 14.5502C26.61 14.7202 26.72 14.8302 26.78 14.9602C26.85 15.1102 26.92 15.2502 26.94 15.4202C26.97 15.6402 27.04 15.8402 27.09 16.0602C27.13 16.2902 27.17 16.5102 27.2 16.7402C27.22 16.8702 27.23 17.0002 27.36 17.0802C27.39 17.1002 27.4 17.1702 27.41 17.2202C27.41 17.2402 27.41 17.2602 27.39 17.2802C27.22 17.6002 27.24 17.9602 27.2 18.3102C27.16 18.6402 27.14 18.9602 27.09 19.2902C27.06 19.4802 27.01 19.6702 26.96 19.8702H26.97C26.97 19.8702 26.91 19.9702 26.88 20.0302C26.88 20.0502 26.88 20.0602 26.88 20.0502C26.88 20.0602 26.88 20.0502 26.88 20.0202L26.97 20.0702C26.94 20.1802 26.93 20.3002 26.89 20.4102C26.79 20.6602 26.66 20.9102 26.57 21.1602C26.44 21.5102 26.24 21.8202 26.05 22.1402C25.88 22.4202 25.69 22.6802 25.5 22.9502C25.46 23.0002 25.41 23.0402 25.36 23.0802C25.01 23.3802 24.72 23.7402 24.39 24.0602C24.35 24.1002 24.31 24.1402 24.29 24.1902C24.22 24.3702 24.08 24.4902 23.92 24.5902C23.59 24.8002 23.26 25.0202 22.89 25.1702C22.66 25.2602 22.44 25.3902 22.22 25.5202C21.81 25.7902 21.36 26.0002 20.91 26.2002C20.29 26.4702 19.63 26.5902 18.99 26.7602C18.63 26.8602 18.26 26.9202 17.9 26.9902C17.84 27.0002 17.77 27.0202 17.7 27.0202C17.13 27.0002 16.56 27.0902 16 27.1102C15.85 27.1102 15.69 27.1402 15.54 27.1402C14.34 27.1602 13.16 27.0502 12.01 26.6502C11.7 26.5402 11.39 26.4302 11.08 26.3302C10.43 26.1002 9.84997 25.7602 9.27997 25.3902C8.93997 25.1702 8.59997 24.9502 8.26997 24.7202C8.13997 24.6302 7.99997 24.5402 7.93997 24.3702C7.91997 24.3102 7.83997 24.2602 7.77997 24.2102C7.45997 23.9402 7.16997 23.6502 6.89997 23.3302C6.78997 23.2002 6.64997 23.0902 6.51997 22.9602C6.24997 22.6902 6.07997 22.3602 5.90997 22.0302C5.53997 21.3302 5.21997 20.6102 5.03997 19.8402C4.95997 19.4902 4.87997 19.1402 4.85997 18.7802C4.85997 18.6502 4.81997 18.5202 4.77997 18.4002C4.66997 18.0502 4.62997 17.6902 4.64997 17.3302C4.65997 17.0402 4.62997 16.7402 4.74997 16.4502C4.74997 16.4502 4.74997 16.4302 4.74997 16.4202C4.69997 16.0902 4.82997 15.8002 4.90997 15.5002C5.01997 15.1102 5.08997 14.7102 5.16997 14.3102C5.16997 14.2902 5.15997 14.2702 5.14997 14.2502C5.20997 14.2002 5.25997 14.1502 5.21997 14.0602C5.27997 14.0102 5.31997 13.9402 5.28997 13.8602C5.34997 13.8102 5.38997 13.7502 5.35997 13.6602C5.44997 13.5702 5.48997 13.4502 5.47997 13.3402C5.47997 13.1302 5.55997 12.9502 5.63997 12.7802C5.94997 12.1302 6.24997 11.4702 6.59997 10.8402C7.04997 10.0002 7.60997 9.23018 8.28997 8.55018C8.65997 8.18018 9.04997 7.82018 9.42997 7.47018C9.56997 7.34018 9.73997 7.23018 9.89997 7.11018C9.92997 7.09018 9.95997 7.08018 9.97997 7.05018C10.26 6.74018 10.65 6.57018 10.98 6.32018C11.18 6.17018 11.39 6.03018 11.6 5.90018C11.71 5.82018 11.82 5.71018 11.98 5.80018C12.07 5.75018 12.2 5.73018 12.26 5.65018C12.39 5.48018 12.55 5.39018 12.75 5.31018L12.93 5.40018V5.23018C13.31 5.02018 13.73 4.94018 14.16 4.93018C14.16 4.93018 14.16 4.93018 14.17 4.94018C14.17 4.99018 14.19 5.05018 14.2 5.10018C14.08 5.20018 13.93 5.19018 13.79 5.23018C13.6 5.29018 13.41 5.34018 13.26 5.48018C13.14 5.46018 13.05 5.50018 12.99 5.62018L13.17 5.71018C13.32 5.65018 13.46 5.58018 13.62 5.53018C13.76 5.48018 13.92 5.45018 14.07 5.43018C14.17 5.42018 14.29 5.38018 14.38 5.52018C14.35 5.54018 14.33 5.58018 14.29 5.59018C14.17 5.62018 14.06 5.64018 13.94 5.66018C13.87 5.66018 13.81 5.66018 13.77 5.73018C13.75 5.76018 13.69 5.77018 13.66 5.77018C13.55 5.74018 13.48 5.78018 13.39 5.83018C13.21 5.94018 13.02 6.02018 12.83 6.10018C12.49 6.25018 12.15 6.40018 11.83 6.59018C11.69 6.67018 11.55 6.76018 11.51 6.94018C11.51 6.98018 11.44 7.02018 11.4 7.05018C11.2 7.19018 11.01 7.32018 10.81 7.46018C10.75 7.50018 10.69 7.56018 10.73 7.65018C10.71 7.60018 10.68 7.58018 10.63 7.62018C10.59 7.65018 10.55 7.70018 10.52 7.73018L10.4 7.86018C10.33 8.03018 10.16 8.08018 10.03 8.17018L9.85997 8.34018C9.85997 8.34018 9.85997 8.39018 9.85997 8.40018C9.64997 8.68018 9.43997 8.95018 9.22997 9.23018C9.17997 9.29018 9.12997 9.35018 9.06997 9.39018C8.79997 9.58018 8.60997 9.84018 8.43997 10.1202C8.16997 10.5602 7.87997 11.0002 7.58997 11.4302C7.58997 11.4302 7.56997 11.4302 7.55997 11.4302L7.49997 11.4502V11.5802C7.45997 11.6802 7.41997 11.7802 7.36997 11.8702C7.20997 12.2102 7.02997 12.5302 6.87997 12.8702C6.76997 13.1102 6.68997 13.3602 6.60997 13.6102C6.39997 14.2202 6.28997 14.8602 6.21997 15.5002C6.15997 16.0302 6.13997 16.5702 6.13997 17.1102C6.13997 17.5902 6.23997 18.0702 6.33997 18.5402C6.36997 18.7002 6.40997 18.8602 6.44997 19.0202C6.45997 19.0702 6.46997 19.1302 6.48997 19.1802C6.67997 19.6702 6.86997 20.1602 7.15997 20.6002C7.52997 21.1702 7.91997 21.7202 8.38997 22.2202C8.56997 22.4102 8.76997 22.5802 8.96997 22.7502C9.34997 23.0702 9.72997 23.3802 10.15 23.6402C10.41 23.8002 10.64 24.0002 10.92 24.1302C11.65 24.4502 12.35 24.8302 13.14 25.0202C13.28 25.0502 13.42 25.0902 13.56 25.1202C13.6 25.1302 13.66 25.1202 13.69 25.1502C13.9 25.3102 14.15 25.2702 14.38 25.3102C14.78 25.3802 15.18 25.4402 15.58 25.4802C16.09 25.5402 16.28 25.5702 16.7 25.5302C16.81 25.5202 16.91 25.5102 17.02 25.5002C17.04 25.5002 17.06 25.5002 17.07 25.4902C17.07 25.4902 17.09 25.4802 17.09 25.4702C17.09 25.4702 17.07 25.4702 17.06 25.4802C17.04 25.4802 17.02 25.4902 17.01 25.5002C17.06 25.4802 17.12 25.4402 17.16 25.4502C17.42 25.5302 17.68 25.4602 17.93 25.4102C19.12 25.1602 20.23 24.7302 21.3 24.1602C21.65 23.9702 22 23.8002 22.34 23.6002C22.6 23.4502 22.87 23.3002 23.08 23.0702C23.17 22.9702 23.28 22.9002 23.38 22.8202C23.79 22.5002 24.07 22.0702 24.33 21.6202C24.62 21.1302 24.86 20.6102 25.05 20.0802C25.07 20.0202 25.12 19.9702 25.15 19.9202L25.17 19.9702L25.14 19.9302C25.17 19.6302 25.3 19.3602 25.36 19.0802C25.36 19.0502 25.39 19.0202 25.41 19.0002C25.57 18.9002 25.61 18.7402 25.62 18.5802C25.62 18.3702 25.74 18.1902 25.78 17.9902C25.84 17.6502 25.83 17.3102 25.78 16.9802C25.7 16.4702 25.58 15.9702 25.49 15.4602C25.47 15.3302 25.45 15.2002 25.46 15.0702C25.47 14.9202 25.46 14.7902 25.41 14.6502C25.31 14.2902 25.16 13.9502 24.98 13.6202C24.91 13.5002 24.84 13.3702 24.7 13.3002C24.35 13.5402 24.12 13.8902 23.79 14.1802C23.73 14.1102 23.67 14.0602 23.63 14.0002C23.36 13.6002 23.09 13.2002 22.82 12.8102C22.73 12.6902 22.61 12.5902 22.56 12.4402C22.55 12.3902 22.49 12.3602 22.44 12.3302C22.4 12.3002 22.34 12.2802 22.3 12.2502C22.06 12.0102 21.79 12.0302 21.51 12.1302C21.17 12.2502 20.85 12.4302 20.55 12.6302C20.04 12.9802 19.54 13.3302 19.04 13.6902C18.94 13.7602 18.84 13.8202 18.75 13.8702C18.67 13.8202 18.71 13.7802 18.73 13.7402C18.81 13.5902 18.95 13.4602 18.97 13.2702C18.97 13.1702 19.08 13.0802 19.15 13.0002C19.26 12.8802 19.38 12.7602 19.49 12.6502C19.62 12.5202 19.7 12.3702 19.65 12.1802C19.57 11.8602 19.49 11.5402 19.41 11.2302C19.33 10.9302 19.24 10.6402 19.14 10.3502C18.98 9.89018 18.73 9.48018 18.45 9.08018C18.37 8.96018 18.28 8.85018 18.11 8.88018C17.93 8.74018 17.75 8.84018 17.58 8.88018C17.34 8.94018 17.13 9.06018 16.93 9.20018C16.63 9.41018 16.33 9.60018 16.03 9.81018C15.36 10.2702 14.73 10.7802 14.15 11.3502C13.79 11.7102 13.43 12.0602 13.09 12.4302C12.6 12.9502 12.17 13.5202 11.81 14.1402C11.57 14.5602 11.35 14.9902 11.13 15.4102C11.1 15.4702 11.06 15.5202 11.02 15.5802C10.84 15.8902 10.75 16.2202 10.7 16.5702C10.69 16.6602 10.66 16.7402 10.64 16.8302C10.61 16.9502 10.59 17.0602 10.55 17.2002C10.72 17.2602 10.86 17.3202 11.01 17.1902C11.14 17.1902 11.24 17.0702 11.38 17.1202C11.43 17.1402 11.5 17.0802 11.56 17.0602L11.52 16.9702ZM23.52 13.3102L23.54 13.3602L23.56 13.3302H23.51C23.51 13.3302 23.53 13.3002 23.52 13.2902C23.51 13.2702 23.5 13.2402 23.48 13.2202V13.2402C23.48 13.2402 23.5 13.2802 23.51 13.3002L23.52 13.3102ZM20.34 11.6302C20.29 11.6802 20.26 11.7402 20.35 11.8002L20.33 11.6402L20.26 11.5002L20.24 11.5202C20.24 11.5202 20.31 11.6002 20.34 11.6502V11.6302ZM12.24 5.86018C12.17 5.91018 12.09 5.96018 12.02 6.02018L11.96 6.06018H11.99C11.99 6.06018 12.01 6.03018 12.02 6.01018C12.2 6.01018 12.2 6.01018 12.25 5.87018C12.25 5.87018 12.27 5.87018 12.28 5.87018C12.28 5.87018 12.29 5.87018 12.3 5.88018H12.26L12.24 5.86018Z" fill="white"/>
<path d="M12.76 20.55C12.78 20.82 12.74 21.03 12.63 21.23C12.53 21.4 12.44 21.58 12.32 21.73C12.06 22.09 11.72 22.34 11.26 22.36C11.06 22.36 10.85 22.4 10.65 22.42C10.46 22.43 10.28 22.39 10.11 22.3C9.88998 22.18 9.67998 22.04 9.47998 21.89C9.25998 21.72 9.10998 21.48 9.02998 21.22C8.96998 21.02 8.91998 20.82 8.87998 20.62C8.81998 20.31 8.87998 20.01 8.99998 19.72C9.12998 19.42 9.34998 19.18 9.64998 19.06C9.93998 18.94 10.25 18.85 10.55 18.75C10.62 18.73 10.7 18.73 10.78 18.73C10.81 18.73 10.86 18.73 10.87 18.74C10.97 18.92 11.16 18.84 11.3 18.89C11.5 18.95 11.69 19.02 11.9 18.98C11.92 18.98 11.95 18.98 11.96 19C12.04 19.15 12.23 19.18 12.33 19.3C12.46 19.46 12.59 19.63 12.6 19.85C12.6 19.97 12.63 20.08 12.68 20.19C12.74 20.31 12.74 20.47 12.75 20.56L12.76 20.55ZM10.68 21.81C11 21.84 11.27 21.65 11.58 21.62C11.6 21.62 11.62 21.6 11.64 21.59C11.89 21.39 12.1 21.18 12.09 20.83C12.09 20.77 12.11 20.7 12.12 20.64C12.16 20.25 12.15 19.87 11.75 19.64C11.75 19.64 11.73 19.63 11.73 19.62C11.64 19.45 11.48 19.42 11.32 19.38C11.05 19.31 10.78 19.28 10.51 19.31C10.23 19.34 9.94998 19.43 9.78998 19.7C9.69998 19.85 9.57998 19.99 9.50998 20.14C9.28998 20.68 9.32998 21.18 9.83998 21.54C10.1 21.72 10.38 21.83 10.69 21.82L10.68 21.81Z" fill="white"/>
<path d="M21.36 19.8004C21.39 20.1904 21.23 20.5204 20.98 20.8104C20.83 20.9804 20.66 21.1404 20.45 21.2504C20.35 21.3004 20.25 21.3604 20.15 21.3704C19.81 21.4204 19.46 21.4804 19.11 21.4104C18.54 21.3004 18.14 20.9804 17.91 20.4404C17.74 20.0404 17.75 19.6304 17.85 19.2204C17.88 19.0804 17.92 18.9504 18.07 18.8804C18.13 18.8504 18.16 18.7604 18.18 18.6904C18.24 18.4304 18.43 18.3204 18.66 18.2504C18.89 18.1804 19.13 18.1404 19.36 18.0904C19.68 18.0204 19.99 18.0504 20.28 18.2204C20.36 18.2704 20.45 18.3204 20.55 18.3504C20.92 18.4504 21.1 18.7304 21.23 19.0504C21.32 19.2904 21.37 19.5304 21.36 19.8004ZM20.5 18.9104C20.29 18.5604 19.99 18.3904 19.57 18.4504C19.54 18.4504 19.5 18.4504 19.47 18.4504C19 18.5104 18.68 18.7504 18.54 19.2104C18.51 19.3204 18.48 19.4504 18.48 19.5604C18.44 20.1104 18.68 20.5304 19.14 20.8204C19.19 20.8504 19.26 20.8604 19.33 20.8704C19.66 20.9204 19.96 20.8604 20.25 20.7004C20.37 20.6304 20.5 20.5404 20.57 20.4304C20.83 20.0304 20.89 19.6004 20.68 19.1504C20.63 19.0504 20.6 18.9504 20.49 18.8904L20.5 18.9104Z" fill="white"/>
<path d="M23.29 13.9202C23.08 13.9702 22.95 13.8502 22.85 13.7402C22.74 13.6202 22.67 13.4702 22.58 13.3202C22.29 13.3702 22.04 13.4802 21.8 13.6402C21.61 13.7702 21.42 13.9002 21.22 14.0202C21.09 14.1002 20.94 14.1402 20.78 14.1202C20.53 14.0902 20.41 13.9902 20.35 13.7402C20.33 13.6802 20.32 13.6102 20.31 13.5502C20.19 13.4902 20.09 13.5602 20 13.5902C19.89 13.6302 19.78 13.6902 19.67 13.7302C19.62 13.7502 19.56 13.7602 19.52 13.6802C19.71 13.5402 19.91 13.4102 20.12 13.3102C20.25 13.2402 20.39 13.2302 20.53 13.3102C20.59 13.3502 20.62 13.4002 20.62 13.4702C20.62 13.5602 20.62 13.6402 20.62 13.7302C20.63 13.8002 20.69 13.8402 20.77 13.8302C20.91 13.8102 21.05 13.7902 21.17 13.7102C21.35 13.5902 21.54 13.4802 21.72 13.3602C21.93 13.2202 22.17 13.1302 22.41 13.0702C22.64 13.0102 22.74 13.0602 22.84 13.2602C22.92 13.4302 23 13.5902 23.16 13.7102C23.21 13.7502 23.23 13.8402 23.27 13.9202H23.29Z" fill="white"/>
<path d="M9.83008 8.30037L10.0001 8.13037C9.98008 8.25037 9.96008 8.27037 9.83008 8.30037Z" fill="white"/>
<path d="M7.46996 11.4204L7.52996 11.4004C7.52996 11.4604 7.52996 11.5204 7.45996 11.5504V11.4204H7.46996Z" fill="white"/>
<path d="M26.9402 19.8301L27.0402 19.8801L26.9402 20.0401V19.8301H26.9302H26.9402Z" fill="white"/>
<path d="M13.6501 9.95018L13.5801 9.93018H13.6001C13.6001 9.93018 13.6301 9.93018 13.6501 9.95018Z" fill="white"/>
<path d="M8.68994 16.1201L8.70994 16.2301H8.68994V16.1201Z" fill="white"/>
<path d="M27.1299 19.56L27.1099 19.58V19.56C27.1099 19.56 27.1099 19.55 27.1299 19.54V19.57V19.56Z" fill="white"/>
<path d="M8.55004 16.56L8.64004 16.5C8.64004 16.5 8.64004 16.57 8.64004 16.61C8.64004 16.61 8.63004 16.63 8.62004 16.64C8.62004 16.64 8.56004 16.59 8.54004 16.56H8.55004Z" fill="white"/>
<path d="M8.5498 16.5601L8.5798 16.6801H8.5598V16.5601H8.5498Z" fill="white"/>
<path d="M8.68992 16.13C8.68992 16.13 8.76992 16.09 8.77992 16.16C8.77992 16.16 8.70992 16.14 8.66992 16.13H8.68992Z" fill="white"/>
<path d="M8.82006 15.9104L8.81006 15.8804H8.83006L8.82006 15.9104Z" fill="white"/>
<path d="M5.12988 14.2104V14.1304H5.14988C5.14988 14.1304 5.13988 14.1804 5.12988 14.2104Z" fill="white"/>
<path d="M13.0002 10.6904L12.9702 10.6504C12.9702 10.6504 12.9802 10.6504 12.9902 10.6704C12.9902 10.6704 12.9902 10.6904 12.9902 10.7004L13.0002 10.6904Z" fill="white"/>
<path d="M13.86 9.77012H13.71C13.71 9.77012 13.81 9.75012 13.86 9.77012Z" fill="white"/>
<path d="M20.1099 9.58031L20.1299 9.60031V9.57031H20.1099V9.58031Z" fill="white"/>
<path d="M20.11 9.57023H20.04L20.07 9.49023L20.11 9.58023V9.57023Z" fill="white"/>
<path d="M19.9997 9.33006L19.9897 9.31006H20.0097L19.9997 9.33006Z" fill="white"/>
<path d="M19.76 8.94994C19.76 8.94994 19.8 8.97994 19.8 8.99994C19.8 9.01994 19.8 9.04994 19.8 9.07994L19.75 8.93994L19.76 8.94994Z" fill="white"/>
<path d="M16.9399 7.80024C16.9899 7.74024 17.0299 7.78024 17.0799 7.80024H16.9399Z" fill="white"/>
<path d="M10.48 7.69039L10.64 7.65039L10.48 7.68039V7.69039Z" fill="white"/>
<path d="M17.6799 7.42041L17.6999 7.43041L17.6699 7.44041L17.6799 7.42041Z" fill="white"/>
<path d="M10.4702 19.8701C10.1602 20.0201 10.0002 20.2901 10.0402 20.6001C10.0902 20.9101 10.3402 21.1401 10.6702 21.1701C10.8602 21.1901 11.0402 21.1601 11.2002 21.0401C11.5902 20.7701 11.6002 20.2301 11.2202 19.9501C11.1402 19.8901 11.0502 19.8501 10.9702 19.8001C10.9702 19.7301 11.0102 19.7201 11.0502 19.7301C11.1202 19.7501 11.1902 19.7901 11.2402 19.8201C11.3702 19.7701 11.2902 19.5801 11.4602 19.5801C11.5902 19.7401 11.7302 19.9101 11.8602 20.0801C11.9202 20.1601 11.8902 20.2301 11.7902 20.2401C11.7402 20.2401 11.6802 20.2401 11.6202 20.2401V20.5801L11.8702 20.6801C11.7002 21.0001 11.5102 21.2601 11.1902 21.4601L11.0402 21.3001L10.7802 21.3201L10.5402 21.6301C10.4402 21.6001 10.3602 21.5701 10.2702 21.5601C10.1602 21.5401 10.0602 21.5001 9.98019 21.4201C9.97019 21.4001 9.95019 21.3901 9.94019 21.3701C9.87019 21.3101 9.74019 21.3201 9.74019 21.1901C9.74019 21.0701 9.85019 21.0401 9.91019 20.9601L9.97019 20.8901L9.89019 20.6401C9.61019 20.6001 9.60019 20.5801 9.67019 20.3301C9.72019 20.1701 9.77019 20.0201 9.83019 19.8601C9.87019 19.7701 9.97019 19.7301 10.0402 19.7901C10.1302 19.8801 10.2302 19.8701 10.3402 19.8601C10.3802 19.8601 10.4302 19.8701 10.4702 19.8801V19.8701Z" fill="white"/>
<path d="M10.4801 19.8704C10.2201 19.4904 10.3201 19.4804 10.6601 19.4504C10.7701 19.4404 10.8701 19.4204 10.9801 19.4004C11.0001 19.4304 11.0301 19.4604 11.0301 19.4804C11.0001 19.6204 10.9301 19.7404 10.7701 19.7804C10.6701 19.8104 10.5501 19.7804 10.4701 19.8804L10.4801 19.8704Z" fill="white"/>
<path d="M20.4999 18.9103C20.4999 19.0103 20.5599 19.1103 20.4799 19.1903C20.3899 19.2803 20.4499 19.3703 20.4799 19.4603C20.4999 19.5603 20.5799 19.5603 20.6499 19.5903C20.7199 19.7603 20.6999 19.9303 20.6199 20.1003C20.5899 20.1603 20.5399 20.2103 20.4599 20.1903C20.4099 20.1703 20.3599 20.1603 20.3099 20.2003C20.2599 20.2503 20.2499 20.3103 20.2699 20.3803C20.2699 20.4003 20.2699 20.4203 20.2699 20.4503C20.1999 20.5103 20.1299 20.5803 20.0399 20.6203C19.8899 20.6903 19.7399 20.7603 19.6099 20.5703C19.5599 20.5003 19.4599 20.4703 19.3799 20.5603C19.2599 20.6803 19.1299 20.6303 19.0199 20.5803C18.8899 20.5203 18.7699 20.4303 18.7599 20.2703C18.7599 20.1703 18.7199 20.0603 18.8199 19.9603C18.8799 19.9003 18.8399 19.8003 18.7699 19.7703C18.6799 19.7203 18.6399 19.6603 18.6199 19.5703C18.5899 19.4703 18.6099 19.3703 18.6499 19.2803C18.6899 19.2003 18.7299 19.1303 18.7799 19.0303C18.8599 19.0303 18.9299 19.0303 18.9999 19.0303C19.0499 19.0303 19.0999 18.9903 19.1399 18.9603C19.1999 18.9203 19.1599 18.8603 19.1399 18.8103C19.1399 18.7903 19.1399 18.7703 19.1399 18.7203C19.2799 18.6803 19.4199 18.6303 19.5599 18.5803C19.6299 18.5603 19.6799 18.6003 19.6999 18.6803C19.6999 18.7003 19.6999 18.7203 19.6999 18.7503C19.6999 18.7703 19.6899 18.7903 19.6799 18.8103C19.5599 18.8603 19.4299 18.9003 19.3199 18.9603C18.9899 19.1503 18.8299 19.5303 18.9399 19.8903C18.9999 20.0903 19.1199 20.2303 19.3499 20.2703C19.5699 20.3003 19.7799 20.3203 19.9999 20.2503C20.1499 20.2103 20.2499 20.1103 20.3099 19.9703C20.4299 19.6703 20.4199 19.3903 20.1999 19.1403C20.1599 19.0903 20.1099 19.0403 20.0699 18.9903C19.9499 18.8403 19.9599 18.8103 20.1599 18.6503C20.2899 18.7203 20.3399 18.9003 20.5199 18.9103H20.4999Z" fill="white"/>
</g>
<defs>
<clipPath id="clip0_220_10778">
<rect width="32" height="32" fill="white"/>
</clipPath>
</defs>
</svg>
