<svg width="66" height="66" viewBox="0 0 66 66" fill="none" xmlns="http://www.w3.org/2000/svg">
<path d="M64.7001 32.732C64.7001 50.3875 50.3875 64.7001 32.732 64.7001C15.0765 64.7001 0.763925 50.3875 0.763925 32.732C0.763925 15.0765 15.0765 0.763925 32.732 0.763925C50.3875 0.763925 64.7001 15.0765 64.7001 32.732Z" fill="#C5B097" stroke="#6C846D" stroke-width="1.52785"/>
<path d="M56.1968 39.9125C56.4226 40.0973 56.2994 39.6251 56.4021 39.9947C56.2789 40.0357 56.1763 40.0563 56.1968 39.9125Z" fill="white"/>
<path d="M9.61504 39.1967C9.57413 37.9897 10.9448 37.5396 11.1698 36.4349C11.2107 36.3122 11.4767 36.7213 11.579 36.4349C11.7017 35.2893 12.9292 34.3073 14.0339 33.6731L14.0748 33.7959C14.2794 33.6731 14.1362 33.2026 14.3407 33.0594C14.4021 33.1003 14.3816 33.1822 14.5044 33.2231C14.3612 33.0185 14.6885 32.8139 14.6067 32.6298C14.7499 32.6298 14.8931 32.7321 15.0363 32.7116L14.9135 32.4252C14.6271 31.7297 15.5273 31.7297 15.5682 31.116C15.6091 31.1773 15.6091 31.2387 15.6909 31.2592C15.8955 30.359 16.5911 29.5816 17.0616 28.7633C17.123 28.8452 17.2252 28.9884 17.348 29.0088C17.1434 28.7838 17.2662 28.5179 17.3889 28.2928C17.6958 28.3951 17.4503 27.7814 17.7571 27.6586L17.798 27.72C17.6958 27.3518 18.1458 27.5768 17.9617 27.2086L18.2277 27.2495C17.9617 26.9222 18.5959 27.1472 18.5345 26.8608L18.4527 26.8199C18.4731 26.6153 18.6982 26.6767 18.7391 26.513H18.78C18.9232 26.1652 19.2301 26.1448 18.9641 25.9607C19.2505 26.022 18.8414 26.3084 19.271 26.3903C19.762 25.2242 20.5803 24.3036 21.3167 23.3421C21.5009 23.3216 21.5827 23.2807 21.7054 23.3421C21.7259 23.1989 21.9509 22.9534 21.8691 22.7488C21.8691 22.7897 22.0532 22.7897 22.0941 22.7488C22.3192 22.6465 21.9509 22.3397 22.2169 22.2374C22.2169 22.3601 22.2987 22.4624 22.401 22.5033C22.3192 22.176 22.5237 21.9919 22.626 21.7464C22.626 21.8078 22.626 21.8692 22.7283 21.9305C22.6669 21.5418 23.0761 21.5828 23.0761 21.2964L23.1784 21.4805C23.5875 21.3168 22.9329 21.1531 23.2397 20.969C23.2397 21.0713 23.3216 21.0918 23.3625 21.1531C23.2807 20.7031 23.6694 20.3758 23.7716 20.0689C23.7716 20.0894 23.833 20.1303 23.833 20.1303C23.9967 19.8439 24.3035 19.6393 24.4058 19.2506C24.549 19.1892 24.7331 19.5779 24.8968 19.2506C24.5899 19.0256 25.1423 18.6778 24.6718 18.5755C24.8968 18.3709 25.306 18.105 25.3264 17.8595C25.3469 18.0641 25.7765 18.0232 25.6537 18.2482H25.9401C26.0424 18.3709 25.7765 18.3709 25.9606 18.4323C26.022 18.33 26.1243 17.9413 26.247 17.9004C26.2061 17.5731 26.0015 17.1435 26.1856 16.8162C26.1856 17.0412 26.5743 17.0003 26.5539 17.123L26.3084 16.2638C26.3697 16.1615 26.5539 16.4275 26.5948 16.2229C26.5129 16.1615 26.5129 16.0592 26.472 15.9774C26.5334 15.9774 26.7175 15.5069 27.0448 15.691C27.188 15.7319 26.9835 15.8956 27.1676 15.8751C27.3108 15.691 27.2085 15.6092 27.3517 15.425H27.3926C27.5358 15.3637 27.5358 14.9954 27.2699 14.9954C27.188 15.0773 27.4745 15.0977 27.2699 15.1591C27.1676 14.9341 27.2699 14.6886 27.4131 14.5045C27.4131 14.6067 27.4949 14.6477 27.5563 14.7499C27.5154 14.3203 27.6381 14.0135 27.7609 13.6657C27.6177 13.543 27.945 13.9726 27.8222 13.9521C28.2928 13.7475 28.1086 13.0111 28.6201 12.9497C28.6201 13.0111 28.395 12.8269 28.436 12.8474C28.5792 12.7042 28.7837 12.8474 28.7837 12.6837C28.9065 12.7656 28.8451 12.5201 28.9065 12.3769C28.8656 12.2541 28.9883 12.3769 28.9065 12.4996C28.9269 12.2541 29.2338 11.4972 29.7043 11.2722C29.6225 11.2108 29.5816 10.8221 29.6634 10.7403L29.8271 10.9244C29.9907 10.9449 30.0316 10.6175 30.2362 10.6994C30.1339 10.3516 29.8475 11.5995 29.868 11.1903C30.0726 11.2517 29.8475 10.6175 30.0521 10.8835C30.1748 10.7198 30.2158 10.2288 30.5431 10.1675C30.4612 10.2084 30.6044 10.5971 30.7477 10.413C30.9727 10.0652 30.7477 10.2288 30.9113 9.90152L30.9931 9.63557C30.8909 9.39008 31.2591 9.34917 31.0341 9.22642C31.1568 9.39008 31.4023 8.57178 31.525 9.0423L31.5864 9.431C31.6887 9.26734 31.6682 8.83773 31.7296 8.55132C31.7501 8.55132 31.791 8.6127 31.8114 8.67407C31.7296 8.06034 32.0978 8.36721 32.1797 7.69211C32.3229 7.63074 32.4865 7.44662 32.6297 7.28296C32.7729 7.50799 32.9161 7.73302 32.9571 8.01943C33.1616 8.03989 33.3867 8.0808 33.5912 8.48995C33.5299 8.48995 33.4685 8.42858 33.4276 8.53087C33.5299 8.87864 33.5912 8.7559 33.7344 8.83773C33.6935 8.87864 33.9186 9.49237 33.9595 9.81969C34.1845 9.90152 34.2663 9.59466 34.3686 9.47191C34.2868 10.0856 35.1051 9.94243 35.0642 10.5562C34.9414 10.5152 34.6346 10.372 34.7164 10.638C34.5527 11.1494 35.2892 10.8221 35.2892 11.1903L35.5347 10.9039C35.4324 11.1494 35.9848 11.129 35.6575 11.3335C35.8211 11.3335 35.7802 11.7018 36.0461 11.4358C36.128 12.0291 36.9463 12.295 36.6394 12.9292C36.7417 12.9292 36.8031 13.1338 36.9258 12.9906C37.0076 12.7656 36.7008 12.9497 36.7826 12.8269C36.8235 12.8679 36.9258 12.8269 36.9667 12.786C37.0076 12.9701 37.0486 13.0724 36.7212 13.1543C36.7622 13.5634 37.4373 13.052 37.6009 13.502C37.4782 13.5839 37.4373 13.6452 37.5395 13.7271L37.8873 13.768C38.0101 14.0339 37.7237 14.1158 37.5191 14.2794C37.6418 14.3817 37.7646 14.5249 37.9487 14.4635L37.8055 14.8113C37.9078 14.5658 38.0101 14.8113 38.0919 14.8318H37.9896C37.9896 14.8318 38.0919 14.9954 38.1737 15.0568C38.276 14.9341 38.2146 14.7704 38.1942 14.6477C38.3374 14.6477 38.3783 14.7499 38.5624 14.7499C38.3374 14.8727 38.5624 15.0568 38.6238 15.1796C38.6647 15.3228 38.8897 15.1796 38.9102 15.2C38.8079 15.2818 39.0329 15.3841 38.8284 15.425C38.767 15.425 38.8693 15.2614 38.7261 15.2614C38.7261 15.3841 38.5215 15.5273 38.767 15.5682C38.9511 15.6092 39.1352 15.2409 39.1761 15.5478C39.0739 15.5478 38.992 15.5887 38.8897 15.5887L38.9511 15.8751L39.1352 15.7524C39.1352 15.7524 39.0739 15.8137 39.0739 15.8342C39.3193 15.7524 39.3807 16.1001 39.6262 15.9774C39.7285 16.0592 39.6671 16.2843 39.7285 16.407H39.708C39.708 16.6116 39.8922 16.7139 40.0967 16.7139H40.0558C40.0558 16.7139 40.2399 16.9389 40.4036 16.9389C40.4036 17.2048 39.7694 17.5322 40.1376 17.5322C40.2809 17.6958 40.6695 17.5322 40.7309 17.3685C40.8537 17.7572 41.406 17.8799 41.3446 18.3709C41.4469 18.3709 41.4674 18.2891 41.5901 18.3505C41.8561 18.8415 42.5312 19.1074 42.4493 19.7416C42.2652 19.6802 42.2652 19.8643 42.1629 19.9666C42.4084 19.9462 42.1016 20.2326 42.4084 20.0484C42.5516 19.9052 42.6539 19.8643 42.613 19.6802C42.8994 19.8643 43.2267 20.2735 43.1858 20.5394C43.1858 20.4167 43.2881 20.4167 43.3904 20.4371C43.1244 20.6213 43.2267 20.8463 43.4313 20.9281L43.595 20.8258L43.5131 21.0509C43.5131 21.0509 43.8814 20.8463 43.8609 21.1122C43.7995 21.1736 43.7586 21.2145 43.7177 21.2964C43.9632 21.3373 44.3519 21.3782 44.3519 21.6646L44.2292 21.9714C44.2292 21.9714 44.536 22.0328 44.5156 21.8487C44.5974 22.2374 44.7201 22.4215 44.5974 22.667C45.4566 22.7693 46.0294 23.4444 46.4386 24.0377L46.3158 24.1195C46.3158 24.365 46.5818 24.0377 46.5818 24.2013C46.4386 24.2422 46.4386 24.5082 46.1931 24.5082C46.234 24.815 46.6227 24.6309 46.7863 24.7332C46.95 24.6309 46.6022 24.6923 46.8068 24.5696C46.8886 24.5696 46.9295 24.9582 47.175 24.815C47.1341 24.9378 46.9295 25.0401 46.8068 25.081L47.0318 25.1219C46.8886 25.4901 46.2544 25.1219 46.0499 25.572L46.1726 25.6743C46.009 25.9811 45.6407 25.572 45.8044 25.9402C46.0294 25.9811 46.459 25.8379 46.459 25.6333C46.7454 25.8584 47.1137 25.3265 47.3387 25.6333C47.2569 25.8175 47.1137 25.4288 46.9705 25.6333C46.8886 25.9197 47.2978 25.8379 47.3182 26.0016C47.3182 25.797 47.6251 25.7152 47.7478 25.7765C47.7478 26.022 47.441 25.8584 47.5842 26.0834C47.7478 26.022 47.9933 26.1243 47.9524 25.8788C48.3207 25.7152 48.0342 26.1652 48.3616 26.1039C48.1979 26.3494 47.6865 26.2675 47.7683 26.5948C47.9524 26.3903 48.2797 26.6562 48.4843 26.288C48.4843 26.4312 48.3411 26.5744 48.157 26.5948C48.1365 26.8199 48.7912 26.5948 48.4025 26.9835L48.648 26.8608C48.648 26.8608 48.6071 27.0654 48.5457 27.2086C48.6275 27.3313 49.1185 27.3518 48.7912 27.5973C48.8525 27.5973 49.0367 27.8837 49.1799 27.5973C49.1799 27.3313 48.873 27.5359 49.098 27.2086C48.9548 27.5154 49.3231 27.4131 49.4663 27.4541L49.364 27.5768C49.364 27.5768 49.5276 27.7405 49.6913 27.6791C49.589 27.6791 49.5276 27.7814 49.5276 27.8428L49.7527 27.7609C50.0186 27.9246 49.4663 28.0678 49.6913 28.2519L49.4049 28.1905C49.4049 28.1905 49.3435 28.4156 49.4867 28.4769L50.1209 28.2314C50.305 28.2928 49.9777 28.436 50.2437 28.4156H49.9163C49.9163 28.4156 49.7118 28.7429 49.855 28.9065C49.9982 28.9679 50.3869 28.9475 50.3459 28.702C50.4073 28.7838 50.4073 28.9884 50.2232 29.0088C50.4278 29.152 50.3869 28.8452 50.6324 28.927C50.571 29.0907 50.571 29.418 50.5096 29.6839L50.08 29.7453L50.1618 29.868C49.8141 29.909 50.0391 30.0726 49.7322 30.1954C49.7527 30.2977 49.9163 30.3386 50.0391 30.359C50.2437 29.8271 50.7756 30.1954 51.0824 29.8476C51.4302 30.0931 50.3664 30.7273 51.1847 30.6045C51.2256 30.4818 51.6348 30.4204 51.3688 30.2977C51.4916 30.5227 51.8189 30.1545 51.8598 30.5022C51.5734 30.4409 51.6348 30.9728 51.2461 30.8909C51.3688 30.8091 51.2461 30.6863 51.1642 30.6659C51.0824 30.85 50.796 30.9318 50.9597 31.1364C51.0824 31.2387 51.2256 31.3819 51.3893 31.2182C51.5939 31.0546 51.2256 31.0546 51.4916 30.9728C51.7575 31.1569 51.4916 31.4433 51.9212 31.2592C51.778 31.1364 51.9621 30.9318 52.0848 30.8091L52.3099 30.9114L52.1462 30.9932C52.269 31.3614 52.4531 30.8909 52.6372 31.1978L52.4735 31.5456C52.1871 31.6683 52.2689 31.0546 51.9212 31.4024C52.0439 31.5865 52.2894 31.5046 52.3303 31.7501C52.269 31.7501 52.228 31.6888 52.1462 31.6888C52.1871 31.7706 51.7371 32.2207 52.228 32.2411C52.4531 32.282 52.3917 32.1797 52.5349 32.057C52.8008 32.3025 53.0054 32.282 53.1895 32.4457C52.8827 32.6298 53.4146 32.7935 52.985 32.8139C53.0668 32.5889 52.719 32.1797 52.3917 32.282C52.1462 32.6503 52.269 32.0161 51.8803 32.2207C52.0644 32.4662 51.7371 32.6912 51.5529 32.8958C51.5939 32.9776 51.7166 32.9571 51.7984 32.9776C52.0235 32.8548 51.9416 32.773 52.1462 32.6094C52.2894 32.9162 52.5963 33.0799 52.9031 33.0594C52.8827 33.2231 52.6576 33.3458 52.5554 33.264C52.8622 33.5299 53.0873 33.8777 53.2509 34.205C53.4146 33.755 53.5782 34.471 53.7419 34.1232C53.701 33.9186 53.8033 33.5913 54.0283 33.5709C54.0897 33.6936 53.8851 33.6731 53.8442 33.7754C54.1101 33.7754 53.7214 34.1846 54.0897 34.1028C53.7624 33.8982 53.6601 34.3482 53.3737 34.5119C53.6805 34.5937 53.1895 34.6346 53.3532 34.8392C53.6601 34.9211 53.9669 35.0847 54.192 35.2688C54.192 35.7394 54.7443 35.9848 54.9489 36.2303C54.9284 36.4554 54.5806 36.5986 54.642 36.7827C54.7852 36.9463 54.8466 36.4144 54.908 36.7827H54.8261C54.9489 36.8236 54.9898 37.4169 55.4603 37.1714L55.0921 37.335C55.0921 37.335 55.2148 37.3964 55.2762 37.3964C55.1739 37.4782 55.133 37.601 55.0103 37.5805C54.9284 37.9078 55.2967 37.8669 55.4399 38.0306L55.5422 37.7851C55.9104 37.9488 55.8695 38.2965 56.1559 38.5216L55.9718 38.6443L56.2173 38.7261C56.0127 38.8284 56.0127 39.0535 56.2173 39.033L55.4399 38.9512C55.4399 38.7466 55.7672 38.9103 55.8695 38.7057C55.9718 38.5216 55.7263 38.2965 55.5217 38.3988C55.5831 38.5216 55.624 38.4807 55.7467 38.5011C55.5217 38.7261 55.4194 38.5829 55.1944 38.6239C55.2353 38.6648 55.2353 38.808 55.3171 38.7466C55.1125 38.7466 55.0103 38.6648 54.8875 38.5011C55.0716 38.542 54.9898 38.317 55.0921 38.2965C54.8671 38.4602 54.6625 38.3579 54.5602 38.092C54.7034 37.7442 54.0897 37.826 53.9669 37.5396C54.2738 37.4578 54.5397 37.4373 54.7443 37.5396C54.7443 37.2941 54.6011 37.376 54.6011 37.1305C54.3761 37.1918 54.0897 37.335 53.8237 37.2123L53.9874 37.0691C53.7623 36.9668 53.5169 37.1509 53.3941 36.885C53.1691 36.4349 52.8622 36.0258 52.6372 35.7189L52.8008 35.5757C52.3303 35.678 52.2485 35.1256 51.9212 35.0233C51.778 34.5324 51.1233 34.3278 51.2461 33.9186C50.5914 33.3458 50.0186 32.8753 49.5276 32.1388L49.855 32.0775C49.589 32.0775 49.9368 31.8933 49.7936 31.791C49.7118 32.0775 49.4254 31.8115 49.2003 31.8524C49.139 31.4024 48.6275 31.1569 48.2593 31.0137L48.4229 30.8705C47.891 30.8295 47.9115 30.2977 47.6865 29.909C47.7274 29.8067 47.8297 29.643 47.7274 29.5407C47.3182 29.5612 47.2569 29.4589 46.8886 29.3157C46.725 29.1111 46.5408 28.7429 46.4795 28.4565C45.518 28.0064 45.1497 27.0449 44.311 26.4516L44.4542 26.2471C43.4518 25.8175 43.0835 24.59 42.3675 24.1195L42.7358 23.9149C42.6744 23.6285 42.2857 23.5262 42.1016 23.7512C42.0402 23.4648 41.5492 23.3626 41.7129 23.0352C41.6106 22.7897 41.3651 22.892 41.181 22.7693C40.9764 22.2579 40.8332 22.1351 40.465 21.7873L40.5263 21.9101C40.6286 21.9101 40.7718 21.7873 40.7105 21.685C40.5059 21.6032 40.3831 21.0713 40.0967 21.5418C39.9944 20.9486 39.1557 20.7235 39.1352 20.0689C39.0534 20.1916 38.9511 20.1098 38.8488 20.1098C38.5624 19.7416 38.4806 19.1892 38.051 19.046C38.051 18.9437 38.2965 19.0051 38.1942 18.8414C38.0919 18.7801 38.051 18.9437 37.9078 18.8824C37.2327 18.4528 37.1713 17.5117 36.7008 17.0207C35.7393 16.2229 35.0642 15.1386 34.3073 14.259L34.3891 14.1976C33.8572 14.1362 34.1231 13.2361 33.489 13.3384C33.489 13.2156 33.3048 13.0315 33.489 12.9701C33.2844 12.9292 33.2026 12.7247 33.1003 12.4996C33.0389 12.336 33.0594 12.2746 32.8957 12.3564C32.8957 12.3564 32.8957 12.3564 32.9571 12.336C32.998 12.0291 32.7729 12.2337 32.7525 11.9064C32.7729 11.8654 32.7934 11.845 32.8343 11.7222C32.8343 11.3949 32.6502 12.1518 32.7116 11.4563C32.6911 11.4358 32.6502 11.7836 32.6707 11.7836C32.6297 11.6813 32.5888 11.62 32.5479 11.5586C32.3229 11.7836 32.2001 12.3155 32.1592 12.4996C31.5455 12.8065 31.525 12.0086 31.4432 12.6837C31.3409 12.6837 31.566 12.8269 31.4841 12.7656C31.4432 13.0315 30.8295 12.7247 30.9318 13.0111C31.1977 13.1338 30.9931 13.1952 31.1363 13.3179C30.6863 13.5839 30.4203 13.4816 30.359 13.9316L30.2567 13.8089C30.318 14.4226 29.8271 14.6886 29.9907 15.3023C28.5587 17.2867 27.3108 19.2915 25.8992 21.2145C24.3649 23.0148 23.117 24.9582 21.419 26.6767C20.7439 26.8608 20.7235 26.9017 20.478 27.495C20.4371 27.4336 20.4575 27.3927 20.3757 27.3927C20.6212 27.6177 20.1302 27.7609 20.3552 28.0064C19.762 28.6611 19.3324 29.3566 18.7596 30.0726C18.8209 29.9294 18.6573 29.7044 18.555 29.868L18.6163 30.134L18.5345 30.0931C18.4936 30.2158 18.5345 30.4204 18.7186 30.3999C17.5321 32.3843 15.6091 33.7345 14.2794 35.5348C13.8497 35.8621 13.4815 36.5372 13.1747 37.0282C11.7631 38.092 10.5152 39.0944 9.69687 40.6492C9.69687 40.6492 9.16498 39.9331 9.45138 39.2376L9.61504 39.1967Z" fill="white"/>
<path d="M55.9512 39.6673C56.0535 39.5241 55.9921 39.299 56.2786 39.2786C56.1763 39.4013 56.0944 39.5854 55.9512 39.6673Z" fill="white"/>
<path d="M54.008 34.4103C54.008 34.4103 54.008 34.3076 54.008 34.2871C54.049 34.3282 54.2133 34.2871 54.1722 34.3898C54.1106 34.3487 54.0695 34.3898 53.9874 34.4308L54.008 34.4103Z" fill="white"/>
<path d="M53.251 33.2842C53.3738 33.2024 53.6602 33.3661 53.7829 33.4888L53.251 33.2842Z" fill="white"/>
<path d="M52.9441 31.9137C52.9852 31.7495 53.0467 31.729 53.1289 31.8521C53.0673 31.9137 53.0057 31.8932 52.9441 31.9137Z" fill="white"/>
<path d="M52.6373 32.0379C52.6373 32.0379 52.5963 31.8531 52.6373 31.771C52.5347 31.8531 52.8426 31.9147 52.6373 32.0379Z" fill="white"/>
<path d="M51.2669 29.6235C51.2669 29.6235 51.0206 29.5414 51.1232 29.3977C51.0822 29.5209 51.4722 29.5414 51.2669 29.6235Z" fill="white"/>
<path d="M50.3053 28.7441C50.3053 28.7441 50.3053 28.6825 50.2437 28.662C50.2437 28.5593 50.3874 28.5593 50.4285 28.6004L50.3053 28.7441Z" fill="white"/>
<path d="M35.4327 10.843L35.5764 10.9046L35.4327 10.9867V10.843Z" fill="white"/>
<path d="M27.3524 14.259C27.3524 14.4232 27.1882 14.259 27.1471 14.259C27.2087 14.1563 27.2703 14.4027 27.3524 14.259Z" fill="white"/>
<path d="M24.5284 19.0462L24.5695 19.0051L24.7953 19.2104L24.5284 19.0462Z" fill="white"/>
<path d="M51.001 31.8532C50.9805 31.6069 50.7136 31.9354 50.9189 31.6685C51.0421 31.73 51.1242 31.7916 51.001 31.8532Z" fill="white"/>
<path d="M14.9341 32.486C15.8751 33.0792 15.3432 34.2862 16.0183 35.0227C16.0797 35.125 15.5887 35.0841 15.7524 35.2887C16.5298 35.9842 16.4888 37.3549 16.2638 38.48L16.1411 38.4391C16.1002 38.6437 16.5502 38.7869 16.5298 39.0119C16.4479 39.0119 16.407 38.971 16.3047 39.0528C16.5502 39.0528 16.4888 39.4006 16.6934 39.4415C16.6116 39.5438 16.4275 39.5847 16.3456 39.7075L16.632 39.7689C17.3481 39.953 16.7752 40.5667 17.2049 40.9349C17.1435 40.9349 17.0821 40.894 17.0207 40.9349C17.5731 41.5487 17.6958 42.4488 18.0232 43.2057C17.9209 43.2057 17.7368 43.2057 17.6549 43.2875C17.9413 43.2671 18.0845 43.4921 18.1868 43.6967C17.9209 43.8604 18.5346 44.0036 18.4323 44.29H18.3709C18.7187 44.3923 18.2686 44.5968 18.6573 44.6582L18.4528 44.8219C18.8824 44.8219 18.3096 45.1287 18.5551 45.231H18.6369C18.7596 45.3333 18.5755 45.456 18.6778 45.5583H18.6369C18.821 45.8652 18.6369 46.1107 18.9437 46.0289C18.7187 46.1925 18.7596 45.7629 18.4323 46.0289C19.0051 46.9699 19.1688 48.0541 19.4143 49.077C19.312 49.2202 19.2915 49.3021 19.1688 49.3634C19.2506 49.4453 19.312 49.7521 19.4961 49.7521C19.4961 49.7317 19.3529 49.8953 19.3529 49.9567C19.2915 50.2226 19.7211 49.9567 19.6393 50.2226C19.537 50.2226 19.4552 50.2226 19.3529 50.3454C19.6188 50.3454 19.6393 50.5909 19.7416 50.7136C19.6802 50.7341 19.6598 50.7136 19.5779 50.8159C19.7007 50.8159 19.7211 50.8773 19.7211 50.9796C19.803 51 19.8848 51.0819 20.0689 50.9796L19.8643 51.1637C20.0689 51.3887 20.2121 50.775 20.3962 50.8977C20.2939 50.9591 20.2939 51.0409 20.2326 51.1023C20.6622 50.7545 20.969 50.8773 21.235 50.7545C21.235 50.775 21.235 50.8364 21.235 50.8364C21.4805 50.7955 21.8078 50.8977 22.1147 50.7545C22.2374 50.8364 22.0737 51.2251 22.3806 51.1432C22.3806 50.7545 22.892 50.9796 22.7284 50.55C22.9943 50.6113 23.4035 50.7545 23.5671 50.6318C23.4444 50.775 23.6899 51.1023 23.4853 51.1228L23.649 51.3478C23.6285 51.5115 23.4853 51.2864 23.5262 51.491C23.6285 51.491 23.9558 51.3273 24.0581 51.3887C24.2627 51.1637 24.4468 50.7136 24.7741 50.6727C24.6309 50.8159 24.856 51.0819 24.7741 51.1637L25.2242 50.4272C25.3265 50.4272 25.2447 50.7341 25.4083 50.6318C25.4083 50.5295 25.4697 50.4681 25.5106 50.3863C25.5515 50.4272 25.9607 50.284 26.0016 50.6727C26.0425 50.8159 25.8175 50.7545 25.9402 50.8773C26.1448 50.8773 26.1448 50.7545 26.3494 50.7341V50.775C26.4926 50.8364 26.7381 50.6113 26.5949 50.4068C26.513 50.4068 26.6358 50.6318 26.4926 50.5295C26.5949 50.3045 26.8199 50.2431 27.0245 50.2431C26.9631 50.3045 26.9631 50.4068 26.9426 50.509C27.2086 50.2226 27.495 50.1204 27.8018 49.9976C27.8018 49.8135 27.6996 50.3249 27.6382 50.2226C28.0269 50.4681 28.436 49.8749 28.7429 50.2226C28.6815 50.2636 28.7224 49.9772 28.7224 50.0181C28.9066 50.0385 28.9066 50.3045 29.0293 50.2022C29.0293 50.3454 29.1725 50.1613 29.2952 50.0999C29.3566 49.9976 29.3362 50.1817 29.2134 50.1817C29.3771 50.059 30.0726 49.8135 30.4818 50.0385C30.4818 49.9362 30.7273 49.6703 30.8296 49.6907L30.7886 49.9158C30.8705 50.059 31.0955 49.8953 31.116 50.0999C31.3205 49.8135 30.359 50.3454 30.625 50.1204C30.6864 50.3249 30.9932 49.7521 30.9318 50.059C31.116 50.059 31.3001 49.793 31.4637 49.9976C31.4024 49.9567 31.3205 50.3249 31.4637 50.3045C31.7297 50.2636 31.5456 50.2022 31.7501 50.1204L31.8933 50.0181C31.8933 49.793 32.1184 50.0385 32.0366 49.793C32.0775 49.9772 32.4252 49.6703 32.3843 50.059L32.3434 50.3658C32.4662 50.3454 32.5275 50.059 32.6094 49.9158C32.6094 49.9362 32.6503 49.9976 32.6503 50.059C32.6503 49.6089 32.9162 50.0999 33.0594 49.7521C33.3049 49.9158 33.6732 49.7521 33.7754 50.059C33.9596 49.9158 34.1232 49.7521 34.3278 49.8544C34.2869 49.8953 34.2255 49.9158 34.2255 50.0181C34.3482 50.1613 34.3892 50.0181 34.5119 49.9567C34.4915 50.0181 34.7779 50.2226 34.9211 50.3863C35.1052 50.2431 35.0438 49.9976 35.0643 49.8544C35.2279 50.3045 35.5757 49.568 35.7803 49.9772C35.7189 50.0385 35.5143 50.2022 35.6575 50.3045C35.8212 50.7545 35.9848 49.9772 36.2713 50.1817L36.2099 49.8135C36.3326 50.0385 36.5986 49.5885 36.5781 49.9772C36.6599 49.8339 36.885 50.0999 36.8645 49.7317C37.3146 50.0385 37.9283 49.5475 38.2147 50.2022C38.2761 50.1408 38.4398 50.2022 38.3988 50.0181C38.2965 49.8135 38.2556 50.1613 38.2147 50.0181C38.2761 50.0181 38.2761 49.9158 38.2965 49.8544C38.4397 49.9362 38.542 49.9567 38.4193 50.2636C38.7262 50.4886 38.7262 49.6498 39.1148 49.793C39.1148 49.9362 39.1148 49.9976 39.2376 49.9772L39.4626 49.7112C39.7081 49.7726 39.6058 50.059 39.6058 50.3045C39.749 50.2636 39.9127 50.2636 39.9741 50.0794L40.1377 50.4068C40.015 50.1817 40.24 50.2431 40.3014 50.1817L40.24 50.2431C40.2605 50.3454 40.4241 50.284 40.506 50.2431C40.506 50.0794 40.3218 50.0181 40.24 49.9772C40.3014 49.8749 40.4241 49.8953 40.506 49.7521C40.4855 49.9976 40.731 49.9362 40.8333 49.9567C40.956 50.0181 40.9765 49.7317 40.9969 49.7317C40.9969 49.8544 41.2015 49.7521 41.0992 49.9362C41.0583 49.9771 40.9969 49.8135 40.9356 49.9362C41.0174 50.0385 40.9969 50.2636 41.1811 50.0999C41.3038 49.9771 41.1401 49.6089 41.3856 49.7726C41.3243 49.8339 41.3038 49.9362 41.2629 50.0181L41.4879 50.1408V49.9158C41.4879 49.9158 41.4879 49.9976 41.5288 50.0181C41.5902 49.7726 41.8766 49.9362 41.9175 49.6703C42.0403 49.6498 42.163 49.834 42.2653 49.8544H42.2448C42.3676 50.0181 42.5517 49.9158 42.654 49.7726V49.8135C42.654 49.8135 42.8995 49.8135 42.9813 49.6703C43.1654 49.834 43.0427 50.5295 43.2473 50.2431C43.4314 50.2431 43.5337 49.834 43.4518 49.6703C43.7792 49.834 44.1679 49.4453 44.4747 49.8135C44.5156 49.7317 44.4747 49.6703 44.5975 49.6089C45.0271 49.6907 45.7635 49.343 45.8249 49.793C45.7635 49.8953 45.8454 50.0181 45.8863 50.1408C45.9067 49.9362 46.009 50.3454 45.9681 49.9976C45.9067 49.793 45.8863 49.6907 45.8249 49.6089C45.9067 49.5066 46.0295 49.5066 46.2136 49.6907C46.1318 49.5885 46.1113 49.5271 46.0909 49.4657C46.275 49.793 46.4182 49.8339 46.3977 49.7317L46.2545 49.5271L46.4591 49.7317C46.4591 49.7317 46.3363 49.5475 46.2954 49.4862C46.2545 49.4248 46.2545 49.4043 46.3159 49.4657C46.3773 49.5271 46.4591 49.6089 46.5 49.6498C46.3773 49.4248 46.1318 49.1588 46.2954 49.2202C46.3773 49.2611 46.4796 49.3021 46.5614 49.343C46.5409 49.2816 46.3773 49.1589 46.2954 49.1384C46.4795 49.1384 46.5 49.0566 46.766 49.077C46.4796 48.9338 46.3773 48.586 46.3363 48.2178C46.3159 47.87 46.3773 47.5223 46.4386 47.2154L46.5818 47.2563C46.7455 47.1131 46.3363 47.1336 46.4591 47.0313C46.5818 47.1131 46.7864 46.9494 46.9296 47.1131C47.1137 46.9085 46.725 46.7653 46.6841 46.6017C46.5 46.5403 46.7864 46.7449 46.5409 46.6835C46.4795 46.6426 46.7455 46.3766 46.4591 46.2948C46.5818 46.2539 46.7864 46.3357 46.9092 46.3766L46.7864 46.213C47.1547 46.0902 47.3388 46.704 47.7888 46.5812V46.438C48.0957 46.3562 48.0548 46.8472 48.2184 46.5198C48.0957 46.3562 47.6865 46.1721 47.5433 46.2743C47.5024 45.9675 46.8682 46.0289 46.9296 45.7015C47.1137 45.6402 46.9296 45.9675 47.1751 45.947C47.4411 45.8243 47.0933 45.6197 47.1751 45.497C47.0319 45.6402 46.766 45.456 46.725 45.3538C46.8887 45.2106 46.991 45.497 47.0524 45.2719C46.8887 45.2105 46.7864 44.9651 46.6432 45.1492C46.275 45.006 46.7864 44.9241 46.5 44.74C46.7864 44.6991 47.0933 45.0673 47.2569 44.8423C46.991 44.8423 46.9501 44.4741 46.5409 44.5559C46.6228 44.4741 46.8478 44.4945 46.991 44.5764C47.1751 44.4536 46.5614 44.1468 47.0933 44.1877L46.8273 44.1058C46.8273 44.1058 46.991 44.024 47.1546 43.9626C47.1751 43.8399 46.8478 43.4921 47.2569 43.5739C47.216 43.533 47.2774 43.2466 46.991 43.308C46.7864 43.4717 47.1547 43.5535 46.766 43.5944C47.0933 43.5126 46.766 43.3285 46.6841 43.2057H46.8478C46.8478 43.2057 46.8478 43.0011 46.6841 42.9398C46.766 43.0011 46.8682 43.0011 46.9296 42.9398L46.7046 42.8375C46.6228 42.5715 47.1342 42.8375 47.0933 42.592L47.2569 42.7966C47.2569 42.7966 47.4615 42.6943 47.4001 42.5715L46.7864 42.3056C46.7046 42.1624 47.0319 42.2851 46.8478 42.1215L47.0728 42.3465C47.0728 42.3465 47.4411 42.2851 47.4615 42.101C47.4001 41.9783 47.1137 41.7328 46.9705 41.9169C46.9705 41.8146 47.1342 41.7123 47.2774 41.8146C47.2365 41.5896 47.0319 41.8146 46.9296 41.61C47.0933 41.5487 47.3183 41.3645 47.5638 41.2623L47.8911 41.5077V41.385C48.1775 41.5896 48.1571 41.3441 48.4435 41.4668C48.5048 41.385 48.423 41.2623 48.3412 41.1804C47.8093 41.3645 47.707 40.7917 47.2569 40.7917C47.1956 40.4235 48.3821 40.7508 47.7275 40.2803C47.6047 40.3212 47.2979 40.0962 47.3797 40.3417C47.4615 40.1371 46.9501 40.1371 47.1751 39.9121C47.3388 40.1166 47.6661 39.7893 47.8911 40.0962C47.7479 40.0553 47.7479 40.2189 47.7888 40.2803C47.9729 40.2189 48.2389 40.3621 48.2594 40.1575C48.2389 40.0143 48.2594 39.8302 48.0139 39.8302C47.7479 39.7893 48.0139 40.0348 47.7684 39.9121C47.7275 39.6257 48.1161 39.6461 47.6865 39.462C47.6865 39.6257 47.4206 39.6461 47.2569 39.6052L47.1751 39.4006L47.3388 39.462C47.5024 39.1756 47.0524 39.3188 47.1342 39.0324L47.482 38.9506C47.7684 39.0733 47.2774 39.3802 47.7684 39.3802C47.8093 39.196 47.5843 39.0938 47.7479 38.9096C47.7888 38.9506 47.7888 39.0119 47.8297 39.0528C47.8502 38.9915 48.4844 39.0119 48.1775 38.6641C48.0548 38.5005 48.0139 38.6028 47.8502 38.5619C47.8502 38.2345 47.6865 38.1118 47.6865 37.9072C48.0343 38.0095 47.7684 37.5594 48.0957 37.8254C47.8707 37.9072 47.8298 38.3573 48.1366 38.5209C48.5662 38.4596 48.0343 38.7664 48.4435 38.8892C48.4844 38.6437 48.8935 38.7051 49.1595 38.7051C49.1799 38.6437 49.0981 38.5619 49.0572 38.5005C48.8117 38.4391 48.8117 38.5209 48.5458 38.5005C48.648 38.2345 48.5458 37.9277 48.3412 37.7436C48.4844 37.6617 48.7299 37.7436 48.7299 37.8458C48.7094 37.4981 48.7912 37.1503 48.914 36.8434C48.4844 36.9866 48.8731 36.4752 48.5253 36.557C48.4026 36.7207 48.0957 36.823 47.932 36.7002C47.9729 36.5979 48.1161 36.7411 48.198 36.7002C47.9934 36.5366 48.5867 36.5366 48.2594 36.3525C48.3412 36.6798 48.7503 36.4957 49.0572 36.5979C48.914 36.3524 49.2822 36.6389 49.3231 36.4138C49.1799 36.1683 49.0777 35.8819 49.0572 35.616C49.405 35.35 49.1799 34.8386 49.2209 34.5522C49.405 34.4294 49.7528 34.5931 49.8346 34.4294C49.855 34.2453 49.4254 34.5113 49.63 34.2658L49.6914 34.3067C49.6914 34.3067 50.0187 33.8566 49.5073 33.693L49.8755 33.8362C49.8755 33.8362 49.8346 33.7339 49.7937 33.6725C49.9164 33.6725 50.0392 33.6521 50.121 33.7339C50.4074 33.6111 50.121 33.3657 50.1414 33.1815L49.896 33.2634C49.7732 32.9156 50.0187 32.7519 49.9982 32.4451L50.2233 32.486L50.121 32.2814C50.3256 32.3632 50.4892 32.22 50.3256 32.0973L50.7961 32.6496C50.6529 32.7519 50.5506 32.4655 50.3051 32.5064C50.1005 32.5474 50.121 32.8338 50.3256 32.9156C50.3665 32.8133 50.3256 32.7928 50.2437 32.711C50.5711 32.711 50.5301 32.8747 50.7143 32.9974C50.7143 32.936 50.8165 32.8747 50.7143 32.8542C50.8575 32.9974 50.8575 33.0997 50.837 33.2838C50.7347 33.1406 50.6324 33.3247 50.5506 33.2634C50.8165 33.3247 50.8779 33.5089 50.7756 33.7134C50.4278 33.8362 50.9188 34.1635 50.7756 34.409C50.5097 34.2658 50.3051 34.0817 50.2233 33.918C50.0596 34.0612 50.2028 34.1021 50.0392 34.2453C50.2437 34.3476 50.5506 34.4704 50.6324 34.6954H50.4278C50.5097 34.8795 50.7961 34.9409 50.7143 35.1659C50.5506 35.5751 50.4892 36.0047 50.4074 36.332H50.2028C50.612 36.557 50.2642 36.9457 50.4278 37.2117C50.1619 37.6004 50.4892 38.1323 50.1005 38.2959C50.1414 39.0528 50.2028 39.7075 50.0187 40.444L49.7323 40.2803C49.9369 40.444 49.5482 40.3417 49.5686 40.4849C49.8346 40.3621 49.855 40.7099 50.0187 40.8326C49.7323 41.1395 49.9164 41.61 50.0801 41.9374H49.8755C50.2233 42.2851 49.8141 42.592 49.6914 42.9602C49.6096 42.9807 49.405 43.0216 49.405 43.1443C49.7118 43.3898 49.6709 43.4921 49.8346 43.8399C49.7937 44.0649 49.6709 44.3922 49.5073 44.5968C49.855 45.497 49.4254 46.2743 49.5686 47.1745H49.3231C49.5073 47.645 49.4663 48.1155 49.3641 48.5656L49.2413 49.2202C49.2004 49.4657 49.1595 49.8544 49.1799 50.1613L48.7913 49.8953C48.6276 50.1613 48.7912 50.6932 49.0572 50.7955C48.8935 51.0614 49.0981 51.8797 48.7503 51.8388C48.6685 52.0229 48.7503 52.2275 48.7913 52.4525C48.7503 52.4934 48.7094 52.5548 48.6071 52.5753C47.707 52.4116 47.482 52.4525 46.766 52.5343H46.9501C46.9501 52.5343 46.9501 52.2888 46.766 52.2684C46.5409 52.3911 45.8045 52.1661 46.1318 52.6571C45.6408 52.5139 45.3953 52.5753 45.1498 52.6162C44.8839 52.6571 44.6179 52.698 44.3929 52.4934C44.4338 52.6366 44.3111 52.6571 44.2701 52.7389C43.861 52.7389 43.4314 52.473 43.1245 52.698C43.0631 52.6366 43.2268 52.473 43.0631 52.4525C42.9609 52.5139 43.0631 52.6366 42.9404 52.698C42.2858 52.9435 41.6107 52.4321 41.0174 52.4934C39.9536 52.7594 38.8489 52.6162 37.826 52.6775V52.5753C37.4987 52.9639 37.0486 52.1866 36.7622 52.7594C36.6804 52.6571 36.4554 52.7185 36.5167 52.5139C36.2508 52.7798 35.7598 52.2684 35.3711 52.5957C35.412 52.5957 35.4325 52.5957 35.4734 52.5343C35.0847 52.3093 34.7369 52.6162 34.3073 52.4116C34.3482 52.3707 34.4301 52.3298 34.4301 52.2275C34.2664 52.0434 34.0414 52.6571 33.9596 52.1661C33.8573 52.1661 33.8982 52.4116 33.9596 52.3911C33.039 52.207 32.0775 52.5139 31.116 52.6162C30.4409 52.3298 31.075 51.7979 30.5432 52.1661C30.5022 52.0638 30.5022 52.3502 30.5022 52.2479C30.2977 52.3911 30.1749 51.716 30.0317 51.9615C30.0931 52.2479 29.9294 52.1252 29.9294 52.3093C29.5203 52.1252 29.4384 51.8592 29.0907 52.0843V51.9206C28.7224 52.3502 28.2724 52.1252 27.9655 52.6366C25.8379 52.7185 23.7922 53.0049 21.726 53.0662H18.0027C17.7163 51.8388 17.4299 50.6113 17.1435 49.3839C17.0003 48.7088 16.8775 48.0337 16.8162 47.3381C17.1026 46.7653 17.0821 46.7449 16.8162 46.2539C16.8775 46.2539 16.898 46.2948 16.9594 46.2539C16.632 46.2948 16.8366 45.8857 16.5298 45.9061C16.4275 45.1492 16.1615 44.4741 15.9774 43.6967C16.0388 43.8194 16.3252 43.8194 16.2638 43.6762L16.0183 43.5739L16.1002 43.533C16.1002 43.533 15.8342 43.3694 15.7524 43.4921C15.0159 41.61 15.2409 39.5643 14.709 37.6822C14.75 37.1912 14.4636 36.5775 14.2794 36.107C14.3817 34.5522 14.4226 33.1611 13.7885 31.7495C13.7885 31.7495 14.6681 31.7495 15.0159 32.3019L14.9341 32.486Z" fill="white"/>
<path d="M50.9801 32.1386C50.7959 32.1591 50.6936 32.3227 50.4891 32.1386C50.6527 32.1386 50.8369 32.0772 50.9801 32.1386Z" fill="white"/>
<path d="M48.5666 36.4559C48.5666 36.4559 48.4845 36.5175 48.464 36.5175C48.464 36.4559 48.3202 36.3943 48.4229 36.3533C48.4229 36.4149 48.505 36.4149 48.5666 36.4559Z" fill="white"/>
<path d="M48.3002 37.6012C48.157 37.5603 48.0751 37.2943 48.0751 37.1511L48.3002 37.6012Z" fill="white"/>
<path d="M47.5233 38.6039C47.3796 38.686 47.318 38.6449 47.3386 38.5217C47.4207 38.5217 47.4617 38.5628 47.5233 38.6039Z" fill="white"/>
<path d="M47.8509 38.7462C47.8509 38.7462 47.7483 38.8694 47.6456 38.9105C47.7688 38.9105 47.6046 38.6846 47.8509 38.7462Z" fill="white"/>
<path d="M47.0524 41.0373C47.0524 41.0373 47.1551 41.2426 46.9908 41.2632C47.114 41.2221 46.8471 40.9552 47.0524 41.0373Z" fill="white"/>
<path d="M47.0937 42.1624C47.0937 42.1624 47.0526 42.2034 47.0937 42.265C47.0116 42.3266 46.9089 42.2239 46.9089 42.1829H47.0937V42.1624Z" fill="white"/>
<path d="M35.9436 49.9366L36.0668 49.875L36.0463 50.0187L35.9436 49.9366Z" fill="white"/>
<path d="M27.0657 49.9572C26.9425 50.0599 26.9835 49.8135 26.963 49.793C27.0657 49.793 26.922 49.9777 27.0657 49.9572Z" fill="white"/>
<path d="M22.2783 50.6934H22.3192V51.0002L22.2783 50.6934Z" fill="white"/>
<path d="M33.2848 9.32848C33.2232 9.16424 33.0179 9.4106 33.1616 9.22583C33.2848 9.24636 33.3669 9.26689 33.2848 9.32848Z" fill="white"/>
<path d="M33.1207 50.5502C32.3433 50.0592 33.1207 49.4046 32.6297 48.8727C32.5888 48.8113 33.0593 48.8727 32.957 48.75C32.3433 48.2181 32.7115 47.3998 33.182 46.7656L33.3048 46.8065C33.3866 46.6838 32.9979 46.5406 33.0388 46.3974C33.1207 46.3974 33.1616 46.4383 33.2639 46.3974C33.0184 46.3564 33.1616 46.1723 32.9775 46.1109C33.0797 46.07 33.2639 46.07 33.3661 46.0087L33.1002 45.9268C32.4456 45.7223 33.1411 45.4358 32.8138 45.1494C32.8752 45.1494 32.9365 45.1904 32.9979 45.1494C32.6092 44.6994 32.6706 44.147 32.5274 43.6356C32.6297 43.6356 32.7933 43.6765 32.9161 43.6356C32.6297 43.6151 32.5478 43.4515 32.4865 43.3287C32.7933 43.2673 32.2205 43.1037 32.3842 42.94H32.4456C32.1387 42.8377 32.6297 42.7764 32.2614 42.6945L32.4865 42.6127C32.0569 42.5513 32.7115 42.4491 32.4865 42.3468H32.4046C32.3024 42.2649 32.5069 42.2036 32.4456 42.1217H32.4865C32.3842 41.9172 32.6092 41.7944 32.2819 41.8149C32.5478 41.7535 32.4046 41.999 32.7729 41.8967C32.4456 41.2421 32.5069 40.567 32.4865 39.9123C32.6092 39.8305 32.6501 39.7896 32.7729 39.7691C32.7115 39.7077 32.7115 39.5236 32.5478 39.4623C32.5478 39.4827 32.7115 39.4213 32.732 39.3804C32.8547 39.2577 32.3637 39.2577 32.5274 39.1145C32.6092 39.1759 32.7115 39.1758 32.8342 39.1758C32.5888 39.0736 32.6092 38.9099 32.5274 38.7872C32.5888 38.8076 32.6092 38.8485 32.7115 38.8281C32.4251 38.6849 32.7729 38.5621 32.5888 38.4394L32.7729 38.4803C32.9979 38.2757 32.3842 38.4189 32.5069 38.2348C32.5683 38.2757 32.6501 38.2553 32.7115 38.2757C32.3637 38.1121 32.4865 37.8461 32.3637 37.6825C32.3842 37.6825 32.4456 37.6825 32.4456 37.6825C32.4046 37.4983 32.5069 37.3142 32.3637 37.1301C32.4456 37.0687 32.8342 37.1506 32.7524 36.9664C32.3637 36.9664 32.5888 36.6391 32.1591 36.7619C32.2205 36.5982 32.3637 36.3527 32.241 36.23C32.3842 36.3118 32.7115 36.1481 32.732 36.2913L32.957 36.1891C33.1207 36.1891 32.8956 36.2913 33.1002 36.2709C33.1002 36.2095 32.9365 36.0049 32.9979 35.9436C32.7729 35.8208 32.3228 35.6981 32.2819 35.4935C32.4251 35.5958 32.691 35.4321 32.7729 35.4935L32.0364 35.2071C32.0364 35.2071 32.3433 35.2071 32.241 35.1048C32.1387 35.1048 32.0773 35.0639 31.9955 35.0434C32.0364 35.023 31.8932 34.757 32.2819 34.7366C32.4251 34.7161 32.3637 34.8389 32.4865 34.7775C32.4865 34.6547 32.3637 34.6547 32.3433 34.532H32.3842C32.3842 34.532 32.2205 34.2865 32.0159 34.3683C32.0159 34.4297 32.241 34.3479 32.1387 34.4297C31.9137 34.3683 31.8523 34.2251 31.8523 34.1024C31.9137 34.1433 32.0159 34.1433 32.1182 34.1638C31.8318 34.0001 31.7295 33.816 31.6068 33.6319C31.4227 33.6319 31.9341 33.6932 31.8318 33.7342C32.0773 33.4887 31.4841 33.2432 31.8318 33.0386C31.8727 33.0795 31.5863 33.0386 31.6273 33.0386C31.6477 32.9159 31.9137 32.9363 31.8114 32.8545C31.9546 32.8545 31.7705 32.7522 31.7091 32.6908C31.6068 32.6499 31.7909 32.6908 31.7909 32.7317C31.6682 32.6294 31.4227 32.1998 31.6477 31.9543C31.5454 31.9543 31.2795 31.8111 31.2999 31.7498H31.525C31.6682 31.7293 31.525 31.5861 31.7091 31.5657C31.4227 31.4429 31.9546 32.0362 31.7295 31.8725C31.9341 31.8316 31.3613 31.6475 31.6682 31.6884C31.6682 31.5657 31.4022 31.4634 31.6068 31.3611C31.5659 31.402 31.9341 31.4634 31.9137 31.3611C31.8727 31.1974 31.8114 31.3202 31.7295 31.177L31.6273 31.0951C31.4022 31.0951 31.6477 30.9519 31.4022 31.0133C31.5863 31.0133 31.2795 30.7678 31.6682 30.7883H31.975C31.975 30.7883 31.6682 30.686 31.525 30.6451C31.5454 30.6451 31.6068 30.6246 31.6682 30.6246C31.2181 30.6246 31.7091 30.461 31.3613 30.3791C31.525 30.2359 31.3613 30.0109 31.6682 29.9291C31.525 29.8063 31.3613 29.704 31.4636 29.5813C31.5045 29.6017 31.525 29.6426 31.6273 29.6426C31.7705 29.5608 31.6273 29.5404 31.5659 29.4585C31.6273 29.4585 31.8318 29.2949 31.9955 29.213C31.8523 29.0903 31.6068 29.1312 31.4636 29.1312C31.9137 29.0289 31.1772 28.8039 31.5863 28.6811C31.6477 28.7221 31.8114 28.8448 31.9137 28.7425C32.3637 28.6402 31.5863 28.5379 31.7909 28.3743L31.4227 28.4152C31.6477 28.3334 31.1976 28.1697 31.5863 28.1902C31.4431 28.1288 31.7091 27.9856 31.3408 28.006C31.6477 27.7401 31.1567 27.3514 31.8114 27.1673C31.75 27.1264 31.8114 27.0241 31.6273 27.0445C31.4227 27.1059 31.7705 27.1264 31.6273 27.1673C31.6273 27.1264 31.525 27.1264 31.4636 27.1264C31.5454 27.0445 31.5659 26.9832 31.8727 27.065C32.0978 26.8809 31.259 26.8604 31.4022 26.6354C31.5454 26.6354 31.6068 26.6354 31.5863 26.5536L31.3204 26.4104C31.3818 26.2467 31.6682 26.3285 31.9137 26.3285C31.8727 26.2467 31.8727 26.1444 31.6886 26.1035L32.0159 26.0012C31.7909 26.083 31.8523 25.9398 31.7909 25.8989L31.8523 25.9398C31.9546 25.9398 31.8932 25.8376 31.8523 25.7762C31.6886 25.7762 31.6273 25.8785 31.5863 25.9398C31.484 25.8989 31.5045 25.8376 31.3613 25.7762C31.6068 25.7762 31.5454 25.633 31.5659 25.5716C31.6273 25.4898 31.3408 25.4898 31.3408 25.4693C31.4636 25.4693 31.3613 25.3466 31.5454 25.4079C31.5863 25.4284 31.4227 25.4693 31.5454 25.5102C31.6477 25.4693 31.8727 25.4693 31.7091 25.367C31.5863 25.2852 31.2181 25.367 31.3818 25.2443C31.4431 25.2852 31.5454 25.2852 31.6273 25.3261L31.75 25.1829H31.525C31.525 25.1829 31.6068 25.1829 31.6273 25.1829C31.3818 25.142 31.5454 24.9783 31.2795 24.9374C31.259 24.876 31.4431 24.7942 31.4636 24.7328C31.6068 24.6715 31.5045 24.5487 31.3613 24.4874H31.4022C31.4022 24.4874 31.4022 24.3442 31.259 24.2828C31.4227 24.16 32.1182 24.2419 31.8318 24.1191C31.8318 23.9964 31.4227 23.935 31.259 23.9759C31.4227 23.7713 31.034 23.5463 31.4022 23.3417C31.3204 23.3213 31.259 23.3417 31.1976 23.2599C31.2795 22.953 30.9317 22.6257 31.3818 22.3802C31.4841 22.4621 31.6068 22.3802 31.7295 22.3802C31.525 22.2984 31.9341 22.2984 31.5863 22.2575C31.3818 22.2575 31.2795 22.2575 31.1976 22.3393C31.0954 22.1552 31.0954 21.8893 31.2795 21.787C31.1772 21.8279 31.1158 21.787 31.0544 21.7665C31.3818 21.7665 31.4227 21.6438 31.3204 21.5415H31.1158L31.3204 21.4596C31.3204 21.4596 30.9112 21.4187 31.0954 21.3164C31.1772 21.3164 31.259 21.3164 31.2999 21.296C31.1363 21.1937 30.8499 21.0505 31.034 20.9277L31.3204 20.8255C31.3204 20.8255 31.1158 20.7027 31.034 20.7845C31.2181 20.6004 31.2386 20.4777 31.4841 20.4163C30.8703 20.089 30.8499 19.598 30.8908 19.2298H31.034C31.1772 19.1479 30.768 19.1889 30.8703 19.107C31.0135 19.1479 31.1772 19.0252 31.3613 19.107C31.525 18.9638 31.0954 18.9229 31.034 18.8206C30.8294 18.8206 31.1567 18.9025 30.9112 18.882C30.8499 18.882 31.0544 18.6774 30.768 18.657C30.8908 18.6161 31.0954 18.657 31.2181 18.657L31.0749 18.5751C31.4227 18.4728 31.6886 18.8206 32.1182 18.7183L32.0773 18.6365C32.3842 18.5547 32.4251 18.8615 32.5274 18.6365C32.3842 18.5547 31.9546 18.4728 31.8114 18.5547C31.7295 18.3706 31.0954 18.4728 31.1363 18.2683C31.3204 18.2069 31.1772 18.4319 31.4227 18.391C31.6682 18.2887 31.2795 18.2069 31.3818 18.1046C31.2795 18.2069 30.9726 18.1046 30.9112 18.0637C31.0544 17.9614 31.1976 18.1251 31.2181 17.9819C31.0544 17.9614 30.9112 17.8182 30.7885 17.941C30.3998 17.8796 30.8908 17.7978 30.6044 17.7159C30.8703 17.675 31.2386 17.8591 31.3818 17.7159C31.1158 17.7364 31.0135 17.5113 30.6248 17.5932C30.7067 17.5318 30.9112 17.5318 31.0749 17.5727C31.2386 17.4909 30.5839 17.3477 31.1158 17.3272L30.8499 17.2863C30.8499 17.2863 31.0135 17.2249 31.1567 17.1636C31.1567 17.0817 30.7885 16.9181 31.1976 16.9181C31.1567 16.8976 31.1772 16.7135 30.8908 16.7749C30.7271 16.8976 31.0954 16.8976 30.7067 16.959C31.0135 16.8772 30.6657 16.7953 30.5635 16.734H30.7271C30.7271 16.734 30.7067 16.5908 30.5225 16.5703C30.6044 16.5908 30.7271 16.5703 30.768 16.5703L30.5225 16.5294C30.3998 16.3657 30.9522 16.4885 30.8703 16.3453L31.0544 16.468C31.0544 16.468 31.2386 16.3862 31.1567 16.3248C30.9317 16.3044 30.6657 16.243 30.5021 16.2225C30.3998 16.1407 30.7476 16.1816 30.5225 16.0998L30.7885 16.2021C30.7885 16.2021 31.1567 16.1202 31.1363 16.0179C31.0544 15.9361 30.7476 15.8338 30.6248 15.9361C30.6248 15.8747 30.7476 15.7929 30.9112 15.8338C30.8294 15.7111 30.6862 15.8338 30.543 15.7315C30.6862 15.6906 30.8908 15.5474 31.1158 15.4451L31.4841 15.5679V15.4861C31.7909 15.5883 31.7091 15.4247 32.0159 15.4861C32.0569 15.4247 31.9546 15.3633 31.8727 15.3224C31.3818 15.4861 31.1976 15.1383 30.7476 15.1996C30.6248 14.9951 31.8523 15.0564 31.1363 14.8314C31.0135 14.8723 30.6658 14.77 30.809 14.8928C30.8499 14.7496 30.3589 14.811 30.543 14.6473C30.7271 14.77 30.9931 14.5245 31.2795 14.6882C31.1363 14.6882 31.1567 14.7905 31.2181 14.811C31.3818 14.7496 31.6682 14.811 31.6682 14.6882C31.6273 14.6064 31.6068 14.4836 31.3818 14.5041C31.1158 14.5041 31.4022 14.6268 31.1567 14.5859C31.0749 14.4223 31.4636 14.4018 30.9931 14.32C31.034 14.4223 30.768 14.4427 30.5839 14.4427L30.4816 14.32H30.6453C30.768 14.1563 30.3384 14.2791 30.3793 14.0949L30.7271 14.0131C31.0135 14.054 30.6044 14.2791 31.0749 14.2586C31.0749 14.1359 30.8499 14.0949 30.9726 13.9722C31.0135 13.9927 31.034 14.0336 31.0749 14.054C31.0749 14.0131 31.7295 13.9722 31.3613 13.7881C31.2181 13.7062 31.1976 13.7676 31.0135 13.7676C30.9522 13.563 30.768 13.5017 30.7476 13.3789C31.0954 13.3994 30.7885 13.1539 31.1363 13.2971C30.9317 13.3585 30.9522 13.6449 31.2795 13.7267C31.6886 13.6449 31.2181 13.8904 31.6477 13.9313C31.6477 13.7676 32.0569 13.7881 32.3228 13.7472C32.3228 13.7062 32.2205 13.6653 32.1796 13.6244C31.9341 13.6244 31.9341 13.6653 31.6682 13.6653C31.7295 13.4812 31.5863 13.3176 31.3613 13.2153C31.4841 13.1539 31.7295 13.1744 31.75 13.2357C31.6682 13.0312 31.7091 12.8061 31.7909 12.6015C31.3818 12.7243 31.6886 12.3765 31.3613 12.4583C31.2795 12.5606 30.9726 12.6629 30.7885 12.6015C30.809 12.5402 30.9726 12.6015 31.0544 12.5811C30.8294 12.4993 31.4022 12.4583 31.0544 12.3561C31.1772 12.5402 31.5454 12.397 31.8727 12.4379C31.6886 12.2947 32.0978 12.4379 32.0978 12.3151C31.9137 12.1719 31.7705 12.0083 31.7091 11.8446C32.0159 11.6605 31.7091 11.3536 31.7091 11.19C31.8727 11.1081 32.241 11.1695 32.3024 11.0672C32.3024 10.9445 31.9137 11.1491 32.0773 10.9854H32.1591C32.1591 10.9854 32.4046 10.699 31.8932 10.6376L32.2819 10.699C32.2819 10.699 32.2205 10.6376 32.1796 10.6172C32.3024 10.6172 32.4251 10.5762 32.5069 10.6172C32.7729 10.5149 32.466 10.3921 32.4456 10.2898L32.2205 10.3717C32.0364 10.1671 32.2614 10.0444 32.1796 9.86024H32.4046L32.2614 9.75795C32.4865 9.77841 32.6297 9.67612 32.4456 9.61475L32.9979 9.90115C32.8547 9.98298 32.732 9.81932 32.5069 9.86024C32.3024 9.90115 32.3637 10.0853 32.5888 10.1057C32.6092 10.0444 32.5683 10.0444 32.4865 9.98298C32.7933 9.96252 32.7933 10.0648 32.9979 10.1057C32.9979 10.0648 33.0797 10.0239 32.9979 10.0034C33.1616 10.0648 33.182 10.1466 33.182 10.2489C33.0593 10.1671 32.9774 10.2898 32.8956 10.2489C33.182 10.2489 33.2639 10.3717 33.182 10.5149C32.8547 10.6172 33.3866 10.7808 33.3048 10.9445C33.0184 10.8831 32.7933 10.8013 32.691 10.699C32.5478 10.8013 32.691 10.8217 32.5478 10.924C32.7524 10.9649 33.0797 11.0059 33.2025 11.1491H32.9979C33.1002 11.2718 33.4071 11.2718 33.3457 11.4355C33.2434 11.7014 33.2434 11.9674 33.2229 12.1719H33.0184C33.4684 12.2947 33.182 12.5606 33.3866 12.7038C33.182 12.9698 33.5912 13.2562 33.2229 13.3994C33.3866 13.8495 33.5298 14.2586 33.4684 14.7291L33.1616 14.6473C33.3866 14.7291 32.9979 14.7087 33.0388 14.7905C33.2843 14.6882 33.3457 14.9132 33.5298 14.9746C33.3048 15.1792 33.5503 15.4656 33.7548 15.6497H33.5503C33.939 15.8543 33.5912 16.0793 33.5503 16.3044C33.4684 16.3248 33.2639 16.3657 33.2843 16.4476C33.6116 16.5703 33.5912 16.6317 33.7957 16.8362C33.7957 16.9794 33.7139 17.2045 33.5912 17.3272C34.0617 17.8387 33.7548 18.3706 34.0412 18.9025L33.7957 18.9434C34.3072 19.4548 33.8367 20.089 34.1026 20.5391L33.6935 20.4981C33.5707 20.6413 33.7957 20.805 34.1026 20.7845C33.9799 20.9277 34.3072 21.1323 33.9594 21.2142C33.8776 21.3574 34.1435 21.3983 34.2049 21.5006C34.0412 21.787 34.0822 21.8893 34.164 22.1552V22.0938C34.164 22.0938 33.9185 22.0529 33.898 22.1347C34.0208 22.237 33.7957 22.503 34.2867 22.4007C34.0003 22.6871 34.5118 23.0758 34.1231 23.3417C34.2663 23.3213 34.2867 23.3827 34.3686 23.4236C34.3686 23.6691 34.1026 23.935 34.3276 24.1396C34.2663 24.1805 34.1026 24.0782 34.0822 24.1805C34.1435 24.2419 34.2663 24.1805 34.3276 24.2623C34.5731 24.6715 34.0617 25.0806 34.1231 25.4489C34.389 26.1035 34.2458 26.7991 34.3072 27.4128H34.2049C34.5936 27.6174 33.8162 27.9038 34.389 28.0674C34.2867 28.1083 34.3481 28.2515 34.1435 28.2106C34.4095 28.3743 33.898 28.6811 34.2254 28.9266C34.2254 28.9062 34.2254 28.8857 34.164 28.8653C33.939 29.1108 34.2458 29.3358 34.0412 29.5813C34.0003 29.5608 33.9594 29.4994 33.8571 29.4994C33.673 29.6017 34.2867 29.7449 33.7957 29.7859C33.7957 29.8472 34.0412 29.8268 34.0208 29.7859C33.8367 30.3587 34.1435 30.9519 34.2458 31.5452C33.9594 31.9748 33.4275 31.5657 33.7957 31.9134C33.6935 31.9339 33.9799 31.9134 33.8776 31.9339C34.0208 32.0566 33.3457 32.1385 33.5912 32.2203C33.8776 32.1794 33.7548 32.2817 33.939 32.2817C33.7548 32.5476 33.4889 32.5885 33.7139 32.7931H33.5503C33.9799 33.0181 33.7548 33.2841 34.2663 33.4887C34.3481 34.7979 34.6345 36.0663 34.6959 37.3551C34.5936 38.6235 34.8186 39.8714 34.5527 41.1602C34.1435 41.4671 34.164 41.4875 34.3276 41.8149C34.2663 41.8149 34.2458 41.774 34.1844 41.8149C34.5118 41.8149 34.2254 42.0399 34.5322 42.0808C34.4708 42.5513 34.5527 43.0014 34.5731 43.4924C34.5322 43.4106 34.2663 43.3696 34.2867 43.4719L34.4913 43.5742H34.389C34.389 43.5742 34.5936 43.7174 34.7163 43.656C35.0027 44.8835 34.3276 46.1109 34.4095 47.3179C34.2663 47.6043 34.4095 48.0135 34.4708 48.3204C34.0208 49.2409 33.6525 50.0797 33.9799 51.0208C33.9799 51.0208 33.1207 50.898 32.9161 50.5093L33.1207 50.5502Z" fill="white"/>
<path d="M33.3251 9.5127C33.1614 9.55361 33.0591 9.6559 32.8341 9.57407C32.9978 9.57407 33.1614 9.5127 33.3251 9.5127Z" fill="white"/>
<path d="M31.587 12.3975C31.587 12.3975 31.5254 12.4386 31.4844 12.4386C31.4844 12.3975 31.3201 12.377 31.4228 12.3359C31.4228 12.377 31.5049 12.3565 31.587 12.377V12.3975Z" fill="white"/>
<path d="M31.484 13.1134C31.3408 13.1134 31.2181 12.9497 31.1976 12.8474L31.484 13.1134Z" fill="white"/>
<path d="M30.8708 13.8091C30.7477 13.8707 30.6655 13.8502 30.6861 13.7681C30.7682 13.7681 30.8092 13.7886 30.8708 13.8091Z" fill="white"/>
<path d="M31.2186 13.8491C31.2186 13.8491 31.1365 13.9312 31.0544 13.9723C31.1776 13.9723 30.9723 13.8491 31.2186 13.8491Z" fill="white"/>
<path d="M30.7889 15.3426C30.7889 15.3426 30.9326 15.4658 30.7684 15.4863C30.8916 15.4453 30.5836 15.3221 30.7889 15.3426Z" fill="white"/>
<path d="M31.0141 16.0173C31.0141 16.0173 30.9731 16.0584 31.0141 16.0789C30.9525 16.12 30.8293 16.0789 30.8293 16.0379H31.0141V16.0173Z" fill="white"/>
<path d="M31.6069 28.5789L31.5453 28.4968L31.6891 28.5174L31.6069 28.5789Z" fill="white"/>
<path d="M31.6075 34.0818C31.6075 34.0818 31.4638 34.1434 31.4432 34.1434C31.4432 34.0818 31.628 34.1639 31.6075 34.0818Z" fill="white"/>
<path d="M32.3636 37.0485V37.0076L32.6705 37.028L32.3636 37.0485Z" fill="white"/>
<path d="M47.0115 51.3896C47.2168 51.4923 47.1141 51.1227 47.1962 51.3896C47.0936 51.4512 47.0115 51.4923 47.0115 51.3896Z" fill="white"/>
<path d="M32.323 9.92197C33.0799 10.6175 32.2821 11.4767 32.7526 12.2337C32.7935 12.3155 32.323 12.2132 32.4253 12.3973C32.9776 13.1133 32.6912 14.218 32.2412 15.1182L32.1184 15.0773C32.0366 15.2409 32.4457 15.425 32.3844 15.6092C32.3025 15.6092 32.2616 15.5478 32.1593 15.6092C32.4048 15.6501 32.2821 15.916 32.4662 15.9978C32.3639 16.0797 32.1798 16.0797 32.0775 16.182L32.3639 16.2638C33.0186 16.5093 32.3639 16.9389 32.7321 17.3071C32.6708 17.3071 32.6094 17.2662 32.548 17.3071C32.9981 17.8799 32.9981 18.6369 33.2231 19.312C33.1208 19.312 32.9367 19.312 32.8344 19.3529C33.1208 19.3529 33.2027 19.5575 33.305 19.7211C33.0186 19.8439 33.6323 19.9871 33.5095 20.2121H33.4482C33.7755 20.3144 33.305 20.4576 33.7141 20.519L33.5095 20.6622C33.9391 20.6622 33.3459 20.9281 33.5709 21.0099H33.6527C33.7755 21.0918 33.5709 21.1941 33.6527 21.2963H33.6118C33.7755 21.5623 33.5709 21.7464 33.8778 21.685C33.6323 21.8282 33.7141 21.46 33.3663 21.685C33.8369 22.4829 34.0823 23.3421 34.3074 24.2013C34.2051 24.3445 34.1846 24.4059 34.0823 24.4673C34.1642 24.5286 34.2665 24.7537 34.4506 24.7741C34.4506 24.7537 34.3074 24.8764 34.3278 24.9378C34.2665 25.1424 34.737 24.9787 34.6552 25.1833C34.5529 25.1424 34.4301 25.1833 34.3278 25.2242C34.6142 25.2651 34.6552 25.4697 34.7984 25.5924C34.737 25.5924 34.6961 25.572 34.5938 25.5924C34.9416 25.6538 34.6756 25.9402 34.9006 26.022H34.6961C34.5938 26.3903 35.0848 25.9402 35.0438 26.2266C34.962 26.2061 34.9006 26.2471 34.8393 26.2675C35.228 26.3289 35.3303 26.6767 35.5348 26.7994C35.5144 26.7994 35.453 26.8199 35.453 26.8199C35.6167 27.004 35.6371 27.2699 35.9031 27.4131C35.8826 27.5359 35.4939 27.6382 35.678 27.8223C35.9849 27.6177 36.0258 28.1087 36.3122 27.7405C36.394 27.945 36.4963 28.2928 36.6804 28.3133C36.4963 28.3133 36.3736 28.6815 36.2508 28.5588L36.1486 28.8043C36.0054 28.8861 36.1076 28.661 35.9644 28.8043C36.0463 28.8656 36.3327 28.9884 36.3327 29.0907C36.6191 29.0907 37.0487 28.9065 37.2328 29.0907C37.0487 29.0907 36.9669 29.4384 36.8646 29.418C37.1305 29.3566 37.3965 29.2543 37.6624 29.152C37.7442 29.1929 37.4578 29.3771 37.6215 29.3975C37.6829 29.3157 37.7647 29.3157 37.8465 29.2748C37.8465 29.3361 38.1738 29.4384 37.9488 29.7453C37.8874 29.8885 37.7852 29.7044 37.7852 29.868C37.9079 29.9703 37.9897 29.868 38.1329 29.9908V30.0317C38.1329 30.1544 38.4398 30.1135 38.4807 29.868C38.4398 29.8067 38.358 30.0726 38.358 29.909C38.5421 29.7862 38.7057 29.868 38.8489 29.909C38.7671 29.9294 38.7262 30.0112 38.6444 30.0931C38.9921 29.9703 39.2376 30.0112 39.4831 30.0112C39.5854 29.868 39.2376 30.2363 39.2581 30.134C39.4013 30.5022 39.9332 30.1749 39.9946 30.5841C39.9332 30.5841 40.0969 30.359 40.0764 30.3999C40.1991 30.4818 40.0764 30.7068 40.1991 30.6454C40.1378 30.7886 40.3219 30.6454 40.4446 30.6454C40.5265 30.5636 40.4446 30.7273 40.3628 30.7068C40.5469 30.6454 41.0993 30.625 41.3038 30.9727C41.3243 30.8705 41.6107 30.6659 41.6721 30.7068L41.5698 30.9318C41.5698 31.075 41.7948 30.9727 41.7539 31.1773C41.9789 30.9523 41.1197 31.2591 41.3857 31.0955C41.3857 31.3001 41.7744 30.8091 41.6312 31.0955C41.7744 31.1159 41.9789 30.9114 42.0403 31.1569C42.0199 31.1159 41.8357 31.4433 41.9585 31.4433C42.1631 31.4433 42.0403 31.3614 42.2244 31.3205L42.3472 31.2591C42.4086 31.0341 42.5108 31.341 42.5108 31.075C42.5108 31.2591 42.8177 31.0341 42.7154 31.4024L42.6336 31.6888C42.6336 31.6888 42.8382 31.4024 42.9404 31.2796C42.9404 31.3001 42.9404 31.3614 42.9404 31.4228C43.0427 30.9727 43.145 31.4842 43.3087 31.1569C43.4723 31.341 43.7587 31.2387 43.8201 31.5456C43.9633 31.4228 44.3316 31.3205 44.5566 31.4228C44.4748 31.4637 44.4134 31.4637 44.3725 31.566C44.4952 31.7092 44.577 31.5865 44.7612 31.5251C44.6998 31.5865 44.9862 31.791 45.0476 31.9547C45.334 31.832 45.4363 31.566 45.559 31.4228C45.4363 31.8729 46.5001 31.1364 46.4387 31.5456C46.2955 31.6069 45.9068 31.7706 45.9682 31.8933C45.7022 32.3639 46.7046 31.566 46.8069 31.791L47.1547 31.4024C47.0115 31.6478 48.0344 31.1364 47.482 31.5456C47.8093 31.4024 47.748 31.6478 48.2594 31.2591C48.3821 31.566 50.3256 30.9318 49.3027 31.6683C49.5278 31.5865 49.5891 31.6683 49.9778 31.4433C50.3051 31.2182 49.4459 31.6274 49.7119 31.4637C49.8142 31.4637 50.0597 31.3205 50.1824 31.2796C50.1824 31.3614 50.2642 31.3819 49.3846 31.7501C49.18 31.9956 51.2871 30.9932 51.5121 31.1159C51.0825 31.3001 50.9802 31.3614 51.1848 31.3205L52.2077 30.9932C52.4123 31.0341 51.4099 31.4024 50.6734 31.7092C50.9598 31.6478 51.1234 31.6478 51.7781 31.4024L50.9802 31.791C51.5735 31.5046 51.594 31.5865 51.8804 31.5046L51.594 31.5865C51.2871 31.7092 51.6758 31.6274 51.8804 31.5865C52.3918 31.3819 52.3918 31.3205 52.4327 31.2796L53.517 30.9727C53.0055 31.1569 52.9851 31.1978 52.9851 31.2387L52.76 31.3819C52.4327 31.5456 53.3738 31.2182 53.2919 31.2591C52.8419 31.4228 52.9851 31.4433 52.4941 31.5865C52.3918 31.5865 53.026 31.3614 52.7191 31.4433C52.2895 31.6274 51.5531 31.8729 51.9213 31.8115C52.1872 31.7706 53.5783 31.2182 52.7805 31.6069C52.6578 31.6069 52.3509 31.7297 52.1054 31.7706L51.4508 32.0775L52.1668 31.8524L51.7985 31.9752C52.4736 31.791 51.6553 32.1797 52.3918 31.9752C52.31 32.057 51.6349 32.3229 51.4508 32.4252H51.4098C50.878 32.6503 50.9393 32.7116 51.2257 32.6912H51.103C50.9802 32.7935 50.878 32.9162 51.103 32.9162C50.4483 33.1822 48.8731 33.4686 49.3846 33.4481C49.2414 33.5709 50.0597 33.4686 50.4893 33.3458C49.7528 33.7141 50.0187 33.98 48.955 34.3482C49.0777 34.3892 49.2209 34.3482 49.18 34.4301C48.4435 34.8801 48.1776 35.5348 47.1547 35.7803C47.2161 35.6166 46.9092 35.6984 46.766 35.6575C46.8887 35.8212 46.4182 35.6984 46.766 35.8621C46.991 35.9235 47.0933 35.9848 47.3183 35.8621C47.1342 36.1894 46.6228 36.6599 46.3568 36.7213C46.5 36.7009 46.5 36.7827 46.5 36.885C46.2546 36.6599 46.0091 36.885 46.0295 37.0282L46.1727 37.1714L45.9682 37.11C45.9682 37.11 46.2546 37.4169 46.0295 37.3759C45.9682 37.335 45.9068 37.2941 45.8454 37.2737C45.8863 37.4782 45.9886 37.7646 45.784 37.7851L45.4976 37.7033C45.4976 37.7033 45.5999 37.9488 45.7022 37.9078C45.4363 38.0101 45.3544 38.1124 45.0885 38.051C45.3953 38.7057 45.1499 39.1558 44.9862 39.5444L44.843 39.4831C44.6589 39.5444 45.068 39.6263 44.9453 39.6672C44.8225 39.5854 44.618 39.6467 44.4952 39.4831C44.2906 39.5854 44.6589 39.7899 44.6793 39.8922C44.8635 39.9741 44.5975 39.7695 44.8225 39.8922C44.8839 39.9331 44.5975 40.0559 44.8635 40.1582C44.7407 40.1582 44.5361 40.0763 44.4338 40.015L44.5566 40.1582C44.1884 40.1786 44.0451 39.6876 43.5951 39.6876C43.5951 39.7286 43.5951 39.7695 43.5951 39.8104C43.2678 39.8104 43.3496 39.4217 43.1655 39.6672C43.2882 39.8308 43.6769 40.0354 43.8201 39.9741C43.8406 40.2195 44.4748 40.2605 44.4134 40.4855C44.2293 40.5059 44.4134 40.3014 44.1679 40.2809C43.9019 40.3423 44.2497 40.5264 44.1679 40.6082C44.3111 40.5264 44.577 40.6901 44.618 40.7514C44.4543 40.8333 44.352 40.6287 44.2906 40.7719C44.4543 40.8333 44.5566 40.9969 44.6998 40.8946C45.068 41.0174 44.5566 41.0378 44.843 41.1606C44.5566 41.1606 44.2497 40.8946 44.0861 41.0583C44.352 41.0583 44.4134 41.3242 44.8021 41.2833C44.7202 41.3447 44.5157 41.3242 44.352 41.2629C44.1884 41.3447 44.8225 41.5493 44.2906 41.5288L44.5566 41.5902L44.2497 41.6925C44.2497 41.6925 44.5975 41.9789 44.1884 41.9789C44.2293 41.9993 44.1884 42.2039 44.4952 42.1221C44.6793 41.9993 44.2906 41.9789 44.6793 41.9175C44.3725 41.9993 44.6998 42.0812 44.8021 42.163H44.6384C44.6384 42.163 44.6384 42.3062 44.843 42.3267C44.7407 42.3062 44.6384 42.3267 44.618 42.3471L44.8635 42.388C45.0067 42.5517 44.4543 42.4494 44.5361 42.6131L44.3316 42.4903C44.3316 42.4903 44.1679 42.5926 44.2497 42.6744L44.9044 42.7358C45.0067 42.8176 44.6589 42.7972 44.9044 42.8586L44.6384 42.7767C44.6384 42.7767 44.2906 42.8995 44.3111 43.0222C44.3929 43.1041 44.7202 43.1654 44.8225 43.0222C44.8225 43.0836 44.6998 43.1859 44.5566 43.1654C44.6384 43.2882 44.7816 43.1041 44.9248 43.2063C44.7816 43.2882 44.618 43.4723 44.4338 43.6155L44.0452 43.5541V43.6564C43.7383 43.595 43.861 43.7587 43.5337 43.7587C43.5133 43.8405 43.636 43.9019 43.7178 43.9428C44.1474 43.6564 44.4338 43.9837 44.843 43.8201C45.0271 44.0042 43.8201 44.2701 44.5566 44.311C44.6589 44.2292 45.0067 44.2497 44.8635 44.1474C44.8635 44.311 45.3135 44.1065 45.1908 44.3315C44.9657 44.2701 44.8021 44.6179 44.4748 44.5156C44.618 44.4747 44.5361 44.3724 44.4952 44.352C44.352 44.4747 44.0451 44.4747 44.1065 44.6384C44.1884 44.7202 44.2497 44.8429 44.4543 44.7611C44.6998 44.6793 44.3725 44.6179 44.6384 44.5974C44.8021 44.7407 44.4338 44.9248 44.9044 44.8225C44.8225 44.7202 45.068 44.5975 45.2317 44.5361L45.3749 44.6179L45.2112 44.6588C45.1703 44.9043 45.5181 44.5975 45.559 44.8225L45.2726 45.0475C44.9862 45.1089 45.2726 44.6997 44.843 44.9248C44.8839 45.068 45.1089 45.0271 45.0476 45.1907C45.0067 45.1907 44.9657 45.1498 44.9248 45.1293C44.9248 45.1907 44.3725 45.4771 44.7816 45.5385C44.9657 45.5794 44.9453 45.4976 45.1089 45.4158C45.2726 45.5999 45.4567 45.5794 45.559 45.7022C45.2317 45.8249 45.6408 45.9476 45.2521 45.9681C45.3953 45.8044 45.2317 45.518 44.8839 45.5794C44.5566 45.8249 44.843 45.3953 44.4543 45.4976C44.5157 45.6817 44.1474 45.8454 43.9224 45.9886C43.9224 46.0499 44.0656 46.0499 44.1065 46.0704C44.352 45.9886 44.3111 45.9272 44.5361 45.8044C44.577 46.0295 44.8021 46.1727 45.068 46.1522C44.9862 46.275 44.7612 46.3773 44.6998 46.3159C44.8839 46.5205 44.9862 46.7864 45.068 47.0319C45.334 46.6841 45.2931 47.216 45.5385 46.9501C45.5385 46.7864 45.7227 46.5409 45.9272 46.5C45.9477 46.5818 45.7636 46.5818 45.7227 46.6637C45.9682 46.6227 45.4976 46.991 45.8659 46.8887C45.6204 46.7659 45.4158 47.1137 45.1294 47.2569C45.3749 47.3183 44.9248 47.3797 45.0271 47.5229C45.2726 47.5842 45.4976 47.6865 45.6817 47.8093C45.5795 48.1775 46.05 48.3207 46.1932 48.4844C46.1523 48.6685 45.8045 48.8322 45.8454 48.9754C45.9477 49.0776 46.0704 48.648 46.0909 48.914H46.0295C46.1318 48.9344 46.1114 49.4254 46.541 49.1186L46.1932 49.3231C46.1932 49.3231 46.2955 49.3436 46.3364 49.3436C46.2341 49.4254 46.1932 49.5482 46.0704 49.5482C45.9682 49.8346 46.2955 49.7527 46.4182 49.855L46.5205 49.63C46.8274 49.6914 46.7865 49.9778 47.0115 50.1005L46.8478 50.2642H47.0524C46.8683 50.4074 46.8683 50.612 47.0524 50.5301L46.3773 50.6529C46.3773 50.4688 46.6637 50.5506 46.766 50.346C46.8683 50.1619 46.6637 50.0391 46.4796 50.1619C46.5205 50.2437 46.5614 50.2233 46.6637 50.2028C46.4591 50.4483 46.3773 50.346 46.1727 50.4278C46.2136 50.4483 46.1932 50.571 46.275 50.5097C46.0909 50.5506 46.0091 50.5097 45.8863 50.3869C46.05 50.3869 45.9886 50.2028 46.0909 50.1824C45.8863 50.3665 45.7022 50.3051 45.6408 50.1005C45.784 49.7732 45.2521 49.9573 45.1499 49.7118C45.4363 49.6095 45.6817 49.5482 45.8454 49.5686C45.8454 49.364 45.7431 49.4459 45.7636 49.2618C45.559 49.3436 45.2726 49.5073 45.0476 49.4459L45.2112 49.3027C45.0271 49.2413 44.7816 49.4254 44.6998 49.2208C44.5566 48.8526 44.3111 48.5457 44.1884 48.3003L44.352 48.1775C43.9019 48.2798 43.9224 47.8093 43.6565 47.7479C43.6155 47.3388 43.1041 47.1342 43.3087 46.8069C42.8382 46.3159 42.5313 45.8044 42.3472 45.1293H42.6745C42.429 45.1089 42.8177 45.0066 42.7359 44.9248C42.5313 45.1293 42.3881 44.8634 42.204 44.8225C42.3472 44.4542 41.9994 44.1474 41.7334 43.9019L41.938 43.861C41.5084 43.6359 41.8153 43.2268 41.8357 42.879C41.9176 42.8381 42.1017 42.7563 42.0608 42.654C41.6925 42.4903 41.713 42.388 41.5289 42.1016C41.5289 41.8971 41.6312 41.5493 41.7744 41.3447C41.5289 40.9356 41.5903 40.5264 41.6721 40.1173C41.7539 39.7081 41.8153 39.299 41.8562 38.8693H42.1017C41.9994 38.4397 42.1631 37.9897 42.3676 37.601C42.6131 37.2327 42.8586 36.9054 42.9404 36.5576L43.2678 36.8441C43.4928 36.7418 43.4314 36.3735 43.1655 36.2508C43.3701 36.128 43.3087 35.6984 43.6769 35.8007C43.8815 35.678 43.6769 35.4734 43.7587 35.3097C43.9838 35.1461 43.9838 35.2075 44.0247 35.1665C44.0656 35.1256 44.0656 35.0847 44.0452 35.0233H44.0042C44.0042 35.0233 44.2497 35.1665 44.2906 35.1461C44.2088 35.0642 44.5361 35.0233 43.9838 34.921C44.4134 34.9006 43.8201 34.7778 44.4338 34.696C44.2293 34.696 44.2088 34.696 44.0656 34.696C44.0861 34.6756 44.6384 34.5119 44.2906 34.5528C44.4338 34.5119 44.6998 34.471 44.7612 34.4505L44.3111 34.5528C43.861 34.6346 45.068 34.2459 45.0885 34.1846H44.9657C44.4543 34.3482 44.4748 34.2869 44.2293 34.3278L44.3929 34.2255C43.7587 34.5733 44.7407 33.8777 43.9224 34.3892C44.0247 34.3073 43.9224 34.3482 44.1474 34.1641C43.8201 34.4096 44.1884 33.9186 43.7997 34.2255C43.7997 34.2255 43.7997 34.2255 43.861 34.1846C43.9019 33.98 43.6565 34.2459 43.636 34.0618C43.6565 34.0209 43.6974 34.0005 43.7383 33.8982C43.7383 33.7141 43.4928 34.2869 43.6155 33.8163C43.6155 33.8163 43.5746 34.0618 43.5746 34.0414C42.8791 33.755 41.8562 33.8982 40.9765 33.7345C40.4446 33.2844 41.1811 32.9571 40.5878 33.1617C40.5878 33.0594 40.506 33.3254 40.5265 33.2231C40.3014 33.264 40.4242 32.6093 40.2196 32.7935C40.1582 33.1003 40.0764 32.9162 40.015 33.0799C39.7286 32.7526 39.7695 32.4661 39.3808 32.548L39.4627 32.4252C38.9308 32.6912 38.6853 32.2616 38.1534 32.5275C37.1919 32.057 36.394 31.4228 35.5553 30.7682C34.8393 30.0317 34.0619 29.2952 33.5709 28.4156C32.5889 26.6562 31.8116 24.9173 31.5865 22.9943C31.8525 22.4624 31.8525 22.442 31.5865 22.0124C31.6479 22.0124 31.6684 22.0533 31.7297 22.0124C31.4024 22.0533 31.6479 21.685 31.3206 21.7055C31.2592 21.0099 31.0342 20.3962 30.9319 19.7007C30.9728 19.8029 31.2592 19.8234 31.2183 19.7007L30.9933 19.5984L31.0751 19.5575C31.0751 19.5575 30.8501 19.3938 30.7478 19.4961C30.5227 18.6369 30.5227 17.7572 30.5637 16.8775C30.625 15.9978 30.7682 15.1591 30.6864 14.2999C30.8091 13.8907 30.6659 13.3179 30.6046 12.8883C31.0751 11.5995 31.4638 10.4743 31.1978 9.16504C31.1978 9.16504 32.0571 9.36961 32.2412 9.92197H32.323Z" fill="white"/>
<path d="M46.7865 51.2253C46.8683 51.0617 46.8274 50.898 47.0729 50.8162C46.9706 50.9389 46.9092 51.123 46.7865 51.2253Z" fill="white"/>
<path d="M45.6408 47.1959C45.6408 47.1959 45.6613 47.1138 45.6819 47.0933C45.7229 47.1343 45.8666 47.0933 45.8051 47.1549C45.764 47.1343 45.7024 47.1549 45.6408 47.1959Z" fill="white"/>
<path d="M45.2727 46.3774C45.4159 46.3161 45.6 46.4388 45.6819 46.5206C45.5387 46.4797 45.4159 46.4388 45.2727 46.3774Z" fill="white"/>
<path d="M45.4363 45.3756C45.5184 45.2525 45.6005 45.2525 45.6211 45.3346C45.5595 45.3756 45.4979 45.3551 45.4363 45.3756Z" fill="white"/>
<path d="M45.1089 45.457C45.1089 45.457 45.15 45.3338 45.2116 45.2722C45.0884 45.3338 45.3348 45.3749 45.1089 45.457Z" fill="white"/>
<path d="M44.9662 43.718C44.9662 43.718 44.8019 43.6358 44.9662 43.5537C44.8635 43.6153 45.192 43.6974 44.9662 43.718Z" fill="white"/>
<path d="M44.6179 43.0426C44.6179 43.0426 44.659 43.0015 44.6179 42.981C44.6795 42.9194 44.8027 42.981 44.8232 42.981L44.6385 43.022L44.6179 43.0426Z" fill="white"/>
<path d="M46.8276 31.5462L47.0739 31.4846L46.8892 31.6283L46.8276 31.5462Z" fill="white"/>
<path d="M39.1766 29.7668C39.0534 29.7873 39.1971 29.6231 39.1971 29.6025C39.2793 29.6231 39.0739 29.7463 39.1766 29.7668Z" fill="white"/>
<path d="M36.0882 27.5767L36.1087 27.5972L35.8418 27.7614L36.0882 27.5767Z" fill="white"/>
</svg>
