<svg width="43" height="43" viewBox="0 0 43 43" fill="none" xmlns="http://www.w3.org/2000/svg">
<path d="M3.25438 21.2062L19.4802 4.98878L20.5678 3.90118C20.8156 3.65501 21.1507 3.51685 21.5 3.51685C21.8493 3.51685 22.1844 3.65501 22.4322 3.90118L39.7456 21.2062C39.9995 21.4591 40.2002 21.7603 40.3358 22.0921C40.4714 22.4239 40.5391 22.7794 40.535 23.1378C40.5182 24.6159 39.2879 25.7959 37.8098 25.7959H36.0251V39.4728H6.97489V25.7959H5.15243C4.43436 25.7959 3.75829 25.5146 3.25018 25.0065C3 24.7571 2.80177 24.4605 2.66697 24.134C2.53218 23.8075 2.46351 23.4575 2.46493 23.1042C2.46493 22.3903 2.74628 21.7143 3.25438 21.2062ZM19.1484 36.4493H23.8515V27.8829H19.1484V36.4493ZM9.99833 22.7725V36.4493H16.4609V26.8751C16.4609 25.9471 17.2126 25.1954 18.1406 25.1954H24.8594C25.7874 25.1954 26.539 25.9471 26.539 26.8751V36.4493H33.0016V22.7725H37.0329L21.4958 7.24796L20.5258 8.21798L5.96288 22.7725H9.99833Z" fill="#898A8D"/>
</svg>
