<svg width="42" height="42" viewBox="0 0 42 42" fill="none" xmlns="http://www.w3.org/2000/svg">
<path d="M21 9.875C19.7021 9.875 18.4333 10.2599 17.3541 10.981C16.2749 11.7021 15.4337 12.727 14.937 13.9261C14.4403 15.1253 14.3104 16.4448 14.5636 17.7178C14.8168 18.9908 15.4418 20.1601 16.3596 21.0779C17.2774 21.9957 18.4467 22.6207 19.7197 22.8739C20.9927 23.1271 22.3122 22.9972 23.5114 22.5005C24.7105 22.0038 25.7354 21.1626 26.4565 20.0834C27.1776 19.0042 27.5625 17.7354 27.5625 16.4375C27.5625 14.697 26.8711 13.0278 25.6404 11.7971C24.4097 10.5664 22.7405 9.875 21 9.875ZM21 20.375C20.2212 20.375 19.46 20.1441 18.8124 19.7114C18.1649 19.2788 17.6602 18.6638 17.3622 17.9443C17.0642 17.2248 16.9862 16.4331 17.1382 15.6693C17.2901 14.9055 17.6651 14.2039 18.2158 13.6533C18.7664 13.1026 19.468 12.7276 20.2318 12.5757C20.9956 12.4237 21.7873 12.5017 22.5068 12.7997C23.2263 13.0977 23.8413 13.6024 24.2739 14.2499C24.7066 14.8975 24.9375 15.6587 24.9375 16.4375C24.9375 17.4818 24.5227 18.4833 23.7842 19.2217C23.0458 19.9602 22.0443 20.375 21 20.375ZM21 2C17.1723 2.00434 13.5026 3.52683 10.7959 6.23344C8.08933 8.94006 6.56684 12.6098 6.5625 16.4375C6.5625 21.5891 8.94305 27.0491 13.4531 32.2285C15.4797 34.569 17.7605 36.6765 20.2535 38.5121C20.4742 38.6667 20.7371 38.7496 21.0066 38.7496C21.276 38.7496 21.5389 38.6667 21.7596 38.5121C24.248 36.6757 26.5244 34.5682 28.5469 32.2285C33.0504 27.0491 35.4375 21.5891 35.4375 16.4375C35.4332 12.6098 33.9107 8.94006 31.2041 6.23344C28.4974 3.52683 24.8277 2.00434 21 2ZM21 35.7969C18.288 33.6641 9.1875 25.8301 9.1875 16.4375C9.1875 13.3046 10.432 10.3001 12.6473 8.0848C14.8626 5.86953 17.8671 4.625 21 4.625C24.1329 4.625 27.1374 5.86953 29.3527 8.0848C31.568 10.3001 32.8125 13.3046 32.8125 16.4375C32.8125 25.8268 23.712 33.6641 21 35.7969Z" fill="#898A8D"/>
</svg>
