<svg width="28" height="29" viewBox="0 0 28 29" fill="none" xmlns="http://www.w3.org/2000/svg">
<path fill-rule="evenodd" clip-rule="evenodd" d="M4.66667 8.93473V19.6014C4.66667 20.3086 4.94762 20.9869 5.44772 21.487C5.94782 21.9871 6.62609 22.2681 7.33334 22.2681H20.6667C21.3739 22.2681 22.0522 21.9871 22.5523 21.487C23.0524 20.9869 23.3333 20.3086 23.3333 19.6014V8.93473C23.3333 8.22749 23.0524 7.54921 22.5523 7.04911C22.0522 6.54902 21.3739 6.26807 20.6667 6.26807H7.33334C6.62609 6.26807 5.94782 6.54902 5.44772 7.04911C4.94762 7.54921 4.66667 8.22749 4.66667 8.93473Z" stroke="white" stroke-linecap="round" stroke-linejoin="round"/>
<path d="M7.33334 10.2681L14 14.2681L20.6667 10.2681" stroke="white" stroke-linecap="round" stroke-linejoin="round"/>
</svg>
