<svg width="14" height="24" viewBox="0 0 14 24" fill="none" xmlns="http://www.w3.org/2000/svg">
<g clip-path="url(#clip0_40_55)">
<path d="M1.10526 23.2681H12.8947C13.5041 23.2681 14 22.7843 14 22.1899V1.34619C14 0.751785 13.5041 0.268066 12.8947 0.268066H1.10526C0.495895 0.268066 0 0.751785 0 1.34619V22.1899C0 22.7843 0.495895 23.2681 1.10526 23.2681ZM0.736842 1.34619C0.736842 1.25088 0.775658 1.15947 0.84475 1.09207C0.913842 1.02468 1.00755 0.986816 1.10526 0.986816H12.8947C12.9924 0.986816 13.0862 1.02468 13.1552 1.09207C13.2243 1.15947 13.2632 1.25088 13.2632 1.34619V22.1899C13.2632 22.2853 13.2243 22.3767 13.1552 22.4441C13.0862 22.5115 12.9924 22.5493 12.8947 22.5493H1.10526C1.00755 22.5493 0.913842 22.5115 0.84475 22.4441C0.775658 22.3767 0.736842 22.2853 0.736842 22.1899V1.34619Z" fill="white"/>
<path d="M1.84211 19.6743H12.1579C12.2556 19.6743 12.3493 19.6365 12.4184 19.5691C12.4875 19.5017 12.5263 19.4103 12.5263 19.3149V4.22119C12.5263 4.12588 12.4875 4.03447 12.4184 3.96707C12.3493 3.89968 12.2556 3.86182 12.1579 3.86182H1.84211C1.7444 3.86182 1.65069 3.89968 1.58159 3.96707C1.5125 4.03447 1.47369 4.12588 1.47369 4.22119V19.3149C1.47369 19.4103 1.5125 19.5017 1.58159 19.5691C1.65069 19.6365 1.7444 19.6743 1.84211 19.6743ZM2.21053 4.58057H11.7895V18.9556H2.21053V4.58057Z" fill="white"/>
<path d="M7.36842 21.8306C7.77537 21.8306 8.10526 21.5088 8.10526 21.1118C8.10526 20.7149 7.77537 20.3931 7.36842 20.3931C6.96147 20.3931 6.63158 20.7149 6.63158 21.1118C6.63158 21.5088 6.96147 21.8306 7.36842 21.8306Z" fill="white"/>
<path d="M5.52632 3.14307H8.47369C8.5714 3.14307 8.66511 3.1052 8.7342 3.03781C8.80329 2.97041 8.84211 2.879 8.84211 2.78369C8.84211 2.68838 8.80329 2.59697 8.7342 2.52957C8.66511 2.46218 8.5714 2.42432 8.47369 2.42432H5.52632C5.42861 2.42432 5.3349 2.46218 5.26581 2.52957C5.19671 2.59697 5.1579 2.68838 5.1579 2.78369C5.1579 2.879 5.19671 2.97041 5.26581 3.03781C5.3349 3.1052 5.42861 3.14307 5.52632 3.14307Z" fill="white"/>
</g>
<defs>
<clipPath id="clip0_40_55">
<rect width="14" height="23" fill="white" transform="translate(0 0.268066)"/>
</clipPath>
</defs>
</svg>
