<svg width="161" height="161" viewBox="0 0 161 161" fill="none" xmlns="http://www.w3.org/2000/svg">
<g clip-path="url(#clip0_57_11)">
<path d="M80.5 0C101.85 0 122.325 8.48123 137.422 23.5779C152.519 38.6746 161 59.1501 161 80.5C161 101.85 152.519 122.325 137.422 137.422C122.325 152.519 101.85 161 80.5 161C59.1501 161 38.6746 152.519 23.5779 137.422C8.48123 122.325 0 101.85 0 80.5C0 59.1501 8.48123 38.6746 23.5779 23.5779C38.6746 8.48123 59.1501 0 80.5 0ZM15.0938 80.5C15.0938 97.8468 21.9847 114.483 34.2508 126.749C46.5168 139.015 63.1532 145.906 80.5 145.906C97.8468 145.906 114.483 139.015 126.749 126.749C139.015 114.483 145.906 97.8468 145.906 80.5C145.906 63.1532 139.015 46.5168 126.749 34.2508C114.483 21.9847 97.8468 15.0938 80.5 15.0938C63.1532 15.0938 46.5168 21.9847 34.2508 34.2508C21.9847 46.5168 15.0938 63.1532 15.0938 80.5ZM64.1887 52.5967L107.095 78.3466C107.466 78.5706 107.773 78.8865 107.986 79.2637C108.198 79.641 108.31 80.0668 108.31 80.5C108.31 80.9332 108.198 81.359 107.986 81.7363C107.773 82.1135 107.466 82.4294 107.095 82.6534L64.1887 108.403C63.8071 108.633 63.3714 108.758 62.926 108.764C62.4807 108.77 62.0416 108.658 61.6537 108.439C61.2659 108.22 60.9431 107.902 60.7185 107.517C60.4938 107.133 60.3753 106.695 60.375 106.25V54.7601C60.3735 54.3139 60.4907 53.8752 60.7146 53.4892C60.9386 53.1032 61.2612 52.7837 61.6494 52.5635C62.0375 52.3433 62.4773 52.2303 62.9235 52.2361C63.3698 52.242 63.8064 52.3664 64.1887 52.5967Z" fill="white" fill-opacity="0.6"/>
</g>
<defs>
<clipPath id="clip0_57_11">
<rect width="161" height="161" fill="white"/>
</clipPath>
</defs>
</svg>
