<svg width="193" height="154" viewBox="0 0 193 154" fill="none" xmlns="http://www.w3.org/2000/svg">
<g clip-path="url(#clip0_466_4996)">
<path fill-rule="evenodd" clip-rule="evenodd" d="M47.5306 78.9574C47.2199 80.1922 46.9737 81.3114 46.6523 82.4102C46.3522 83.437 46.0402 84.4706 45.6079 85.4479C45.0988 86.6016 44.172 86.7583 43.26 85.8995C42.7407 85.409 42.3103 84.8272 41.829 84.2929C41.4816 83.9066 41.1198 83.5365 40.6496 83.0356C40.4292 83.5029 40.2661 83.8045 40.1404 84.1216C39.78 85.0334 39.462 85.9662 39.0756 86.8662C38.796 87.5171 38.4975 88.2549 37.638 88.2813C36.7076 88.3086 36.5393 87.4806 36.2798 86.84C35.3629 84.5701 34.8746 82.2064 34.9045 79.7585C34.9398 76.8938 34.9772 74.0303 35.097 71.1694C35.1388 70.169 34.8158 69.5064 34.0712 68.8521C32.3806 67.3661 30.8617 65.7132 29.7441 63.7346C29.614 63.5022 29.455 63.2779 29.2713 63.0832C26.6696 60.3055 24.8003 57.0214 22.815 53.8188C21.8691 52.2937 21.01 50.7006 19.9249 49.2792C18.1403 46.9389 17.1734 44.2592 16.2647 41.5334C15.7829 40.0888 15.854 38.7012 16.7992 37.4552C17.9404 35.9503 19.1096 35.8397 20.6527 37.0566C20.9275 37.2723 21.1967 37.4932 21.6468 37.8556C21.9329 37.0187 21.6337 36.3668 21.5751 35.7301C21.4573 34.4239 21.897 33.4914 23.1813 32.9954C24.6864 32.4143 26.1564 31.7458 27.6603 31.1668C30.5044 30.0742 33.3266 28.9045 36.2235 27.9742C42.9262 25.8195 49.7804 25.4099 56.7002 26.8459C64.4616 28.457 72.0097 30.7506 79.1705 34.2416C82.6618 35.9455 85.8875 38.0616 89.0819 40.2388C90.1152 40.9433 91.1419 41.655 92.0672 42.291C98.2493 40.4577 101.21 40.0913 103.916 40.85C103.951 41.5788 103.988 42.3553 104.027 43.1678C104.214 43.3267 104.386 43.5854 104.616 43.6541C106.251 44.1395 107.89 44.6135 109.539 45.0339C110.335 45.2375 111.037 45.4072 111.526 46.2223C111.806 46.6903 112.468 47.0222 113.026 47.2202C114.888 47.8811 116.795 48.4128 118.66 49.0643C124.174 50.9855 129.688 52.9067 135.176 54.905C136.773 55.4861 138.295 56.2955 139.82 57.0606C140.361 57.333 140.81 57.7843 141.462 58.2735C141.037 58.7293 140.769 59.2241 140.358 59.4064C139.717 59.6925 138.98 59.7795 138.28 59.9328C137.321 60.1419 136.358 60.335 135.389 60.5384C135.004 61.0955 134.745 61.7198 134.284 62.0936C133.335 62.8631 132.685 63.6727 132.695 64.9973C132.699 65.5574 132.324 66.2178 131.93 66.6612C131.084 67.6101 130.826 68.6578 130.985 69.876C131.03 70.2263 130.97 70.5908 130.947 70.9465C130.888 71.8128 130.478 72.4799 129.736 72.916C129.046 73.3216 128.333 73.687 127.612 74.0806C127.104 75.3159 127.01 76.7395 125.88 77.6415C124.976 80.2696 124.767 82.9105 126.231 85.3992C128.97 90.063 132.637 93.7447 137.54 96.2424C145.437 100.267 153.689 103.219 162.311 105.229C167.205 106.371 172.047 107.74 176.909 109.021C177.426 109.158 177.952 109.335 178.41 109.602C178.671 109.754 178.955 110.128 178.957 110.401C178.959 110.935 178.476 111.088 178.007 111.108C177.561 111.126 177.11 111.119 176.662 111.093C175.586 111.031 174.511 110.929 173.435 110.888C168.053 110.688 162.67 110.495 157.289 110.322C156.693 110.303 156.092 110.43 155.47 110.492C155.609 111.488 155.728 112.35 155.83 113.084C155.072 114.112 154.036 113.591 153.065 113.948C153.105 114.536 153.149 115.194 153.197 115.941C152.721 116.125 152.322 116.287 151.915 116.433C150.565 116.917 150.115 117.838 150.763 119.091C152.247 121.96 153.809 124.791 155.309 127.651C156.477 129.875 157.626 132.107 158.727 134.363C159.078 135.082 159.301 135.875 159.465 136.657C159.522 136.933 159.314 137.391 159.079 137.561C158.853 137.724 158.37 137.744 158.112 137.611C157.643 137.368 157.222 137.003 156.846 136.624C151.881 131.665 147.173 126.506 143.485 120.488C140.793 116.097 137.285 112.364 133.611 108.781C133.231 108.409 132.797 108.034 132.314 107.832C129.917 106.82 127.544 105.712 125.069 104.941C122.938 104.279 120.669 104.07 118.481 103.571C117.41 103.328 116.545 103.527 115.74 104.218C114.654 105.149 113.568 106.002 111.988 106.059C111.338 106.084 110.653 106.568 110.085 106.979C109.01 107.754 107.821 108.036 106.535 107.997C104.456 107.933 102.42 108.084 100.436 108.78C99.8609 108.981 99.1949 109.01 98.576 108.984C97.0644 108.922 95.5635 108.56 94.0721 109.257C93.6654 109.447 93.0178 109.216 92.5055 109.081C91.7265 108.876 90.9734 108.567 90.1998 108.337C89.3791 108.096 88.645 108.179 87.962 108.81C87.447 109.286 86.8247 109.678 86.1896 109.981C85.4613 110.33 84.7601 110.068 84.3448 109.362C84.0289 108.823 83.7621 108.249 83.5349 107.667C82.1592 104.163 80.7 100.683 79.4717 97.1281C78.6776 94.832 77.4858 93.4079 74.955 92.7958C71.4593 91.9481 68.2764 90.1673 65.0673 88.5399C61.8603 86.9136 58.615 85.3607 55.4484 83.6621C53.4736 82.6023 51.6168 81.3267 49.6997 80.1637C49.0284 79.7562 48.3297 79.393 47.5249 78.9434L47.5306 78.9574ZM171.282 109.071C171.296 108.968 171.31 108.861 171.324 108.758C170.999 108.652 170.681 108.524 170.35 108.447C167.903 107.868 165.459 107.286 163.006 106.733C154.216 104.753 145.7 102.001 137.569 98.041C132.508 95.5763 128.333 92.2069 125.287 87.4666C124.608 86.4099 123.852 85.3973 123.234 84.3075C120.98 80.3262 118.768 76.3226 116.545 72.3238C115.76 70.9129 115.034 69.4699 114.201 68.0865C110.137 61.3256 104.713 55.7145 98.9497 50.4096C95.7708 47.4827 92.1581 45.1044 88.6836 42.5513C83.0696 38.424 77.0773 35.0224 70.5058 32.6866C65.9316 31.0603 61.2799 29.6887 56.5196 28.7249C49.288 27.2608 42.2163 27.958 35.3043 30.337C31.4085 31.6789 27.5624 33.1596 23.6983 34.5951C23.4765 34.677 23.3113 34.9098 22.9809 35.191C23.7513 37.5633 24.53 39.9402 25.2938 42.3196C25.5371 43.0812 25.7876 43.8495 25.9208 44.6335C25.9539 44.8361 25.5571 45.1101 25.2704 45.4537C22.9881 42.8652 21.6592 39.7043 18.9879 37.7733C17.8863 38.0246 17.5434 38.716 17.505 39.5747C17.4851 40.0078 17.5577 40.479 17.7158 40.8842C18.6801 43.3892 19.4687 45.9666 21.1743 48.1382C22.0022 49.1911 22.6467 50.388 23.3637 51.5279C25.6116 55.094 27.6784 58.7808 30.5009 61.9582C30.7967 62.2914 31.0274 62.683 31.2606 63.0651C32.3988 64.9197 33.8473 66.5143 35.5244 67.8791C37.4046 69.4088 39.3337 70.8846 41.3085 72.2884C43.5785 73.9005 45.9799 75.3259 48.2195 76.9778C51.4992 79.3949 55.0663 81.2684 58.7601 82.9392C61.6268 84.2345 64.4948 85.5225 67.3554 86.8334C72.1035 89.0064 76.9453 90.9149 82.021 92.1767C93.6971 95.0781 105.373 97.9848 117.056 100.855C121.423 101.926 125.724 103.178 129.915 104.826C132.553 105.863 134.928 107.215 136.742 109.458C137.588 110.502 138.541 111.462 139.477 112.429C141.616 114.634 143.467 117.074 145.001 119.708C147.828 124.559 151.679 128.59 155.262 132.839C155.467 133.083 155.705 133.669 156.402 133.173C155.488 131.533 154.541 129.917 153.674 128.26C152.22 125.479 150.826 122.667 149.388 119.875C148.769 118.676 148.627 117.506 149.375 116.312C149.558 116.019 149.669 115.68 149.893 115.187C150.362 115.162 150.893 115.136 151.551 115.103C151.371 114.577 151.238 114.257 151.151 113.924C150.893 112.945 151.142 112.519 152.043 112.453C152.746 112.401 153.454 112.418 154.218 112.403C154.135 112.037 154.106 111.775 154.016 111.532C153.892 111.197 153.683 110.894 153.583 110.553C153.346 109.747 153.68 109.061 154.481 108.907C155.354 108.74 156.259 108.622 157.147 108.642C161.005 108.736 164.859 108.887 168.716 109.016C169.572 109.044 170.429 109.057 171.284 109.077L171.282 109.071ZM113.998 64.0678C115.238 66.1577 116.327 67.9063 117.323 69.7004C118.28 71.4239 119.119 73.212 120.054 74.9503C121.013 76.729 121.892 78.5632 123.178 80.1049C123.438 79.9739 123.567 79.9512 123.585 79.8938C124.078 78.3954 124.115 76.7119 125.398 75.5301C125.567 75.3727 125.603 75.0409 125.638 74.779C125.844 73.2769 126.771 72.4217 128.118 71.8905C128.522 71.7311 128.864 71.4239 129.251 71.1717C129.307 70.7805 129.408 70.4305 129.396 70.0828C129.347 68.4357 129.496 66.8887 130.81 65.6479C131.126 65.348 131.108 64.6962 131.271 64.1098L129.178 62.9409C129.72 62.1549 130.378 62.5681 130.959 62.5301C131.697 62.4792 131.796 62.3451 132.128 61.2626C130.914 61.0261 129.602 62.0511 128.234 60.9915C129.457 60.28 130.652 60.3134 131.778 60.1193C132.845 59.9352 133.835 59.6164 134.83 59.1643C135.838 58.7066 136.988 58.5527 138.505 58.1542C137.775 57.7197 137.439 57.4779 137.072 57.3076C132.827 55.3375 128.414 53.8202 123.969 52.3902C120.123 51.155 116.257 49.9812 112.432 48.6866C111.143 48.2508 109.885 47.8567 108.519 47.806C107.934 47.7856 107.247 47.9595 106.722 47.1004C107.631 46.9525 108.445 46.8193 109.26 46.6872C108.107 46.0809 106.898 45.8553 105.741 45.4742C104.173 44.9612 102.638 44.6159 101.051 45.3435C100.982 45.3753 100.8 45.1627 100.504 44.9375C101.19 44.5084 101.822 44.1139 102.545 43.6643C102.434 42.9659 102.33 42.3123 102.222 41.6204C99.5877 41.6387 97.204 41.9701 94.9196 42.8363C94.5556 42.9742 94.2721 43.3169 93.899 43.6068C95.5731 44.9672 97.1468 46.1632 98.6259 47.4608C103.425 51.6747 107.893 56.2155 111.76 61.2982C112.685 62.5132 113.704 62.9715 115.167 62.9897C118.046 63.027 120.904 62.9746 123.724 62.3318C124.124 62.2411 124.598 61.9992 124.888 62.5512C124.807 62.6957 124.763 62.9149 124.651 62.9553C121.306 64.2091 117.761 63.7888 113.993 64.0675L113.998 64.0678ZM114.132 102.832C112.826 102.154 111.397 102.071 110.015 101.811C107.283 101.297 104.535 100.851 101.83 100.226C99.2094 99.62 96.6357 98.8133 94.0342 98.1292C93.5856 98.0113 93.0957 98.0545 92.5629 98.0196C93.0163 99.8058 94.7705 100.713 94.9526 102.578C93.8453 102.354 93.593 101.488 93.0983 100.9C92.1762 99.8024 91.3875 98.5872 90.4099 97.5455C89.3203 96.3843 87.8431 96.266 86.0977 96.2497C86.583 97.2033 86.9323 97.9158 87.3053 98.6198C88.0611 100.044 88.8352 101.46 89.5867 102.887C89.7542 103.203 89.8796 103.56 89.2477 103.838C89.0209 103.546 88.7225 103.247 88.5197 102.892C87.4079 100.947 86.2249 99.0319 85.2571 97.0178C84.6458 95.742 83.7495 95.0733 82.4458 94.7947C81.7761 94.6508 81.1063 94.5122 80.2016 94.3238C80.3281 94.9117 80.358 95.2507 80.4741 95.5566C80.9155 96.7295 81.3654 97.9016 81.8477 99.0594C83.0202 101.87 84.2047 104.674 85.4084 107.473C85.5365 107.772 85.8124 108.01 86.0593 108.324C86.4646 108.117 86.824 108.012 87.0799 107.786C88.2228 106.773 89.4992 106.771 90.8611 107.212C91.4596 107.405 92.0575 107.615 92.6737 107.723C93.1859 107.815 93.776 107.917 94.2365 107.751C95.2952 107.373 96.3452 107.486 97.4204 107.509C98.4829 107.532 99.6081 107.572 100.602 107.272C102.517 106.689 104.443 106.43 106.429 106.462C107.342 106.476 108.212 106.333 108.99 105.812C110.113 105.058 111.302 104.48 112.677 104.297C113.429 104.197 113.899 103.674 114.136 102.834L114.132 102.832ZM38.1032 85.0203C38.3399 84.3833 38.52 83.9882 38.633 83.5774C38.8661 82.7191 39.0375 81.8452 39.28 80.9894C39.5086 80.1827 40.3295 80.0075 40.9485 80.6296C41.26 80.9444 41.5193 81.314 41.7953 81.6632C42.4501 82.4976 43.1017 83.3329 43.8902 84.3448C45.2504 82.2202 45.072 79.8834 46.1529 77.7788C43.2282 75.7442 40.5361 73.5984 37.3191 71.544C37.4269 72.907 37.5231 73.9466 37.5917 74.987C37.6611 76.055 37.7306 77.123 37.7514 78.1908C37.7733 79.3487 37.7084 80.5069 37.7389 81.6641C37.7666 82.6953 37.4763 83.7627 38.1044 85.0182L38.1032 85.0203Z" fill="#B7C3CB"/>
<path fill-rule="evenodd" clip-rule="evenodd" d="M83.0361 66.7757C82.9959 68.2483 82.4314 68.9729 81.0823 69.0129C79.7937 69.0514 78.9097 69.7032 78.5504 71.0056C78.3676 71.6673 77.8234 72.1568 77.161 72.063C75.7898 71.8713 74.7672 72.5919 73.8251 73.2654C71.7118 72.3422 70.0021 71.2247 68.6409 69.6192C68.3618 69.29 68.1684 68.8704 67.9985 68.4668C67.8314 68.0728 68.3637 67.4981 68.7622 67.6475C69.2542 67.833 69.7664 68.0406 70.175 68.3609C71.3689 69.3014 72.5156 70.3022 73.6578 71.2626C74.8176 70.9652 75.9291 70.6816 77.195 70.3541C77.9344 68.6573 79.5123 67.8975 81.3099 67.6071C81.4683 66.9697 81.594 66.4684 81.7324 65.9201C83.8259 65.2018 86.0073 65.3343 88.119 65.0244C90.0934 64.7325 92.1868 65.0759 94.4035 63.9091C93.2088 63.5613 92.3746 63.247 91.5144 63.0806C87.6364 62.3308 83.7467 61.6502 79.8715 60.8857C77.4981 60.4184 75.1408 59.8545 72.7839 59.3043C72.3116 59.1949 71.9944 58.8904 72.2868 58.1925C72.6576 58.1829 73.097 58.1088 73.5152 58.1745C78.3043 58.9268 83.1001 59.6477 87.8731 60.4967C89.9882 60.8738 92.0657 61.4927 94.1443 62.0661C95.5614 62.4569 96.2393 63.1336 96.1232 63.9327C95.9534 65.0945 95.0243 65.5315 94.0545 65.7698C93.1041 66.0027 92.1142 66.1024 91.1327 66.1825C88.5429 66.3933 85.9478 66.5605 83.0375 66.7683L83.0361 66.7757Z" fill="#B7C3CB"/>
<path fill-rule="evenodd" clip-rule="evenodd" d="M42.8825 35.6889C47.8806 38.6651 48.4371 44.5174 43.8879 47.5039C39.6922 50.26 33.9056 48.4385 32.0292 43.7421C31.377 42.113 31.6066 40.5485 32.523 39.1456C34.1884 36.5956 36.7391 35.2769 39.6587 34.9361C40.8865 34.7933 42.2215 35.52 42.8825 35.6889ZM36.4288 46.2676C37.5522 46.9709 38.8356 47.2762 40.2142 47.1444C43.0184 46.8746 45.2593 44.3753 45.0656 41.751C44.9071 39.6258 42.6795 37.0218 40.5972 36.5762C40.1717 36.4848 39.7008 36.4845 39.2701 36.5526C37.1528 36.892 35.421 37.9369 34.0608 39.5577C33.182 40.6025 33.0281 41.8328 33.5991 43.0645C34.2045 44.375 35.0303 45.5432 36.4321 46.2667L36.4288 46.2676Z" fill="#B7C3CB"/>
<path fill-rule="evenodd" clip-rule="evenodd" d="M33.0859 63.1233C34.2118 63.3324 35.0759 63.482 35.9367 63.6568C39.7157 64.4191 43.3998 64.2075 47.0765 62.9815C50.7252 61.7669 53.21 59.4174 54.7562 55.9856C56.1186 52.9604 57.1577 49.8303 57.7536 46.5583C57.882 45.8582 58.011 45.1475 58.2553 44.4823C58.3836 44.1315 58.7585 43.8724 59.1179 43.4665C59.3748 43.8646 59.6349 44.0775 59.6227 44.2739C59.2625 50.0176 57.7588 55.3798 54.0668 59.9096C53.1843 60.9902 52.0343 61.9728 50.8071 62.6333C45.3276 65.5742 39.549 65.9293 33.603 64.1461C33.4548 64.1012 33.3358 63.9264 33.2234 63.7932C33.1771 63.7403 33.187 63.6402 33.088 63.1244L33.0859 63.1233Z" fill="#B7C3CB"/>
<path fill-rule="evenodd" clip-rule="evenodd" d="M36.565 40.1496C37.6686 38.2175 39.1081 37.8218 40.9959 38.9305C42.5499 39.842 43.2839 41.7173 42.5937 43.0109C41.7541 44.5867 39.3095 45.2307 37.6554 44.3094C36.1717 43.4806 35.6952 41.6679 36.5661 40.1475L36.565 40.1496ZM39.7269 40.1311C39.1561 39.8636 38.3954 40.2269 38.0086 40.9533C37.616 41.69 37.9475 42.6282 38.7006 42.9134C39.6035 43.2553 40.7686 42.9095 40.9967 42.2298C41.2026 41.619 40.5287 40.5085 39.7269 40.1311Z" fill="#B7C3CB"/>
</g>
<defs>
<clipPath id="clip0_466_4996">
<rect width="177.278" height="77.2616" fill="white" transform="translate(37.6796) rotate(29.1887)"/>
</clipPath>
</defs>
</svg>
