<svg width="118" height="178" viewBox="0 0 118 178" fill="none" xmlns="http://www.w3.org/2000/svg">
<path d="M113.224 22.7515C112.199 19.8021 113.916 17.9537 115.534 16.6791C118.397 14.417 118.757 11.661 116.666 8.0042C115.115 5.28828 113.384 3.49323 111.227 2.35881C110.701 2.07855 110.181 1.6715 109.689 1.27779C108.324 0.19676 107.425 -0.403819 106.433 0.310193C105.041 1.31115 105.541 2.83926 106.399 4.88787C106.519 5.18148 106.646 5.46845 106.752 5.74872C108.044 9.13193 108.29 12.6753 107.505 16.579C107.165 18.2739 106.699 20.5895 104.329 21.3836C102.158 22.1176 100.893 20.5361 99.8746 19.2616L99.6149 18.9412C96.5255 15.1643 92.5041 12.3817 88.6158 9.69245C87.9899 9.2587 87.364 8.82498 86.7382 8.38456C86.605 8.29114 86.4718 8.19104 86.332 8.08427C85.8393 7.71058 85.3466 7.33021 84.9338 7.40361C84.6808 7.45699 84.4278 7.70389 84.1815 8.15098C83.2893 9.73916 83.4558 12.2749 84.6209 14.764C85.846 17.3865 87.8035 19.2415 89.7277 19.5952L90.8995 19.8088C93.2631 20.2292 95.7066 20.6629 97.8705 21.6305L98.3232 21.8307L98.0569 22.2511C95.3671 26.5552 91.6984 29.7115 88.1497 32.7677L86.9113 33.8354C85.7395 34.8564 85.087 35.5704 85.9126 36.9384C86.9113 38.5733 88.0498 38.9536 89.7143 38.2196C92.8037 36.8583 95.7066 36.1109 98.5896 35.9441C99.9678 35.864 100.813 36.0842 101.326 36.6581C101.839 37.232 101.965 38.0928 101.732 39.4474C100.374 47.3149 98.9091 53.2806 96.9716 58.8058C95.953 61.7086 94.3084 63.7038 91.9514 64.9116C77.4701 72.3053 63.9942 74.2805 50.7579 70.9507C42.0958 68.7686 34.9051 70.8172 26.7289 77.7972C25.424 78.9116 24.1523 80.1528 22.9205 81.3473C18.959 85.2109 14.8576 89.2014 8.66558 90.1623C8.13959 90.2424 7.81999 90.516 7.80668 90.8897C7.7867 91.2767 8.1063 91.7705 8.83203 91.9507C9.79745 92.1842 10.7296 92.578 11.6351 92.9583C13.3995 93.7057 15.064 94.413 16.9016 93.9859C17.4609 93.8592 17.9602 93.7924 18.413 93.7924C19.1853 93.7924 19.8178 93.9793 20.3239 94.3596C21.1827 95.0069 21.6155 96.1213 21.7354 97.9964C22.4145 109.12 19.5449 116.3 12.4141 121.292C9.4246 123.381 8.00641 126.143 8.06633 129.733C8.15289 134.698 7.06763 139.563 6.01565 144.274L5.80926 145.195C5.50298 146.569 5.1967 147.944 4.88377 149.319C3.04614 157.493 1.14194 165.941 0.149891 174.416L0.116609 174.689C-0.0098947 175.757 -0.143066 176.865 0.35629 177.445C0.662561 177.799 1.20187 177.979 2.0075 177.999C2.76652 178.013 3.29251 177.859 3.63207 177.519C4.18469 176.965 4.23795 175.897 4.21132 174.923C4.17137 173.562 4.43104 172.167 4.6907 170.979C5.49633 167.276 6.32193 163.572 7.14754 159.875C8.86532 152.175 10.643 144.214 12.1877 136.346C13.0333 132.042 15.4368 129.506 19.9643 128.132C22.0017 127.511 23.0537 128.032 23.7261 129.994C26.4093 137.808 29.785 145.495 33.0541 152.929C34.5122 156.245 36.0169 159.682 37.4484 163.078C38.7734 166.228 40.4779 169.491 42.8215 173.348C43.4008 174.296 44.6059 175.77 46.1905 174.93C46.6166 174.703 46.863 174.469 46.9162 174.242C47.0028 173.889 46.6566 173.408 46.3237 172.934C46.084 172.601 45.8376 172.254 45.7045 171.893C45.0187 170.098 44.3196 168.31 43.6271 166.522C39.5258 156.005 35.2846 145.128 33.7865 133.524C33.1273 128.412 34.439 124.889 38.041 122.106C40.8707 119.917 44.466 116.921 47.1892 113.158C48.9802 110.688 51.2772 109.614 54.5397 109.654C61.0446 109.754 68.4151 109.868 75.5526 108.647C77.9428 108.24 79.3144 108.373 80.2998 109.12C81.2253 109.828 81.7313 111.069 81.9377 113.144C82.9564 123.307 84.1082 133.624 85.2268 143.606C85.6929 147.764 86.1589 151.928 86.6183 156.085C86.8714 158.407 87.1243 160.736 87.3707 163.058C87.7502 166.602 88.1297 170.152 88.5358 173.688C88.6424 174.623 88.9753 175.31 89.5345 175.724C90.1338 176.171 90.9993 176.304 92.0446 176.111C92.7837 175.977 93.2631 175.724 93.4562 175.357C93.8024 174.703 93.3164 173.588 92.9302 172.694C91.4854 169.371 91.279 165.894 91.2523 163.232C91.1392 149.726 91.1325 135.252 92.3642 119.931L92.6439 116.474L93.2231 119.891C94.122 125.216 95.2339 130.474 96.3058 135.559C98.4497 145.702 100.467 155.284 100.973 165.327C101.08 167.436 101.326 169.665 101.726 172.147C101.879 173.108 102.285 173.829 102.884 174.236C103.497 174.643 104.329 174.736 105.294 174.509C105.933 174.356 106.326 174.135 106.459 173.849C106.659 173.421 106.313 172.728 106.007 172.107C105.873 171.84 105.747 171.586 105.66 171.346C104.529 168.41 104.322 165.421 104.269 163.145C104.236 161.797 104.222 160.456 104.209 159.108C104.176 155.611 104.136 152.001 103.803 148.484C102.291 132.509 102.198 116.801 103.53 101.807C103.583 101.233 103.603 100.646 103.623 100.045C103.703 97.9364 103.789 95.7543 105.068 94.026C111.04 85.985 112.605 76.3225 114.116 66.9736L114.249 66.1528C116.513 52.1662 118.304 37.292 113.244 22.7449L113.224 22.7515ZM45.6845 112.303L44.233 113.758C41.7296 116.274 39.1462 118.883 36.3498 121.158C32.3017 124.455 30.8769 128.612 31.8556 134.224C32.8477 139.91 34.5455 145.528 36.2034 150.793L36.3232 151.167L34.2459 152.075L34.0794 151.667C33.3271 149.846 32.5681 148.031 31.809 146.209C30.1312 142.192 28.3934 138.035 26.7356 133.931C24.0857 127.371 24.1323 127.151 29.1791 122.159L29.3389 121.999C32.8277 118.549 35.744 114.472 38.0077 109.888C38.7201 108.44 40.0184 107.459 41.5698 107.192C43.2143 106.905 44.8722 107.445 46.1173 108.66C46.6499 109.174 46.9162 109.708 46.9162 110.248C46.9162 111.116 46.2371 111.776 45.6845 112.303ZM101.646 100.185C100.081 111.77 100.54 123.507 100.986 134.858C101.106 137.934 101.233 141.111 101.313 144.24L101.419 148.331L100.46 144.354C97.9038 133.75 95.2738 122.446 93.7558 111.096C93.1699 106.718 95.6533 104.629 98.0502 102.614C99.0556 101.767 100.094 100.893 100.873 99.8649L101.865 98.5503L101.646 100.185ZM108.77 82.9822C107.132 88.7343 103.523 93.3987 100.028 97.9097C99.3952 98.7238 98.7693 99.5312 98.1501 100.352C97.1181 101.72 96.1727 102.28 95.3404 102.027C94.6813 101.827 94.2152 101.146 93.9422 99.9717C90.8529 110.702 90.1604 121.492 89.488 131.942C89.195 136.54 88.8887 141.291 88.3827 145.949L88.0631 148.892L87.5305 145.982C86.3786 139.709 85.7461 133.243 85.1336 126.991C84.3279 118.75 83.4957 110.241 81.4583 101.88C80.0868 106.938 75.992 107.165 72.3301 107.365C71.2648 107.425 70.2661 107.479 69.314 107.639C66.218 108.153 63.0088 108.266 59.9128 108.38L58.7609 108.42C55.1389 108.553 51.3971 108.693 47.7152 107.305L47.1093 107.078C41.8627 105.103 41.5565 104.85 40.7242 99.8582C39.9718 100.032 39.7987 100.639 39.5923 101.56C39.5324 101.827 39.4725 102.087 39.3926 102.327C34.7319 116.1 26.8221 124.695 15.2238 128.599C12.6804 129.453 12.0745 131.522 11.4353 133.71C11.1224 134.778 10.7962 135.879 10.2435 136.853L9.15827 138.742L9.43791 136.58C9.57108 135.539 9.65762 134.491 9.73752 133.47C10.1037 128.926 10.4832 124.228 15.4502 120.331C23.4798 114.038 25.7901 104.743 22.5011 91.9107C21.5623 88.2338 22.8672 85.7448 24.2588 83.1089L24.6516 82.3683C24.9579 81.7677 25.4905 81.0269 26.2629 80.8735C26.7556 80.78 27.2416 80.9269 27.7077 81.3273C28.7064 82.1814 29.5053 82.5417 29.9581 82.3549C30.4441 82.148 30.7438 81.2205 30.8436 79.5923C31.0234 76.7562 32.881 75.6085 34.6787 74.4941C35.0781 74.2472 35.4776 74.0003 35.8638 73.7334C37.8479 72.3454 40.0051 72.4121 42.0891 72.4788C42.735 72.4989 43.4008 72.5189 44.0466 72.4922C46.9229 72.3854 49.7326 72.7924 50.8911 76.5026C51.2107 77.5436 52.3825 77.6304 53.2946 77.3969C53.8206 77.2567 54.1669 77.0432 54.34 76.7429C54.4931 76.476 54.5064 76.129 54.3866 75.6952C54.1136 74.7277 54.36 74.1738 54.6196 73.8802C54.9991 73.4397 55.6383 73.2729 56.4639 73.3864C57.942 73.5932 59.5133 73.4998 61.0313 73.413C64.2006 73.2329 67.4763 73.0394 70.4059 75.4149C70.9386 75.8487 71.7841 76.0155 72.2169 75.5284C74.1744 73.2996 76.7977 72.4989 79.3344 71.7248C81.2253 71.1442 83.0163 70.6037 84.5676 69.5093C85.4398 68.8954 86.1456 68.6285 86.7981 68.6085C86.858 68.6085 86.9179 68.6085 86.9779 68.6085C95.4003 68.6085 97.8838 62.1423 100.287 55.8831C102.125 51.0985 102.731 45.9336 103.323 40.9422C103.53 39.2005 103.743 37.3921 104.003 35.6304C104.056 35.2501 104.082 34.7496 103.869 34.5161C103.636 34.2491 103.037 34.2558 102.445 34.2825C101.725 34.3159 101 34.3092 100.274 34.3025C97.9703 34.2892 95.7931 34.2759 93.7025 35.3235C92.3775 35.9841 91.2057 35.8373 90.3935 34.9098C90.0406 34.5027 89.8741 33.9822 89.9407 33.4818C90.0006 33.008 90.2403 32.6076 90.6265 32.334C92.1778 31.2529 93.5494 29.8316 94.881 28.457C97.7506 25.4875 100.72 22.4179 105.767 22.2577C110.448 22.1043 112.591 23.6658 113.151 27.6429C115.687 45.6066 114.256 63.7105 108.77 83.0022V82.9822Z" fill="#D9D9D9"/>
</svg>
