<svg width="93" height="195" viewBox="0 0 93 195" fill="none" xmlns="http://www.w3.org/2000/svg">
<g clip-path="url(#clip0_466_4961)">
<path d="M72.4781 44.7872C77.3183 40.672 82.1807 36.6146 86.0022 31.4939C87.8484 29.0203 95.5357 19.2817 92.1458 16.3187C87.1989 11.9899 71.6195 28.4776 68.3675 31.6318C60.569 39.1905 52.7126 46.6469 44.5047 53.7829C44.4647 53.8141 44.4246 53.8497 44.3846 53.8897C42.2804 55.7494 34.7443 63.0545 36.5149 57.3688C37.8539 53.08 43.4949 48.3375 46.2975 44.8184C52.9039 36.5212 59.2121 27.9748 65.9608 19.7888C69.5108 15.4779 73.2211 10.4417 75.3431 5.22757C78.1858 -1.75276 72.5982 -0.564904 68.2519 2.0555C59.5591 7.29631 51.1021 16.7369 45.0386 24.7805C38.5435 33.3936 33.1427 42.9765 29.1879 52.9821C27.9956 55.9985 27.573 57.5423 24.8904 59.0015C22.9063 60.0781 20.593 60.5898 18.5955 61.7331C10.1697 66.5557 -3.79923 82.4383 0.969772 92.9823C1.45468 94.0544 2.12198 94.7663 2.90051 95.269C3.67013 96.0698 4.65329 96.6482 5.67649 97.1331C6.21923 97.4934 6.78867 97.8227 7.42038 98.0985C8.10103 98.3966 8.87956 98.6635 9.68032 98.8459C10.2942 99.055 10.9215 99.2063 11.5399 99.2374C13.0168 101.8 11.9758 106.467 11.5977 109.203C10.579 116.548 7.6873 122.955 5.40067 129.948C3.01172 137.249 1.72605 144.291 0.698402 151.855C-0.342593 159.498 -4.34462e-05 166.865 3.60785 173.872C4.19063 175.002 6.13471 177.004 6.09467 178.29C6.06798 179.184 4.39082 180.603 4.02603 181.609C2.82043 184.928 4.23956 188.767 7.62057 190.062C9.03081 190.6 10.8592 190.649 12.2695 190.062C13.8754 189.399 14.2491 187.522 15.4458 186.921C17.8481 185.711 21.5183 188.999 24.2276 190.053C30.736 192.58 37.4891 194.288 44.5537 194.818C51.6271 195.347 60.3065 194.818 66.8772 191.797C77.3806 186.965 63.5051 183.153 60.173 180.612C61.7078 179.095 63.0291 177.534 64.4082 176.39C64.8931 175.843 65.4225 175.332 66.0097 174.904C66.5658 174.371 67.2242 174.006 68.0828 174.126C69.0437 174.259 70.1604 174.686 71.0634 175.256C71.3037 175.358 71.5528 175.474 71.8064 175.612C73.7771 176.657 76.1216 179.473 78.5906 178.775C81.856 177.854 81.7626 173.53 81.1531 171.007C80.4991 168.316 78.8042 165.873 77.0024 163.809C75.6545 162.261 72.5404 160.81 71.6774 159.16C71.2725 158.386 71.1836 157.167 71.2147 155.832C71.1702 154.622 71.2191 153.412 71.1747 152.197C71.1035 150.217 70.8899 148.247 70.8632 146.262C70.8632 146.218 70.8766 146.187 70.8855 146.151C70.5474 143.869 70.2004 141.587 70.0803 139.322C69.8045 137.858 69.5108 136.324 69.3863 134.904C69.2528 134.201 69.0927 133.49 69.0793 132.782C69.0793 132.764 69.0793 132.747 69.0749 132.733C68.9503 132.061 68.6122 131.474 69.2217 130.998C69.5286 130.753 69.76 130.464 69.9468 130.148C70.2538 129.112 70.5785 128.062 70.6542 126.865C70.9745 122.034 68.9014 116.904 67.3977 112.428C64.4438 103.633 60.8448 95.0421 54.1717 88.3198C52.4367 86.5758 50.546 84.5961 48.6109 83.1012C45.9105 81.0191 46.1463 82.4739 45.9239 79.3775C45.5279 73.8253 47.7256 69.7945 44.3846 64.6739C48.5486 61.6486 53.3265 59.4108 57.5972 56.4656C62.7889 52.8843 67.6824 48.8802 72.487 44.7961L72.4781 44.7872ZM13.4395 187.117C13.3861 187.219 13.306 187.277 13.2259 187.308C11.9136 188.767 9.72481 189.096 7.75403 187.891C5.92117 186.77 5.34284 184.848 5.61421 182.997C5.85444 182.116 6.1792 181.262 6.78422 180.537C6.95772 180.332 7.13122 180.172 7.30472 180.043C7.34031 179.967 7.39369 179.901 7.49156 179.856C7.5316 179.838 7.56719 179.834 7.60278 179.82C7.60278 179.82 7.60278 179.816 7.60278 179.812C7.714 179.772 7.82966 179.736 7.94088 179.709C8.02985 179.687 8.11438 179.678 8.19446 179.665C8.24339 179.656 8.28788 179.647 8.33681 179.643C8.35461 179.643 8.3724 179.643 8.3902 179.643C9.35112 179.594 10.0852 180.216 10.837 181.031C11.4598 181.711 12.2116 182.294 12.8967 182.926C13.3105 183.206 13.6797 183.584 13.9778 183.98C14.0623 184.069 14.1246 184.163 14.1735 184.265C14.1913 184.296 14.2135 184.327 14.2358 184.358C14.3114 184.483 14.3515 184.612 14.3781 184.745C14.4093 184.834 14.4137 184.914 14.3959 184.99C14.3781 185.729 13.7598 186.525 13.4484 187.117H13.4395ZM70.881 162.661C70.881 162.661 70.8899 162.648 70.8899 162.643C70.8766 162.528 70.9166 162.407 70.9923 162.314C70.9967 162.278 71.0056 162.243 71.01 162.207C71.0367 162.212 71.059 162.221 71.0857 162.225C71.2236 162.118 71.4104 162.069 71.5839 162.176C74.0663 162.447 76.4864 165.62 77.7365 167.528C79.0222 169.49 80.4413 172.106 79.9297 174.504C79.9163 174.722 79.8897 174.94 79.8496 175.158C79.6939 175.986 79.1022 176.68 77.9678 176.519C76.8779 176.368 75.8191 176.092 74.9338 175.443C73.1677 174.148 71.2103 173.254 69.1594 172.533C69.146 172.529 69.1372 172.524 69.1238 172.52C68.8658 172.413 68.5944 172.346 68.3141 172.32C68.2296 172.306 68.1673 172.257 68.114 172.199C67.9627 172.102 67.8604 171.933 67.9049 171.71C68.1273 170.629 68.8435 169.597 69.2039 168.547C69.2217 168.494 69.2395 168.44 69.2573 168.391C69.2573 168.365 69.2573 168.342 69.2573 168.316C69.2751 168.298 69.2884 168.271 69.3018 168.253C69.4441 167.844 69.582 167.435 69.7244 167.021C70.1426 165.58 70.5029 164.12 70.8721 162.665L70.881 162.661ZM45.4567 83.0478C45.568 83.1413 45.6747 83.2258 45.7859 83.3148C45.826 83.3237 45.8616 83.3281 45.9016 83.3459C49.2604 85.0988 52.0275 88.1819 54.2696 91.2116C54.8791 91.6921 55.3862 92.3105 55.8622 92.9511C57.0767 94.5928 58.2912 96.3679 59.2922 98.143C60.4533 100.198 61.6989 102.383 62.6198 104.554C62.8511 105.101 63.0513 105.657 63.2426 106.218C63.9055 107.699 64.515 109.203 65.0532 110.729C65.3869 111.37 65.6983 112.019 65.9519 112.691C66.2188 113.162 66.3701 113.687 66.4991 114.221C66.5703 114.453 66.6325 114.688 66.677 114.929C67.0685 115.854 67.2821 116.846 67.5801 117.829C68.0695 119.449 68.719 121.037 69.0348 122.705C69.3507 124.36 69.5197 126.198 69.3284 127.879C69.3462 127.946 69.3507 128.017 69.3329 128.097C69.3151 128.191 69.2884 128.289 69.2617 128.382C69.1994 128.743 69.0971 129.112 68.9325 129.419C68.9325 129.437 68.9325 129.454 68.9281 129.468C68.8969 129.619 68.8035 129.717 68.6878 129.766C68.4387 130.037 68.0962 130.197 67.6112 130.14C67.0463 130.068 66.5658 129.686 66.1521 129.156C65.3113 128.271 64.7374 126.856 64.3281 125.775C64.1724 125.517 64.0212 125.259 63.8832 124.983C63.3227 123.875 62.5397 122.883 61.908 121.807C60.649 119.658 59.2655 117.585 57.962 115.463C56.9077 113.745 55.533 112.273 54.3497 110.658C53.7402 109.826 53.0907 109.029 52.459 108.215C52.3255 108.042 52.2054 107.859 52.0586 107.704C50.7907 106.369 49.4962 105.052 48.2461 103.7C47.4364 102.819 46.3643 102.289 45.4612 101.533C44.1666 101.066 45.0519 102.708 45.3455 103.192C47.3252 104.532 48.7265 106.422 50.1724 108.309C52.0497 110.751 54.2741 112.878 56.0802 115.382C57.882 117.878 59.4701 120.53 61.0138 123.19C61.0583 123.226 61.1028 123.266 61.1384 123.333C61.6722 124.32 62.3351 125.241 62.78 126.278C62.7844 126.291 62.78 126.3 62.7889 126.313C62.9268 126.585 63.0558 126.861 63.1715 127.145C63.6386 128.12 64.1502 129.13 64.8442 129.939C64.942 130.037 65.0399 130.135 65.1422 130.233C65.2623 130.353 65.3869 130.469 65.507 130.589C65.9474 130.949 66.4457 131.234 67.0374 131.394C67.242 131.447 67.3621 131.634 67.3755 131.839C67.3755 131.848 67.3755 131.857 67.3755 131.87V131.879C67.3888 131.897 67.4022 131.919 67.4111 131.941C68.2919 134.526 68.3586 137.534 68.5188 140.239C68.5366 140.541 68.5677 140.844 68.59 141.146C68.6344 141.302 68.6789 141.458 68.6567 141.604C68.6478 141.671 68.6478 141.733 68.6389 141.8C68.719 142.81 68.8124 143.824 68.9147 144.834C68.9948 145.252 69.0704 145.671 69.1194 146.093C69.2306 147.036 69.3996 147.993 69.3284 148.99C69.324 149.079 69.3284 149.167 69.324 149.256C69.3507 149.599 69.3863 149.942 69.4041 150.284C69.453 151.058 69.4975 151.841 69.5331 152.629C69.5464 152.767 69.5642 152.909 69.5776 153.047C69.6221 153.541 69.6754 154.03 69.5954 154.515C69.6399 156.642 69.582 158.777 69.3107 160.868C69.1594 162.043 68.8925 163.19 68.5677 164.32C68.2786 165.424 68.0116 166.536 67.589 167.586C66.6192 170.006 65.4848 172.36 63.8343 174.397C62.3618 176.221 60.7024 177.863 58.834 179.278C58.309 179.825 57.704 180.256 56.9477 180.363C56.2448 180.466 55.3818 180.252 54.541 179.918C53.5667 179.58 52.6414 179.091 51.7828 178.508C50.7774 177.823 50.2168 176.911 49.6786 175.914C48.9534 174.807 48.335 173.605 47.6766 172.542C47.5476 172.337 47.4142 172.133 47.2807 171.928C47.254 171.888 47.2318 171.852 47.2051 171.812C46.4621 170.7 45.6391 169.619 44.8517 168.52C43.2101 166.394 41.4529 164.361 39.6734 162.341C37.676 160.072 35.2915 158.31 32.8402 156.602C32.2797 156.21 31.8482 156.206 31.519 156.539C31.0741 156.989 31.0519 157.865 31.5323 158.314C31.9283 158.684 32.3642 159.022 32.8269 159.298C33.6277 159.774 34.3217 160.374 35.0112 160.993C35.336 161.282 35.6607 161.576 36.0299 161.802C36.7818 162.261 37.4313 162.843 37.9963 163.502C39.967 165.811 41.9512 168.106 43.833 170.487C44.9362 171.888 45.915 173.396 46.8314 174.931C47.0227 175.251 47.2006 175.59 47.3652 175.928C48.0993 177.027 48.2416 178.464 49.1803 179.447C50.6172 180.946 53.4644 181.507 55.404 182.138C56.3827 182.454 57.4593 182.677 58.5715 182.872C58.7317 182.944 58.9052 183.01 59.1009 183.064C60.2576 183.371 61.4009 183.66 62.5442 184.06C63.6742 184.456 64.8886 184.941 65.9385 185.52C66.9484 186.076 67.6513 186.512 67.3132 187.766C67.202 188.175 67.0285 188.438 66.8327 188.669C64.9064 190.164 60.7647 191.352 57.6684 191.806C57.2769 191.899 56.881 191.988 56.4851 192.073C55.2216 192.335 53.9271 192.5 52.6102 192.464C51.0977 192.42 49.5718 192.62 48.0592 192.531C45.1898 192.366 42.3026 192.424 39.4643 191.868C38.9083 191.761 38.3611 191.623 37.8183 191.477C36.8218 191.276 35.8476 190.947 34.8644 190.702C31.3766 189.826 27.9689 188.687 24.6502 187.308C21.5984 186.04 18.3464 184.705 15.695 182.712C14.4582 181.782 13.3638 180.746 12.3095 179.674C11.0505 178.677 9.84937 177.6 8.7194 176.439C8.63043 176.426 8.5459 176.39 8.47028 176.297C8.19446 175.968 7.93198 175.634 7.67396 175.291C6.90433 174.388 6.24593 173.418 5.72988 172.337C3.97709 169.232 2.89161 165.762 2.79819 162.154C2.65138 161.438 2.68697 160.69 2.64248 159.974C2.56685 158.799 2.4067 157.607 2.56241 156.415C2.56241 156.13 2.56685 155.845 2.5802 155.565C2.5802 155.36 2.59355 155.156 2.60244 154.947C2.598 154.898 2.59355 154.853 2.5891 154.804C2.57575 154.426 2.51792 154.035 2.5891 153.674C2.88271 152.184 2.78929 150.658 3.06511 149.159C3.38986 147.41 3.53222 145.626 3.90146 143.873C4.24846 142.227 4.55542 140.577 5.156 138.997C5.34729 138.49 5.43626 137.947 5.60087 137.431C6.30821 135.216 7.03779 133.014 7.8875 130.851C9.00857 127.114 10.3521 123.444 11.6066 119.711C13.8443 113.047 15.0543 106.712 14.2046 99.6779C14.1735 99.4065 14.4983 99.1707 14.7518 99.233C14.7518 99.2063 14.7563 99.1751 14.7652 99.1484C15.8373 99.4777 17.2565 99.1306 18.2885 98.9749C19.9524 98.7258 21.585 98.4233 23.2088 97.9917C24.7747 97.7159 26.314 97.3199 27.831 96.7816C28.4939 96.5458 29.1567 96.3145 29.8507 96.1677C29.8952 96.1588 29.9397 96.1454 29.9797 96.1365C30.3267 95.9675 30.6826 95.8029 31.0385 95.6516C32.2752 95.0421 33.5253 94.4593 34.7487 93.8275C35.416 93.3382 36.1412 92.9467 36.8174 92.4795C38.4278 91.3762 39.8336 90.0193 41.1237 88.5511C41.5864 88.0217 42.138 87.5679 42.6007 87.0385C43.6372 85.864 44.607 84.6361 45.4567 83.0701V83.0478ZM43.7084 78.6212C42.8676 83.8976 39.3665 87.8126 35.118 90.8868C30.4024 94.2991 17.3588 98.9527 9.56465 96.8439C7.82966 96.6793 5.93007 95.229 4.74672 94.3614C4.51983 94.1968 4.51093 93.9299 4.60881 93.7386C4.63105 93.6763 4.66664 93.614 4.73782 93.5562C5.55638 92.8799 6.36159 92.1948 7.10453 91.4474C7.11342 91.2338 7.07783 91.0514 6.97106 90.9269C6.83315 90.918 6.69969 90.9135 6.56623 90.9269C5.42737 91.5542 4.07051 93.6051 2.93165 92.3238C2.37556 91.9145 2.17537 91.2783 2.0686 90.6021C2.02411 90.3129 2.18427 90.0994 2.4156 90.0504C2.50457 89.9881 2.61579 89.9525 2.76705 89.9036C3.22526 89.7523 3.65234 89.5699 4.02158 89.2585C4.58211 88.7825 4.73337 88.2442 4.53763 87.7459C3.71017 87.4478 2.78929 87.5234 1.86841 87.2877H1.82837C1.51696 87.2877 1.32122 86.994 1.3835 86.7048C1.65042 85.4636 1.99742 83.9866 2.65583 82.7631C3.4299 80.6988 4.6444 78.6924 6.05463 76.9173C6.29041 76.5168 6.52619 76.1254 6.75308 75.7383C8.00761 73.6073 9.65808 71.7209 11.442 69.9948C12.3896 69.016 13.3683 68.1307 14.3603 67.3921C14.4048 67.361 14.4493 67.3299 14.4938 67.2987C16.4824 65.706 18.6266 64.3224 20.9222 63.2057C23.2177 62.0891 25.8335 61.3594 27.9645 59.9447C28.1647 59.7445 28.3648 59.5443 28.5561 59.3263C30.4112 57.1997 30.994 53.0978 32.0662 50.513C33.2985 47.5456 34.8021 44.7205 36.2746 41.8732C38.8059 36.9883 41.9601 32.2102 45.2121 27.7524C49.2203 22.258 53.936 17.2174 58.6293 12.3102C62.1883 8.5865 68.7368 2.00212 74.0263 1.42821C75.5433 6.29976 65.6227 16.9415 62.6154 20.643C57.5928 26.8181 52.5658 33.0377 47.7211 39.2973C45.4078 42.287 43.219 45.3968 40.8256 48.3553C39.9581 49.423 38.6235 50.7176 37.3067 52.0835C35.4694 55.1221 32.9559 58.2452 34.7265 61.0524C35.6652 61.6708 36.9108 61.9111 38.0719 61.5641C40.0783 60.9635 42.9833 57.7736 44.6382 56.4033C56.4895 46.6068 66.5658 34.8795 78.2169 24.9318C80.7749 22.7474 83.7022 20.1759 86.7095 18.6366C91.5185 16.1719 91.1804 18.6232 89.3209 22.3203C86.3936 28.1483 81.5268 32.9398 77.0113 37.5355C71.9398 42.6918 66.3078 47.1096 60.5378 51.4695C54.6166 55.9407 47.1917 59.2907 41.6887 64.0377C44.5092 66.8939 44.3268 74.7328 43.704 78.6123L43.7084 78.6212Z" fill="white"/>
<path d="M58.3223 133.138C56.5518 130.064 53.2152 128.111 50.3058 126.126C47.6722 124.329 45.0652 122.452 43.1434 119.889C42.525 119.342 41.9333 118.768 41.3684 118.163C40.9724 117.736 40.5454 117.206 40.1049 116.628C39.2285 115.689 38.3744 114.733 37.5514 113.736C36.5504 112.517 35.5851 111.272 34.6419 110.008C34.4328 109.728 33.8234 108.767 33.116 107.953C32.5733 107.49 32.0261 107.099 31.4789 106.823C30.2288 106.938 31.4522 109.216 31.906 109.812C31.9772 109.906 31.995 109.999 31.9861 110.084C34.2015 113.714 37.6003 117.042 40.1405 119.951C43.8685 124.222 48.8066 127.23 53.193 130.736C55.5063 132.586 57.6061 133.227 54.4609 134.824C52.2187 135.963 48.4062 135.202 46.1151 134.664C39.7268 133.156 33.7833 129.018 28.8497 124.854C28.2047 124.311 27.5329 123.617 26.8389 122.852C25.7534 121.931 24.7124 120.957 23.6359 119.996C23.4579 119.845 23.28 119.693 23.102 119.542C22.7595 119.253 22.4214 118.928 22.0877 118.59C20.5929 117.229 19.0003 115.832 17.2431 114.906C17.203 114.906 17.1586 114.915 17.1141 114.906C16.6781 114.813 16.0197 114.777 15.7973 115.267C15.7795 115.302 15.775 115.342 15.7661 115.378C16.7715 117.892 20.9933 120.058 22.7951 121.731C25.1128 123.884 27.5774 125.735 30.0286 127.697C34.8377 131.536 39.7579 135.158 45.8927 136.662C49.7097 137.596 59.1498 137.284 58.3179 133.142L58.3223 133.138Z" fill="white"/>
<path d="M22.488 81.1614C22.8217 79.9824 23.5735 79.0793 24.6812 78.5276C25.4642 78.1406 25.8468 78.3986 26.1493 79.2128C26.6431 80.543 26.3451 81.6508 25.3441 82.6206C25.0638 82.892 24.7613 83.0878 24.3876 83.2123C23.0085 83.675 22.2478 83.1011 22.3813 81.673C22.3946 81.5129 22.4435 81.3527 22.4836 81.1614H22.488Z" fill="white"/>
</g>
<defs>
<clipPath id="clip0_466_4961">
<rect width="93" height="195" fill="white"/>
</clipPath>
</defs>
</svg>
