<svg width="441" height="73" viewBox="0 0 441 73" fill="none" xmlns="http://www.w3.org/2000/svg">
<path d="M-81.2365 56.2755C-79.0198 55.9285 -79.9942 57.5239 -79.4033 58.2694C-76.6911 58.2907 -78.3218 57.0435 -77.5312 56.1862C-75.8239 56.3259 -74.3728 57.4541 -73.1395 57.2197C-73.0887 56.9749 -72.8486 56.851 -73.1744 56.5996C-71.2646 57.486 -67.9762 55.9111 -65.7386 57.039C-65.6062 56.8928 -65.5484 56.7618 -65.524 56.6444C-65.753 57.4037 -65.7013 58.1395 -65.5598 58.6386C-64.5646 58.5182 -63.5874 59.2724 -63.3431 58.2916C-63.95 58.4108 -64.0572 58.0413 -64.3829 57.7899L-63.2825 58.0488C-62.5386 56.5793 -64.7712 57.7911 -64.9132 56.8016C-62.8197 56.9499 -60.2913 57.7092 -58.7887 57.112C-58.6495 55.7519 -62.4919 57.1915 -60.5752 55.7303L-62.915 56.5727C-61.3609 54.2499 -64.3572 56.9272 -62.9806 54.4757C-59.8662 53.6408 -59.3378 54.6389 -56.2233 53.804C-55.4041 54.4335 -56.3096 54.9095 -55.4904 55.539C-50.8079 56.2038 -52.4157 51.7444 -48.8593 53.0131C-47.8801 53.7575 -47.3169 55.3756 -45.0863 54.1736L-46.0983 52.7994C-43.0485 52.2269 -44.0485 54.685 -40.9611 53.242C-41.6126 52.7392 -43.4409 53.085 -43.0038 52.8489C-41.0773 51.3897 -41.41 53.4858 -39.812 53.2658L-39.6631 51.9078C-36.3646 51.6626 -32.6277 52.1108 -28.9682 51.8485C-29.2206 51.4898 -29.8989 51.1653 -29.1068 50.6453C-24.4451 50.6727 -19.3684 49.1418 -15.0674 47.7564L-13.2323 48.6579C-12.8395 48.5862 -12.5748 48.0487 -13.0306 47.8827C-11.3706 47.2159 -12.8395 48.5862 -11.9593 48.9219C-10.9665 48.8623 -10.7552 48.0891 -11.428 47.8372C-8.26259 48.3814 -2.51074 48.7166 0.519376 47.0574L-0.153452 46.8055C2.27044 46.001 2.96867 48.7399 5.13385 47.3609L4.66221 47.2222C9.99371 45.9893 16.0975 46.2034 19.991 43.9267C20.9922 45.4518 25.2378 42.4617 25.8888 44.6904C28.8219 43.1541 27.8806 42.8669 32.1302 41.5322C33.2775 41.2697 34.0477 42.7264 35.5203 42.7663L35.3993 41.577L37.5124 42.5668L38.357 41.0058L39.7406 41.1294C39.2121 41.2648 38.6689 41.816 38.8038 42.1504C40.9769 42.4071 43.8137 40.6465 43.7887 40.0285L48.8951 40.3728C48.7258 39.9087 47.8692 39.8536 47.1687 39.6368C49.9828 40.4962 47.482 38.3231 50.0651 39.1142C49.7746 39.4318 50.3309 39.8025 50.4254 40.0365C51.5476 39.1561 54.2998 38.7874 56.3863 38.8218L55.8818 38.0534C59.5405 37.3518 63.7135 37.4207 67.8536 36.8599C66.4159 37.44 66.9474 38.8166 68.1793 38.7862L68.5044 37.4647C69.3861 38.1378 67.2996 38.1033 69.0359 38.8413C70.5584 38.4932 69.8923 37.2725 68.951 36.9854L70.8933 37.1738C70.9529 36.7878 70.493 36.6414 70.3119 36.1851C71.1818 36.8659 73.3894 34.4948 74.6811 35.7023L74.7407 35.3164C78.8809 34.7556 80.8133 34.9419 84.1913 34.56C84.3974 35.6342 85.6888 35.2178 86.7994 35.969C89.2361 35.3 91.871 34.0694 94.8697 33.7927C97.0388 34.069 95.603 34.6393 96.629 35.1584C96.6538 34.1525 99.6545 33.866 98.0147 33.3522C101.619 33.0582 102.618 32.9692 107.259 33.1964C106.814 33.6659 106.283 33.9132 106.62 34.2078C107.465 34.2707 108.441 33.5539 108.26 33.0976L108.031 33.0195C113.31 33.8592 119.415 28.6506 123.731 30.1993L123.49 30.1289L127.83 30.6717C129.746 30.2519 126.576 30.0744 127.934 29.2839C132.675 30.359 135.066 28.1383 138.939 28.768C141.468 25.4833 149.225 27.6743 152.899 25.3215L152.751 26.0363C153.851 26.5913 153.936 25.4956 154.651 25.2457C154.61 25.7887 153.628 25.9935 154.301 26.2964C162.951 26.0991 171.831 23.1714 180.521 21.5016C183.702 20.9358 182.77 24.8379 186.612 22.7138L185.315 21.5769C191.97 22.3342 198.544 19.9393 205.03 20.4778C204.621 20.2297 204.557 19.8488 203.949 19.9268C205.177 18.8333 208.898 19.3089 209.006 20.0667C209.986 19.8717 209.154 19.352 209.718 18.8971C210.996 18.2021 213.229 19.6967 213.834 18.6989C213.939 18.5368 213.418 18.439 213.172 18.398C214.101 18.7439 217.233 17.8209 216.521 18.9906C218.839 18.2049 221.124 18.9547 222.956 18.0989C224.329 19.1599 226.961 17.0605 227.549 18.7043C227.183 16.9739 231.565 16.8207 233.155 17.4773C232.59 17.0025 234.401 16.786 233.733 16.1164C235.455 15.9423 237.068 16.0931 236.865 17.0212C239.795 14.5651 243.407 17.9798 244.892 15.1015C250.099 15.4562 254.887 15.5609 259.526 15.5018C259.169 13.7734 254.436 15.8656 254.431 14.0162C258.872 14.2733 261.538 15.5004 265.816 14.6209C266.911 14.2658 265.101 13.9313 264.685 13.6715C269.116 13.9266 273.085 12.6153 277.056 13.1633C277.028 13.0042 276.595 12.8737 276.186 12.7786C276.957 12.7547 277.933 12.334 277.929 13.1401L277.161 13.0013C276.068 14.2859 280.447 15.082 280.641 15.6737C279.103 13.5368 284.408 14.6983 282.047 12.0437C282.568 12.1415 283.229 12.4522 283.178 12.9931C283.911 12.7571 284.114 12.4212 283.292 11.9035C286.072 12.0409 285.19 12.9917 287.66 12.7073C287.608 12.3186 287.094 12.2326 286.795 11.8029C288.129 12.4165 289.462 13.03 291.525 12.4877C291.375 12.2729 291.588 11.939 290.959 12.013C294.56 11.7385 297.294 13.378 301.16 12.2699C299.827 10.717 302.445 11.5868 302.515 10.1203L304.684 10.3456L303.898 11.1323C305.759 10.9259 307.504 11.8189 309.056 11.1808L307.619 10.7195L311.126 10.6503L309.205 11.3956C311.162 11.9548 309.19 13.241 311.621 12.6013C311.1 12.5035 313.479 12.4047 314.361 11.4539C315.327 11.8177 316.316 12.217 317.656 11.7186C317.963 11.2207 317.216 10.1465 317.416 9.82041C318.44 10.9417 321.796 9.72804 323.074 10.9021C322.66 10.6324 322.572 9.87867 322.677 9.71664L323.531 10.619C324.36 10.2189 324.475 10.0589 324.271 9.46521C326.843 9.02852 323.628 11.3846 326.623 10.29C326.378 10.2392 326.473 10.0751 325.962 9.97929C329.013 9.25379 331.988 10.0242 334.775 9.29482C335.48 7.76617 332.259 9.16121 333.104 7.84537C337.222 7.73936 341.744 8.83061 345.67 8.1231L344.948 8.35135C345.687 10.3531 347.807 7.07534 349.892 7.85506C349.383 7.74945 349.147 6.77107 349.296 6.98591C351.979 6.4088 354.891 6.99241 359.053 7.26326L358.5 6.78078C360.059 6.15449 362.685 6.14769 364.398 5.76764C364.952 6.25012 365.936 6.08649 365.398 6.90441C370.483 3.46534 375.693 7.69158 380.215 4.7996C379.646 4.83477 378.827 4.45043 379.284 4.4125L383.346 4.57088C383.095 5.48889 382.858 5.15378 382.066 5.9189C382.617 6.41117 383.788 6.72545 384.785 6.64625C382.927 6.1996 384.685 5.20603 385.434 4.64653C385.325 4.93013 385.613 5.21459 385.573 5.50261C387.559 3.7595 386.063 7.27903 388.851 5.9986L388.66 5.54027C389.749 5.70492 390.789 6.25754 391.938 6.03626C392.343 4.96637 390.754 5.63754 390.625 4.78349C392.261 4.72453 393.982 6.5215 395.382 5.3822C394.666 5.14176 393.671 5.21117 392.965 4.97276C394.487 3.64409 394.692 3.93187 395.873 3.6559L395.753 3.69231L398.473 2.93895L397.792 3.3185C400.019 5.87413 401.979 3.51305 404.849 5.08872C402.063 3.6019 404.34 4.14568 404.06 2.98461C404.741 2.60506 405.782 2.16729 405.459 1.85512C406.823 2.71012 407.583 0.968078 409.504 2.24477C409.563 1.85884 410.897 2.12524 410.539 1.19308C412.246 1.3837 410.183 1.87501 410.352 2.33906C413.037 3.47802 416.383 0.393323 420.24 1.93875C423.511 2.46411 424.185 3.74763 427.211 4.22222C428.195 3.56829 426.315 2.8822 426.315 2.8822C427.918 2.24445 429.155 2.2866 430.715 2.64092C430.392 2.32875 430.698 2.03478 431.148 1.58691C432.388 1.61926 432.035 2.92488 433.638 2.28713C433.345 1.87907 432.952 1.21536 432.338 0.822673C433.815 1.08814 435.284 1.73991 436.805 2.03512C437.181 1.35725 435.851 1.07125 435.303 0.661373C437.012 0.893192 439.728 1.08905 440.29 2.12465L439.214 2.53473C439.832 2.5607 439.505 1.62483 439.041 1.44699C437.556 0.679387 436.957 1.89303 436.888 2.27694L437.969 2.48074C436.959 4.74267 433.64 2.27733 431.483 2.53458L432.454 4.10461L430.176 2.87634C429.726 3.32421 429.445 4.23615 430.528 4.43018C429.02 5.30199 429.131 3.926 427.85 4.88571C427.708 5.02983 427.783 5.10686 427.914 5.16467L426.386 4.75567C426.697 5.07561 426.197 5.91144 427.113 5.63162C424.45 6.7031 422.674 4.62922 421.721 5.92272L421.948 6.01064C418.163 5.6954 421.515 4.84848 418.614 3.62364L416.89 6.66692L416.447 5.50274C416.066 5.56671 415.302 5.70445 415.471 6.1685C413.978 5.44007 415.683 5.64047 414.8 4.92618C412.999 6.12539 409.619 4.74027 409.316 6.64832C408.584 5.79195 411.055 5.84484 409.025 5.34205C408.594 7.41787 406.7 5.12543 405.051 6.18255C405.648 7.19486 407.218 6.51963 405.579 7.57878C404.43 5.88004 402.283 8.20253 400.83 7.97252C400.661 6.56906 397.667 7.61267 395.218 7.30889C395.409 7.76721 390.73 8.41052 388.529 9.07736L388.614 9.3094C388.074 7.92095 385.781 8.34391 384.076 8.19449C384.207 9.03874 384.54 9.35295 385.477 9.65969L383.89 9.77978C383.477 9.35714 382.968 9.14955 381.932 9.07745L382.413 10.1066C380.305 10.221 378.075 9.2069 375.423 10.1274C375.186 9.14908 377.36 7.1896 374.437 6.75694C374.374 7.30563 374.346 8.22918 375.109 8.38759C374.855 8.33479 374.196 8.01433 373.722 8.28356L374.942 9.0983C373.736 9.59375 374.239 8.401 373.255 8.56462C373.342 9.32815 372.568 9.16771 372.76 9.7692C373.015 9.82201 373.596 9.38096 374 9.6486C372.9 9.88003 371.59 10.4355 371.195 11.0584C371.258 10.6116 371.113 10.0301 370.293 9.99287C368.186 10.1073 369.651 10.9728 368.455 11.4703C367.903 10.978 366.602 11.6375 366.471 10.4971C365.857 10.5536 365.784 11.1002 365.574 11.4243C364.445 11.0064 360.473 11.694 361.594 10.3742L361.872 10.2683C361.813 10.2561 361.754 10.2439 361.686 10.2297C358.008 9.39551 354.316 11.5403 350.736 11.3697L350.778 11.7563C348.623 11.5135 346.047 11.9187 344.463 11.2328C343.839 11.2872 343.045 12.0621 343.354 12.4938C341.707 12.3566 341.487 11.9432 339.21 12.7781C340.898 13.302 338.699 13.4178 340.917 13.1119C338.849 13.6326 338.426 14.2905 336.079 13.4462C336.941 14.3604 334.608 14.8262 333.587 14.6248L334.996 13.7935C333.86 13.752 332.884 13.9275 331.899 14.1009L332.56 15.3412C328.416 17.3003 324.563 13.427 321.543 16.3649C320.317 15.5796 323.816 15.4986 322.697 14.5414C320.741 14.9118 318.856 16.9616 318.24 17.0278C315.604 18.0132 315.535 15.3945 312.741 16.163C313.058 15.6671 313.279 14.4057 311.119 14.1824C309.153 14.5509 308.881 16.3532 310.158 16.5977C310.639 16.5952 310.848 16.4241 310.82 16.2651C311.472 16.3697 312.336 16.4877 311.595 17.059L311.296 16.6293C310.362 17.1914 307.64 17.4133 308.345 18.1008C306.812 17.8133 307.631 17.4112 308.714 17.064C306.246 17.9819 304.747 17.477 302.191 18.1825C302.579 17.8852 302.913 17.311 302.495 17.357C298.724 18.301 300.721 16.6521 298.106 16.7021C296.706 17.5453 298.803 18.3172 296.134 17.9884C294.584 18.6167 295.925 19.2421 296.595 19.5547C294.127 18.8998 292.21 20.6061 290.873 20.9006L292.161 21.1372C291.394 20.9984 290.777 21.0646 290.149 21.1386L290.774 20.1448C290.051 20.3828 289.434 20.4491 289.487 20.8377C288.665 20.32 289.908 19.2502 288.32 18.5839C287.384 19.1558 285.283 18.4034 285.065 19.655C288.108 18.9177 284.854 20.9185 287.486 20.8313C286.963 20.7433 286.357 20.8115 285.633 21.0496C285.542 21.1941 285.767 21.2918 285.97 21.3442C283.136 22.7479 284.469 20.1137 281.415 20.4606C281.873 21.1072 280.842 21.8431 280.331 21.7473C281.566 21.6051 280.797 20.5366 279.615 20.1281C277.715 20.8677 277.445 19.9538 276.418 20.1289L277.568 19.7547C277.1 19.1061 276.13 19.3032 274.736 19.2285C274.673 19.7772 276.015 19.4632 275.556 19.756C273.914 18.7108 272.259 21.3702 270.053 20.7798C269.118 21.3517 270.101 22.0765 269.27 22.4864C266.798 21.851 266.802 23.7004 264.235 23.2291C264.85 22.2333 265.001 22.4383 263.147 21.7269L267.321 21.9391L264.549 20.874C265.784 20.7318 267.224 21.1735 267.946 20.9452C266.615 20.3219 266.764 20.5367 267.272 19.7127C265.731 21.2825 263.831 19.2646 261.972 20.4007L262.275 22.6798C259.446 24.0129 256.92 22.0592 253.161 23.0464L254.343 22.5154C253.736 21.6541 251.975 22.6574 250.696 22.4228C250.899 23.1695 250.149 23.5348 249.68 24.0708C249.677 23.4981 246.897 24.4433 246.378 22.9569L244.781 24.1576C241.743 24.9165 241.024 22.3775 238.091 22.9744C239.075 23.6992 237.797 24.3941 239.844 24.7676C238.858 24.89 237.982 25.127 237.907 24.6009C237.386 25.1463 235.053 23.8863 234.218 24.7139C233.767 24.4263 233.541 23.6441 232.429 23.8323C232.322 24.0041 232.474 24.2092 232.474 24.2092C232.429 23.8323 230.681 23.8885 231.553 22.9357C228.772 25.6577 223.014 23.728 220.597 26.076C218.414 26.0624 215.778 26.1182 213.814 26.2827C213.963 26.4975 213.868 26.6616 214.23 26.5426C211.608 27.5614 212.316 24.5423 209.333 25.6801C207.907 27.0899 211.041 26.1571 210.114 26.7408C209.982 29.2973 206.361 26.8102 204.462 28.5304L204.985 28.6184C203.503 29.6591 201.011 28.1312 198.449 28.6209C198.449 28.6209 198.6 28.826 198.513 29.0018C196.6 27.9311 193.204 27.9109 190.672 27.8556C191.56 28.7445 191.86 28.2347 191.507 29.2952C190.375 29.2852 191.644 27.6487 189.389 27.6405C188.727 28.2693 187.181 28.929 187.099 30.0149L189.203 29.8181C188.288 31.3237 186.479 30.1008 185.401 30.4696L185.617 31.0556C182.381 31.2424 182.153 29.7346 178.705 30.2553L179.003 29.7553C176.929 28.4775 177.523 30.7862 175.501 29.8971L175.119 31.4927C173.826 31.2757 170.576 30.5504 168.303 30.5283C169.704 31.5032 172.395 31.7754 174.094 32.2503C172.855 32.4121 169.886 32.644 169.148 31.9699C169.661 32.056 170.334 32.3589 170.804 32.0582C169.147 31.0403 167.074 30.6922 164.618 31.0101C165.415 33.9124 158.289 32.5261 156.788 35.0337C152.303 34.4506 148.216 36.5749 143.128 37.031C144.642 34.5059 141.642 37.1518 141.659 34.7553C140.465 34.7527 140.015 34.8534 139.93 35.0195L136.531 36.8781C135.774 37.6709 137.719 37.2572 137.678 37.8002C135.111 38.3095 136.717 38.9387 135.091 39.7861C135.336 38.8975 134.041 38.6902 132.608 39.1997L134.544 37.8445C130.778 37.0431 131.671 40.2207 127.872 39.4327L129.117 40.028C127.198 39.8241 122.223 40.9164 120.158 39.2523C119.858 39.5679 119.507 40.2714 120.352 40.3343C115.927 41.1834 110.155 39.5674 106.839 41.1775L107.249 41.7119C106.395 41.647 105.659 40.8102 104.695 41.5192C104.78 41.7512 105.105 42.0536 104.72 42.1372C104.251 41.9887 102.38 41.4066 101.321 41.8815L102.345 42.4105C98.0898 43.7236 95.4529 41.6652 91.7594 41.7468C91.9885 43.4488 88.6355 44.4486 86.959 44.9486L87.0535 45.1827C82.0088 46.0666 78.2653 44.9122 73.4841 44.8703C70.8167 47.095 63.7182 46.9503 59.1682 48.6006C59.8437 48.1995 58.8774 47.2943 58.0228 47.2294C56.972 47.7161 54.8335 46.4556 55.2109 47.9841L55.5959 47.9005C54.9704 49.5376 52.655 49.4251 50.9017 49.7048L50.3354 47.7082C46.1228 51.277 38.1076 48.2153 35.9446 51.2084C34.7626 50.8509 33.3865 51.0353 32.2163 50.6701L32.4204 51.7541C29.3776 52.4404 27.8494 52.7669 24.0132 53.0435L24.8949 53.7166C22.7566 54.0799 21.7533 50.9408 19.769 51.1522L19.394 52.8616C15.6465 53.3508 12.0436 55.3098 8.13987 54.3367C8.23432 54.5708 8.40562 55.025 9.02155 55.0098C7.26616 55.2993 2.34671 57.0569 2.68688 54.7274C2.84318 56.1896 -1.15993 55.4002 -3.2716 55.0439L-2.81216 56.0788C-4.71034 54.9395 -4.81756 54.5701 -7.24916 54.5253C-7.79393 54.7391 -7.62653 55.4581 -6.91385 55.0749C-8.71813 55.8955 -8.52209 54.2613 -10.7289 55.1516L-9.78366 55.7153C-11.714 56.0605 -11.6034 55.6749 -12.7853 55.0213C-14.068 54.7552 -16.4289 55.7975 -16.5773 56.8084C-16.9225 56.2568 -18.0945 55.6052 -19.1959 56.0406C-19.2967 56.4282 -18.8528 56.6019 -18.6239 56.6801C-21.7682 57.856 -23.6187 56.0934 -25.6995 57.4593C-25.6923 57.8183 -25.8153 58.0174 -25.9869 58.1554C-23.417 57.7795 -21.3534 57.4314 -21.557 57.379C-21.4149 58.3684 -23.4715 58.8304 -21.6341 59.9672C-23.4053 59.4467 -26.4914 58.2245 -28.454 58.9714C-28.5372 59.0768 -28.6223 59.1918 -28.6764 59.3542L-28.4475 59.4323C-28.8998 59.5938 -29.333 59.5653 -29.748 59.4486C-30.3714 59.6971 -30.7669 59.8806 -31.3893 59.9762C-31.515 60.8284 -33.7149 60.75 -34.7439 60.9349C-34.8126 59.8381 -36.1429 60.1954 -34.9939 59.1367C-35.1476 59.2376 -34.781 59.2421 -34.0863 59.1922C-33.9256 59.2051 -33.7391 59.1927 -33.6277 59.2464C-33.653 59.2207 -33.6783 59.1951 -33.7114 59.1576C-33.0245 59.0958 -32.1354 58.9942 -31.1206 58.8779C-32.0196 58.4361 -32.939 58.0922 -33.9956 58.8535C-34.6227 58.2332 -35.3086 57.6008 -35.6869 57.3078C-36.8994 59.0172 -39.5163 60.2106 -39.7703 61.1894C-43.0227 61.0152 -47.2843 61.8164 -49.5665 60.0665C-50.4991 59.9343 -50.515 60.7991 -50.806 61.1677C-50.2617 61.301 -49.643 61.174 -49.3193 61.4352C-51.1943 61.1688 -54.6755 61.9992 -55.311 60.6316C-57.4929 61.5986 -53.8501 61.7619 -56.9973 61.967L-56.5136 62.3431C-62.3235 65.4887 -66.9943 60.1385 -73.3783 64.0331C-72.9294 63.7892 -72.7108 63.6712 -72.6482 63.4186C-80.212 65.8124 -88.783 64.4942 -96.1421 67.6249C-98.2536 68.3512 -98.6219 67.468 -100.05 66.9675L-100.357 68.2009L-102.821 67.1792C-106.175 66.6572 -107.979 70.8276 -112.32 69.5493L-111.908 68.6953C-113.35 69.0498 -116.607 68.8952 -116.234 69.7588C-116.404 69.6419 -116.835 69.0113 -117.344 69.4979L-117.298 70.1101L-121.038 69.5795C-123.754 70.4152 -120.249 71.9287 -124.296 72.6315C-125.845 72.6165 -128.855 71.4713 -128.346 70.9847C-127.739 70.8654 -126.843 70.3874 -126.888 69.7654L-128.312 69.6434C-128.826 67.8825 -130.151 66.1982 -126.942 64.4638L-124.423 65.2211L-123.791 64.2391L-125.789 64.4681C-124.78 63.4927 -123.959 64.1124 -123.086 64.4873C-122.965 64.0018 -122.682 63.6214 -122.235 63.3873L-119.662 64.7686C-119.488 64.0285 -120.905 63.5203 -119.4 62.9132C-118.194 63.5513 -120.216 64.6333 -118.341 64.8996C-117.332 63.9242 -117.755 63.3054 -116.329 63.8157C-116.208 63.3301 -116.532 63.0689 -117.088 62.9434C-115.83 63.3269 -113.929 62.7306 -113.18 63.6008C-112.15 62.4255 -109.153 63.2921 -109.52 61.6127C-109.093 61.9668 -107.243 62.6468 -106.153 62.5662C-108.426 60.8183 -102.106 61.8635 -102.946 59.759C-101.218 61.3737 -97.5241 59.8114 -94.7869 60.4506C-94.9546 60.3239 -95.2804 60.0725 -95.5009 60.2003C-94.0568 59.836 -93.7152 59.2227 -92.8194 58.7446C-92.4122 60.2282 -90.0884 60.2507 -88.7229 61.0037C-87.1417 59.2891 -90.0626 59.3879 -89.705 57.9097C-89.6235 59.142 -86.4137 58.6843 -86.8785 59.793C-85.639 58.6918 -85.7622 59.1871 -85.2368 57.8357C-84.7224 59.6887 -83.9159 57.9667 -82.6129 58.9723C-80.7568 57.7538 -82.3526 57.1266 -80.0893 57.3918C-79.131 56.6612 -81.164 56.2702 -81.164 56.2702L-81.2365 56.2755ZM-28.912 52.2177L-28.908 52.1981C-29.3554 52.238 -29.7379 52.2608 -29.9871 52.2806C-29.7595 52.2665 -29.4496 52.2491 -28.9022 52.2197L-28.912 52.2177ZM-24.552 51.6309C-25.0764 51.7468 -25.74 51.8441 -26.433 51.9352C-26.5358 52.3326 -26.3148 52.6951 -25.8788 52.6119C-26.1499 52.3923 -25.157 52.0365 -24.552 51.6309ZM-32.726 60.4139C-32.0126 60.4699 -31.8088 60.2263 -31.7503 59.9933C-32.0819 60.0164 -32.4645 60.0392 -32.9724 60.0257C-32.9957 59.9903 -33.0483 59.9487 -33.0696 59.9035C-32.9768 60.0963 -32.8722 60.2814 -32.724 60.4041L-32.726 60.4139Z" fill="#D4C4B6"/>
</svg>
