<svg width="205" height="264" viewBox="0 0 205 264" fill="none" xmlns="http://www.w3.org/2000/svg">
<g clip-path="url(#clip0_111_15687)">
<path d="M90.054 143.952C91.0114 147.751 89.0966 148.828 86.3142 149.681C79.792 151.701 73.3147 153.915 66.5532 154.977C63.5464 155.44 62.0355 156.712 62.0355 159.853C62.0355 162.576 61.7962 165.313 61.5419 168.021C60.9884 173.765 65.0274 179.764 60.3601 185.239C54.9748 179.285 51.0107 172.464 50.2178 164.177C49.8738 160.497 48.707 159.524 44.9971 160.9C32.3865 165.598 19.6563 169.966 6.98593 174.498C5.89391 174.887 4.74206 176.054 3.82955 175.86C1.89982 175.471 3.29102 180.452 1.09203 177.715C-0.70307 175.486 2.54306 175.037 3.79963 174.438C17.3975 167.961 32.1173 164.551 46.1489 159.24C58.954 154.393 72.6864 152.823 85.5214 148.095C87.5558 147.348 90.787 147.766 90.054 143.952Z" fill="#5B5B5B" stroke="#5B5B5B" stroke-width="0.75" stroke-miterlimit="10"/>
<path d="M72.0881 82.4248C77.1592 80.0164 82.1855 77.5183 87.3165 75.2594C90.3083 73.943 91.535 72.2377 91.6696 68.6924C92.0286 58.5201 92.4325 48.1535 101.887 41.2872C102.799 40.629 103.772 40.0606 104.519 39.5819C105.447 39.896 105.537 40.2102 105.088 40.5243C94.1678 48.0787 92.4774 59.6421 93.3001 71.2653C94.078 82.2603 92.7167 93.0907 92.4026 103.966C92.1483 113.106 91.879 122.276 91.3255 131.805C91.3255 120.825 90.9665 110.189 91.4901 99.6129C91.7145 95.0653 89.7847 90.6225 91.5649 85.9253C92.6569 83.0232 89.7847 82.2453 87.5409 82.9185C82.5296 84.3995 77.4135 81.4675 72.5369 84.6687C72.4022 83.9357 72.2526 83.1878 72.118 82.4548L72.0881 82.4248ZM80.525 80.4353C80.6896 80.7793 80.8392 81.1234 81.0037 81.4675C83.6964 81.4675 86.404 81.5572 89.0966 81.4375C91.52 81.3478 91.8341 79.448 91.6397 77.6529C91.2956 74.6162 89.4407 76.4262 88.2739 76.89C85.6411 77.9521 83.098 79.2236 80.525 80.4203V80.4353Z" fill="#5B5B5B" stroke="#5B5B5B" stroke-width="0.75" stroke-miterlimit="10"/>
<path d="M44.5932 163.055C48.2732 191.118 62.0505 207.064 90.8768 204.656C90.0241 205.03 88.8423 207.319 86.3142 206.406C80.6896 204.402 80.7943 207.767 80.8691 211.791C81.1982 228.92 82.2005 246.063 79.433 263.131C79.9267 251.074 80.4802 239.017 80.1212 226.96C80.0314 223.849 80.2558 220.722 80.2259 217.611C80.1062 207.543 80.0464 207.633 70.8016 204.536C55.0197 199.241 47.7645 186.929 44.2192 171.701C43.6358 169.203 43.4414 166.615 43.0674 164.072C43.576 163.743 44.0846 163.399 44.6082 163.07L44.5932 163.055Z" fill="#5B5B5B" stroke="#5B5B5B" stroke-width="0.75" stroke-miterlimit="10"/>
<path d="M119.269 173.242C127.841 131.222 132.254 89.695 127.392 48.3928C129.367 50.8461 130.07 54.9599 130.249 59.0886C131.326 83.8609 130.384 108.573 127.467 133.196C126.21 143.832 125.088 154.498 122.515 164.939C121.857 167.587 121.259 170.25 119.254 173.257L119.269 173.242Z" fill="#5B5B5B" stroke="#5B5B5B" stroke-width="0.75" stroke-miterlimit="10"/>
<path d="M165.388 4.53262C174.334 1.73526 183.444 0.718042 191.986 5.19082C202.622 10.7556 206.466 25.1164 201.051 36.8444C200.078 38.9536 198.792 40.9282 197.655 42.9626C199.66 42.6934 200.542 41.1376 201.425 39.6268C206.361 31.1898 205.03 14.6151 198.986 8.79597C189.487 -0.344058 175.919 -2.06436 165.373 4.51766L165.388 4.53262Z" fill="#5B5B5B" stroke="#5B5B5B" stroke-width="0.75" stroke-miterlimit="10"/>
<path d="M165.807 46.3434C163.668 48.2432 161.544 50.143 158.268 53.0451C159.18 49.6793 159.749 47.6149 160.302 45.5356C160.751 43.8602 161.544 42.1698 160.362 40.4944C152.673 29.664 155.291 19.1926 161.469 8.8558C154.917 13.4034 151.371 23.5307 155.485 33.3439C158.687 40.9282 159.674 47.6748 156.712 55.3638C160.497 52.7758 163.728 50.1281 165.807 46.3434Z" fill="#5B5B5B" stroke="#5B5B5B" stroke-width="0.75" stroke-miterlimit="10"/>
<path d="M98.7303 200.437C105.208 194.499 111.012 188.006 115.679 180.527C112.717 189.428 107.287 196.249 98.7303 200.437Z" fill="#5B5B5B" stroke="#5B5B5B" stroke-width="0.75" stroke-miterlimit="10"/>
<path d="M26.9563 173.152C14.9442 184.73 7.10557 188.201 4.02399 183.997C9.24473 186.57 12.0271 181.993 15.6323 180.123C19.5516 178.088 23.2016 175.501 26.9563 173.152Z" fill="#5B5B5B" stroke="#5B5B5B" stroke-width="0.75" stroke-miterlimit="10"/>
<path d="M191.342 48.1235C184.656 51.3697 177.954 51.7586 171.267 48.1235C177.969 53.7183 184.85 53.7183 191.342 48.1235Z" fill="#5B5B5B" stroke="#5B5B5B" stroke-width="0.75" stroke-miterlimit="10"/>
<path d="M181.963 20.8381C182.801 20.1948 183.519 19.4618 184.386 18.9831C187.288 17.3975 190.579 19.1776 190.938 22.4686C191.208 24.9518 190.37 27.106 188.799 28.931C187.498 30.4269 185.987 31.7283 184.536 33.1046C183.803 33.8076 182.995 34.421 182.262 35.1241C181.828 35.5429 181.439 35.6027 180.976 35.2736C179.121 33.9572 177.236 32.6708 175.426 31.2945C174.394 30.5166 173.631 29.4545 173.047 28.2877C172.195 26.5973 171.895 24.8322 172.464 22.9772C173.376 19.9854 176.563 18.1903 179.465 18.9831C180.587 19.2973 181.409 19.9704 181.948 20.853L181.963 20.8381ZM173.331 25.1762C173.361 26.4478 173.975 27.8539 174.977 29.0955C176.697 31.2347 179.046 32.596 181.29 34.0769C181.379 34.1367 181.634 34.0769 181.739 33.9872C182.591 33.2691 183.474 32.5511 184.282 31.7882C185.508 30.6214 186.78 29.4845 187.902 28.198C189.173 26.7469 189.906 25.0117 189.831 23.0371C189.772 21.6758 189.263 20.5239 187.976 19.8807C186.69 19.2374 185.478 19.5516 184.356 20.3295C183.519 20.9129 182.92 21.6907 182.501 22.6182C182.412 22.8276 182.098 23.0819 181.918 23.052C181.709 23.0221 181.529 22.7229 181.365 22.5135C181.29 22.4237 181.305 22.2742 181.26 22.1545C180.916 20.9428 179.824 20.0602 178.567 19.9704C175.725 19.761 173.317 22.0049 173.331 25.1912V25.1762Z" fill="#5B5B5B" stroke="#5B5B5B" stroke-width="0.75" stroke-miterlimit="10"/>
<path d="M104.22 67.0319C104.22 68.6774 102.395 69.6946 101.228 68.5278C98.2366 65.536 98.2366 68.6774 98.2366 67.0319C98.2366 65.3864 99.583 64.0401 101.228 64.0401C102.874 64.0401 104.22 65.3864 104.22 67.0319Z" fill="#5B5B5B" stroke="#5B5B5B" stroke-width="0.75" stroke-miterlimit="10"/>
<path d="M72.0582 84.2349C72.0582 84.2349 91.505 87.2267 91.505 90.2185V87.2267L72.0582 84.2349Z" fill="#5B5B5B" stroke="#5B5B5B" stroke-width="0.75" stroke-miterlimit="10"/>
<path d="M107.212 38.6095C107.212 38.6095 116.188 37.1136 122.171 41.6014C128.155 46.0891 128.993 51.3846 128.993 51.3846C128.993 51.3846 125.073 43.3516 120.675 41.6014C113.196 38.6095 107.212 38.6095 107.212 38.6095Z" fill="#5B5B5B" stroke="#5B5B5B" stroke-width="0.75" stroke-miterlimit="10"/>
<path d="M87.7653 254.021C87.7653 254.021 89.2612 218.119 86.2693 206.152H89.2612V227.095C89.2612 236.07 87.7653 254.021 87.7653 254.021Z" fill="#5B5B5B" stroke="#5B5B5B" stroke-width="0.75" stroke-miterlimit="10"/>
</g>
<defs>
<clipPath id="clip0_111_15687">
<rect width="205" height="263.221" fill="white"/>
</clipPath>
</defs>
</svg>
