<svg width="164" height="172" viewBox="0 0 164 172" fill="none" xmlns="http://www.w3.org/2000/svg">
<path d="M163.985 12.8534C164.145 11.6538 163.02 11.1385 162.055 10.9252C159.518 10.3476 156.999 9.5568 154.551 8.79262C148.763 6.98881 142.778 5.1139 136.373 5.95805L135.721 6.04692C132.845 6.43789 129.584 6.88218 126.976 5.04282C118.811 -0.697396 109.575 -0.475243 100.812 0.608823C100.472 0.653251 100.106 0.653249 99.7397 0.662135C98.5606 0.679907 97.8102 0.733218 97.4171 1.63068C96.9526 2.6792 97.5243 3.52334 98.4355 4.69626L98.641 4.96285C103.876 11.7782 111.138 15.377 120.232 15.6524C120.705 15.6524 121.205 15.5991 121.741 15.528C123.394 15.3059 125.448 15.0215 126.342 17.6073C127.288 20.3708 125.207 22.1479 123.537 23.5785C121.036 25.72 118.525 27.7993 116.096 29.7986C111.835 33.3174 107.422 36.9606 103.313 40.7637C94.7641 48.6809 84.277 52.0397 69.4306 51.7376C66.7865 51.6754 64.0977 51.5244 61.4893 51.3822C50.8682 50.778 39.8898 50.156 29.8761 55.8251C23.4087 59.486 16.5304 59.3083 10.0631 58.5708C9.57178 58.5174 9.08048 58.4019 8.61597 58.2864C8.02641 58.1442 7.46362 58.0198 6.91871 58.0021C5.83784 57.9665 5.06965 58.1709 4.88206 58.5352C4.7034 58.8818 4.96244 59.5482 5.59667 60.3657C8.52664 64.1599 11.8496 67.9275 17.2629 68.6473C19.2371 68.9049 21.9348 69.2603 22.4797 72.6014C24.1055 82.5979 25.1149 93.1453 18.2992 102.502C16.6555 104.759 15.6729 106.732 15.3156 108.535C13.6452 116.844 11.1618 125.081 8.75887 133.034C5.90037 142.497 2.94363 152.289 1.36253 162.223C1.25533 162.908 0.99626 163.645 0.728275 164.427C0.210171 165.938 -0.325778 167.502 0.245922 168.523C0.576437 169.11 1.27319 169.51 2.363 169.741C3.3992 169.963 4.17634 169.883 4.74804 169.492C5.80212 168.772 6.07012 167.013 6.32917 165.325C6.43637 164.614 6.5346 163.947 6.69539 163.352C9.07152 154.404 18.4242 126.245 23.6767 117.066L23.7392 116.959C24.436 115.751 25.1506 114.498 25.9903 113.352C27.4285 111.406 28.6434 110.579 29.7868 110.748C30.8855 110.917 31.7609 111.983 32.4666 114.018C33.0294 115.644 33.6368 117.261 34.2442 118.87C34.7802 120.282 35.3073 121.695 35.8164 123.126C37.4065 127.613 38.9786 132.101 40.5598 136.588C43.8738 146.016 47.304 155.763 50.7521 165.325C51.3863 167.084 52.1456 168.79 53.3962 169.323C54.0572 169.607 54.8255 169.545 55.7456 169.145C56.4512 168.834 56.8711 168.47 57.0229 168.035C57.2909 167.262 56.7282 166.231 56.1833 165.236C55.9153 164.747 55.6651 164.294 55.4954 163.841C55.0309 162.597 54.5664 161.361 54.0929 160.117C50.1 149.543 45.9641 138.605 44.2668 127.187L44.0168 125.57C42.9091 118.443 41.7657 111.077 47.9025 104.786C51.8865 100.707 54.8344 96.6019 56.9157 92.2479C58.5594 88.8091 60.9623 87.1208 64.2317 87.1208C65.0267 87.1208 65.8665 87.2185 66.7597 87.414C69.0733 87.9294 71.3869 88.427 73.7005 88.9246C75.9784 89.4133 78.2473 89.902 80.5252 90.4085C95.97 93.8384 96.2648 94.2027 96.3541 109.886C96.4167 121.047 96.3541 132.394 96.3095 143.359C96.2737 151.072 96.238 158.794 96.238 166.506V167.173C96.2113 168.728 96.1933 170.487 97.0866 171.358C97.5511 171.811 98.239 172.024 99.2305 171.998C100.168 171.971 100.812 171.749 101.142 171.349C101.705 170.674 101.491 169.421 101.294 168.212C101.205 167.688 101.124 167.191 101.098 166.72C100.008 147.162 101.919 126.965 106.797 106.687C106.85 106.465 106.895 106.243 106.948 106.021C107.279 104.448 107.663 102.671 109.887 101.018L110.405 100.636L110.691 101.214C111.075 101.969 111.442 102.671 111.799 103.346C112.514 104.715 113.193 106.003 113.764 107.327C116.408 113.52 119.044 119.723 121.679 125.916C125.225 134.278 128.78 142.639 132.362 150.983C134.703 156.421 137.222 161.664 139.151 165.627C139.616 166.586 140.259 167.226 141 167.457C141.706 167.679 142.501 167.564 143.359 167.102C143.948 166.782 144.306 166.444 144.395 166.098C144.547 165.556 144.145 164.88 143.716 164.161C143.546 163.876 143.377 163.583 143.234 163.299C142.724 162.25 142.144 161.202 141.581 160.18C140.33 157.896 139.035 155.524 138.329 153.009C135.408 142.604 131.648 132.278 128.003 122.3C124.984 114.018 121.857 105.452 119.222 96.8685C116.346 87.4851 115.39 79.5945 120.044 71.5707C121.134 69.6869 121.929 67.3144 122.554 64.0977C124.921 51.7998 130.344 39.7951 139.634 26.3242C141.536 23.5608 144.145 20.6551 149.04 20.0154C152.836 19.5178 156.615 18.3893 160.474 17.1719C162.395 16.5677 163.708 14.9416 163.985 12.8356V12.8534ZM56.2547 89.0579L56.2368 89.1023C54.8433 92.4522 53.1818 95.4379 51.3059 97.9614C50.368 99.2321 49.3496 100.485 48.367 101.702C44.3562 106.669 40.5776 111.361 40.2471 118.052C40.2113 118.763 39.9434 119.35 39.5146 119.66C39.336 119.794 39.068 119.927 38.7107 119.927C38.5856 119.927 38.4516 119.909 38.3087 119.874C37.5315 119.678 36.8348 118.941 36.4328 118.319C32.4577 112.054 32.8596 106.936 37.7548 101.702C39.2198 100.13 40.6044 98.4146 41.9354 96.7618C44.4902 93.5896 47.1254 90.3019 50.5645 87.8139C51.5829 87.0764 53.155 86.1522 55.0398 86.5788C55.5847 86.7032 55.9778 86.9697 56.2011 87.3607C56.4513 87.805 56.4691 88.3648 56.2547 89.049V89.0579ZM122.563 113.743C122.84 114.658 122.804 115.493 122.456 116.088C122.17 116.568 121.688 116.897 121.062 117.039C120.91 117.075 120.776 117.084 120.642 117.084C119.499 117.084 119.026 115.928 118.731 115.209L118.659 115.04C118.034 113.538 117.4 112.045 116.766 110.544C114.917 106.163 112.996 101.631 111.299 97.0995C110.057 93.8029 110.834 90.7728 113.666 87.8405L114.3 87.183L116.524 94.3182C118.615 101.009 120.598 107.363 122.563 113.734V113.743ZM155.57 16.3988C155.186 16.4788 154.802 16.5499 154.453 16.6476C154.266 16.701 154.069 16.7632 153.882 16.8254C153.176 17.0475 152.452 17.2874 151.693 17.3052C142.233 17.5629 137.454 24.0229 134.033 30.314C133.39 31.5047 132.72 32.6776 132.059 33.8505C129.513 38.3467 126.887 43.0029 125.484 48.1389C122.992 57.309 119.347 66.2214 115.828 74.8406C111.862 84.5439 107.761 94.5759 105.305 104.981C104.554 108.171 103.751 111.352 102.955 114.525C102.589 115.982 102.223 117.448 101.857 118.914L101.75 119.341L99.0072 119.225V118.701C99.1233 111.486 98.3194 104.235 97.5422 97.2239C97.3189 95.1891 97.0956 93.1453 96.8901 91.1016C96.8276 90.4529 96.6221 90.0176 96.2648 89.751C95.4251 89.1379 93.719 89.5022 92.3522 89.7865C91.3875 89.9909 90.5657 90.1686 89.9493 90.062L89.726 90.0264C85.2328 89.28 80.5877 88.507 76.0856 87.4495C70.0917 86.0456 63.0794 84.5439 55.8795 84.7394C50.2072 84.8816 46.1517 86.9875 43.4808 91.1638C38.3355 99.2143 32.4577 105.834 25.5079 111.397L25.2399 111.61C23.1765 113.272 20.845 115.147 18.1652 113.352C15.4049 111.503 16.727 109.14 17.7006 107.407C17.9686 106.927 18.2277 106.465 18.4064 106.039C19.2014 104.101 20.2644 102.28 21.3006 100.512C22.4976 98.4679 23.7303 96.3531 24.5343 94.0695C26.7675 87.7606 25.8652 81.6205 24.9094 75.125L24.6772 73.5344C23.9983 68.7805 21.7651 66.7901 16.7181 66.4524C13.8238 66.257 11.6174 65.1907 10.2328 60.6145L9.80405 59.2106L11.0457 60.0014C17.9418 64.4176 23.8375 63.7334 30.1798 57.771C31.3768 56.6425 32.4934 56.2071 33.5207 56.4648C34.6373 56.7492 35.5216 57.8421 36.1469 59.717C36.5578 60.9432 37.3618 62.3827 38.925 62.3827C38.9608 62.3827 38.9875 62.3827 39.0233 62.3827C40.5776 62.3205 41.0243 60.339 41.1225 59.7348C42.0426 54.1901 46.0713 53.2748 50.2965 53.106C53.6195 52.9727 56.9425 52.9638 60.069 52.9549H60.2656C61.5429 52.9549 63.5082 52.9372 63.9638 54.5633C64.4908 56.4382 65.1786 57.5311 66.0094 57.7977C67.251 58.1976 68.9929 56.8114 70.5294 55.5851C73.4951 53.2304 76.9164 53.6658 79.9356 54.0479L80.2929 54.0923C83.5623 54.5011 83.3479 56.9269 83.1872 58.6952C83.1425 59.2283 83.0889 59.7259 83.1157 60.188C83.1336 60.6056 83.08 61.0499 83.0264 61.4853C82.937 62.1873 82.8388 62.9159 83.1336 63.2891C83.2854 63.4846 83.5891 63.609 84.0179 63.6623C86.269 63.9289 88.529 63.1647 90.0476 61.6275C90.9319 60.73 90.5925 60.1613 89.5384 58.9795C89.3062 58.7218 89.0828 58.473 88.8952 58.2153C88.7076 57.9576 88.4665 57.6999 88.2342 57.4422C87.5196 56.6603 86.7157 55.7628 86.9658 54.7943C87.1534 54.0746 87.8501 53.5236 89.1632 53.0705C98.5873 49.8005 105.671 43.0384 112.514 36.4985C113.327 35.7254 114.13 34.9524 114.943 34.1793C119.07 30.2784 123.045 26.2976 126.761 22.3345C128.95 19.9976 129.834 17.554 129.227 15.457C128.602 13.2711 126.422 11.565 123.09 10.6586C120.33 9.91223 117.48 9.13916 114.345 6.84663L113.416 6.1713L114.532 5.88695C117.677 5.08723 121.714 4.42969 125.037 6.36679C128.87 8.60601 132.836 8.70375 136.212 8.49937C141.635 8.17949 147.307 8.78373 154.614 10.4809C154.927 10.552 155.293 10.5964 155.659 10.6408C157.097 10.8097 159.268 11.0763 159.116 13.5643C158.982 15.6969 157.088 16.0701 155.561 16.3722L155.57 16.3988Z" fill="white"/>
</svg>
