<svg width="234" height="191" viewBox="0 0 234 191" fill="none" xmlns="http://www.w3.org/2000/svg">
<g clip-path="url(#clip0_321_374)">
<path d="M105.504 22.3868C104.314 23.2904 102.963 23.8292 101.443 23.8646C100.151 23.896 98.8872 23.723 97.6394 23.3857C96.5768 23.0994 95.5222 22.7788 94.4483 22.5518C93.4364 22.3396 92.4026 22.1245 91.3775 22.1027C89.9789 22.0714 88.5687 22.1954 87.2071 23.1813C87.5042 23.8657 87.7493 24.4149 87.9805 24.9718C88.4216 26.0314 88.8595 27.0906 89.2975 28.1499C89.1993 28.0948 89.098 28.0393 89.0003 27.9811C88.1857 27.498 87.4065 26.943 86.6652 26.3451C86.2858 25.326 85.9029 24.3095 85.5168 23.2926C85.2858 22.6877 85.384 22.2271 85.8047 21.7979C86.5042 21.0865 87.3257 20.6065 88.313 20.3669C90.3111 19.8781 92.3049 19.866 94.3001 20.312C95.49 20.5805 96.6624 20.93 97.8559 21.1958C98.7478 21.3948 99.6508 21.56 100.556 21.6646C101.602 21.7855 102.635 21.6161 103.598 21.1778C105.2 20.4459 105.709 18.8565 104.728 17.3867C104.298 16.7417 103.73 16.1132 103.081 15.7073C98.6524 12.9424 93.9784 11.992 88.9477 13.9745C86.9334 14.7686 85.1599 15.9319 83.5053 17.3036C82.9417 17.7709 82.3727 18.2311 81.7955 18.6805C81.4087 18.9799 80.9956 19.0258 80.5744 18.8273C80.1077 17.8378 79.7319 16.8159 79.4332 15.7694C79.7998 15.9925 80.1624 16.2215 80.5233 16.463C80.6729 16.5636 80.8433 16.6285 80.9905 16.6999C81.5192 16.2534 81.9827 15.8621 82.4435 15.4672C84.6114 13.6212 87.0462 12.2122 89.7851 11.4597C95.0729 10.0087 99.944 11.1815 104.433 14.1403C105.226 14.6621 105.909 15.4313 106.472 16.2097C107.956 18.2608 107.536 20.8361 105.506 22.3774L105.504 22.3868Z" fill="white"/>
<path d="M20.8247 30.4488C21.0794 30.4836 21.3308 30.4956 21.5624 30.5113L21.6832 30.5182C22.4333 30.56 23.1726 30.5171 23.7943 30.4677C25.4679 30.338 27.4566 30.2227 29.5303 30.3752C31.2332 30.4994 33.0018 30.7287 34.9394 31.0803C37.3523 31.5163 39.503 32.0188 41.5183 32.6214L41.7121 32.6799L49.4902 33.2289L44.8571 29.4752L44.7878 29.4433C43.9814 29.0639 43.1568 28.7236 42.3826 28.4127C40.4093 27.6206 38.4401 26.9379 36.5309 26.3787C33.8054 25.5829 31.3958 25.0994 29.1755 24.8948C26.3064 24.6334 24.0862 24.8483 22.19 25.5753C21.423 25.8674 20.6868 26.2855 19.9402 26.8495C19.4648 27.2104 18.9134 27.9164 18.9271 28.7286C18.9356 29.2518 19.1892 29.7157 19.6389 30.0334C19.9949 30.2872 20.4183 30.3995 20.8302 30.4559L20.8247 30.4488ZM32.6513 29.4284C31.6075 29.2855 30.6035 29.1801 29.6171 29.1092C27.4608 28.9518 25.4111 29.0684 23.6918 29.2046C23.1091 29.2497 22.4245 29.2905 21.7507 29.2528L21.6268 29.2454C21.1882 29.2206 20.6446 29.191 20.3638 28.9957C20.212 28.8884 20.1903 28.7894 20.1889 28.7059C20.1852 28.4524 20.4092 28.0795 20.6987 27.8597C21.3488 27.369 21.9812 27.0071 22.6336 26.7569C24.3436 26.1038 26.3812 25.9119 29.051 26.1556C31.1923 26.3526 33.5205 26.8218 36.1692 27.5943C38.0419 28.1389 39.9711 28.8097 41.9049 29.5868C42.6363 29.8823 43.419 30.2008 44.1714 30.5536L45.5553 31.675L41.9358 31.4198L41.8742 31.4018C39.8157 30.7869 37.6183 30.2748 35.1587 29.8292C34.293 29.6723 33.4593 29.539 32.6482 29.428L32.6513 29.4284Z" fill="white"/>
<path d="M89.2832 26.9019C90.8284 26.2358 92.231 26.4246 93.5882 26.7577C94.5859 27.0032 95.5484 27.436 96.4888 27.8657C97.4868 28.3194 98.4468 28.864 99.4209 29.3752C100.563 29.9735 101.76 30.4192 103.026 30.6694C104.52 30.9635 105.954 30.7339 107.315 30.1097C109.632 29.0465 110.604 26.6237 109.602 24.2992C109.22 23.4173 108.722 22.5164 108.063 21.8337C104.326 17.9689 99.8266 15.7645 94.3523 16.0273C91.5151 16.1642 88.8338 17.0111 86.3141 18.3381C85.7791 18.6203 85.2409 18.9022 84.6266 19.2249C84.4999 19.121 84.3472 19.0201 84.2239 18.8911C80.8025 15.2937 76.6627 12.7093 72.2203 10.628C64.6868 7.09874 56.75 5.04197 48.4505 4.34799C46.1423 4.15376 43.8496 3.7759 41.5239 3.82591C41.1578 3.83344 40.7908 3.84727 40.4255 3.84851C37.759 3.86147 35.8927 5.18821 34.7413 7.49354C33.2908 10.3921 32.1189 13.4088 31.2613 16.5391C30.6146 18.9007 31.1257 21.0396 32.7004 22.8726C33.5291 23.8379 34.4584 24.7466 35.4593 25.5306C37.8654 27.4196 40.5127 28.951 43.1866 30.4283C43.794 30.7645 44.465 31.0101 45.1539 31.7097C44.6761 31.6667 44.4455 31.6672 44.224 31.624C41.8864 31.176 39.5559 30.7001 37.2153 30.274C36.0154 30.0553 34.8083 29.8421 33.5957 29.7626C30.9677 29.5886 29.7171 30.6057 29.2928 33.1675C29.1944 33.769 29.1365 34.3792 29.1204 34.9887C29.0677 36.9416 29.7939 38.5623 31.2684 39.8402C32.525 40.9314 33.9755 41.7065 35.4829 42.3932C40.1648 44.5265 45.0458 46.0946 49.9974 47.4513C52.4053 48.1107 54.8673 48.5854 57.302 49.1429C57.8888 49.2776 58.4721 49.4151 59.0559 49.5495C59.3001 50.3387 59.0467 50.9734 58.8709 51.6027C57.9073 55.0163 57.2005 58.4715 56.7316 61.9912C56.1905 66.0615 56.1696 70.1454 56.1353 74.2338C56.1186 76.0635 56.1245 77.8931 56.1267 79.7254C56.1262 81.5541 56.1517 83.38 56.4214 85.2009C56.6367 86.646 56.7235 88.1183 56.7958 89.579C56.9705 93.1228 57.4125 96.6327 58.0173 100.123C58.059 100.356 58.0519 100.596 58.0739 100.903C57.8022 100.946 57.5658 101.035 57.3417 101.011C56.6152 100.937 55.8836 100.853 55.1653 100.719C48.7315 99.5217 42.4107 97.9199 36.2993 95.5365C32.6996 94.131 28.959 93.2635 25.1211 92.8022C24.0182 92.6705 22.9239 92.7097 21.8495 93.0014C20.5089 93.3656 19.8714 94.3961 20.1044 95.7828C20.2936 96.904 20.8717 97.8287 21.5911 98.6798C23.1818 100.56 25.0325 102.155 27.1089 103.458C28.8638 104.559 30.6787 105.573 32.5078 106.554C36.3897 108.635 40.4305 110.351 44.637 111.676C48.4289 112.871 52.3157 113.653 56.2192 114.36C56.7942 114.464 57.3658 114.594 57.9262 114.876C57.1411 114.925 56.3565 115.042 55.5759 115.012C49.7254 114.794 43.8673 114.655 38.0589 113.803C34.7276 113.315 31.4868 112.445 28.3319 111.277C27.2435 110.875 26.1812 110.399 25.0752 110.056C24.1504 109.769 23.1833 109.605 22.226 109.438C21.3253 109.28 20.5327 109.642 19.8266 110.144C19.0847 110.674 18.6986 111.412 18.775 112.351C18.85 113.278 19.0943 114.137 19.6097 114.935C20.5829 116.436 21.7412 117.754 23.1349 118.873C26.3088 121.425 29.8725 123.28 33.6503 124.742C38.7477 126.717 44.056 127.832 49.4461 128.605C52.2228 129.004 55.0002 129.397 57.791 129.692C60.3986 129.969 63.0145 130.209 65.6339 130.282C68.011 130.348 69.8361 131.405 71.4448 132.99C73.0115 134.53 74.53 136.118 76.0851 137.673C79.2012 140.787 82.5727 143.602 86.1242 146.202C91.8098 150.362 97.8563 153.922 104.258 156.854C111.509 160.175 119.077 162.492 126.973 163.704C132.713 164.586 138.486 165.017 144.286 165.11C146.418 165.142 148.562 165.019 150.682 164.787C152.473 164.591 153.892 165.131 155.196 166.299C157.378 168.253 159.58 170.188 161.819 172.077C166.692 176.187 171.951 179.719 177.644 182.605C180.699 184.154 183.793 185.586 187.048 186.676C189.317 187.435 191.638 187.935 193.988 188.314C195.32 188.528 196.673 188.499 197.998 188.225C200.084 187.794 201.086 186.227 200.598 184.152C200.461 183.566 200.212 182.994 199.934 182.456C198.538 179.761 196.545 177.518 194.277 175.555C191.88 173.482 189.332 171.58 186.848 169.603C185.176 168.272 183.499 166.951 181.83 165.62C181.596 165.435 181.392 165.215 181.157 164.993C181.547 164.669 181.761 165.025 181.964 165.155C185.696 167.517 189.644 169.441 193.836 170.822C196.211 171.605 198.612 172.34 201.046 172.901C203.99 173.579 206.983 173.586 209.936 172.859C210.702 172.673 211.463 172.399 212.168 172.047C213.735 171.265 214.282 169.889 213.799 168.225C213.518 167.258 212.978 166.476 212.257 165.782C210.878 164.456 209.242 163.492 207.656 162.468C203.811 159.982 199.924 157.563 196.077 155.083C191.698 152.258 187.734 148.929 184.127 145.165C180.781 141.674 177.637 138.034 175.266 133.786C174.022 132.46 173.792 130.795 173.595 129.077C173.322 126.715 172.904 124.367 172.544 122.012C172.507 121.77 172.443 121.534 172.396 121.294C171.804 118.199 171.792 118.191 173.444 115.483C175.133 112.713 176.662 109.87 177.767 106.809C178.603 104.489 179.106 102.124 179.096 99.6471C179.082 96.1221 177.956 92.9286 176.224 89.9275C175.487 88.648 174.423 87.6216 173.241 86.7328C171.868 85.6993 170.306 85.1973 168.603 85.355C166.521 85.5471 164.557 86.1367 162.715 87.2106C160.491 88.5107 159.497 91.6094 160.716 93.7236C161.386 94.8851 161.991 96.0825 162.641 97.254C163.204 98.2662 163.836 99.243 164.354 100.275C165.77 103.082 165.657 106.061 165.218 109.057C165.158 109.474 164.993 109.881 164.824 110.274C164.438 111.176 163.761 111.72 162.787 111.939C161.805 112.161 160.845 112.058 159.877 111.9C156.919 111.425 154.011 110.722 151.145 109.856C145.704 108.211 140.394 106.223 135.242 103.801C131.794 102.179 128.627 100.138 125.592 97.8551C122.172 95.2796 118.906 92.5362 115.885 89.5028C112.818 86.4247 110.055 83.0936 107.482 79.5962C105.235 76.5439 103.223 73.3412 101.504 69.9641C99.8438 66.6974 98.4296 63.3171 97.1001 59.9035C94.9637 54.429 93.3044 48.8148 92.1223 43.061C91.6801 40.909 91.3761 38.7312 90.9999 36.5658C90.553 33.9809 90.0998 31.3951 89.6435 28.8088C89.5391 28.2148 89.418 27.625 89.2782 26.8916L89.2832 26.9019ZM24.3792 112.263C24.4515 112.203 24.5058 112.133 24.5333 112.143C25.1093 112.334 25.6928 112.517 26.2582 112.738C30.0217 114.211 33.8832 115.342 37.8873 115.922C43.8165 116.781 49.7913 117.003 55.77 117.127C57.4819 117.162 59.1861 116.973 60.8484 116.528C62.2678 116.149 62.6592 115.629 62.5574 114.174C62.462 112.835 62.3545 111.491 62.1385 110.168C61.3944 105.588 60.572 101.021 59.8347 96.439C59.0836 91.7946 58.6836 87.1119 58.5555 82.4087C58.4815 79.6025 58.4722 76.7924 58.2853 73.9932C57.9175 68.5366 58.3018 63.1317 59.3075 57.7734C59.7113 55.6187 60.3464 53.5054 60.8657 51.3729C61.4673 48.8963 60.9194 47.9853 58.4551 47.4335C57.147 47.1391 55.8052 46.9747 54.5094 46.6372C48.2392 45.0167 42.0095 43.2641 36.127 40.4956C34.9205 39.9269 33.7692 39.2121 32.6733 38.4439C31.6887 37.7519 31.0818 36.7336 31.0593 35.4943C31.0453 34.7077 31.1106 33.9031 31.2519 33.1282C31.4492 32.0374 31.8916 31.6367 33.0068 31.6549C34.0997 31.6731 35.2008 31.795 36.2749 31.9965C40.7114 32.8343 45.1347 33.7216 49.5678 34.5846C49.9856 34.6674 50.4301 34.7891 50.8282 34.7122C51.1339 34.6548 51.5195 34.3649 51.6247 34.0878C51.7303 33.8076 51.6346 33.3365 51.4438 33.0926C51.196 32.7737 50.7859 32.5638 50.4136 32.3591C48.2795 31.1734 46.1165 30.0351 43.9993 28.8197C41.9356 27.634 39.8897 26.4124 37.8839 25.1322C36.3875 24.1779 35.0398 23.0262 33.9401 21.6074C33.0416 20.4499 32.5365 19.1797 32.7364 17.6954C32.9661 15.9941 33.4691 14.3783 34.2697 12.6943C40.1805 13.5706 44.7343 11.305 48.1075 6.45651C48.6255 6.48578 49.1116 6.49145 49.5912 6.54428C57.3625 7.39977 64.818 9.41628 71.8625 12.821C76.0591 14.8494 79.9806 17.3207 83.2477 20.7112C83.3737 20.8437 83.5033 20.9736 83.6364 21.1007C84.0331 21.4784 84.4927 21.5606 84.9854 21.3302C85.6464 21.0171 86.3024 20.6937 86.9534 20.36C88.8648 19.3822 90.8506 18.6323 92.9911 18.2975C98.3332 17.4561 102.688 19.4038 106.408 23.0676C106.953 23.6034 107.37 24.3428 107.649 25.0663C108.285 26.7132 107.444 28.1546 105.719 28.5206C104.683 28.7407 103.641 28.6813 102.645 28.3336C101.783 28.033 100.938 27.674 100.11 27.2885C99.0058 26.769 97.9378 26.1712 96.8335 25.6517C94.9831 24.7803 93.0329 24.3565 90.9774 24.3986C89.9655 24.4203 89.0553 24.7056 88.2189 25.2477C87.7164 25.5729 87.5169 26.0004 87.6114 26.6443C88.019 29.4224 88.3975 32.203 88.7437 34.9855C89.2521 39.1098 89.8883 43.2132 90.8795 47.2498C91.9715 51.6974 93.2668 56.0864 94.9227 60.3677C96.221 63.729 97.5806 67.0634 99.1653 70.2973C100.94 73.9223 103.045 77.3524 105.413 80.6199C108.213 84.4812 111.23 88.1515 114.63 91.5058C117.632 94.4724 120.829 97.2064 124.213 99.7225C126.91 101.728 129.635 103.703 132.698 105.121C135.3 106.326 137.929 107.474 140.582 108.567C145.275 110.503 150.109 112.017 155.045 113.183C157 113.642 158.993 114.03 160.989 114.214C164.816 114.568 166.828 112.48 167.361 109.359C167.412 109.059 167.462 108.758 167.501 108.456C168 104.316 167.329 100.445 165.012 96.8963C164.181 95.6231 163.477 94.2616 162.816 92.89C162.065 91.33 162.482 90.0612 163.936 89.1295C165.411 88.1816 167.061 87.751 168.781 87.6116C169.98 87.5131 171.068 87.9119 172.02 88.6571C172.992 89.4179 173.845 90.2969 174.444 91.3749C175.95 94.0825 176.89 96.9495 176.857 100.093C176.831 102.646 176.111 105.026 175.186 107.365C174.195 109.875 172.861 112.207 171.458 114.5C171.045 115.177 170.641 115.865 170.323 116.59C170.133 117.022 170.031 117.533 170.05 118.003C170.085 118.915 170.207 119.825 170.333 120.733C170.695 123.331 171.095 125.926 171.444 128.526C172.137 133.691 171.724 138.769 170.076 143.716C169.287 146.09 168.396 148.431 167.509 150.769C166.839 152.532 167.051 154.121 168.286 155.552C168.964 156.336 169.614 157.155 170.35 157.881C172.695 160.194 175.035 162.519 177.455 164.753C179.383 166.531 181.385 168.237 183.431 169.882C185.572 171.6 187.821 173.186 190.001 174.861C192.383 176.692 194.543 178.762 196.394 181.126C197.103 182.031 197.711 183.039 198.22 184.073C198.811 185.275 198.386 185.992 197.102 186.111C196.255 186.19 195.383 186.241 194.548 186.123C192.313 185.811 190.102 185.374 187.945 184.662C184.743 183.606 181.713 182.176 178.711 180.663C173.117 177.844 168.003 174.31 163.22 170.289C161.399 168.759 159.666 167.125 157.865 165.566C157.129 164.927 156.313 164.383 155.554 163.773C154.056 162.575 152.341 162.491 150.524 162.665C148.525 162.856 146.511 163.038 144.503 163.01C137.045 162.908 129.649 162.194 122.342 160.614C116.105 159.264 110.14 157.141 104.374 154.439C100.166 152.467 96.1486 150.159 92.231 147.659C85.2351 143.198 78.9777 137.88 73.428 131.72C73.0612 131.312 72.7163 130.883 72.3423 130.48C71.3162 129.366 70.107 128.63 68.5397 128.521C66.29 128.367 64.0453 128.13 61.7963 127.947C57.0551 127.558 52.3032 127.269 47.6112 126.403C43.1035 125.571 38.6401 124.579 34.3624 122.886C30.9384 121.53 27.6704 119.901 24.7851 117.581C24.58 117.418 24.2356 117.314 24.347 116.874C24.7664 116.922 25.1793 116.994 25.5913 117.003C25.7416 117.004 26.0145 116.859 26.0251 116.758C26.0468 116.553 25.9978 116.232 25.8572 116.136C24.9565 115.51 24.0281 114.922 23.0949 114.345C22.472 113.959 21.8077 113.641 21.2 113.237C20.7887 112.966 20.6805 112.587 21.1437 112.128C21.5068 112.376 21.836 112.639 22.1993 112.839C23.265 113.43 24.3347 114.015 25.4226 114.562C25.7403 114.72 26.1306 114.771 26.4252 114.35C26.2568 113.193 24.8194 113.188 24.3859 112.261L24.3792 112.263ZM173.94 135.962C174.233 136.275 174.369 136.38 174.456 136.517C175.19 137.639 175.867 138.801 176.65 139.888C179.368 143.668 182.6 146.986 185.987 150.156C187.364 151.447 188.824 152.662 190.336 153.788C195.382 157.54 200.735 160.832 206.064 164.156C207.667 165.153 209.28 166.14 210.682 167.433C211.146 167.862 211.501 168.33 211.644 168.949C211.748 169.402 211.587 169.812 211.178 170.035C210.857 170.208 210.514 170.344 210.176 170.48C208.793 171.037 207.326 171.128 205.864 171.184C203.588 171.273 201.39 170.812 199.204 170.215C195.073 169.089 191.051 167.677 187.257 165.678C182.056 162.939 177.183 159.719 172.846 155.721C172.045 154.98 171.236 154.239 170.191 153.807C169.445 153.5 169.249 153.108 169.416 152.379C169.565 151.73 169.799 151.096 170.042 150.469C171.311 147.164 172.568 143.858 173.21 140.359C173.462 138.987 173.67 137.604 173.947 135.96L173.94 135.962ZM27.0286 95.3629C27.4414 95.0383 27.8803 95.2713 28.2631 95.3525C30.7752 95.8821 33.2519 96.5542 35.6448 97.487C40.0352 99.1993 44.5176 100.591 49.1421 101.506C52.0139 102.075 54.8786 102.72 57.8361 102.664C58.0061 102.662 58.1773 102.768 58.4592 102.861C58.7807 104.491 59.1226 106.158 59.438 107.831C59.7447 109.475 60.2595 111.095 60.1438 112.783C59.895 112.823 59.7759 112.874 59.6627 112.858C55.4793 112.324 51.3534 111.487 47.2829 110.386C41.767 108.894 36.6005 106.557 31.5943 103.844C29.391 102.649 27.2753 101.306 25.371 99.6583C25.0728 99.403 24.5984 99.2419 24.6825 98.5809C25.6194 98.8725 26.5304 99.1669 27.4487 99.4303C27.7814 99.5271 28.1469 99.7116 28.4626 99.3705C28.6695 99.1458 28.3834 98.8024 27.7373 98.5154C26.2309 97.8448 24.7188 97.1926 23.2217 96.5009C22.8451 96.3276 22.4828 96.0731 22.1898 95.78C22.0828 95.6724 22.1471 95.3193 22.2348 95.1232C22.2902 94.9994 22.5497 94.8588 22.6769 94.889C23.027 94.9753 23.3649 95.1273 23.6885 95.2901C24.5643 95.7238 25.414 96.2084 26.3 96.6148C26.9628 96.9201 27.6532 97.1875 28.3584 97.3705C28.6366 97.4438 28.9842 97.2448 29.3915 97.1468C28.8361 96.1035 27.6545 96.102 27.029 95.3598L27.0286 95.3629Z" fill="white"/>
<path d="M65.8721 22.2084C64.7236 22.4804 64.0257 23.5539 64.2594 24.678C64.5069 25.8649 65.7035 26.7397 66.8022 26.5281C68.0748 26.286 68.8779 25.0283 68.5507 23.7921C68.2386 22.6092 67.0776 21.9186 65.8721 22.2084Z" fill="white"/>
<path d="M85.5708 138.235C85.4695 137.805 85.4658 137.551 85.3507 137.362C85.0403 136.846 84.736 136.308 84.3318 135.868C83.1408 134.578 81.9244 133.309 80.6745 132.075C80.2967 131.7 79.7992 131.427 79.3203 131.182C79.1646 131.103 78.8195 131.19 78.6888 131.326C78.551 131.467 78.4859 131.779 78.5356 131.978C78.6059 132.26 78.7798 132.533 78.9625 132.766C80.4784 134.678 82.2263 136.345 84.2564 137.706C84.5848 137.927 85.0023 138.013 85.5704 138.238L85.5708 138.235Z" fill="white"/>
<path d="M190.365 180.34C190.052 180.447 189.743 180.504 189.486 180.652C188.423 181.259 188.403 182.243 189.428 182.947C189.627 183.083 189.84 183.214 190.062 183.296C191.227 183.725 192.435 183.794 193.649 183.649C194.32 183.571 194.622 183.049 194.316 182.475C193.776 181.46 193.184 180.469 192.589 179.485C192.434 179.233 192.205 179.013 191.975 178.821C191.265 178.234 190.578 178.498 190.409 179.43C190.356 179.72 190.376 180.024 190.358 180.339L190.365 180.34ZM193.064 182.403C192.543 182.909 191.922 182.599 191.385 182.523C190.845 182.446 190.182 182.445 189.858 181.699C190.564 181.594 191.189 181.5 191.928 181.39C191.731 180.841 191.58 180.42 191.429 180.002C192.179 180.658 192.742 181.411 193.064 182.403Z" fill="white"/>
<path d="M66.9175 101.29C67.2806 101.141 67.2253 100.82 67.2142 100.527C67.1072 98.1968 66.4534 95.9999 65.5873 93.8572C65.5039 93.6472 65.3242 93.4624 65.1505 93.3042C64.892 93.0638 64.3326 93.173 64.2259 93.5075C64.1193 93.842 63.9883 94.2372 64.0705 94.5495C64.6856 96.8885 65.3643 99.2073 66.7651 101.234C66.7891 101.27 66.8622 101.273 66.9175 101.29Z" fill="white"/>
<path d="M113.096 148.065C112.99 147.621 113.004 147.402 112.9 147.295C112.524 146.904 112.157 146.476 111.706 146.193C109.91 145.063 108.089 143.972 106.261 142.895C105.867 142.662 105.396 142.357 104.923 142.747C104.62 142.994 104.852 143.615 105.494 144.094C106.175 144.6 106.89 145.06 107.623 145.484C109.3 146.45 110.991 147.389 113.093 148.061L113.096 148.065Z" fill="white"/>
<path d="M116.365 143.414C116.233 143.251 116.126 143.051 115.961 142.923C113.802 141.237 111.454 139.862 108.995 138.664C108.887 138.611 108.761 138.549 108.651 138.559C108.43 138.58 108.139 138.576 108.012 138.712C107.758 138.975 107.91 139.294 108.136 139.511C108.442 139.802 108.765 140.084 109.118 140.314C111.16 141.638 113.31 142.749 115.621 143.536C115.786 143.591 115.972 143.594 116.147 143.602C116.188 143.604 116.233 143.533 116.364 143.417L116.365 143.414Z" fill="white"/>
<path d="M108.504 121.212C108.422 120.874 108.438 120.476 108.252 120.223C106.869 118.349 105.207 116.754 103.287 115.435C103.143 115.335 102.952 115.254 102.783 115.253C102.62 115.254 102.41 115.331 102.311 115.448C102.211 115.569 102.16 115.799 102.204 115.949C102.269 116.176 102.409 116.391 102.557 116.577C103.9 118.251 105.529 119.617 107.25 120.877C107.489 121.051 107.792 121.15 108.076 121.25C108.174 121.286 108.306 121.23 108.502 121.206L108.504 121.212Z" fill="white"/>
<path d="M112.458 117.436C112.233 116.928 112.151 116.568 111.946 116.309C110.652 114.671 109.102 113.31 107.368 112.153C107.168 112.02 106.933 111.892 106.705 111.87C106.497 111.848 106.197 111.906 106.075 112.05C105.942 112.201 105.886 112.517 105.949 112.712C106.04 112.987 106.234 113.253 106.443 113.461C107.97 114.958 109.63 116.29 111.574 117.222C111.773 117.317 112.011 117.333 112.46 117.44L112.458 117.436Z" fill="white"/>
<path d="M73.6618 99.6127C73.6956 99.1785 73.7885 98.8742 73.7263 98.603C73.237 96.4446 72.3524 94.4371 71.3388 92.4824C71.2295 92.2753 71.0604 92.06 70.8645 91.9467C70.6745 91.8374 70.3734 91.7674 70.1961 91.8456C70.0153 91.9266 69.8603 92.1936 69.8117 92.4079C69.7587 92.6313 69.7985 92.9025 69.8769 93.1247C70.6313 95.2649 71.5306 97.3289 72.9749 99.1087C73.1177 99.282 73.3472 99.3839 73.6622 99.6095L73.6618 99.6127Z" fill="white"/>
<path d="M120.001 110.151C120.051 109.927 120.133 109.746 120.114 109.58C120.089 109.346 120.046 109.071 119.91 108.899C118.524 107.185 116.932 105.708 114.927 104.729C114.645 104.591 114.286 104.523 114.124 104.84C114.006 105.071 113.99 105.443 114.096 105.672C114.242 105.99 114.51 106.277 114.79 106.501C116.065 107.53 117.347 108.551 118.653 109.537C118.976 109.78 119.403 109.887 120.001 110.151Z" fill="white"/>
<path d="M96.8957 108.378C96.9703 108.232 97.1206 108.07 97.1121 107.921C97.0879 107.559 97.0578 107.171 96.9061 106.852C96.1022 105.144 95.2952 103.435 94.4156 101.765C94.1515 101.261 93.8193 100.623 93.0583 100.73C92.6176 100.792 92.5776 101.552 93.0756 102.523C93.9064 104.152 94.7819 105.757 95.6924 107.343C95.9462 107.781 96.1852 108.352 96.8962 108.375L96.8957 108.378Z" fill="white"/>
<path d="M146.384 135.413C146.158 135.148 145.972 134.818 145.694 134.626C143.978 133.428 142.076 132.61 140.068 132.047C139.614 131.921 139.108 131.947 138.626 131.961C138.494 131.966 138.297 132.16 138.259 132.302C138.221 132.438 138.31 132.652 138.408 132.777C138.514 132.914 138.689 133.018 138.853 133.085C140.837 133.872 142.817 134.662 144.811 135.415C145.247 135.58 145.735 135.618 146.195 135.717C146.257 135.616 146.316 135.515 146.378 135.415L146.384 135.413Z" fill="white"/>
<path d="M89.2867 133.741C89.1082 133.383 88.9632 132.992 88.7396 132.66C87.7115 131.139 86.4512 129.817 85.1361 128.545C84.9181 128.335 84.6692 128.141 84.4027 128.005C84.0796 127.839 83.7085 127.696 83.4095 128.055C83.1332 128.389 83.2672 128.743 83.4397 129.075C83.5236 129.233 83.6448 129.378 83.7605 129.516C85.1406 131.155 86.6974 132.605 88.5166 133.751C88.6554 133.837 88.8489 133.85 89.0178 133.88C89.0618 133.886 89.1207 133.83 89.2831 133.743L89.2867 133.741Z" fill="white"/>
<path d="M79.6033 115.402C80.173 114.82 80.0443 114.309 79.9353 113.865C79.462 111.895 78.677 110.048 77.585 108.339C77.4265 108.093 77.1762 107.886 76.9298 107.721C76.8095 107.641 76.56 107.638 76.4347 107.711C76.3028 107.786 76.1569 108.009 76.1774 108.14C76.2609 108.677 76.3208 109.246 76.5458 109.731C77.2808 111.334 78.0737 112.912 78.87 114.488C79.0285 114.805 79.3181 115.052 79.6033 115.402Z" fill="white"/>
<path d="M93.2226 131.423C93.1012 130.765 93.1275 130.433 92.9857 130.205C91.7928 128.274 90.306 126.594 88.5492 125.156C88.3648 125.005 88.1347 124.884 87.9082 124.831C87.7595 124.794 87.5274 124.852 87.4198 124.959C87.3123 125.066 87.2352 125.302 87.2768 125.443C87.3624 125.73 87.4956 126.02 87.6751 126.253C88.9847 127.941 90.4299 129.503 92.0933 130.852C92.3124 131.029 92.6019 131.113 93.2226 131.423Z" fill="white"/>
<path d="M110.545 151.373C110.403 151.165 110.317 150.952 110.163 150.815C108.235 149.132 106.09 147.766 103.852 146.544C103.599 146.406 103.284 146.363 102.99 146.31C102.893 146.294 102.72 146.369 102.683 146.448C102.615 146.598 102.534 146.84 102.603 146.94C102.887 147.324 103.173 147.738 103.555 148.011C105.582 149.467 107.728 150.703 110.113 151.487C110.199 151.515 110.321 151.436 110.545 151.37L110.545 151.373Z" fill="white"/>
<path d="M98.9642 90.553C99.1186 89.5653 98.8708 88.8716 98.5543 88.2358C97.8232 86.7681 97.0339 85.3277 96.2513 83.8851C96.1079 83.622 95.917 83.3557 95.6848 83.1798C95.5167 83.0511 95.1616 82.9544 95.0342 83.0427C94.8251 83.1902 94.6909 83.4921 94.604 83.7525C94.555 83.8995 94.63 84.1243 94.7152 84.2737C95.8494 86.2834 96.8574 88.3718 98.3274 90.1744C98.4259 90.2968 98.6111 90.3478 98.9615 90.5495L98.9642 90.553Z" fill="white"/>
<path d="M91.7504 110.451C91.8453 110.179 91.9682 110.007 91.9435 109.859C91.868 109.381 91.8184 108.878 91.6215 108.444C90.9236 106.898 90.1715 105.373 89.4292 103.846C89.3243 103.63 89.1715 103.436 89.0325 103.235C88.851 102.97 88.62 102.762 88.2814 102.872C87.8259 103.018 87.8614 103.414 87.9143 103.777C87.9568 104.074 88.0206 104.38 88.133 104.658C88.9251 106.57 89.876 108.398 91.1431 110.044C91.2679 110.209 91.5004 110.289 91.7504 110.451Z" fill="white"/>
<path d="M103.44 125.317C103.367 124.887 103.401 124.613 103.28 124.443C101.91 122.475 100.14 120.923 98.155 119.607C97.9991 119.505 97.6604 119.523 97.4955 119.629C97.2048 119.81 97.2265 120.143 97.3656 120.437C97.4424 120.601 97.5461 120.756 97.6685 120.892C99.1397 122.522 100.767 123.971 102.651 125.11C102.793 125.196 102.984 125.203 103.439 125.32L103.44 125.317Z" fill="white"/>
<path d="M85.7226 109.821C85.2446 108.657 84.8125 107.532 84.3165 106.429C84.1469 106.054 83.8599 105.717 83.5598 105.429C83.4212 105.295 83.087 105.233 82.9102 105.308C82.7369 105.38 82.5604 105.664 82.5562 105.858C82.5493 106.213 82.6063 106.592 82.7442 106.919C83.3714 108.42 84.025 109.916 84.6997 111.398C84.8447 111.719 85.1013 111.997 85.351 112.256C85.4462 112.355 85.7023 112.403 85.8222 112.346C85.9458 112.286 86.0791 112.061 86.0625 111.924C85.9744 111.211 85.8379 110.5 85.7258 109.822L85.7226 109.821Z" fill="white"/>
<path d="M119.683 139.874C119.161 138.893 118.578 138.541 118.021 138.189C116.275 137.092 114.505 136.03 112.74 134.959C112.533 134.834 112.315 134.695 112.083 134.654C111.871 134.615 111.56 134.615 111.425 134.737C111.147 134.994 111.323 135.299 111.546 135.519C111.89 135.858 112.221 136.246 112.631 136.481C114.423 137.501 116.228 138.491 118.054 139.449C118.451 139.657 118.944 139.686 119.681 139.87L119.683 139.874Z" fill="white"/>
<path d="M104.432 87.9257C104.609 87.2677 104.425 86.7366 104.166 86.2655C103.264 84.6239 102.341 82.989 101.365 81.3886C100.973 80.7456 100.485 80.5892 100.209 80.8493C99.8195 81.2155 99.979 81.6409 100.148 82.0196C101.023 83.9616 102.138 85.7605 103.41 87.4623C103.551 87.6482 103.762 87.7923 103.962 87.9191C104.045 87.972 104.185 87.9272 104.429 87.9253L104.432 87.9257Z" fill="white"/>
<path d="M74.149 117.58C74.1193 116.954 74.1694 116.471 74.0636 116.027C73.6518 114.309 72.9365 112.702 72.1634 111.12C72.083 110.959 71.9753 110.809 71.8708 110.661C71.5405 110.196 71.071 109.952 70.8397 110.145C70.532 110.404 70.4458 110.776 70.5691 111.139C71.3183 113.317 72.1216 115.473 73.5148 117.346C73.5718 117.421 73.7244 117.429 74.1494 117.577L74.149 117.58Z" fill="white"/>
<path d="M69.0844 119.692C69.0363 119.224 69.0307 118.798 68.9386 118.394C68.5229 116.541 67.8251 114.783 67.0422 113.062C66.9412 112.84 66.8295 112.603 66.6589 112.445C66.4541 112.257 66.1501 111.998 65.934 112.032C65.4919 112.103 65.5017 112.546 65.5151 112.917C65.522 113.1 65.5213 113.292 65.5784 113.46C66.2831 115.542 67.0083 117.614 68.2702 119.44C68.3666 119.578 68.5403 119.666 68.6908 119.76C68.7263 119.781 68.7988 119.743 69.0848 119.689L69.0844 119.692Z" fill="white"/>
<path d="M97.9874 128.343C97.8633 127.987 97.8042 127.553 97.5855 127.231C96.4735 125.622 95.1395 124.206 93.6574 122.937C93.0409 122.411 92.4068 122.34 92.216 122.704C91.9342 123.242 92.2865 123.64 92.6019 124.003C93.9149 125.525 95.302 126.973 96.9175 128.181C97.1411 128.349 97.4582 128.396 97.7338 128.488C97.7707 128.499 97.8305 128.437 97.9906 128.344L97.9874 128.343Z" fill="white"/>
<path d="M109.63 108.92C109.785 109.211 109.865 109.449 110.014 109.62C111.379 111.187 112.986 112.457 114.781 113.497C114.882 113.556 115.014 113.616 115.122 113.602C115.282 113.582 115.453 113.522 115.579 113.424C115.647 113.369 115.682 113.182 115.64 113.093C115.521 112.82 115.397 112.528 115.203 112.313C113.971 110.969 112.626 109.75 111.058 108.805C110.809 108.656 110.5 108.549 110.216 108.543C110.04 108.541 109.859 108.766 109.63 108.92Z" fill="white"/>
<path d="M133.209 120.5C132.78 119.984 132.635 119.727 132.421 119.563C130.441 118.043 128.233 116.911 125.992 115.849C125.64 115.682 125.175 115.474 124.874 116.131C125.03 116.723 125.606 116.987 126.086 117.316C128.325 118.836 131.076 120.103 133.211 120.504L133.209 120.5Z" fill="white"/>
<path d="M63.7932 60.8184C63.9931 60.154 64.2238 59.7083 64.2476 59.2536C64.3399 57.62 64.372 55.9814 64.4073 54.3432C64.414 54.1071 64.3759 53.8232 64.247 53.6422C64.0886 53.4188 63.8092 53.1435 63.5848 53.1449C63.3537 53.1485 63.0762 53.4211 62.9115 53.642C62.7783 53.8191 62.7365 54.1017 62.7396 54.3359C62.7433 56.3446 62.7861 58.3489 63.3419 60.3018C63.3703 60.3986 63.4851 60.472 63.7937 60.8153L63.7932 60.8184Z" fill="white"/>
<path d="M118.28 100.992C118.358 101.237 118.365 101.379 118.437 101.459C119.668 102.787 120.867 104.152 122.558 104.928C122.715 105.001 122.905 105.011 123.082 105.032C123.363 105.064 123.672 104.725 123.599 104.439C123.522 104.154 123.451 103.83 123.269 103.619C122.237 102.428 121.093 101.355 119.691 100.603C119.488 100.495 119.191 100.371 119.012 100.442C118.721 100.556 118.492 100.823 118.276 100.995L118.28 100.992Z" fill="white"/>
<path d="M137.253 160.986C137.018 160.41 136.496 160.341 136.064 160.176C133.756 159.3 130.381 158.569 128.797 158.583C128.541 158.865 128.568 159.134 128.876 159.34C129.178 159.541 129.493 159.748 129.831 159.871C132.081 160.682 134.385 161.231 136.791 161.227C136.935 161.228 137.08 161.081 137.253 160.986Z" fill="white"/>
<path d="M121.403 136.019C121.097 135.584 120.976 135.298 120.765 135.131C118.844 133.626 116.794 132.317 114.587 131.269C114.374 131.166 114.124 131.093 113.887 131.093C113.743 131.092 113.571 131.226 113.462 131.345C113.402 131.411 113.395 131.599 113.445 131.683C113.567 131.888 113.703 132.109 113.893 132.244C116.03 133.763 118.245 135.148 120.726 136.048C120.83 136.085 120.961 136.042 121.403 136.019Z" fill="white"/>
<path d="M90.1166 57.0293C90.2417 56.5596 90.4394 56.2151 90.3945 55.9111C90.1525 54.2862 89.8384 52.6739 89.1375 51.1719C89.0116 50.8985 88.8716 50.5879 88.6444 50.4223C88.4349 50.2687 88.0858 50.1985 87.8289 50.2498C87.6707 50.2826 87.438 50.6255 87.4624 50.7985C87.7553 52.9172 88.3156 54.954 89.5432 56.749C89.602 56.834 89.753 56.8546 90.1197 57.0297L90.1166 57.0293Z" fill="white"/>
<path d="M142.15 145.005C141.943 144.695 141.863 144.463 141.697 144.338C140.03 143.04 138.117 142.275 136.077 141.807C135.53 141.681 134.983 141.629 134.471 142.17C134.572 142.341 134.642 142.626 134.81 142.707C136.91 143.696 139.045 144.596 141.32 145.106C141.528 145.154 141.772 145.056 142.15 145.005Z" fill="white"/>
<path d="M135.83 115.997C135.454 115.466 135.363 115.242 135.196 115.11C133.315 113.642 131.229 112.524 129.08 111.518C128.971 111.468 128.831 111.392 128.734 111.423C128.523 111.49 128.293 111.584 128.153 111.741C128.073 111.829 128.1 112.127 128.189 112.226C128.47 112.537 128.765 112.881 129.13 113.072C130.852 113.971 132.591 114.833 134.339 115.681C134.651 115.833 135.038 115.838 135.833 116.001L135.83 115.997Z" fill="white"/>
<path d="M78.8258 98.0584C78.9944 97.8092 79.1498 97.6799 79.1673 97.5286C79.1996 97.2928 79.1636 97.0413 79.1092 96.8064C78.6493 94.8314 77.7766 93.0177 76.873 91.219C76.7926 91.0575 76.6852 90.8826 76.5411 90.7892C76.3032 90.6318 75.9868 90.3931 75.7681 90.4464C75.2841 90.5659 75.4407 91.0133 75.5221 91.3544C75.6192 91.768 75.711 92.1969 75.8892 92.58C76.6127 94.1267 77.3573 95.6603 78.1224 97.1838C78.2758 97.4899 78.56 97.7305 78.8289 98.0588L78.8258 98.0584Z" fill="white"/>
<path d="M141.087 127.734C141.37 128.007 141.574 128.342 141.865 128.465C144.039 129.384 146.241 130.211 148.515 130.535C148.855 130.159 148.683 129.946 148.5 129.803C148.122 129.501 147.747 129.152 147.309 128.98C145.9 128.422 144.469 127.9 143.028 127.433C142.421 127.235 141.74 127.087 141.084 127.734L141.087 127.734Z" fill="white"/>
<path d="M144.34 140.728C142.171 138.792 139.838 138.12 137.522 137.425C137.002 137.27 136.456 137.119 135.991 137.587C136.006 137.714 135.979 137.886 136.042 137.94C137.66 139.199 139.682 139.543 141.52 140.297C142.272 140.605 143.077 140.927 144.337 140.731L144.34 140.728Z" fill="white"/>
<path d="M86.3229 95.5583C86.2334 94.6909 86.2901 94.183 86.1167 93.7653C85.4716 92.207 84.7899 90.6596 84.0459 89.1453C83.6925 88.4276 83.1154 88.1981 82.7737 88.4716C82.2842 88.8658 82.5129 89.3711 82.6787 89.7973C83.3898 91.5985 84.2589 93.3221 85.4437 94.8678C85.5794 95.0466 85.8044 95.1574 86.3229 95.5583Z" fill="white"/>
<path d="M91.2702 92.991C91.7352 92.5422 91.5581 92.1048 91.4203 91.7305C90.7682 89.9662 90.0244 88.2405 88.9293 86.6942C88.7895 86.499 88.6321 86.2916 88.4344 86.1685C88.2483 86.0534 87.961 85.9532 87.7765 86.0144C87.441 86.1254 87.3869 86.4735 87.5125 86.7726C88.4096 88.9003 89.4206 90.9667 90.8763 92.7802C90.945 92.8632 91.082 92.8916 91.2706 92.9879L91.2702 92.991Z" fill="white"/>
<path d="M140.777 149.73C140.298 149.296 140.106 149.062 139.867 148.914C138.191 147.887 136.337 147.275 134.468 146.73C134.037 146.604 133.517 146.725 133.053 146.816C132.902 146.846 132.8 147.143 132.669 147.327C135.003 148.578 138.407 149.63 140.777 149.727L140.777 149.73Z" fill="white"/>
<path d="M85.4765 57.8226C85.6132 57.3385 85.7907 57.0009 85.7847 56.6702C85.7574 54.9273 85.0772 53.3449 84.4795 51.745C84.4184 51.5829 84.2815 51.4136 84.1325 51.3324C83.9326 51.2249 83.6342 51.088 83.4704 51.1617C83.2274 51.2758 83 51.5329 82.8889 51.7835C82.8012 51.9797 82.8433 52.2801 82.9321 52.4972C83.5951 54.1349 84.2787 55.7626 84.9726 57.3853C85.0359 57.5317 85.2352 57.6198 85.4796 57.823L85.4765 57.8226Z" fill="white"/>
<path d="M130.698 107.298C130.712 107.783 130.635 108.064 130.74 108.207C130.951 108.492 131.241 108.74 131.54 108.941C133.321 110.132 135.237 111.064 137.213 111.882C137.428 111.972 137.681 111.969 138.089 112.034C137.985 111.668 137.975 111.372 137.829 111.175C137.653 110.94 137.383 110.759 137.121 110.611C135.423 109.655 133.721 108.704 132.007 107.772C131.694 107.601 131.333 107.526 130.701 107.301L130.698 107.298Z" fill="white"/>
<path d="M154.237 116.621C154.031 116.423 153.855 116.159 153.609 116.038C151.747 115.133 149.818 114.415 147.752 114.138C147.516 114.106 147.261 114.097 147.035 114.155C146.893 114.193 146.71 114.354 146.679 114.491C146.647 114.634 146.74 114.842 146.844 114.968C146.954 115.102 147.129 115.206 147.295 115.257C149.148 115.828 150.997 116.402 152.861 116.942C153.302 117.069 153.808 117.206 154.237 116.624L154.237 116.621Z" fill="white"/>
<path d="M102.011 105.075C102.304 104.359 102.206 103.744 101.968 103.186C101.348 101.727 100.67 100.292 100.002 98.8558C99.9035 98.6405 99.7549 98.4152 99.5679 98.2839C99.3895 98.1602 99.0932 98.0556 98.9172 98.1244C98.7448 98.1905 98.5576 98.4819 98.5561 98.6803C98.5523 99.0353 98.6004 99.4326 98.7665 99.7404C99.684 101.461 100.643 103.158 101.599 104.859C101.645 104.942 101.801 104.97 102.017 105.079L102.011 105.075Z" fill="white"/>
<path d="M158.753 158.394C158.632 157.545 158.157 157.224 157.706 156.967C156.384 156.209 155.03 155.502 153.67 154.813C153.356 154.655 152.967 154.595 152.608 154.591C152.397 154.588 152.094 154.725 152 154.892C151.924 155.032 152.056 155.326 152.165 155.517C152.25 155.666 152.425 155.77 152.578 155.868C154.234 156.921 155.971 157.799 157.879 158.297C158.105 158.357 158.349 158.352 158.749 158.397L158.753 158.394Z" fill="white"/>
<path d="M137.826 157.292C137.207 156.9 136.892 156.607 136.518 156.479C134.797 155.884 133.059 155.333 131.322 154.781C131.098 154.709 130.819 154.667 130.61 154.741C130.418 154.811 130.238 155.03 130.15 155.226C130.099 155.341 130.194 155.603 130.307 155.693C130.587 155.913 130.897 156.129 131.233 156.252C133.07 156.919 134.965 157.345 136.914 157.5C137.081 157.513 137.257 157.425 137.826 157.292Z" fill="white"/>
<path d="M168.154 127.497C168.231 127.267 168.35 127.094 168.322 126.953C168.289 126.794 168.149 126.622 168.008 126.529C166.267 125.371 164.348 124.702 162.265 124.519C162.094 124.505 161.892 124.554 161.746 124.64C161.606 124.724 161.459 124.889 161.435 125.036C161.413 125.177 161.514 125.374 161.62 125.491C161.737 125.619 161.909 125.716 162.078 125.768C163.802 126.328 165.526 126.881 167.256 127.415C167.529 127.501 167.838 127.469 168.154 127.497Z" fill="white"/>
<path d="M143.222 123.578C143.609 124.233 144.199 124.445 144.755 124.637C146.627 125.28 148.409 126.229 150.367 126.455C150.655 126.11 150.451 125.916 150.316 125.734C150.207 125.591 150.065 125.459 149.914 125.365C148.083 124.237 146.138 123.404 143.973 123.194C143.805 123.177 143.625 123.275 143.457 123.332C143.407 123.35 143.372 123.416 143.229 123.576L143.222 123.578Z" fill="white"/>
<path d="M161.688 153.467C161.294 152.98 161.172 152.772 161 152.62C159.554 151.372 157.817 150.673 156.05 150.04C155.723 149.922 155.332 149.903 154.983 149.948C154.8 149.971 154.541 150.205 154.504 150.382C154.466 150.563 154.635 150.807 154.749 150.999C154.804 151.09 154.945 151.138 155.057 151.182C156.911 151.916 158.761 152.65 160.62 153.365C160.823 153.445 161.068 153.414 161.688 153.467Z" fill="white"/>
<path d="M167.897 132.208C167.402 131.73 167.226 131.469 166.982 131.336C165.634 130.604 164.217 130.052 162.696 129.821C162.338 129.766 161.965 129.775 161.606 129.806C161.307 129.833 160.978 129.919 160.907 130.277C160.839 130.633 161.07 130.864 161.374 130.963C162.532 131.342 163.692 131.716 164.862 132.055C165.445 132.225 166.047 132.339 166.648 132.415C166.922 132.449 167.218 132.326 167.894 132.207L167.897 132.208Z" fill="white"/>
<path d="M107.328 101.985C107.294 101.74 107.32 101.481 107.226 101.276C106.355 99.4019 105.31 97.6318 104.006 96.0217C103.861 95.8417 103.648 95.6877 103.433 95.5974C103.294 95.5399 103.056 95.5682 102.935 95.6573C102.815 95.7401 102.738 95.9475 102.729 96.1064C102.719 96.2779 102.768 96.4831 102.863 96.6244C104.014 98.3287 105.171 100.028 106.343 101.719C106.516 101.97 106.565 101.945 107.331 101.986L107.328 101.985Z" fill="white"/>
<path d="M130.46 123.875C129.786 123.462 129.236 123.086 128.651 122.772C127.094 121.931 125.532 121.102 123.958 120.298C123.587 120.106 123.165 120.007 122.757 119.896C122.557 119.84 122.292 120.21 122.39 120.403C122.496 120.613 122.59 120.885 122.77 121C125.043 122.429 127.37 123.75 130.094 124.138C130.135 124.144 130.189 124.075 130.46 123.878L130.46 123.875Z" fill="white"/>
<path d="M165.402 142.179C165.042 141.762 164.899 141.499 164.676 141.35C163.134 140.306 161.4 139.755 159.586 139.439C159.242 139.379 158.861 139.468 158.513 139.552C158.378 139.584 158.213 139.783 158.19 139.927C158.167 140.071 158.267 140.274 158.376 140.391C158.493 140.519 158.673 140.611 158.845 140.661C160.599 141.163 162.355 141.666 164.117 142.138C164.438 142.223 164.798 142.164 165.405 142.177L165.402 142.179Z" fill="white"/>
<path d="M79.6808 58.6052C79.7527 58.1506 79.8991 57.7831 79.8522 57.4468C79.6356 55.8702 79.2537 54.3319 78.5743 52.8841C78.4975 52.7198 78.4164 52.5166 78.2772 52.4335C78.0876 52.3211 77.8106 52.2159 77.6233 52.2735C77.4361 52.3312 77.2463 52.571 77.1739 52.7725C77.0966 52.9861 77.0898 53.2702 77.1624 53.4883C77.7318 55.1548 78.1584 56.8819 79.1415 58.3808C79.1949 58.4586 79.3466 58.473 79.6804 58.6083L79.6808 58.6052Z" fill="white"/>
<path d="M163.617 147.591C163.38 147.331 163.179 147.019 162.896 146.82C161.633 145.936 160.195 145.448 158.716 145.066C158.543 145.02 158.355 145.01 158.174 145.001C157.366 144.964 156.773 145.223 156.827 145.602C156.916 146.216 157.478 146.27 157.914 146.41C159.475 146.912 161.048 147.38 162.621 147.842C162.886 147.92 163.18 147.9 163.459 147.922C163.512 147.814 163.563 147.702 163.616 147.594L163.617 147.591Z" fill="white"/>
<path d="M138.525 153.493C138.436 153.327 138.397 153.12 138.276 153.046C136.274 151.833 134.079 151.116 131.803 150.638C131.37 150.547 131.111 150.777 131.057 151.263C131.566 152.015 132.431 152.181 133.227 152.451C136.465 153.544 136.962 153.638 138.525 153.493Z" fill="white"/>
<path d="M119.637 123.716C119.622 123.964 119.549 124.168 119.619 124.29C119.736 124.489 119.923 124.671 120.123 124.798C122.227 126.136 124.488 127.122 126.785 127.936C127.095 127.565 126.917 127.364 126.734 127.23C126.148 126.804 125.565 126.363 124.936 126.001C123.884 125.399 122.808 124.836 121.727 124.29C121.298 124.075 120.832 123.921 120.368 123.778C120.157 123.71 119.913 123.735 119.637 123.716Z" fill="white"/>
<path d="M87.611 60.456C87.499 60.8058 87.2912 61.1072 87.3443 61.3515C87.8336 63.6027 88.6789 65.7106 89.914 67.6379C90.424 67.5156 90.4046 67.1894 90.3703 66.9253C90.2966 66.3868 90.214 65.8438 90.0544 65.3255C89.6761 64.1112 89.2607 62.9109 88.8421 61.7102C88.6627 61.1956 88.4457 60.6983 87.611 60.456Z" fill="white"/>
<path d="M63.9626 86.2812C64.581 85.9046 64.4688 85.4377 64.458 85.0487C64.4073 83.2194 63.8769 81.4781 63.3753 79.7376C63.3424 79.6274 63.2747 79.49 63.182 79.4421C62.9848 79.3383 62.7385 79.1957 62.5498 79.2403C62.3549 79.2841 62.1067 79.5063 62.0651 79.6928C61.9899 80.0316 61.9855 80.4153 62.0606 80.7555C62.4877 82.6428 62.9954 84.5026 63.959 86.2839L63.9626 86.2812Z" fill="white"/>
<path d="M80.5595 81.4587C80.8617 80.725 80.7846 80.1187 80.604 79.5431C80.2051 78.2683 79.7696 77.0044 79.3238 75.7456C79.2243 75.4661 79.0504 75.1925 78.8418 74.9846C78.6955 74.8365 78.4003 74.7 78.2297 74.7535C78.0626 74.8043 77.8624 75.0972 77.859 75.2857C77.8323 76.6976 79.3795 80.2755 80.5591 81.4619L80.5595 81.4587Z" fill="white"/>
<path d="M152.217 120.921C152.021 120.667 151.925 120.436 151.753 120.335C149.951 119.272 147.947 118.841 145.916 118.521C145.756 118.496 145.563 118.592 145.402 118.669C145.307 118.713 145.251 118.837 145.149 118.954C145.216 119.095 145.249 119.301 145.37 119.395C146.459 120.261 147.82 120.38 149.107 120.668C150.07 120.883 151.046 121.312 152.22 120.921L152.217 120.921Z" fill="white"/>
<path d="M91.9306 78.387C91.9968 78.0438 92.1729 77.6932 92.0998 77.4077C91.6224 75.5841 90.867 73.8729 89.8547 72.2835C89.7337 72.0907 89.5014 71.9629 89.305 71.8303C89.0585 71.6652 88.6408 71.9091 88.6452 72.2044C88.6463 72.3839 88.6362 72.5747 88.6937 72.7395C89.3751 74.6872 90.2799 76.5245 91.4951 78.1993C91.5543 78.2811 91.7061 78.2954 91.9306 78.387Z" fill="white"/>
<path d="M69.6507 84.6192C69.7759 82.324 69.2147 80.2935 68.541 78.2892C68.452 78.0272 68.1963 77.8129 67.9837 77.6108C67.791 77.4275 67.2913 77.6153 67.2493 77.8754C67.2107 78.1103 67.1736 78.3583 67.2158 78.5882C67.5948 80.6162 68.2081 82.5706 69.1442 84.4122C69.1823 84.4847 69.3377 84.4963 69.6539 84.6197L69.6507 84.6192Z" fill="white"/>
<path d="M87.3771 79.993C87.3698 79.2745 87.4207 78.926 87.3568 78.597C87.0202 76.9143 86.3374 75.3508 85.5728 73.8241C85.4697 73.6178 85.2879 73.3783 85.0864 73.3059C84.8454 73.2185 84.5438 73.2925 84.2678 73.2964C84.3233 75.184 85.7507 78.374 87.3775 79.9898L87.3771 79.993Z" fill="white"/>
<path d="M79.8708 70.5102C80.4412 69.7588 80.4448 69.218 80.325 68.6892C80.0324 67.3872 79.7169 66.0885 79.3679 64.8013C79.2766 64.4621 79.0771 64.1177 78.8328 63.8665C78.6536 63.6786 78.3066 63.5223 78.065 63.5564C77.7089 63.607 77.665 63.9981 77.7466 64.2911C78.1475 65.6912 78.5618 67.0866 79.0129 68.4711C79.2135 69.0879 79.5113 69.6731 79.8676 70.5098L79.8708 70.5102Z" fill="white"/>
<path d="M169.037 122.077C168.825 121.868 168.644 121.622 168.401 121.461C166.812 120.411 165.055 119.792 163.183 119.498C162.895 119.452 162.581 119.499 162.295 119.572C162.163 119.605 161.992 119.799 161.984 119.929C161.975 120.066 162.13 120.222 162.226 120.36C162.258 120.406 162.321 120.434 162.379 120.454C164.274 121.076 166.164 121.703 168.064 122.308C168.328 122.393 168.626 122.363 168.908 122.386L169.037 122.077Z" fill="white"/>
<path d="M68.5881 60.0206C68.9176 59.4155 69.1356 59.1795 69.1714 58.9186C69.4212 57.0696 69.0621 55.2941 68.408 53.568C68.3683 53.4601 68.2872 53.3273 68.1936 53.2856C67.9845 53.1993 67.7261 53.0743 67.542 53.1324C67.3544 53.1932 67.1902 53.4333 67.0953 53.6349C67.0239 53.7821 67.0458 53.9965 67.0859 54.1717C67.4786 56.0062 67.8112 57.8581 68.5913 60.021L68.5881 60.0206Z" fill="white"/>
<path d="M74.1899 59.3877C74.3752 58.9231 74.5118 58.7208 74.5284 58.5053C74.6781 56.7098 74.3054 54.9869 73.7291 53.3003C73.6721 53.1323 73.587 52.9349 73.4531 52.8365C73.2724 52.7061 72.9815 52.5382 72.8284 52.6037C72.5871 52.7052 72.3544 52.9552 72.2409 53.1991C72.1501 53.3948 72.2065 53.6844 72.2581 53.9156C72.6581 55.6967 73.068 57.4759 74.1899 59.3877Z" fill="white"/>
<path d="M74.7311 83.7484C74.8686 83.3989 75.0289 83.1871 75.0179 82.987C74.8767 80.9531 74.1875 79.062 73.4141 77.201C73.3682 77.0923 73.2915 76.9505 73.1971 76.9151C72.983 76.841 72.7398 76.7692 72.5296 76.8077C72.4112 76.83 72.256 77.0746 72.2555 77.2186C72.2572 77.5808 72.2756 77.9612 72.3929 78.2975C72.9396 79.8488 73.5097 81.3937 74.1003 82.9286C74.2019 83.1924 74.4526 83.3964 74.7311 83.7484Z" fill="white"/>
<path d="M107.433 91.4848C107.346 91.7002 107.164 91.9252 107.205 92.0973C107.289 92.4388 107.461 92.7761 107.657 93.0752C108.767 94.7453 109.988 96.3312 111.411 97.7495C111.572 97.9092 111.777 98.0238 112.095 98.2562C112.266 97.6166 112.003 97.2219 111.796 96.8349C110.484 94.3941 108.807 92.3231 107.433 91.4848Z" fill="white"/>
<path d="M124.395 131.657C124.176 131.409 123.986 131.117 123.731 130.916C122.514 129.961 118.649 127.94 117.5 127.632C117.134 127.896 117.072 128.211 117.388 128.542C117.595 128.76 117.829 128.968 118.087 129.118C120.022 130.264 122.026 131.256 124.399 131.657L124.395 131.657Z" fill="white"/>
<path d="M62.3267 74.7387C62.4629 74.3057 62.5926 74.0833 62.5908 73.8621C62.5714 71.8513 62.2323 69.8832 61.7689 67.9333C61.74 67.8173 61.7086 67.6721 61.6247 67.6061C61.4512 67.4703 61.2139 67.2616 61.0521 67.2971C60.8701 67.3395 60.7218 67.6042 60.5964 67.7953C60.5363 67.8831 60.5448 68.0316 60.554 68.1514C60.7323 70.3825 61.183 72.542 62.3236 74.7383L62.3267 74.7387Z" fill="white"/>
<path d="M67.9422 72.628C67.9591 72.0602 68.0545 71.5736 67.9684 71.1262C67.689 69.7044 67.354 68.291 67.0051 66.8852C66.9375 66.607 66.7216 66.3596 66.546 66.121C66.4863 66.0424 66.3172 65.968 66.2365 65.9954C66.0816 66.051 65.878 66.1577 65.8375 66.2899C65.7512 66.5695 65.6849 66.8903 65.7363 67.1696C66.0811 68.9559 66.6096 70.6873 67.4001 72.3296C67.4574 72.4495 67.6824 72.4899 67.9422 72.628Z" fill="white"/>
<path d="M159.225 135.639C159.339 135.741 159.455 135.927 159.603 135.963C161.504 136.396 163.407 136.814 165.313 137.212C165.524 137.257 165.767 137.143 166.079 137.09C165.971 136.851 165.944 136.645 165.833 136.569C164.114 135.415 162.226 134.823 160.147 134.939C159.866 134.955 159.589 135.135 159.332 135.276C159.263 135.315 159.268 135.488 159.228 135.643L159.225 135.639Z" fill="white"/>
<path d="M73.5218 71.8287C73.8404 70.7642 73.8037 70.0962 73.6864 69.4556C73.4463 68.1448 73.1371 66.847 72.8378 65.5473C72.7857 65.3192 72.6864 65.0622 72.5244 64.9119C72.3737 64.7728 72.1045 64.7039 71.8918 64.7133C71.7662 64.7185 71.6162 64.9253 71.5475 65.0761C71.4748 65.2327 71.4406 65.4362 71.4689 65.6034C71.8429 67.6211 72.4346 69.5693 73.5186 71.8283L73.5218 71.8287Z" fill="white"/>
<path d="M91.7831 59.1534C91.7279 60.3053 92.0871 61.3313 92.4802 62.3203C92.9617 63.5296 93.2087 64.8605 94.0145 65.8996C94.529 65.7907 94.5559 65.4773 94.5044 65.198C94.1821 63.4116 93.7803 61.6431 92.9907 59.9945C92.8385 59.679 92.6026 59.3905 92.3552 59.1388C92.2766 59.0576 92.0348 59.1398 91.7835 59.1503L91.7831 59.1534Z" fill="white"/>
<path d="M96.1801 76.7748C96.1842 76.5576 96.2385 76.3248 96.1861 76.1222C95.7721 74.4674 95.0527 72.9373 94.2107 71.4609C94.0946 71.256 93.942 71.0366 93.7466 70.9201C93.5629 70.8117 93.2582 70.7444 93.0927 70.8306C92.9276 70.9137 92.8678 71.2098 92.7725 71.4146C92.7499 71.4627 92.7652 71.5385 92.7902 71.5899C93.6304 73.4536 94.4112 75.3541 96.1801 76.7748Z" fill="white"/>
<path d="M150.237 158.648C150.958 159.627 151.943 160.178 154.514 160.979C155.162 161.179 155.849 161.591 156.628 161.095C156.118 160.257 155.301 159.956 154.541 159.608C153.381 159.078 152.225 158.494 150.914 158.427C150.701 158.417 150.482 158.563 150.24 158.648L150.237 158.648Z" fill="white"/>
<path d="M83.0882 62.0276C83.2166 63.8035 84.2447 67.0093 85.1091 68.3222C85.1995 68.2705 85.3626 68.2256 85.3672 68.1686C85.5144 66.1101 84.9561 64.1985 84.0994 62.3614C83.8985 61.9336 83.7759 61.9168 83.0909 62.0312L83.0882 62.0276Z" fill="white"/>
<path d="M100.376 75.6709C100.248 75.1345 100.211 74.7034 100.045 74.3283C99.5061 73.1145 98.9269 71.9174 98.3544 70.7181C98.225 70.4473 98.0958 70.151 97.8828 69.9521C97.7465 69.8246 97.4524 69.7971 97.2489 69.8333C97.1368 69.8564 97.0009 70.1005 96.9929 70.2531C96.9803 70.4852 97.0285 70.7416 97.1244 70.9533C97.8469 72.5543 98.6427 74.1109 99.8227 75.435C99.8922 75.5117 100.034 75.528 100.377 75.6678L100.376 75.6709Z" fill="white"/>
<path d="M203.291 166.092C203.061 166.224 202.952 166.273 202.859 166.343C201.977 166.982 201.924 167.673 202.772 168.151C204.021 168.853 205.372 169.137 206.799 168.868C207.555 168.725 207.829 168.154 207.434 167.53C206.751 166.457 206.017 165.408 204.957 164.661C204.013 163.997 203.378 164.31 203.259 165.479C203.241 165.656 203.277 165.84 203.294 166.092L203.291 166.092ZM205.303 166.668C205.723 166.921 206.105 167.201 206.189 167.734C205.686 168.152 205.141 167.898 204.619 167.83C204.238 167.778 203.779 167.814 203.561 167.275C204.062 167.005 204.508 167.351 204.957 167.348C205.46 167.346 205.528 167.016 205.339 166.596C204.851 166.293 204.581 165.952 204.53 165.576C204.975 165.81 205.262 166.15 205.296 166.671L205.303 166.668Z" fill="white"/>
</g>
<defs>
<clipPath id="clip0_321_374">
<rect width="212.359" height="162.645" fill="white" transform="matrix(-0.990763 -0.135607 -0.135607 0.990763 233.132 29.5232)"/>
</clipPath>
</defs>
</svg>
