<svg width="76" height="70" viewBox="0 0 76 70" fill="none" xmlns="http://www.w3.org/2000/svg">
<g clip-path="url(#clip0_466_4965)">
<path d="M1.58142 47.063C1.54202 46.0258 1.66294 44.9845 1.95708 43.9926C2.56438 41.9432 4.13086 39.7278 6.50163 39.7116C8.77255 39.696 10.8438 39.444 13.0664 40.1513C13.7621 40.3728 14.0915 41.2989 14.5419 41.8274C14.9719 42.3314 15.5384 42.7698 16.2069 42.8856C16.8807 43.0021 17.6687 42.5936 17.0315 41.8714C15.8659 40.5496 14.9631 38.8356 13.9468 37.3837C8.81399 30.052 4.55271 22.5739 4.40937 13.3661C4.3231 7.82633 7.77805 2.0372 13.7328 1.4112C17.3026 1.03587 21.2466 4.04392 23.398 6.6536C25.7097 9.45772 27.1063 12.9915 27.9758 16.4528C28.7142 19.3917 29.4506 22.3503 29.4839 25.4159C29.4873 25.7133 29.5545 26.0135 29.5301 26.3075C29.4812 26.8901 29.8759 27.0778 30.3079 27.1395C30.8045 27.2106 30.9661 26.8542 30.9892 26.4139C31.0653 24.9966 30.9981 23.5786 30.7318 22.1918C30.1673 19.2515 29.5321 16.324 28.6585 13.4549C28.183 11.8919 27.5153 10.4265 26.6627 9.02819C25.9508 7.86088 25.3164 6.66715 24.3973 5.61907C23.0162 4.04392 21.339 2.88338 19.581 1.81295C19.259 1.61648 18.9098 1.44237 18.5702 1.26554C16.4161 0.143624 14.1459 -0.237124 11.7282 0.142269C9.27524 0.527759 7.49139 1.97419 5.98469 3.76412C3.07862 7.21727 2.0352 11.9177 2.87822 16.2868C3.60575 20.0604 4.74495 23.7547 6.26863 27.2844C7.79503 30.8202 10.0517 34.0911 11.9388 37.4752C12.2791 38.0863 12.1113 38.3783 11.3845 38.236C10.1434 37.9928 8.9057 38.0016 7.66393 38.0775C5.82912 38.1893 4.103 38.6479 2.69209 39.9074C0.559748 41.8098 -0.332172 44.1227 0.108696 47.0095C0.396721 48.8956 0.885817 50.6672 1.8022 52.3399C2.47811 53.5736 3.42913 54.5763 4.56697 55.3209C7.15852 57.016 9.87574 57.6128 13.0107 56.5925C15.1689 55.8907 16.679 54.4727 18.3338 53.1489C18.5634 52.9653 18.7481 52.7105 18.9071 52.4592C19.0538 52.2275 19.0504 51.9558 18.8168 51.7648C18.2699 51.3176 16.2198 53.4043 15.694 53.7315C13.6248 55.018 10.8329 56.2328 8.3541 55.745C4.22121 54.9313 1.73019 51.0276 1.58075 47.0623L1.58142 47.063Z" fill="white"/>
<path d="M39.8011 27.0995C39.6217 26.9775 39.4526 26.8468 39.2698 26.7397C38.5654 26.3251 38.4506 25.8685 38.6123 24.9769C39.1781 21.8584 38.778 18.7352 38.0376 15.6832C37.5838 13.814 36.6803 12.1047 35.4583 10.5925C34.7518 9.71856 33.8578 9.61558 32.972 10.2748C32.1086 10.9184 32.2445 12.5369 33.2152 13.001C33.6241 13.1968 34.0609 13.1866 34.44 12.9048C34.7443 12.6785 35.0215 12.4156 35.4379 12.06C36.1715 13.4996 36.8997 14.8837 37.2007 16.425C37.6592 18.7738 37.9106 21.1505 37.8222 23.5508C37.808 23.9349 37.7951 24.3245 37.7197 24.6992C37.505 25.7709 36.4161 26.3861 35.5608 26.9111C34.4386 27.6002 33.6207 28.2858 32.7736 29.3061C30.0422 32.5987 28.1184 36.564 26.4058 40.4467C25.4371 42.6431 24.6342 44.914 24.0527 47.2432C23.5623 49.2086 22.7192 51.8725 23.2206 53.8724C23.8483 56.3771 26.5064 58.3784 29.0877 57.4468C31.3342 56.6359 33.1133 54.4788 34.4481 52.5893C35.6009 50.9572 36.4072 48.9586 37.2659 47.1579C38.1789 45.244 38.9383 43.2562 39.5334 41.2217C40.7195 37.167 41.2738 32.8859 40.8968 28.6686C40.8445 28.0846 40.871 27.6063 41.1325 27.0765C41.6997 25.9288 42.2201 24.7554 42.7064 23.5711C43.3756 21.9411 44.4197 20.5069 45.6771 19.2786C46.1071 18.8585 47.0567 17.7183 47.6715 17.6357C48.5002 17.5239 48.2856 17.8904 48.6694 18.3836C50.7182 21.0157 52.659 17.0375 50.4777 16.2644C48.7366 15.6479 46.6328 16.7868 45.4284 17.95C43.0814 20.2176 41.7052 23.0474 40.4213 25.9545C40.2827 26.2682 40.1428 26.5805 39.9933 26.8888C39.958 26.962 39.8792 27.0141 39.7997 27.0981L39.8011 27.0995ZM39.7413 31.8968C39.6679 35.2151 38.8364 38.3803 37.4799 41.4155C37.0641 42.3457 36.3631 42.8192 35.2599 42.8545C34.2695 42.8863 33.3449 42.6803 32.5372 42.2535C31.4531 41.681 30.6474 40.6939 30.5958 39.4311C30.5578 38.5118 30.233 37.6249 30.4912 36.711C30.6685 36.0809 31.002 35.5071 31.3322 34.9407C32.2119 33.432 35.9141 25.3102 38.7284 27.8678C39.0599 28.1692 39.2943 28.5317 39.3745 28.9545C39.5565 29.9192 39.8248 30.8765 39.742 31.8961L39.7413 31.8968ZM26.5016 43.429C26.9038 44.2867 27.1599 45.0075 27.5539 45.6423C29.2678 48.4038 31.6025 48.9505 34.6445 48.1206C34.3456 48.9498 33.993 49.7601 33.5895 50.5446C33.2729 51.1598 32.9102 51.777 32.3545 52.1902C31.5441 52.7939 30.1739 52.6082 29.2406 52.3833C25.9752 51.5954 25.0336 45.9662 26.5003 43.429H26.5016ZM29.1006 38.4677C29.1299 39.1642 29.4036 39.7455 29.583 40.3552C30.0476 41.9371 31.055 43.0015 32.5923 43.6207C33.4794 43.9784 34.3958 44.12 35.3299 44.2426C36.0778 44.3409 36.0954 44.4154 35.8393 45.1532C35.7687 45.3578 35.6953 45.5461 35.5622 45.7216C34.567 47.0373 31.9958 47.6307 30.5584 46.7744C29.7276 46.2792 29.0117 45.0116 28.619 44.1647C27.8215 42.4446 27.5335 39.86 29.1013 38.4684L29.1006 38.4677ZM24.9508 49.7648C25.6117 51.052 26.2951 51.9457 27.115 52.7376C28.0049 53.5974 29.2304 53.6346 30.3628 54.0059C29.7494 54.9063 28.9458 55.4042 28.1021 55.7951C27.4425 56.1014 26.8515 56.0668 26.1463 55.5031C25.2897 54.8182 25.2429 53.9029 24.9379 53.0601C24.5894 52.0961 24.7021 51.0886 24.9501 49.7655L24.9508 49.7648Z" fill="white"/>
<path d="M44.7922 56.976C46.1766 57.1318 47.3919 57.5681 48.6588 57.7741C50.37 58.0525 52.0635 58.1189 53.7869 58.0708C57.2873 57.9733 60.6913 57.3391 64.0328 56.348C67.4749 55.327 70.7851 53.283 72.7178 50.1889C74.8725 46.7385 75.9485 42.4981 75.9988 38.4582C76.0484 34.4604 74.5573 31.0953 71.9169 28.1089C69.3335 25.1863 65.6014 23.2934 61.6009 23.6463C59.6371 23.8198 57.6161 24.0196 55.7514 24.6958C53.6449 25.4593 51.7062 26.6097 49.8428 27.838C47.5081 29.3779 45.4267 31.2057 43.3521 33.0499C42.8834 33.4665 40.448 35.646 42.043 36.1277C43.0674 36.4373 44.6285 33.5038 45.337 32.8886C47.525 30.9869 49.8578 29.157 52.3386 27.6496C54.8038 26.1517 57.4578 25.3258 60.3028 24.8868C63.234 24.4349 65.8065 25.0968 68.1182 26.672C70.0617 27.9965 71.6356 29.7695 72.9141 31.7972C74.0662 33.625 74.7693 35.6026 74.8433 37.7062C74.9221 39.9535 74.7489 42.1973 74.0016 44.3978C73.3054 46.4485 72.4066 48.3211 71.1105 50.0656C66.816 55.8446 58.9462 56.7714 52.2924 56.6887C50.3156 56.6644 48.3504 56.5397 46.4212 56.0966C44.8194 55.7294 43.3297 55.1075 42.0947 53.9808C42.0315 53.9232 41.9683 53.8521 41.8922 53.8257C41.5003 53.6895 41.039 53.3115 40.7028 53.6536C40.3006 54.0642 40.7116 54.5188 40.9487 54.9117C41.0125 55.0167 41.1362 55.0851 41.2292 55.1739C43.0702 56.9211 44.2515 59.5383 44.354 62.0782C44.4294 63.944 43.7033 65.9791 42.3603 67.3321C40.9242 68.7785 38.2763 69.4445 36.4313 68.3991C35.2575 67.7338 34.0959 67.0482 33.1808 65.9642C32.4397 65.0869 31.5729 64.343 31.0587 63.2665C30.6076 62.3221 30.2177 61.3939 30.3101 60.3316C30.3495 59.8736 30.179 59.5145 29.7334 59.4929C29.2667 59.4698 29.0914 59.8445 29.1132 60.2889C29.1505 61.0592 29.1709 61.8315 29.2334 62.5998C29.2837 63.2116 29.5072 63.7996 29.9059 64.2468C31.4146 65.9398 32.8466 67.7094 34.8064 68.9499C36.7947 70.208 39.872 70.5135 41.9541 68.8625C45.2174 66.2745 46.5618 62.799 45.1067 58.4848C44.9559 58.0369 44.799 57.5945 44.7908 56.9746L44.7922 56.976Z" fill="white"/>
</g>
<defs>
<clipPath id="clip0_466_4965">
<rect width="76" height="70" fill="white" transform="matrix(-1 0 0 1 76 0)"/>
</clipPath>
</defs>
</svg>
