<svg width="302" height="308" viewBox="0 0 302 308" fill="none" xmlns="http://www.w3.org/2000/svg">
<g clip-path="url(#clip0_296_22819)">
<path d="M148.958 69.8824C148.958 69.8824 148.958 69.9549 148.958 69.9859C148.958 69.9652 148.958 69.9342 148.968 69.9135C148.968 69.8928 148.968 69.8928 148.958 69.8824Z" fill="white"/>
<path d="M28.0091 229.759C33.9542 218.834 39.8993 207.899 45.8444 196.974C61.7772 167.687 77.6997 138.399 93.6325 109.112C110.361 78.3552 127.08 47.609 143.809 16.8525C142.775 18.7457 143.561 24.2494 143.478 26.5357C142.982 40.657 142.579 54.768 142.579 68.8996C142.579 69.2514 142.579 69.5928 142.579 69.9445C142.537 74.2895 142.465 78.6242 142.465 82.9692C142.465 93.3249 142.486 103.681 142.496 114.036C142.496 118.619 142.486 118.619 138.867 118.878C136.851 119.292 134.814 119.592 132.839 120.15C122.241 123.13 114.228 131.116 108.583 140.272C105.719 144.917 103.507 149.883 101.49 154.941C99.2674 160.497 96.4551 161.469 91.0167 163.787C84.6167 166.518 79.2299 177.246 88.9592 179.936C89.6519 180.122 90.417 180.236 90.9029 180.763C91.3579 181.26 91.4302 181.994 91.4923 182.667C92.154 190.364 93.7256 198.081 96.817 205.189C98.3472 208.706 100.25 212.078 102.576 215.141C104.427 217.582 109.152 220.437 107.601 223.841C106.308 226.665 102.276 230.452 101.666 225.165C101.139 220.634 99.1227 215.834 97.2719 211.716C96.207 209.337 94.987 206.658 93.0845 204.806C92.1023 203.854 88.4008 201.847 88.039 204.661C87.9769 205.106 88.1217 205.551 88.2457 205.975C90.3653 212.71 93.1569 221.131 89.5071 227.865C88.8661 229.055 88.3181 229.169 87.6357 227.855C85.3301 223.355 83.0037 218.513 80.605 213.92C78.8887 210.64 76.0971 202.426 71.7132 202.044C70.5656 201.94 73.5846 206.337 73.657 206.482C74.5462 208.333 74.4221 210.599 73.9879 212.544C73.2021 216.072 71.2893 219.951 72.7989 223.541C71.0722 220.644 67.1433 220.272 64.0518 218.948C60.795 217.561 58.0757 214.851 54.5811 214.282C51.8515 213.837 49.0599 214.799 46.6715 216.196C42.6082 218.586 38.6896 221.72 35.5051 225.186C32.7031 228.238 33.6647 233.131 37.149 235.169C40.3129 237.021 44.5209 237.114 48.0466 237.859C51.8515 238.676 55.6046 239.7 59.2958 240.931C66.5333 243.342 73.5019 246.549 80.0467 250.47C79.3436 250.046 76.1695 250.873 75.1872 250.987C73.0884 251.225 70.9895 251.494 68.901 251.773C64.7135 252.322 60.5365 252.891 56.3387 253.367C52.3064 253.822 48.2534 254.204 44.2004 254.36C40.2612 254.515 39.5064 255.322 37.9245 258.87C36.6321 261.767 35.3397 264.653 34.0472 267.55C33.4165 268.967 32.7755 270.416 32.5894 271.967C31.6899 279.768 40.3956 276.54 44.6657 276.054C50.7245 275.361 56.9177 274.823 63.0282 274.823C70.6173 274.492 78.3097 273.385 85.8264 272.247C91.5853 271.388 97.8613 269.071 103.703 269.805C106.825 270.25 117.496 282.964 118.054 282.706C114.073 284.589 111.726 284.164 107.487 283.833C105.006 283.637 102.524 284.527 100.436 285.892C97.2099 288.013 79.995 304.245 87.8115 307.379C93.2603 309.562 101.418 305.279 106.701 303.748C115.996 301.058 125.343 298.534 134.752 296.248C148.255 292.968 161.872 290.123 175.561 287.723C181.485 286.689 187.544 284.982 193.479 286.027C206.961 288.385 220.682 292.41 232.582 299.269C234.381 300.303 236.19 301.42 238.227 301.772C243.769 302.724 253.312 294.065 256.6 290.134C258.027 288.427 258.379 286.099 256.487 284.537C255.68 283.875 254.677 283.502 253.695 283.151C250.852 282.126 248.019 281.113 245.165 280.109C240.554 278.485 235.88 276.871 231.021 276.209C226.161 275.557 221.24 276.23 216.37 275.485C215.491 275.35 214.561 275.361 214.033 274.388C214.23 274.74 228.353 267.25 229.367 266.577C232.355 264.612 239.117 260.143 237.028 255.674C234.588 250.46 226.172 249.549 221.633 247.304C226.771 245.452 234.536 239.049 236.914 234C238.331 231 235.518 230.4 233.575 229.5C229.594 227.648 225.634 225.889 221.747 223.872C214.933 220.365 199.352 231.021 191.473 234.911C186.727 237.249 184.794 236.597 182.788 231.972C182.53 231.372 182.271 230.752 182.323 230.1C182.437 228.859 183.626 228.052 184.66 227.369C191.039 223.117 195.702 216.641 198.897 209.658C203.074 200.533 205.162 190.56 206.817 180.712C206.91 180.143 207.023 179.563 207.334 179.077C207.809 178.342 208.657 177.96 209.463 177.608C212.162 176.408 214.902 174.918 216.453 172.404C222.522 162.545 206.114 164.004 204.439 157.414C201.471 145.713 193.81 135.482 184.07 128.509C179.18 125.013 173.71 122.281 167.92 120.616C164.074 119.509 155.441 118.216 151.76 117.688C151.595 117.667 151.243 111.553 151.233 108.988C151.171 78.1897 151.119 47.4021 151.057 16.6042C151.057 14.8558 151.202 12.7971 152.68 11.8454C154.004 10.9971 155.772 11.4833 157.157 12.2385C161.799 14.7731 164.539 19.6768 167.041 24.3321C198.194 82.3589 229.346 140.292 259.154 199.012C268.129 216.692 277.01 234.414 285.798 252.177C289.634 259.915 293.656 267.933 300.397 273.333C302.972 271.874 302.031 267.984 300.759 265.315C277.951 217.427 254.718 169.735 231.042 122.271C217.528 95.1767 203.86 68.1444 188.754 41.9088C183.874 33.436 178.839 25.0253 172.955 17.2042C168.344 11.0591 162.978 2.35873 154.996 0.310365C146.166 -1.95525 140.097 7.16929 136.478 13.8317C90.9753 97.5871 45.4825 181.291 0 264.995C1.07528 263.019 8.91246 261.084 11.0424 259.077C15.9742 254.432 18.7244 246.849 21.9503 240.9C23.9664 237.186 25.9929 233.473 28.0091 229.759ZM90.479 175.011C87.5323 173.894 85.816 172.094 87.4496 169.249C89.5175 165.649 94.3149 164.407 98.1301 163.694C97.396 163.838 98.5333 168.432 98.6471 168.939C99.0606 170.728 100.043 172.311 101.408 173.542C101.914 173.997 104.861 176.698 105.378 176.646C103.196 176.853 95.2248 176.822 90.4687 175.011H90.479ZM143.706 130.858C143.871 133.092 144.636 136.237 143.85 138.399C143.344 139.796 141.896 140.251 140.594 140.624C139.167 141.017 137.761 141.493 136.468 142.217C135.868 142.558 135.279 142.962 134.855 143.51C133.118 145.775 136.168 147.317 137.699 148.693C136.985 148.051 132.105 149.024 131.05 149.107C128.517 149.293 125.994 149.531 123.472 149.872C118.964 150.493 114.632 151.662 110.32 153.059C111.55 150.545 112.822 148.196 114.187 145.972C117.589 140.468 121.631 135.772 127.142 131.478C131.526 128.106 136.83 125.168 142.506 125.199C142.796 125.199 143.075 125.199 143.354 125.292C143.013 126.957 143.571 129.151 143.695 130.858H143.706ZM150.147 135.13C150.34 138.192 149.247 139.727 146.869 139.734C147.872 138.317 148.834 136.972 150.147 135.13ZM146.425 137.954C146.011 134.799 148.596 133.475 150.23 131.582C149.858 134.251 147.459 135.689 146.425 137.954ZM149.713 126.647C148.762 128.354 146.911 129.368 146.259 131.271C146.259 131.282 146.259 131.292 146.27 131.313H146.249C146.249 131.313 146.27 131.313 146.259 131.313C146.259 131.333 146.239 131.344 146.228 131.365C146.849 132.565 147.428 131.375 148.131 131.261C148.183 132.668 146.88 132.647 146.384 133.423C145.629 132.596 145.898 131.975 146.228 131.365C146.228 131.365 146.228 131.354 146.218 131.344C146.218 131.323 146.239 131.292 146.249 131.271C145.867 130.227 145.898 130.227 146.487 129.43C147.645 127.857 149.123 126.471 149.537 124.319C150.736 125.106 150.178 125.778 149.692 126.647H149.713ZM147.293 124.837C147.035 125.902 146.756 126.968 145.494 128.23C145.846 126.564 146.042 125.488 146.301 124.423C146.404 123.988 146.859 124.061 147.159 124.112C147.728 124.216 147.355 124.557 147.283 124.826L147.293 124.837ZM146.89 141.989C149.444 141.689 152.215 141.13 154.49 143.2C151.729 144.11 148.958 144.886 145.484 144.948C146.89 144.048 145.649 142.124 146.89 141.979V141.989ZM152.794 139.403C152.535 139.061 152.504 138.596 152.494 138.161C152.411 134.313 152.97 130.454 152.877 126.616C152.856 125.809 153.673 125.499 154.965 125.519C159.256 125.581 168.809 129.244 170.278 129.916C179.48 134.137 188.268 140.861 192.528 150.276C191.866 148.838 188.557 148.507 187.255 148.165C184.68 147.503 182.126 146.8 179.521 146.251C175.747 145.455 171.932 144.865 168.096 144.482C164.787 144.151 160.91 143.489 157.622 144.151C156.992 144.275 156.774 144.172 156.878 143.365C157.312 139.961 154.086 141.099 152.784 139.392L152.794 139.403ZM146.29 147.689C146.115 148.414 145.05 148.641 145.401 149.448C145.846 150.493 146.559 148.786 147.087 149.562C146.683 150.379 145.298 150.472 145.484 151.848C147.717 151.465 148.834 149.427 150.736 148.383C150.922 150.503 149.082 151.445 148.038 152.997C149.144 153.4 149.671 152.841 150.25 152.148C150.592 153.421 150.922 154.641 151.336 156.173C148.803 155.635 146.477 155.335 144.14 155.552C143.158 155.645 142.878 154.983 142.723 154.362C142.186 152.221 141.162 150.327 139.663 148.165C142.134 147.989 144.181 147.845 146.29 147.689ZM138.712 143.634C140.345 142.351 142.186 142.62 143.644 141.875C144.357 142.631 143.623 143.665 144.491 144.369C142.486 144.617 140.676 144.503 138.712 143.634ZM122.696 152.024C125.974 151.631 129.262 151.362 132.55 151.196C134.628 151.093 138.402 150.234 140.056 151.983C142.175 154.217 139.673 158.004 144.068 158.397C146.311 158.593 153.311 159.814 153.342 156.007C153.373 152.521 151.408 148.858 155.472 146.976C158.181 145.724 161.634 146.169 164.519 146.386C170.464 146.841 176.367 147.814 182.147 149.272C190.119 151.29 204.459 158.717 196.694 169.052C192.89 174.122 186.252 176.191 180.358 177.618C170.608 179.987 160.321 179.946 150.354 179.729C139.508 179.491 128.683 178.508 117.93 177.06C114.849 176.646 111.747 176.46 108.749 175.611C105.388 174.66 103.382 173.356 103.703 170.863C104.034 168.256 105.337 165.918 106.226 163.487C107.177 160.911 107.808 158.097 109.803 156.069C112.874 152.945 118.571 152.5 122.717 152.014L122.696 152.024ZM189.405 177.649C187.627 181.529 184.494 179.036 182.168 179.543C184.411 178.953 186.655 178.363 189.405 177.649ZM157.002 182.17C150.664 182.398 144.626 183.391 138.588 182.17C138.97 180.867 139.994 180.474 141.224 180.774C145.298 181.756 149.558 180.401 153.59 181.756C154.624 182.108 155.73 181.125 157.002 182.181V182.17ZM137.678 181.198C137.605 181.777 137.74 182.46 136.747 182.129C136.065 181.901 135.103 182.036 135.103 180.939C135.103 179.894 135.91 180.412 136.158 180.37C137.057 180.267 137.823 180.018 137.667 181.198H137.678ZM132.343 181.529C131.485 181.249 130.533 181.239 129.355 181.084C129.696 180.712 129.748 180.587 129.81 180.587C131.019 180.556 132.56 180.174 133.284 181.084C133.883 181.829 133.015 181.746 132.343 181.529ZM115.2 179.48C113.525 179.77 111.84 180.08 109.782 179.046C111.954 178.467 113.567 179.191 115.2 179.48ZM107.363 179.253C104.768 179.377 102.173 179.532 99.5776 179.605C98.8538 179.625 97.8096 179.729 97.913 178.508C98.0164 177.298 99.0606 178.094 99.5156 178.063C102.173 177.877 104.727 179.025 107.363 179.243V179.253ZM92.1954 225.952C93.0845 223.013 92.733 220.096 92.5159 217.168C92.2677 213.806 91.8025 210.454 91.3785 206.513C96.269 209.585 97.7786 213.982 98.8228 218.575C99.4535 221.348 100.064 224.151 100.002 227.048C99.9808 228.062 100.26 229.117 100.601 230.09C100.994 231.207 101.718 232.624 102.741 232.728C103.941 232.841 104.106 231.248 104.427 230.214C105.202 227.752 107.053 225.972 108.449 223.913C108.842 223.334 109.483 222.61 110.392 223.117C111.509 223.748 110.589 224.451 110.372 225.114C108.728 230.152 105.471 234.445 103.724 239.442C102.772 242.152 102.028 244.914 101.821 247.77C101.718 249.208 101.015 249.88 99.6913 250.004C95.9278 250.356 92.154 250.635 88.3905 251.049C87.1291 251.194 87.005 250.563 86.7672 249.601C85.6816 245.225 85.9711 241.056 87.2739 236.68C88.4215 232.8 91.027 229.748 92.185 225.952H92.1954ZM74.4428 218.441C74.9081 217.065 75.6215 215.761 76.0557 214.375C76.49 212.999 76.7278 211.572 77.1103 209.947C78.9507 212.844 80.1604 216.051 80.8842 219.031C81.8147 222.889 84.9062 225.124 86.1675 228.538C86.3433 229.024 86.5398 229.5 86.9533 230.565C83.3656 229.19 80.2328 228.207 77.3171 226.8C75.1872 225.776 73.657 220.779 74.4428 218.451V218.441ZM68.4771 243.011C60.4848 240.021 52.5442 236.928 44.3348 234.559C43.1872 234.228 41.9154 234.279 40.7057 234.197C38.6689 234.052 37.3248 232.955 36.5494 231.134C35.7842 229.334 36.4149 227.979 37.5419 226.407C40.4576 222.362 44.9552 220.862 49.0702 218.772C49.8043 218.399 50.6004 218.017 51.3655 217.634C53.2369 216.703 54.8602 216.372 56.6696 218.006C57.6311 218.875 59.12 219.382 60.4434 219.6C65.8715 220.469 69.7798 223.903 74.205 227.472C71.3927 227.069 69.2008 227.503 67.0295 228.165C66.5746 228.3 65.8198 228.3 65.9646 228.983C66.1404 229.831 67.0295 229.696 67.4638 229.417C69.7384 227.876 72.6128 229.49 74.9701 227.865C75.5078 227.493 77.0897 228.652 78.9818 229.428C75.5698 229.51 73.0263 230.059 70.7103 231.569C73.7708 231.259 76.8932 231.197 79.8916 230.565C82.5074 230.007 84.0066 231.879 85.9711 232.686C86.6949 232.976 86.0848 233.979 85.7953 234.569C83.2312 239.897 83.1795 245.349 84.8751 251.039C84.5546 250.304 82.2179 252.756 83.3036 249.859C83.5 249.322 83.1175 248.577 82.3834 248.515C77.2137 248.049 73.1504 244.77 68.4874 243.032L68.4771 243.011ZM59.0373 254.184C59.0373 254.184 61.2085 254.039 64.4034 253.884C64.0415 253.998 63.69 254.132 63.3384 254.267C61.9116 254.836 60.5261 255.446 59.0373 254.287C59.0373 254.287 59.0269 254.287 59.0166 254.277C59.0166 254.277 58.9856 254.308 58.9649 254.318C58.9856 254.277 59.0269 254.225 59.0373 254.184ZM58.9546 254.329C58.8719 254.401 58.7891 254.473 58.7064 254.536C57.7656 255.353 56.7523 256.056 55.5426 256.439C55.5013 256.449 55.4599 256.47 55.4185 256.491C55.4185 256.491 55.4082 256.491 55.3979 256.501C55.1497 256.718 54.9016 256.936 54.6431 257.143C54.1158 257.556 53.5575 257.908 52.9371 258.156C52.5546 258.312 52.1617 258.425 51.7274 258.477C52.5649 257.246 53.9607 256.863 55.2118 256.253C55.8218 254.339 57.321 254.204 58.9546 254.339V254.329ZM75.9317 271.812C69.9452 272.836 63.8347 273.188 57.7656 273.633C51.1381 274.109 44.4692 273.943 37.8521 274.719C34.9054 275.061 34.192 274.388 34.9881 271.502C36.4253 266.329 39.2169 261.736 41.719 257.018C42.0395 256.408 42.5461 256.501 43.0528 256.511C46.382 256.605 49.6389 256.098 53.6505 255.198C50.7452 257.246 48.4395 258.87 45.8547 260.701C45.8547 260.743 45.865 260.784 45.8754 260.825C48.5533 261.27 49.6802 258.85 51.624 258.529C51.5723 258.994 50.8072 259.201 50.7452 259.625C50.7245 259.75 50.7555 259.894 50.9106 260.081C51.3759 260.65 52.0376 260.081 52.5752 259.884C54.1054 259.315 55.2945 256.987 57.3623 258.974C57.4554 259.067 58.1688 258.694 58.4479 258.405C59.8231 256.998 61.6014 256.356 63.3798 255.674C64.1862 255.363 65.2305 255.218 65.5407 253.987C65.551 253.946 65.5614 253.894 65.5717 253.842C68.6218 253.698 72.3853 253.532 76.0868 253.377C76.0661 253.387 76.0454 253.398 76.0247 253.408C73.3158 254.867 71.0205 256.108 68.7459 257.329C71.1446 257.929 75.1872 255.777 76.2729 253.408C76.2729 253.398 76.2935 253.377 76.2935 253.367C81.701 253.129 86.9223 252.901 89.4761 252.766C92.8674 252.591 96.2587 252.456 99.65 252.26C100.829 252.187 101.49 252.104 101.356 253.811C100.973 258.601 101.935 263.143 105.295 267.084C103.455 267.747 83.9239 270.457 75.9213 271.823L75.9317 271.812ZM87.6047 305.403C86.1262 303.138 90.8202 299.062 92.1437 297.551C94.8732 294.458 97.8096 291.541 100.953 288.861C103.424 286.751 106.339 284.785 109.607 286.492C110.868 287.154 110.279 288.572 109.731 289.554C108.356 292.037 106.629 294.334 104.613 296.331C104.675 295.368 105.688 294.717 105.864 293.765C106.06 292.699 105.047 291.706 103.972 291.561C102.897 291.417 101.842 291.882 100.891 292.42C99.164 293.403 92.6399 297.996 94.8525 300.448C96.0002 301.71 97.4891 301.162 98.7194 300.448C100.436 299.455 102.038 298.286 103.693 297.189C100.581 301.296 96.4345 304.017 91.6681 305.776C90.3756 306.252 88.6283 306.976 87.5944 305.383L87.6047 305.403ZM104.303 293.641C102.349 296.362 100.115 297.955 97.2823 298.627C99.4225 296.868 100.787 294.003 104.303 293.641ZM252.175 284.651C253.085 284.733 253.964 284.992 254.77 285.478C255.494 285.913 256.063 286.709 255.99 287.547C255.918 288.385 255.266 289.037 254.646 289.596C250.624 293.248 246.127 296.713 241.071 298.782C239.985 299.227 238.806 299.6 237.659 299.351C236.066 299 235.332 297.386 235.746 295.886C236.108 294.582 236.759 293.372 237.535 292.265C239.447 289.534 242.156 287.423 245.227 286.151C247.264 285.313 249.828 284.423 252.175 284.651ZM222.708 277.802C221.529 278.744 220.557 278.619 218.976 277.823C220.485 277.285 221.457 277.378 222.708 277.802ZM216.887 277.668C214.375 277.161 211.904 277.492 209.432 277.864C208.678 277.978 207.623 277.957 207.768 278.878C207.902 279.695 208.802 279.292 209.494 279.147C209.898 279.064 211.304 278.081 210.911 280.047C210.777 280.74 212.131 280.43 212.658 280.264C214.602 279.664 216.205 279.013 218.531 279.902C220.175 280.533 222.687 279.571 224.848 279.509C224.848 279.488 224.869 279.478 224.869 279.468C224.869 279.468 224.941 279.468 224.972 279.468C229.025 276.457 232.965 278.557 236.935 279.613C235.922 280.202 234.784 279.747 233.781 280.419C233.202 280.802 232.82 280.813 233.12 279.685C233.358 278.795 231.982 278.909 231.269 278.95C229.17 279.075 227.071 279.292 224.972 279.468C224.952 279.488 224.921 279.499 224.9 279.519C224.879 279.519 224.869 279.519 224.848 279.519C224.693 280.151 223.256 279.799 223.763 280.864C224.187 281.733 225.2 281.868 225.758 281.402C227.474 279.985 229.336 280.709 231.228 280.647C230.866 281.351 230.163 280.823 229.801 281.206C229.532 281.485 228.891 281.557 229.118 282.137C229.346 282.726 229.894 282.933 230.39 282.551C232.716 280.771 236.211 283.047 238.258 280.275C238.31 280.202 238.982 280.595 239.365 280.771C241.246 281.599 243.035 282.633 245.341 283.006C239.747 286.482 234.557 290.02 233.14 296.641C219.679 291.23 206.103 286.347 191.938 282.768C197.108 280.782 202.381 279.137 207.292 276.747C210.932 274.978 213.744 276.633 216.866 277.678L216.887 277.668ZM224.311 251.277C227.857 252.849 231.445 254.267 235.136 255.436C235.136 255.436 235.157 255.436 235.167 255.436C236.159 258.115 234.257 259.543 232.696 261.115C227.94 265.895 221.891 268.636 215.905 271.305C205.4 276.002 194.637 280.088 183.574 283.306C178.239 284.858 172.769 285.809 167.321 286.865C165.366 287.247 122.334 296.496 114.249 298.7C109.762 299.931 105.44 301.783 101.056 303.396C100.632 303.552 100.27 303.707 99.4845 303.469C103.134 300.872 105.978 297.779 108.469 294.355C109.876 292.41 111.457 290.527 111.716 288.003C111.799 287.206 112.098 286.658 112.833 286.461C116.72 285.416 120.453 283.927 124.495 282.375C123.286 284.444 123.11 284.009 120.825 284.93C118.664 285.799 117.154 287.868 115.81 290.475C115.852 290.527 115.903 290.548 115.945 290.589C118.395 289.389 119.45 287.268 121.321 286.016C121.559 286.989 120.608 287.454 120.608 288.323C120.649 288.323 120.69 288.323 120.732 288.344C122.469 288.654 122.572 286.73 123.534 286.016C125.136 284.827 125.002 284.661 125.426 282.406C125.467 282.178 125.891 281.93 126.17 281.857C127.297 281.589 128.445 281.392 129.934 281.092C127.949 282.758 126.181 284.164 125.023 286.151C124.712 286.678 124.175 287.361 124.805 287.734C125.188 287.961 126.046 287.682 126.387 286.865C127.38 284.485 130.43 283.658 131.04 280.854C131.102 280.564 132.808 280.626 134.183 280.482C132.498 281.94 130.926 282.954 129.903 284.537C129.634 284.951 128.951 285.271 129.582 285.727C130.068 286.078 130.73 286.047 131.092 285.313C132.043 283.409 133.77 282.168 135.145 280.637C135.61 280.119 135.972 280.223 136.199 280.13C136.675 280.254 136.623 280.337 136.52 280.564C136.106 281.444 134.328 282.24 135.248 283.037C136.53 284.144 136.851 282.054 137.667 281.485C138.846 280.668 139.901 279.664 141.348 279.085C140.718 279.83 140.025 280.544 139.467 281.351C139.177 281.754 138.36 282.189 139.146 282.861C139.994 283.595 140.397 282.84 140.79 282.302C142.206 280.316 143.943 278.692 145.877 277.43C146.352 277.626 146.332 277.688 146.187 277.844C145.37 278.733 143.147 279.54 144.192 280.626C145.546 282.044 146.001 279.55 146.869 278.868C148.493 277.585 149.62 275.547 152.391 275.888C151.708 276.643 151.078 277.264 150.54 277.957C150.209 278.371 149.372 278.795 150.064 279.426C150.561 279.882 151.181 279.716 151.595 279.064C155.048 273.674 161.086 272.795 166.38 270.633C166.514 270.581 166.711 270.664 166.897 270.695C166.876 270.84 166.897 270.995 166.835 271.098C166.297 271.978 164.26 272.474 165.16 273.53C166.245 274.802 166.814 272.588 167.734 272.309C169.895 271.667 169.874 268.45 172.511 268.44C172.532 268.574 172.614 268.781 172.563 268.822C171.694 269.505 170.102 270.478 170.888 271.305C172.035 272.516 172.47 270.364 173.369 269.898C175.427 268.843 176.502 266.319 179.149 265.75C178.745 267.167 176.305 267.746 177.36 268.843C178.26 269.774 179.304 267.715 180.379 267.126C181.279 266.629 182.033 265.884 182.829 265.264C182.829 264.219 181.547 265.098 181.651 264.498C181.796 263.629 182.819 263.97 183.408 263.67C183.408 263.67 183.419 263.67 183.429 263.66C184.267 263.246 185.032 262.615 186.148 262.822C186.21 263.557 185.29 263.784 185.156 264.705C185.29 264.87 185.414 264.995 185.549 265.088C189.333 263.06 191.763 258.829 196.415 258.767C196.043 259.967 194.389 260.205 193.934 262.046C193.955 262.067 193.955 262.088 193.975 262.108C194.037 262.17 194.099 262.212 194.151 262.253C197.666 259.698 202.05 259.832 204.811 256.584C204.769 256.543 204.728 256.491 204.697 256.449C203.963 255.922 203.177 256.501 202.236 256.201C204.79 254.96 207.168 253.801 209.949 252.446C209.308 253.904 208.822 255.001 208.243 256.325C210.28 256.077 211.397 254.742 212.327 253.439C212.689 252.942 213.02 252.57 213.496 252.26C219.782 248.049 217.332 248.152 224.3 251.246L224.311 251.277ZM186.686 241.604C186.241 239.493 188.392 239.028 189.953 238.304C192.548 237.093 195.123 235.842 197.677 234.548C200.727 233.007 203.767 231.455 206.755 229.81C209.35 228.383 211.841 226.5 214.726 225.693C218.035 224.762 221.178 225.807 224.135 227.296C227.309 228.9 230.752 230.059 233.854 231.797C235.963 232.986 232.189 236.069 231.238 236.969C223.566 244.232 213.816 248.835 204.108 252.963C199.569 254.887 194.999 256.739 190.419 258.591C188.392 259.408 186.169 260.629 184.081 261.094C184.794 260.939 185.569 257.546 186.097 254.794C186.397 253.222 186.624 251.856 186.696 251.432C187.306 248.152 187.379 244.883 186.686 241.604ZM182.705 235.655C184.66 240.176 185.321 245.07 184.835 249.88C184.442 253.842 183.471 259.729 180.183 262.367C178.797 263.484 177.133 264.198 175.489 264.881C171.384 266.588 167.238 268.233 163.071 269.805C156.195 272.392 149.216 274.792 142.041 276.364C144.254 274.285 146.766 272.516 149.475 271.14C153.094 269.309 155.42 267.881 156.423 263.681C157.529 259.077 157.24 254.298 156.433 249.673C156.03 247.325 155.472 244.997 154.913 242.68C154.572 241.263 154.324 238.862 152.608 240.911C152.101 241.511 152.267 242.887 150.747 242.369C149.31 241.873 150.054 240.745 149.982 239.98C149.692 236.918 149.247 233.762 148.121 230.876C147.686 229.769 146.859 227.265 145.742 226.655C144.74 226.107 142.889 226.045 143.974 227.855C147.211 233.276 146.508 238.697 143.571 244.563C142.268 239.783 139.715 235.2 137.957 230.545C137.192 228.527 135.3 228.962 135.858 231.062C137.109 235.738 137.057 240.445 136.468 245.256C135.889 249.963 132.922 253.139 130.213 256.46C124.557 263.412 125.126 268.543 130.73 275.919C132.415 278.133 132.942 277.844 134.917 275.795C136.344 274.316 138.215 273.229 139.984 272.112C144.305 269.381 148.4 266.267 153.352 264.301C153.352 264.239 153.363 264.177 153.352 264.115C152.587 263.391 151.801 263.919 151.171 263.66C151.264 262.822 152.494 262.812 152.401 261.85C151.377 261.291 150.633 261.974 149.826 262.439C143.985 265.864 137.874 268.874 132.55 273.126C131.609 273.871 131.236 273.509 130.751 272.805C127.111 267.519 127.659 261.922 132.229 256.987C132.973 256.18 133.749 255.932 134.545 256.625C135.651 257.587 134.328 258.012 133.945 258.632C133.697 259.046 132.87 258.953 133.025 259.812C133.056 259.884 133.087 259.936 133.118 259.977C133.18 260.029 133.242 260.07 133.304 260.101C133.532 260.132 133.79 259.863 133.956 259.739C139.797 255.549 146.249 252.394 152.391 248.711C152.846 248.442 153.311 247.542 153.838 248.297C154.427 249.135 153.549 249.384 152.928 249.735C147.2 252.984 141.503 256.284 135.786 259.532C133.883 260.619 132.301 262.098 130.823 263.815C138.329 258.798 146.373 254.794 154.5 250.542C154.851 252.301 156.33 254.298 152.928 254.37C152.939 254.36 152.97 254.329 152.97 254.329C152.959 254.329 152.949 254.329 152.928 254.329C152.928 254.339 152.928 254.349 152.918 254.36C152.918 254.36 152.918 254.36 152.918 254.37C152.918 254.37 152.908 254.37 152.897 254.37C149.568 256.46 146.259 258.612 142.878 260.629C140.48 262.057 138.215 263.66 136.065 265.429C134.359 266.826 132.167 268.078 133.315 271.191C139.642 265.75 147.479 262.822 154.913 258.767C155.327 261.167 154.086 263.205 153.921 265.377C153.89 265.771 153.518 265.822 153.176 265.946C148.472 267.757 144.336 270.633 140.087 273.261C139.415 273.674 138.515 274.098 138.464 275.143C139.766 276.105 140.128 274.212 141.183 274.285C140.149 278.619 136.158 277.761 133.418 278.237C129.634 278.899 125.974 279.892 122.386 281.102C120.825 281.63 119.594 281.32 118.581 280.502C112.471 275.547 106.887 268.626 104.179 261.136C102.204 255.684 103.093 249.415 104.21 243.87C105.306 238.449 108.614 233.773 110.816 228.776C113.608 222.424 116.906 216.268 116.761 209.037C116.73 207.32 116.896 205.592 116.027 203.823C121.187 206.813 124.082 214.292 122.231 219.496C121.952 220.282 121.611 221.027 122.376 221.627C123.213 222.279 123.999 221.513 124.444 221.069C126.139 219.393 127.07 217.251 127.897 215.017C129.313 211.168 129.541 207.185 129.644 203.182C130.999 203.73 134.421 208.075 134.504 208.282C135.641 210.909 137.151 212.761 138.164 216.072C139.818 221.493 139.239 214.168 144.802 207.93C147.355 205.064 149.899 201.34 153.083 198.588C153.745 201.506 154.789 204.299 155.296 207.247C155.823 210.33 156.071 213.496 157.178 216.444C158.387 219.672 160.507 222.444 161.975 225.538C163.588 228.941 163.702 232.738 164.974 236.297C165.201 236.938 165.325 237.631 165.625 238.242C166.132 239.225 167.62 238.924 167.527 237.755C167.486 237.3 167.238 236.886 167.134 236.442C166.917 235.511 167.341 234.559 167.786 233.71C169.699 230.017 172.087 226.603 174.506 223.241C175.985 221.193 178.787 219.196 179.469 216.724C180.762 220.241 179.262 223.676 179.552 227.255C179.8 230.245 181.465 232.904 182.654 235.666L182.705 235.655ZM143.147 273.105C144.812 271.243 147.128 270.354 149.33 269.278C147.479 270.84 145.608 272.381 143.147 273.105ZM153.207 258.167C147.386 261.581 141.059 264.084 135.393 267.798C140.997 262.067 148.4 259.191 155.317 254.949C155.751 257.391 154.365 257.484 153.207 258.167ZM138.732 238.883C141.607 242.256 141.555 242.783 138.226 246.27C138.298 243.776 139.342 241.532 138.732 238.883ZM141.017 247.956C141.173 248.121 141.328 248.297 141.483 248.463C140.035 249.518 138.577 250.573 137.13 251.629C136.985 251.442 136.84 251.256 136.696 251.07C138.133 250.035 139.58 249.001 141.017 247.956ZM142.703 249.322C142.806 249.466 142.91 249.611 143.013 249.756C141.762 250.635 140.511 251.515 139.26 252.394C139.105 252.218 138.95 252.032 138.805 251.856C140.108 251.008 141.4 250.159 142.703 249.322ZM152.815 245.618C152.99 245.887 153.166 246.156 153.352 246.425C149.723 248.701 146.084 250.977 142.455 253.253C142.331 253.067 142.217 252.891 142.093 252.704C145.67 250.346 149.247 247.987 152.815 245.628V245.618ZM145.101 247.501C145.401 244.645 147.593 242.545 147.386 239.752C149.041 243.766 148.627 245.183 145.101 247.501ZM132.384 274.781C136.84 270.798 142.227 268.253 147.583 265.636C142.682 268.884 137.781 272.123 132.88 275.371C132.715 275.174 132.55 274.978 132.384 274.771V274.781ZM203.736 185.274C203.219 184.674 202.536 184.353 201.75 184.601C197.056 186.081 192.145 186.05 187.317 186.567C186.851 186.619 186.076 186.298 186.076 187.053C186.076 188.067 186.893 187.633 187.441 187.581C191.938 187.146 196.467 187.188 200.923 186.277C203.911 185.667 203.756 185.791 203.477 188.802C202.433 199.819 196.819 208.882 191.339 218.017C189.188 221.606 185.921 223.976 181.94 226.127C181.94 220.779 181.651 215.761 184.215 211.013C186.045 207.64 189.271 208.209 192.145 207.754C193.2 207.589 195.051 208.406 195.03 207.03C195.009 205.82 193.158 206.689 192.114 206.606C189.622 206.409 187.275 208.437 184.68 206.989C183.801 206.502 183.439 207.62 183.181 208.085C179.366 215.027 173.359 220.365 169.295 227.121C168.22 228.91 167.021 230.617 165.77 232.51C164.684 231.083 164.943 229.365 164.55 227.886C163.795 225.083 162.988 222.258 161.293 219.993C157.271 214.603 157.498 208.013 155.616 202.033C154.965 199.943 154.707 197.543 155.286 195.412C155.482 194.678 158.842 186.815 155.286 188.243C153.456 188.977 153.197 191.191 152.949 192.888C152.401 196.716 150.778 199.302 148.058 201.961C146.011 203.968 143.881 205.892 142.237 208.282C141.017 210.051 140.79 212.141 140.201 214.406C138.888 210.34 136.179 207.278 134.059 204.051C132.581 201.806 130.058 199.55 127.597 197.75C127.152 197.43 126.263 197.078 125.974 197.285C124.702 198.205 128.321 202.395 128.135 204.051C127.68 208.054 127.99 212.296 125.353 215.948C123.42 209.792 120.37 204.351 116.089 199.643C115.159 198.63 114.032 196.716 112.677 197.595C111.106 198.609 112.977 200.078 113.484 201.185C116.151 207.061 115.076 212.844 113.329 218.637C113.07 219.506 112.636 220.334 112.202 221.369C109.607 218.824 106.505 216.537 104.22 213.744C101.956 210.982 100.25 207.454 98.8228 204.195C96.8687 199.737 95.5039 195.009 94.8008 190.198C94.501 188.139 93.6222 184.715 94.2425 182.698C94.8215 180.825 96.7343 181.146 98.3162 181.249C122.748 182.822 147.149 184.25 171.653 182.905C178.539 182.532 185.404 181.984 192.259 181.26C195.433 180.929 199.083 179.915 202.267 180.143C203.818 180.256 204.232 181.239 204.221 182.429C204.221 183.35 203.953 184.394 203.777 185.274H203.736ZM194.275 178.322C194.792 177.329 195.206 176.253 196.488 175.642C196.663 177.122 195.33 177.773 195.309 178.943C195.299 179.532 194.771 179.615 194.358 179.418C193.81 179.149 194.089 178.705 194.285 178.322H194.275ZM197.935 176.408C198.566 174.235 200.313 175.27 201.43 174.722C200.954 175.477 200.479 176.222 199.962 177.039C200.293 174.111 198.845 176.367 197.935 176.408ZM200.685 178.239C202.267 176.253 202.805 173.791 206.248 173.366C204.521 175.456 203.746 177.598 200.685 178.239ZM209.474 175.591C208.295 176.004 207.385 176.253 206.424 175.342C207.209 174.535 207.416 173.159 208.698 172.849C210.59 172.404 212.503 172.053 214.406 171.659C212.545 172.715 211.604 174.835 209.474 175.591ZM207.985 163.663C209.97 164.583 212.369 164.5 214.158 166.083C215.832 167.573 215.677 168.866 213.547 169.663C212.255 170.149 210.921 170.604 209.567 170.79C204.366 171.535 199.403 173.242 194.151 174.308C197.025 171.049 201.027 169.363 202.929 165.328C203.601 163.89 205.555 162.525 207.985 163.663ZM152.38 120.285C152.649 120.285 152.918 120.305 153.187 120.326C162.461 120.823 171.704 123.564 179.624 128.437C191.266 135.596 200.003 147.555 202.66 160.962C202.443 159.866 200.903 158.314 200.272 157.383C199.414 156.1 198.545 154.817 197.666 153.545C195.847 150.907 193.975 148.3 192.021 145.765C186.459 138.586 180.11 132.378 171.746 128.633C162.172 124.35 151.078 121.733 140.594 123.399C131.464 124.847 122.913 130.847 116.772 137.592C110.558 144.41 106.133 153.131 103.961 162.069C103.507 163.942 103.124 165.876 102.121 167.511C101.904 167.863 101.604 168.225 101.201 168.266C100.301 168.349 100.095 167.035 100.27 166.145C101.707 158.924 104.706 152.138 107.994 145.558C118.343 124.878 134.235 119.633 152.401 120.295L152.38 120.285ZM144.161 82.1002C144.347 82.0692 144.481 82.0071 144.626 81.9554C146.332 81.3347 145.867 79.1311 147.066 78.1483C147.293 76.8345 148.338 76.0172 148.999 74.6309C149.878 76.731 147.49 77.0828 147.479 78.4587C146.642 80.6105 145.991 82.8347 144.812 84.8314C144.729 84.9659 144.667 85.1107 144.584 85.2452C143.561 84.3141 144.584 83.1141 144.171 82.1002H144.161ZM149.465 26.1736C149.175 28.9358 147.149 30.7566 145.732 32.9084C146.321 30.3117 147.862 28.222 149.465 26.1736ZM146.642 23.6804C146.932 21.6837 148.245 20.2664 149.444 17.9698C149.403 20.8768 147.573 22.0562 146.642 23.6804ZM148.265 118.133C147.066 117.988 145.649 118.826 144.76 117.667C144.533 117.378 144.13 115.681 145.887 115.505C146.57 115.443 146.384 114.129 146.714 113.446C147.252 112.329 147.707 111.119 149.299 110.095C149.299 112.484 149.33 114.512 149.279 116.54C149.258 117.202 149.609 118.288 148.265 118.123V118.133ZM146.859 93.3869C146.859 93.3869 146.714 93.3352 146.673 93.2732C146.621 93.2111 146.601 93.118 146.57 93.0456C146.714 92.7559 146.859 92.4662 147.004 92.1765C147.5 91.173 147.996 90.1696 148.493 89.1557C148.606 88.9178 148.72 88.6902 148.844 88.4522C149.837 90.7489 148.11 91.9696 146.869 93.3766L146.859 93.3869ZM146.973 98.4251C147.552 96.594 147.986 95.2491 148.41 93.8939C148.679 95.487 149.372 97.194 146.973 98.4251ZM148.555 99.7079C149.434 102.284 147.81 103.608 146.022 105.408C146.797 103.163 147.479 101.425 148.555 99.7079ZM148.369 105.119C148.693 106.594 147.479 109.532 144.729 113.933C145.567 110.829 146.197 107.726 148.369 105.119ZM144.512 104.725C144.419 101.57 143.458 98.3734 145.06 95.2801C145.132 95.3939 145.194 95.4767 145.246 95.5181C145.288 95.5491 145.329 95.5491 145.37 95.5491C145.484 95.5388 145.567 95.4043 145.649 95.1974C145.732 95.2181 145.815 95.2284 145.908 95.2491C144.915 98.3423 146.249 101.725 144.522 104.736L144.512 104.725ZM147.097 83.083C147.831 81.4588 148.42 80.145 149.041 78.7691C149.847 80.776 149.196 82.0899 147.097 83.083ZM148.793 69.6755C148.855 69.541 148.906 69.4066 148.968 69.2721C148.968 69.4066 148.968 69.5307 148.968 69.6652C149.051 69.6859 149.113 69.7273 149.144 69.8514C149.082 69.9962 149.02 70.1411 148.958 70.2859C148.813 72.3032 147.903 73.9895 146.807 75.593C146.435 76.1413 146.042 76.6793 145.66 77.2173C145.474 76.1827 146.384 75.5413 146.59 74.6516C146.621 74.5792 146.652 74.5068 146.683 74.4344C147.376 72.8722 148.058 71.3101 148.751 69.748C148.586 69.779 148.658 69.6962 148.793 69.6652V69.6755ZM148.183 67.8444C146.756 69.4376 146.053 71.6515 145.587 73.8447C145.567 73.9378 145.546 74.0309 145.525 74.1137C145.339 74.3826 145.215 74.7965 144.957 74.8999C144.44 75.1068 144.595 74.6206 144.533 74.3413C144.264 73.1826 145.308 72.2929 145.184 71.1653C145.267 71.0204 145.36 70.8652 145.443 70.7204C146.601 68.7548 147.779 66.7582 149.144 64.4512C149.361 66.0754 149.144 66.7892 148.183 67.8444ZM144.46 52.6679C145.163 49.1815 146.807 46.1814 149.196 43.4709C148.844 47.1332 145.711 49.4091 144.46 52.6679ZM146.725 52.1299C146.983 50.5161 148.038 49.5746 148.72 48.2918C148.982 49.5195 148.317 50.7988 146.725 52.1299ZM144.409 66.1064C144.781 62.5166 147.045 59.8268 149.041 57.0026C147.614 60.0855 145.649 62.9201 144.409 66.1064ZM149.072 60.9441C148.762 64.1201 146.239 66.2306 144.988 68.9514C144.905 69.1272 144.822 69.3135 144.76 69.4893C144.76 69.5824 144.729 69.6652 144.719 69.7686C144.719 69.7686 144.719 69.7893 144.719 69.7997C144.719 69.7997 144.698 69.7686 144.678 69.748L144.667 69.7273C144.698 69.6445 144.74 69.5721 144.76 69.4997C144.76 69.4997 144.76 69.479 144.76 69.4686C145.122 66.1271 147.366 63.6649 149.061 60.9441H149.072ZM144.481 61.6166C145.132 58.0681 147.087 55.1714 148.751 52.1403C149.03 52.2748 149.31 52.4092 149.589 52.5437C147.883 55.5646 146.187 58.5957 144.481 61.6166ZM147.779 32.5359C147.996 32.6808 148.214 32.836 148.431 32.9808C147.469 34.605 146.508 36.2292 145.329 38.2362C144.709 35.2361 147.221 34.3981 147.779 32.5359ZM149.103 34.9257C148.772 38.0086 146.518 40.0466 144.874 42.4778C144.905 39.2087 148.007 37.6569 149.103 34.9257ZM149.32 39.2087C148.203 42.426 145.649 44.9089 144.316 48.0849C144.791 44.5158 147.087 41.9191 149.32 39.2087ZM144.305 93.2318C145.205 89.7454 147.304 86.8487 149.216 83.8486C148.524 87.4901 145.773 90.304 145.06 93.9249C145.06 93.9352 145.06 93.9456 145.06 93.9559C144.76 94.1215 144.45 94.287 144.119 94.018C144.171 93.749 144.254 93.4904 144.316 93.2318H144.305ZM9.51214 254.887C8.35414 255.756 7.09275 256.449 5.6866 256.915C51.1277 178.942 94.2529 99.6148 134.969 19.0664C138.36 12.3626 142.754 3.43464 151.005 2.75185C161.076 1.90354 167.496 12.5488 172.356 19.8837C189.715 46.0676 203.798 74.2068 218.159 102.108C233.016 130.971 247.512 160.031 261.635 189.267C268.211 202.871 274.704 216.517 281.115 230.193C284.32 237.031 287.504 243.88 290.678 250.739C291.392 252.291 296.789 266.702 298.671 268.398C294.452 266.402 292.074 261.85 290.037 257.608C262.183 199.612 232.634 142.289 202.288 85.4728C193.851 69.6755 186.097 53.5265 177.412 37.8638C172.986 29.8772 168.024 22.2941 163.247 14.5248C159.266 8.0383 152.856 6.98308 146.27 11.8661C141.783 15.1972 138.981 20.2768 136.313 25.1908C96.7653 98.1251 57.2176 171.059 17.6595 243.994C15.4986 247.987 13.0378 252.239 9.5018 254.887H9.51214Z" fill="white"/>
<path d="M154.407 252.301C154.304 252.301 154.18 252.332 154.066 252.353C149 253.191 132.653 263.764 132.229 266.96C134.928 264.146 137.813 262.088 140.811 260.267C143.892 258.405 147.159 256.843 150.354 255.156C150.944 254.846 151.502 254.422 152.143 254.298C152.36 254.256 152.598 254.246 152.836 254.298C152.867 254.298 152.908 254.298 152.939 254.318C152.939 254.318 152.939 254.308 152.939 254.298C153.094 253.418 154.697 253.542 154.376 252.311L154.407 252.301Z" fill="white"/>
<path d="M153.538 270.591C151.491 271.253 149.661 272.371 147.924 273.736C150.261 273.902 152.091 272.402 154.231 271.905C154.593 271.822 155.099 271.46 154.892 270.943C154.644 270.333 153.983 270.436 153.538 270.581V270.591Z" fill="white"/>
<path d="M196.829 201.195C197.294 201.185 198.473 200.854 198.049 200.285C197.16 199.095 198.121 199.168 198.69 198.868C199.103 198.65 199.9 198.743 199.662 197.967C199.414 197.14 198.607 197.378 198.121 197.574C195.754 198.516 193.262 198.795 190.76 199.085C189.529 199.23 188.123 198.785 187.162 200.068C188.371 200.833 189.498 199.343 190.749 200.109C189.064 201.04 187.079 200.285 185.569 201.619C189.322 201.185 193.086 201.33 196.829 201.206V201.195Z" fill="white"/>
<path d="M198.4 182.636C196.312 183.856 193.975 183.888 191.608 184.032C189.56 184.157 187.492 184.136 185.445 184.612C190.046 184.994 194.627 185.326 199.207 184.519C199.858 184.405 200.396 183.96 200.034 183.236C199.734 182.636 199.352 182.087 198.411 182.636H198.4Z" fill="white"/>
<path d="M188.723 191.253C192.952 191.626 196.901 190.591 200.954 189.091C200.127 187.891 199.207 188.036 198.545 188.202C195.226 189.029 192.104 190.829 188.485 190.084C188.051 189.991 187.865 190.405 187.927 190.757C187.999 191.119 188.33 191.222 188.723 191.264V191.253Z" fill="white"/>
<path d="M188.258 196.809C191.277 196.529 194.306 196.364 197.335 196.24C198.38 196.198 200.065 196.995 200.075 195.485C200.075 194.326 198.39 195.009 197.429 194.978C194.296 194.978 191.225 195.578 188.134 196.002C187.761 196.054 187.1 195.795 187.151 196.447C187.213 197.202 187.71 196.861 188.258 196.809Z" fill="white"/>
<path d="M196.26 202.788C192.714 203.15 189.229 203.875 185.838 205.054C189.084 204.837 192.331 204.62 195.577 204.371C195.908 204.351 196.219 204.113 196.539 203.978C196.891 203.833 197.118 203.575 197.056 203.182C196.984 202.726 196.591 202.747 196.26 202.778V202.788Z" fill="white"/>
<path d="M185.952 212.151C188.93 211.603 192.145 212.265 194.916 210.62C191.784 210.289 188.795 210.827 185.952 212.151Z" fill="white"/>
<path d="M199.465 190.529C197.884 191.502 195.898 191.057 194.42 192.526C196.167 192.412 197.925 192.34 199.672 192.174C200.127 192.133 200.82 191.978 200.675 191.264C200.561 190.664 199.745 190.364 199.465 190.529Z" fill="white"/>
<path d="M157.716 153.183C157.488 153.493 158.543 153.152 158.843 152.976C161.004 151.714 163.123 150.379 165.243 149.034C165.553 148.838 166.111 148.683 165.78 148.083C165.532 147.627 165.108 147.648 164.664 147.586C163.816 147.472 162.906 149.965 162.224 147.4C160.135 148.455 158.243 149.541 156.837 151.217C156.175 152.014 158.75 151.714 157.716 153.172V153.183Z" fill="white"/>
<path d="M176.191 160.155C179.81 157.89 183.108 155.572 187.161 153.824C184.835 152.614 176.905 157.176 176.191 160.155Z" fill="white"/>
<path d="M192.932 162.825C192.932 162.825 192.932 162.825 192.922 162.825C192.901 162.845 192.89 162.866 192.869 162.887L192.932 162.825Z" fill="white"/>
<path d="M192.931 160.621C190.005 162.835 186.644 164.366 183.636 166.497C187.048 166.052 189.674 163.652 192.92 162.835C193.179 162.545 193.406 162.225 193.696 161.976C194.058 161.666 194.802 161.521 194.316 160.869C194.027 160.476 193.458 160.228 192.931 160.621Z" fill="white"/>
<path d="M193.417 165.112C193.417 165.112 193.448 165.07 193.469 165.049L193.406 165.112C193.406 165.112 193.406 165.112 193.427 165.112H193.417Z" fill="white"/>
<path d="M187.172 171.121C190.698 169.528 193.572 167.025 196.808 164.759C195.195 164.221 195.185 164.221 193.417 165.1C191.669 167.449 188.692 168.514 187.172 171.121Z" fill="white"/>
<path d="M189.86 155.748C186.148 157.579 182.333 159.224 179.283 162.162C182.881 160.145 186.986 158.945 189.86 155.748Z" fill="white"/>
<path d="M182.819 163.973C186.345 162.173 189.633 160.487 193.531 158.49C190.781 157.983 184.143 161.666 182.819 163.973Z" fill="white"/>
<path d="M170.939 155.748C171.208 156.235 171.591 155.831 171.798 155.697C174.155 154.176 176.492 152.614 178.828 151.052C179.118 150.855 179.438 150.596 179.19 150.224C179.025 149.976 178.684 149.841 178.56 149.748C178.27 149.748 178.156 149.707 178.094 149.748C175.696 151.507 173.307 153.266 170.929 155.055C170.815 155.138 170.826 155.562 170.929 155.748H170.939Z" fill="white"/>
<path d="M192.858 162.898C192.858 162.898 192.858 162.898 192.869 162.898C192.89 162.877 192.9 162.856 192.921 162.835L192.858 162.898Z" fill="white"/>
<path d="M192.879 162.897C191.152 165.318 188.175 166.145 185.466 168.432C188.909 167.997 190.935 165.99 193.417 165.08C193.448 164.211 194.968 164.087 194.523 163.125C194.285 162.597 193.458 162.907 192.879 162.897Z" fill="white"/>
<path d="M193.469 165.049C193.469 165.049 193.427 165.07 193.406 165.07C193.406 165.08 193.406 165.101 193.406 165.112L193.469 165.049Z" fill="white"/>
<path d="M175.84 155.541C176.264 156.504 176.957 155.738 177.329 155.541C179.593 154.321 181.806 152.996 184.06 151.703C183.346 150.617 182.581 150.472 181.785 151.196C180.255 152.603 178.456 153.586 176.646 154.548C176.253 154.755 175.53 154.828 175.85 155.541H175.84Z" fill="white"/>
<path d="M166.835 153.245C166.969 153.659 167.176 154.228 167.672 153.928C169.596 152.769 171.519 151.579 173.328 150.255C173.866 149.862 173.4 149.324 172.78 149.21C172.222 149.107 166.938 152.717 166.835 153.245Z" fill="white"/>
<path d="M161.913 154.021C164.291 152.396 166.276 151.041 168.541 149.5C166.09 148.776 162.947 150.845 161.913 154.021Z" fill="white"/>
<path d="M134.515 154.786C134.98 154.435 135.507 153.866 135.021 153.265C134.504 152.634 133.801 152.748 133.243 153.348C132.385 154.279 131.537 155.21 130.451 156.41C132.622 157.114 133.419 155.604 134.515 154.786Z" fill="white"/>
<path d="M126.791 156.524C128.631 156.948 129.479 155.407 130.761 154.9C131.154 154.745 131.681 154.197 131.278 153.669C130.947 153.234 130.213 153.224 129.882 153.597C128.983 154.61 127.484 154.941 126.791 156.524Z" fill="white"/>
<path d="M135.248 156.793C136.551 157.052 137.12 155.862 138.019 155.293C138.381 155.066 138.764 154.817 138.691 154.228C136.82 153.214 136.251 155.179 135.145 155.873C135.021 155.945 135.145 156.773 135.238 156.793H135.248Z" fill="white"/>
<path d="M127.773 153.793C127.917 153.39 127.338 153.483 127.028 153.514C125.24 153.69 124.991 155.086 124.547 157C126.098 155.976 127.276 155.19 127.773 153.793Z" fill="white"/>
<path d="M120.535 157.704C121.703 156.948 123.11 156.39 123.358 154.435C121.517 154.745 120.897 156.152 119.966 157.135C119.718 157.393 120.318 157.848 120.525 157.704H120.535Z" fill="white"/>
<path d="M195.826 168.349C193.272 169.052 192.052 170.459 190.656 171.628C192.414 170.997 194.213 170.459 195.826 168.349Z" fill="white"/>
<path d="M183.191 271.854C185.011 271.316 187.027 271.098 188.557 271.833C190.428 272.733 191.824 272.195 193.385 271.564C198.886 269.329 204.335 266.981 210.032 265.253C210.786 265.026 211.748 264.902 212.079 263.908C211.448 263.557 210.921 263.898 210.331 264.053C204.531 265.574 199.124 268.088 193.582 270.291C192.734 270.633 191.959 271.429 190.708 270.829C187.213 269.133 183.925 270.022 180.596 271.926C181.661 272.785 182.446 272.071 183.17 271.854H183.191Z" fill="white"/>
<path d="M192.362 275.919C190.605 276.354 188.909 277.999 187.11 275.661C186.438 274.781 184.846 275.05 184.05 275.992C183.326 276.85 182.406 276.861 181.537 277.202C179.521 278.009 177.453 277.026 175.416 277.461C168.334 278.992 161.562 281.547 154.448 283.43C155.172 284.04 155.772 283.782 156.351 283.626C160.859 282.426 165.346 281.154 169.885 280.057C172.056 279.53 174.403 278.837 176.502 279.188C177.836 279.406 178.828 279.344 180.079 279.075C182.354 278.599 184.039 276.643 186.821 276.561C185.487 278.04 185.528 278.599 187.451 278.547C189.478 278.495 191.091 277.471 192.848 276.778C199.755 273.767 206.651 270.747 213.558 267.736C213.444 267.488 213.341 267.24 213.227 267.002C206 269.319 199.372 273.095 192.352 275.919H192.362Z" fill="white"/>
<path d="M158.015 277.388C158.356 277.512 159.101 277.419 159.184 277.212C160.073 275.216 162.306 274.574 163.64 272.557C160.9 272.929 159.256 274.461 157.85 276.312C157.581 276.674 157.509 277.212 158.015 277.388Z" fill="white"/>
<path d="M132.901 288.282C134.835 288.613 136.231 287.63 137.761 287.237C141.545 286.182 145.34 285.127 149.124 284.082C145.153 284.309 141.4 285.364 137.709 286.699C136.034 286.74 134.576 287.454 132.901 288.292V288.282Z" fill="white"/>
<path d="M91.0066 262.108C85.6612 262.046 80.4916 262.439 75.3633 263.133C75.3943 263.453 75.415 263.774 75.446 264.095C79.468 263.733 83.4796 263.36 87.8635 262.967C87.0363 263.753 86.3953 264.219 85.93 264.829C85.3717 265.564 85.7853 266.474 86.5194 266.35C88.4011 266.029 90.469 266.04 91.9371 264.291C90.7998 264.405 89.6625 264.529 88.3184 264.664C88.6906 263.029 90.6447 263.619 90.9859 262.119L91.0066 262.108Z" fill="white"/>
<path d="M75.0429 266.971C72.975 267.002 70.9175 266.836 68.8496 266.639C63.6283 266.164 58.438 266.433 52.9375 267.974C53.6716 268.657 54.0955 268.46 54.5194 268.409C60.2784 267.643 66.058 267.064 71.848 268.036C72.3236 268.119 73.9779 267.312 73.2025 269.184C73.0681 269.516 73.5747 270.033 74.0606 269.795C75.0119 269.329 75.808 268.605 75.9941 267.529C76.0768 267.053 75.5185 266.96 75.0325 266.971H75.0429Z" fill="white"/>
<path d="M67.9394 261.829C61.2499 262.439 54.55 262.015 47.8502 262.16C46.6715 262.181 45.7203 262.553 44.5312 263.639C52.7923 263.288 60.5365 262.957 68.6011 262.615C68.1462 262.067 68.0324 261.819 67.9394 261.829Z" fill="white"/>
<path d="M63.917 257.763C66.5949 256.511 69.2624 255.26 71.9403 253.998C68.3733 253.139 66.1503 255.86 63.2346 256.739C62.9245 256.832 62.7073 257.215 62.9762 257.577C63.214 257.908 63.5758 257.908 63.917 257.753V257.763Z" fill="white"/>
<path d="M74.3291 257.505C77.3895 256.305 80.6464 255.498 83.5311 253.749C79.8399 253.325 77.2138 255.756 74.3291 257.505Z" fill="white"/>
<path d="M88.7839 253.511C88.7839 253.511 88.7942 253.501 88.8045 253.491C88.5771 253.491 88.3599 253.501 88.1428 253.522C85.8785 253.677 84.0691 254.991 82.2598 256.315C84.5344 255.642 87.0469 255.467 88.7839 253.511Z" fill="white"/>
<path d="M95.4623 253.967C94.842 254.639 93.5702 254.473 93.3428 255.777C94.5318 256.139 95.0488 254.753 96.124 255.156C96.2791 255.218 97.83 254.577 97.22 253.615C96.7651 252.901 95.9069 253.47 95.4623 253.967Z" fill="white"/>
<path d="M188.981 252.549C195.267 251.566 200.096 248.359 205.017 245.401C205.131 245.628 205.234 245.846 205.348 246.073C205.183 246.249 205.017 246.425 204.852 246.601C204.366 247.118 203.218 247.459 203.932 248.37C204.48 249.063 205.245 248.256 205.782 247.966C208.657 246.425 211.634 245.07 214.767 242.545C212.348 242.949 211.159 244.376 209.577 244.914C208.998 245.111 208.088 246.032 207.892 244.945C207.561 243.063 206.589 243.983 205.669 244.087C203.87 244.294 202.329 245.214 201.016 246.249C198.586 248.173 195.877 249.394 193.013 250.439C191.773 250.894 190.201 250.842 188.971 252.56L188.981 252.549Z" fill="white"/>
<path d="M187.855 243.994C188.32 244.408 188.661 244.066 188.94 243.735C189.809 242.732 190.646 241.718 191.752 240.404C191.97 241.79 189.974 242.659 191.256 243.321C192.321 243.87 192.29 242.152 192.89 241.563C193.562 240.9 194.006 240.021 194.627 239.307C194.958 238.935 195.392 238.956 195.526 239.587C195.082 240.021 194.224 240.538 194.896 241.118C195.506 241.635 195.826 240.694 196.167 240.238C197.315 238.718 198.742 237.486 200.241 236.328C200.655 236.007 201.109 235.635 200.551 235.097C200.179 234.735 199.807 234.973 199.393 235.19C198.246 235.769 197.904 237.362 196.436 237.528C196.126 235.666 195.226 236.597 194.699 237.28C194.099 238.055 193.8 238.924 192.6 238.004C192.528 237.952 192.456 237.942 192.383 237.931C192.073 237.869 191.752 238.076 191.484 238.345C191.411 238.418 191.339 238.49 191.287 238.562C190.15 239.99 189.033 241.428 187.906 242.856C187.792 243.011 187.689 243.156 187.637 243.311C187.586 243.466 187.596 243.611 187.689 243.766C187.73 243.839 187.761 243.901 187.844 243.973L187.855 243.994Z" fill="white"/>
<path d="M217.342 238.842C217.901 238.759 218.335 238.48 218.118 237.787C218.025 237.455 217.963 237.218 217.456 237.3C213.651 237.89 210.064 239.08 206.683 240.859C210.415 240.88 213.775 239.38 217.332 238.852L217.342 238.842Z" fill="white"/>
<path d="M207.292 231.455C207.116 231.3 206.94 231.145 206.754 230.979C203.859 232.21 202.908 235.159 201.047 237.29C201.254 237.466 201.45 237.652 201.657 237.828C203.539 235.707 205.42 233.576 207.302 231.455H207.292Z" fill="white"/>
<path d="M214.922 228.445C212.327 228.3 210.818 229.676 210.549 232.521C211.645 230.834 213.837 230.348 214.922 228.445Z" fill="white"/>
<path d="M218.304 240.89C220.847 239.566 223.391 238.242 225.934 236.917C223.029 237.528 220.485 238.862 218.304 240.89Z" fill="white"/>
<path d="M58.0241 221.669C58.7065 221.762 59.3269 221.575 59.3889 220.851C59.4303 220.468 58.9443 220.055 58.4584 220.137C55.0464 220.686 51.5104 220.789 48.5947 222.962C51.7379 222.238 54.7673 221.213 58.0241 221.669Z" fill="white"/>
<path d="M61.126 227.741C63.9486 226.241 67.1538 227.038 70.421 225.589C67.1331 224.451 61.674 225.796 61.126 227.741Z" fill="white"/>
<path d="M56.2354 226.448C59.4715 225.103 62.6974 225.31 66.4195 224.141C63.6383 222.817 61.5704 224.234 59.5439 223.924C58.8098 225.051 56.835 224.296 56.2354 226.448Z" fill="white"/>
<path d="M59.5234 223.924C59.5234 223.924 59.5234 223.924 59.5338 223.924C59.5443 223.903 59.5651 223.893 59.5755 223.872L59.5234 223.924Z" fill="white"/>
<path d="M59.2549 222.393C56.9079 222.734 54.4058 223.003 51.8623 224.617C54.7987 224.948 57.0836 223.541 59.5237 223.872C59.5444 223.303 61.2711 222.103 59.2549 222.393Z" fill="white"/>
<path d="M59.5234 223.924L59.5755 223.872C59.5547 223.872 59.5443 223.872 59.5234 223.872C59.5234 223.893 59.5234 223.914 59.5234 223.924Z" fill="white"/>
<path d="M83.0556 233.483C83.2314 232.335 82.1251 232.893 81.5667 232.738C81.2359 232.645 80.874 232.686 80.5328 232.676C80.0986 232.697 79.6643 232.707 79.2301 232.748C78.4133 232.831 77.0898 232.624 77.2346 233.742C77.4207 235.211 78.3409 233.493 79.0233 233.824C79.6953 234.135 80.5432 234.083 81.3083 234.155C82.0113 234.228 82.9419 234.259 83.0556 233.483Z" fill="white"/>
<path d="M240.389 294.127C240.389 294.127 240.409 294.127 240.42 294.137C243.77 295.399 247.637 292.782 250.335 291.044C251.876 290.051 250.625 288.789 249.343 288.623C248.081 288.458 246.758 288.685 245.527 288.954C243.749 289.337 242.053 290.103 240.595 291.179C239.468 292.017 238.662 293.455 240.389 294.127ZM248.164 290.775C246.075 292.089 244.028 293.413 240.957 293.103C243.118 290.682 245.62 290.62 248.164 290.775Z" fill="white"/>
</g>
<defs>
<clipPath id="clip0_296_22819">
<rect width="302" height="308" fill="white"/>
</clipPath>
</defs>
</svg>
