<svg width="125" height="104" viewBox="0 0 125 104" fill="none" xmlns="http://www.w3.org/2000/svg">
<g clip-path="url(#clip0_331_375)">
<path d="M11.2779 31.1324C11.9999 29.8088 12.101 28.2551 12.4187 26.874C13.1841 23.6083 14.7293 20.7022 16.0289 17.681C16.4044 16.8178 16.7943 15.9546 17.1698 15.0914C17.5163 14.3002 18.0073 13.8254 18.9893 13.9837C19.8991 14.1275 20.0579 14.7174 20.2168 15.4511C20.4045 16.4294 20.4478 17.4796 21.141 18.2852C22.123 18.0694 22.4984 17.3501 22.8306 16.6596C24.3035 13.6528 26.9895 11.7682 29.3867 9.61019C29.7189 9.30807 30.1954 9.12105 30.6286 8.94841C32.3182 8.28663 33.0836 8.83332 33.1125 10.6892C33.1125 11.1639 33.1125 11.6243 33.3291 12.0271C33.9645 12.3292 34.2244 11.8689 34.5421 11.538C37.6613 8.40172 41.1993 5.76899 44.7662 3.17942C45.5894 2.57519 46.4269 1.97096 47.4667 1.79832C48.723 1.58252 49.1418 1.98534 48.7663 3.16504C48.4631 4.11455 47.871 4.96335 47.8133 6.09988C48.9252 6.43077 49.7483 5.89847 50.5281 5.4381C54.2972 3.17942 58.4706 2.01412 62.6584 0.84881C63.4094 0.633013 64.1603 0.388442 64.8968 0.100712C65.7199 -0.230177 66.2831 0.201418 66.7741 0.719332C67.2795 1.26602 66.8463 1.712 66.5142 2.15798C66.052 2.79099 65.5611 3.40961 65.4455 4.21525C65.9654 4.66123 66.4997 4.45982 67.0196 4.31596C71.5685 2.97801 76.1462 2.60396 80.825 3.58224C81.0561 3.6254 81.3016 3.66856 81.5326 3.65418C83.0345 3.48154 84.4497 3.69734 85.7783 4.8051C85.5039 6.67534 83.2078 7.59608 82.9912 9.79721C83.7276 10.2576 84.5941 10.1569 85.4317 10.1425C89.9228 10.0849 94.4283 9.99862 98.8905 10.5309C100.147 10.6748 101.389 10.8762 102.616 11.1495C103.107 11.2646 103.772 11.3797 103.786 12.1134C103.786 12.7033 103.266 12.8328 102.847 13.0486C102.226 13.3651 101.475 13.4514 100.912 14.1707C107.44 18.6449 115.656 17.5947 122.169 23.1191C119.83 23.9535 117.404 24.7016 115.137 25.6799C119.223 26.7877 121.158 33.017 123.382 36.1389C123.83 36.7719 124.191 37.4912 124.537 38.1962C124.812 38.7716 125 39.4334 124.523 39.9657C124.047 40.498 123.368 40.4117 122.747 40.239C121.996 40.0232 121.259 39.7355 120.508 39.4622C120.133 39.3327 119.786 39.1313 119.411 39.0018C119.05 38.8723 118.631 38.6853 118.313 39.045C117.996 39.4046 118.241 39.7787 118.415 40.1239C120.119 43.7493 121.837 47.3747 123.527 51.0001C123.96 51.9209 124.321 52.8848 124.711 53.8343C125.014 54.5824 125.274 55.3736 124.639 56.0498C123.974 56.7547 123.166 56.3519 122.415 56.1793C121.519 55.9635 120.667 55.5319 119.483 55.7189C120.061 58.4811 120.581 61.157 121.216 63.7897C121.519 65.027 121.649 66.2786 121.548 67.5158C121.404 69.084 120.638 69.458 119.339 68.5948C118.169 67.818 117.043 66.9835 115.685 66.6383C115.021 67.3432 115.295 68.0769 115.339 68.7531C115.526 71.1125 115.368 73.4718 115.266 75.8168C115.252 76.1334 115.238 76.4499 115.137 76.7376C114.761 77.831 113.923 78.0899 112.956 77.4137C112.58 77.1404 112.248 76.8095 111.945 76.5506C111.122 76.7376 111.136 77.3418 111.05 77.8741C110.848 79.0394 110.472 80.1184 109.923 81.1974C108.884 83.2403 108.089 83.4273 106.414 81.8592C106.01 81.4851 105.678 81.0248 105.273 80.6651C104.335 79.8451 103.714 79.8882 103.266 81.0391C102.717 82.4346 101.995 83.7438 101.317 85.0674C100.45 86.765 99.9881 86.952 98.4284 85.7579C97.4031 84.981 96.7677 85.2112 95.959 85.8874C95.1215 86.6067 94.3417 87.3692 93.6341 88.218C92.2333 89.9156 91.5257 89.9732 89.8072 88.5633C89.0996 87.9734 88.5365 88.0741 87.9299 88.5777C87.1357 89.2394 86.2259 89.6854 85.3017 90.1458C82.6879 91.4262 79.9875 91.455 77.2148 90.9514C76.6805 90.8507 76.1173 90.822 75.5686 90.7644C74.4999 90.6349 73.9079 91.1529 73.7201 92.1455C73.3302 94.1453 72.9692 96.1594 72.6226 98.1735C72.4205 99.3675 72.045 100.447 71.2508 101.367C70.3121 102.461 69.4023 103.554 67.6839 103.022C67.0773 102.835 66.6441 103.295 66.1676 103.54C64.8968 104.187 63.7271 104.187 62.774 103.007C62.2108 102.317 61.5176 102.144 60.68 102.216C60.2179 102.259 59.727 102.216 59.2793 102.072C58.1673 101.727 57.633 100.821 57.9218 99.6984C58.1385 98.864 58.4995 98.0728 58.7883 97.2527C59.5103 95.1811 59.1349 94.5769 56.9399 94.3035C56.6366 94.2603 56.3045 94.246 56.0012 94.3035C54.4416 94.6056 52.9831 94.7063 51.4235 93.9582C50.2393 93.3971 48.8241 94.2603 47.4667 94.2172C46.9324 94.2028 46.3547 94.5625 45.8349 94.2891C44.0586 93.3828 42.4846 93.987 40.9105 94.8214C38.961 95.8429 37.0837 95.3393 35.1919 94.2603C34.3255 95.8428 33.6901 97.4254 32.7659 98.8784C31.7117 100.533 30.3254 101.396 28.4336 101.065C27.1339 100.849 26.3397 101.252 25.661 102.245C25.4877 102.504 25.2566 102.734 25.0256 102.95C23.9136 103.971 23.4227 103.928 22.5706 102.734C22.3829 102.475 22.2241 102.202 22.0797 101.928C21.6464 101.094 21.0255 100.734 20.0435 100.59C17.7041 100.274 17.3575 99.6984 17.3431 97.3103C17.3431 95.4832 17.5019 93.728 18.2384 92.016C18.585 91.2104 18.8882 90.2753 18.7727 89.3402C17.9929 89.0093 17.4586 89.4696 16.8809 89.5991C15.3502 89.9588 14.556 89.3833 14.7148 87.8296C14.8303 86.6355 14.8303 85.4702 14.6571 84.3049C14.4693 83.0964 14.1083 82.9094 12.8808 83.1396C10.9891 83.4849 10.6569 83.341 10.3104 81.5139C9.86269 79.1401 8.47637 76.9678 8.75075 74.4357C8.79407 74.0185 8.63522 73.6301 8.17311 73.5438C7.06117 73.3424 6.83011 72.6374 6.90232 71.6448C7.10449 68.3503 5.5882 65.5737 4.15856 62.7683C2.22348 59.0997 0.259526 55.4168 0.0429132 51.1152C0.0140315 50.4103 -0.0292911 49.7054 0.0284723 49.0004C0.201763 46.9288 0.418375 46.7417 2.61338 46.713C2.77223 46.713 2.91664 46.7993 3.07549 46.7993C4.79395 46.7561 4.85172 46.6123 4.86616 44.9147C4.90948 40.2247 4.67843 35.5347 5.41491 30.8734C5.55932 29.9239 5.67484 29.1327 6.88788 28.773C8.04314 28.4421 8.6641 28.8881 9.3717 29.5786C9.92045 30.1109 10.2815 30.859 11.2635 31.1468L11.2779 31.1324ZM90.0961 56.1361C88.9408 55.9923 88.5942 55.2873 88.4931 54.1939C88.3487 52.3669 88.2621 52.5107 86.3703 52.41C84.9407 52.3381 84.363 53.2876 83.8432 54.1796C83.4244 54.8989 84.0453 55.6757 84.5797 56.2512C85.1717 56.8842 85.8505 57.4165 86.5147 57.9776C87.6411 58.9271 88.4931 60.1068 88.5942 61.5598C88.6664 62.5669 89.0274 63.0848 89.8506 63.5739C91.1214 64.3364 91.1936 64.4947 90.2549 65.473C87.9444 67.8755 87.8144 67.818 91.1647 70.0622C91.5402 70.3068 91.8867 70.7096 92.421 70.6809C93.2153 70.1773 93.3308 69.2566 93.6774 68.4797C94.4428 66.7533 95.1648 65.0126 95.9013 63.2718C96.1757 62.61 96.4067 61.9339 96.9844 61.4735C97.4753 61.0851 97.8652 61.344 98.0963 61.8332C98.2696 62.2216 98.1396 62.61 98.0097 62.9841C97.1865 65.3147 95.6702 67.4439 95.8002 70.0766C95.8002 70.278 95.5547 70.4795 95.4825 70.6953C95.0348 72.062 94.2261 73.1985 93.3886 74.335C92.7387 75.2126 91.8723 76.1909 92.2333 77.313C92.8831 79.2696 92.0023 80.2191 90.4138 81.0535C89.1863 81.7009 88.9841 82.5353 89.9083 83.4848C90.6304 84.2186 91.1502 85.1537 91.9156 85.9306C93.2153 84.5207 93.8074 82.8231 95.0926 81.629C96.6089 80.2191 97.0854 80.1903 98.6595 81.4851C99.0061 81.7729 99.2949 82.2188 99.9158 82.0894C100.075 81.888 100.291 81.6578 100.465 81.3844C101.49 79.7156 101.331 79.2696 99.4971 78.7085C99.0494 78.5791 98.5728 78.5215 98.1107 78.392C96.8688 78.0468 95.8146 77.3706 94.876 76.493C94.5583 76.1909 94.4716 75.8025 94.7316 75.4428C94.9193 75.1838 95.2514 75.0256 95.5691 75.1407C96.089 75.3133 96.6089 75.5147 97.0854 75.7737C98.1974 76.3923 99.4249 76.6944 100.609 77.126C101.447 77.4281 102.183 77.4137 102.674 76.5937C103.396 75.3853 104.277 75.5579 105.259 76.1909C105.75 76.5074 106.241 76.8095 106.79 77.1548C107.107 76.0039 107.815 74.8817 107.555 74.0905C107.237 73.1841 105.822 73.0259 104.869 72.5799C104.725 72.508 104.595 72.436 104.45 72.3497C103.252 71.6016 102.068 70.9974 100.927 72.4504C100.725 72.7094 100.335 72.7094 100.06 72.5367C99.7714 72.3641 99.5837 71.9469 99.7281 71.7167C100.667 70.2349 99.5404 69.6163 98.6306 68.8682C98.284 68.5804 97.7208 68.3071 98.0385 67.746C98.3273 67.2569 98.8617 67.4151 99.3093 67.559C99.6126 67.6597 99.8725 67.8467 100.161 67.9618C101.62 68.5229 101.764 68.4941 102.645 67.113C103.786 65.3291 104.898 63.5164 106.024 61.7181C106.804 60.4665 107.512 60.078 108.162 60.5384C108.783 60.9844 108.653 61.8907 107.671 62.9697C106.761 63.9624 106.14 65.1133 105.331 66.3218C107.05 67.2281 108.653 68.0481 110.227 68.8969C110.905 69.2566 111.858 69.5012 111.728 70.4795C111.598 71.5153 110.4 70.5226 109.866 71.4002C110.775 71.9181 111.685 72.436 112.869 73.0978C113.115 71.0549 113.144 69.2854 112.826 67.5158C112.624 66.3937 112.71 65.3435 113.028 64.2645C113.447 62.8402 113.779 62.6244 115.18 63.2143C115.96 63.5452 116.638 64.1062 117.635 64.0631C117.678 63.7178 117.808 63.4013 117.765 63.1136C117.202 60.2507 116.479 57.4453 114.949 54.9133C114.183 53.6616 113.765 52.3812 114.284 50.8419C116.682 51.4605 118.963 52.2374 121.317 52.4388C121.418 52.223 121.49 52.1367 121.476 52.0935C120.364 47.8639 118.039 44.2097 115.83 40.5124C115.021 39.1457 114.804 39.2608 113.317 40.0232C111.526 40.944 110.227 42.4546 108.725 43.7206C108.133 44.2241 107.642 44.8859 106.79 45.001C106.371 45.0585 105.981 45.001 105.793 44.5838C105.62 44.1953 105.649 43.7206 106.053 43.5479C108.335 42.5121 109.635 40.2678 111.743 39.0018C113.201 38.1386 113.115 38.0379 112.451 36.3115C112.248 35.808 111.931 35.175 112.089 34.7434C112.508 33.5062 111.685 33.1033 110.963 32.4991C109.822 31.5496 108.494 30.7871 107.858 29.3341C107.555 28.6435 107.353 27.9242 107.974 27.3775C108.624 26.8021 109.331 27.3056 109.952 27.5933C110.458 27.8235 110.544 28.3126 110.4 28.8018C110.255 29.2909 110.241 29.852 110.602 30.1253C112.089 31.2187 113.1 33.0602 115.252 33.1177C115.714 33.1177 116.407 33.0314 116.465 33.5493C116.667 35.362 117.851 34.6571 118.877 34.7866C117.794 30.9454 114.848 29.0751 111.988 27.1042C111.151 26.5143 109.461 27.1186 109.505 25.2483C109.505 24.8167 108.869 25.1044 108.508 25.162C105.476 25.6367 102.53 26.6006 99.4393 26.7445C99.0783 26.7589 98.6595 26.874 98.4718 27.3487C98.5873 28.14 99.2227 28.6723 99.6559 29.3053C100.407 30.4131 101.129 31.5352 102.775 31.4489C103.699 31.4057 104.089 32.2402 104.335 33.0026C105.042 35.2469 105.259 37.6207 106.313 39.7787C106.515 40.1959 106.515 40.7857 105.981 41.0015C105.418 41.2317 105.129 40.7713 104.941 40.311C104.855 40.0952 104.826 39.8506 104.739 39.6348C103.382 35.8799 102.313 31.9668 98.6884 29.5643C98.6306 29.5211 98.5873 29.4492 98.5295 29.3916C97.2587 28.0201 96.0264 27.881 94.8327 28.9744C94.3561 28.7442 94.5294 28.3126 94.5294 27.953C94.5294 27.4207 94.3561 27.0178 93.7785 26.9459C93.0998 26.874 92.5077 26.9891 92.2622 27.7516C92.1755 28.0537 92.1755 28.3702 92.0889 28.6723C91.3524 31.1755 91.7423 33.8371 90.9481 36.3547C90.2116 34.7722 90.226 34.8297 88.5942 35.1462C86.1248 35.621 83.6266 36.0382 81.1427 36.3978C78.89 36.7287 76.5794 36.628 74.3411 37.1603C73.8212 37.2898 73.3302 37.1172 73.3158 36.5129C73.3158 35.995 73.8212 36.0526 74.1967 35.9663C75.5108 35.6929 76.8105 35.3908 78.1246 35.1174C79.0921 34.916 79.4098 34.4701 79.0633 33.4486C78.4712 31.751 77.5614 30.1541 77.3448 28.327C77.287 27.8235 76.7527 27.1473 77.547 26.9315C78.1824 26.7445 78.4134 27.4638 78.63 27.953C78.7889 28.3126 78.9188 28.6867 79.0055 29.0751C79.2943 30.226 79.482 31.3913 79.8431 32.5135C80.594 34.9017 80.7962 34.9736 83.1789 34.4701C83.8721 34.3262 84.5797 34.2399 85.2728 34.1104C86.6591 33.837 88.0888 33.8227 89.4318 33.276C90.3271 32.9163 90.847 32.4416 90.7748 31.3626C90.6015 28.9888 91.1214 26.6582 91.4535 24.342C91.6846 22.6444 91.9878 20.918 92.681 19.3211C92.8543 18.9039 92.9409 18.386 93.8074 18.6449C93.1864 20.2274 93.7207 21.4647 95.0637 22.4717C96.1612 23.2917 96.219 23.3781 97.0999 22.2271C97.8941 21.2057 98.8761 20.4432 99.8436 19.652C100.248 19.3211 100.869 19.134 100.725 18.314C98.9772 17.4508 97.1143 17.0192 95.0926 17.1199C93.764 17.1775 93.6341 16.6596 93.8651 15.3504C94.0673 14.1707 95.1792 13.6816 95.7424 12.5306C93.663 12.358 91.8001 12.0847 89.9372 12.0847C87.6556 12.0847 85.3739 12.3005 83.0923 12.4443C82.6013 12.4731 82.0525 12.6457 82.1969 13.25C82.5724 14.8756 83.3089 16.2999 84.5363 17.5084C85.5183 18.4723 86.5436 18.1414 87.6267 17.9831C87.7133 17.9831 87.8288 18.1558 87.9299 18.2565C87.8866 18.4003 87.8866 18.6449 87.8 18.6737C85.7349 19.5656 85.7349 21.3208 85.8505 23.1479C85.9082 24.1693 85.8505 25.1764 85.9804 26.1978C86.0959 27.0754 86.6014 27.953 86.0815 28.8593C84.854 28.3846 85.0706 27.1186 84.6663 26.1978C84.5075 25.8525 84.5363 25.4209 84.4786 25.0325C84.262 23.7953 84.0453 22.558 83.8287 21.3208C83.7421 20.8317 83.6121 20.3713 82.9912 20.3569C80.3485 20.3137 77.8213 20.8748 75.4242 21.9826C74.7743 22.2847 75.0487 22.7019 75.6552 22.8889C75.8863 22.9609 76.0596 23.1191 76.0596 23.1623C72.9692 26.9028 70.6009 30.5857 73.7923 35.8224C70.1099 33.7651 69.5756 30.672 69.1135 27.5645C69.0702 27.3056 69.2868 26.9747 69.4601 26.7157C69.5756 26.5431 69.8211 26.4424 69.9944 26.3273C70.6442 26.7157 70.341 27.7516 71.2363 27.9961C71.9872 27.0466 72.6082 25.8525 72.6226 24.8167C72.6226 23.263 73.3014 22.2128 74.2544 21.1913C73.5468 20.7166 73.0992 21.0043 72.666 21.364C72.3627 21.6085 72.0883 21.9394 71.6407 21.8243C69.5323 21.2776 67.6261 22.0401 65.6766 22.6444C64.7524 22.9321 63.7848 23.0328 62.3407 23.3205C63.9004 21.925 65.4166 21.6948 66.7885 21.2201C69.8644 20.1411 69.9078 20.1555 68.2182 17.2782C67.1784 15.5087 66.2253 13.7103 65.7921 11.6962C65.6766 11.1352 65.6766 10.5022 66.4131 10.4014C66.9474 10.3151 67.294 10.7467 67.3662 11.2502C67.6839 13.7247 69.2724 15.7101 70.0377 18.0119C70.6298 19.7958 71.2652 19.9109 73.1425 19.2779C73.4458 19.1772 73.7635 19.134 74.0378 19.0046C74.9187 18.5874 75.6697 18.4147 76.1173 19.5944C76.3195 20.1123 76.8682 20.2418 77.3159 20.026C78.7022 19.3642 80.1752 19.206 81.6482 18.9758C82.2114 18.8895 82.7601 18.5154 82.5002 17.8393C81.8503 16.156 81.085 14.516 79.8286 13.178C79.4387 12.7608 78.5001 12.9335 78.5001 12.0415C78.5001 11.3078 78.89 10.7323 79.2654 10.1137C79.9008 9.07789 80.4062 7.97013 81.0272 6.79043C79.1932 6.14304 77.648 6.35884 76.1029 6.63218C75.092 6.81921 74.11 7.12132 73.0847 7.23642C69.8355 7.56731 66.7163 8.27224 63.8282 9.88353C62.7162 10.5021 61.5321 10.9337 60.3046 11.2215C58.2684 11.7106 58.2251 11.7106 58.1818 13.6528C58.1673 14.7462 58.3262 15.8395 58.4273 16.9329C58.485 17.5084 58.7017 18.0982 59.2071 18.3284C60.4057 18.8463 60.4346 19.8821 60.4057 20.8892C60.4057 21.4647 60.3624 22.0257 60.6945 22.4573C62.1241 24.3132 62.6873 26.7013 64.4202 28.399C64.969 28.9313 65.8788 29.593 65.2289 30.6001C64.8679 31.1612 63.9004 30.6864 63.0628 29.3916C61.8786 27.5358 60.81 25.6224 59.6548 23.7377C58.6872 22.1552 58.1096 22.1696 57.2287 23.7665C57.0698 24.0398 56.9976 24.3563 56.8532 24.6297C56.1456 26.0252 54.947 26.9028 53.6329 27.6509C53.3297 27.8235 52.9831 27.7803 52.8242 27.4494C52.7376 27.2768 52.752 26.9603 52.8675 26.8021C53.373 26.0971 53.9506 25.4497 54.4705 24.7592C55.077 23.9391 55.7124 23.1335 56.2323 22.2559C56.6366 21.551 56.9543 20.7309 55.698 20.472C55.3369 20.4001 55.1492 20.2274 55.2358 19.839C55.3225 19.4937 55.568 19.3067 55.8857 19.2491C56.4778 19.134 57.1132 19.6663 57.6908 19.1916C57.9652 18.6737 57.5753 18.2709 57.4309 17.868C56.6222 15.595 56.42 13.2644 56.7666 10.905C56.8677 10.2144 56.8677 9.20737 58.1385 9.48071C58.7739 9.61019 58.9616 9.07789 59.0338 8.61752C59.236 7.2508 59.8425 6.09988 60.8245 5.1216C61.0266 4.92019 61.0988 4.57491 60.8389 4.11454C57.5175 4.48859 54.6727 6.0855 51.8567 7.79749C50.6292 8.54559 50.1527 9.56703 50.3115 10.9481C50.6292 13.6384 50.9469 16.3287 52.4921 18.7744C51.2646 19.0765 50.9036 18.2421 50.5426 17.6379C49.8494 16.4582 48.8963 16.0553 47.5822 16.1992C46.8746 16.2711 46.167 16.1704 45.4594 16.1704C44.0442 16.156 42.6145 16.1273 41.1993 16.1417C40.3473 16.1417 40.0441 16.6308 40.4051 17.3933C40.8383 18.314 41.2282 19.3211 42.1524 19.8678C43.12 20.4576 43.4521 21.4503 44.2319 22.1984C43.9142 22.371 43.7842 22.4573 43.6398 22.5005C42.99 22.7019 42.5279 21.925 41.7481 22.184C41.1127 24.8311 43.7698 26.7157 43.4232 29.3485C42.0513 27.3631 40.3907 25.5936 39.8563 23.1623C39.7408 22.6156 39.5242 22.0113 39.8563 21.551C40.9105 19.9829 39.5964 18.9039 39.1054 17.6666C38.831 16.9617 38.2101 16.5876 37.3581 17.0048C37.0259 17.1775 36.5638 17.4508 36.3039 17.0048C36.044 16.5445 36.2894 16.0697 36.7082 15.782C37.3581 15.336 37.9935 14.9044 38.831 14.8325C41.3437 14.6455 43.8565 14.329 46.3836 14.4297C47.1634 14.4584 47.9577 14.5879 48.6941 14.1132C48.723 13.883 48.7952 13.6528 48.7663 13.4226C48.362 10.5165 48.3331 10.0706 45.6471 12.0127C44.8529 12.5882 43.9431 13.4945 42.9034 12.7177C41.9214 11.984 42.3979 10.833 42.6001 9.86914C42.7012 9.33684 43.0189 8.8477 43.2066 8.34418C43.3366 7.9989 43.5821 7.62485 43.1777 7.17887C41.6181 7.92697 40.3184 9.02034 39.1632 10.3007C37.3148 12.3436 35.5096 14.4153 33.6468 16.4438C32.9536 17.1919 32.1882 17.9112 31.2496 18.3428C30.2532 18.8032 29.5022 18.4579 29.2856 17.3933C29.1557 16.789 29.2856 16.1417 29.2134 15.523C29.1412 14.8037 29.3723 13.9549 28.4914 13.3363C27.1339 14.4297 26.2964 15.8252 25.4155 17.2063C24.2602 19.0046 23.9714 20.6159 25.6899 22.2415C26.1953 22.7163 26.4986 23.3925 26.9173 23.9679C27.7549 25.1476 28.8813 25.4929 30.2965 25.0037C30.3831 24.975 30.5564 25.1476 30.6864 25.2195C31.0907 26.1403 30.0366 26.8021 30.2387 27.6796C30.542 28.9456 33.4013 31.4777 34.701 31.6791C35.6396 31.8229 36.1884 31.2763 35.9862 30.2836C35.7696 29.2909 35.423 28.327 35.1342 27.3487C34.7443 25.9964 34.3399 24.6441 33.9789 23.2774C33.9356 23.1191 34.1233 22.8314 34.2677 22.7019C34.5132 22.5005 34.7443 22.7307 34.8454 22.9033C35.1053 23.3781 35.2786 23.9104 35.553 24.3851C36.5349 26.1834 36.5927 28.399 37.9213 29.9815C38.6722 30.8734 39.2498 31.6647 39.1487 32.8588C39.1199 33.2472 39.2065 33.7076 39.5964 33.8802C40.174 34.1392 40.4051 33.5925 40.7084 33.276C41.6759 32.2258 42.7589 31.305 44.0875 30.744C44.7951 30.4418 45.546 30.0102 46.3403 30.5282C47.2501 31.1324 46.4125 31.7942 46.3547 32.4272C46.2392 33.6069 46.5136 33.8514 47.6688 33.4342C48.7808 33.0314 49.8494 32.5135 50.9758 32.2114C52.4921 31.8086 53.6907 31.0892 54.586 29.7801C54.9326 29.2621 55.2936 28.5428 56.2756 28.7011C56.3189 31.5352 52.8531 32.9595 53.5029 36.1245C56.1889 35.0455 58.7305 34.0528 61.2721 33.017C62.2974 32.5998 63.3516 32.2401 64.4491 32.1107C65.6621 31.9668 66.2109 32.7868 65.6333 33.8802C65.3878 34.355 64.9401 34.7434 64.6513 35.2038C64.2325 35.8368 63.5105 36.3115 63.5105 37.4049C64.9545 37.2035 66.3264 36.9877 67.7127 36.8151C69.4745 36.5849 69.7633 36.8151 70.1099 38.5271C70.4421 40.1671 70.7742 40.3397 72.2761 39.7643C72.9692 39.5053 73.4313 38.9874 73.9368 38.4695C74.9621 37.4193 76.7816 37.3617 77.5614 38.4983C78.1824 39.4046 78.7167 39.606 79.6842 39.1888C80.2474 38.9443 80.9117 38.9011 81.5182 38.7285C84.0598 37.9947 85.9515 39.2751 87.7278 40.7713C88.4642 41.4043 88.7964 42.3395 88.6087 43.3465C88.2765 45.0441 88.2043 46.7849 87.5689 48.425C87.3956 48.8566 87.2945 49.3169 87.2079 49.7773C87.1646 50.0219 87.3234 50.2377 87.6122 50.2377C87.7566 50.2377 88.0021 50.2089 88.0455 50.1226C88.291 49.6334 88.5364 49.1443 88.6953 48.6264C89.0708 47.4179 89.4751 46.2238 90.1683 45.1736C90.4571 44.742 91.0058 43.3178 91.6412 45.0729C91.8145 45.562 92.32 45.2455 92.681 45.188C93.4752 45.0585 94.0817 44.2673 95.0204 44.4831C94.8615 45.3175 93.8651 45.7778 94.0962 46.641C94.4861 48.0365 93.8651 49.2594 93.5619 50.5398C93.4463 51.0433 93.0564 51.5468 93.6341 52.1511C94.9337 51.1872 96.2479 50.2089 97.562 49.2594C97.8797 49.0292 98.284 48.7846 98.6017 49.2018C98.8761 49.5615 98.6884 49.9643 98.414 50.2664C97.1865 51.7051 95.9013 53.1006 94.2406 54.0788C93.0998 54.755 92.2044 55.575 92.1178 56.9993C92.0889 57.546 92.0745 58.1934 91.3957 58.3229C90.6159 58.4667 90.3416 57.7906 90.0383 57.2439C89.8361 56.8842 89.6917 56.5389 89.9517 56.1505C91.2947 52.9711 92.681 49.8061 93.6918 46.2094C91.8145 46.3965 90.9481 47.2884 90.2693 48.4825C90.1249 48.7558 89.9372 49.1011 90.1827 49.3457C90.9625 50.1369 90.3416 50.6693 89.9805 51.3886C89.1574 52.9423 88.5942 54.5824 89.995 56.1649L90.0961 56.1361ZM24.1591 99.0942C25.3433 98.3029 24.8379 97.1233 25.17 96.2025C25.3144 95.8141 25.4299 95.44 25.9209 95.44C26.3253 95.44 26.744 95.4688 26.9607 95.8572C27.2206 96.3464 27.4372 96.8499 27.6394 97.3678C27.9138 98.0728 28.2892 98.677 29.1701 98.5044C29.9355 98.3461 30.1232 97.6987 30.0943 97.0513C30.051 95.9292 30.412 94.8646 30.672 93.8144C31.1052 92.0592 31.7117 90.3328 33.1269 89.0812C34.1522 88.1749 35.553 88.6064 35.9717 89.8868C36.0728 90.189 36.145 90.4911 36.2461 90.7932C36.9104 92.9224 37.9357 93.3252 39.6397 91.9153C40.5784 91.1385 41.4593 90.75 42.6434 91.0521C42.9322 91.1241 43.2933 91.1385 43.5821 91.0521C45.4883 90.4623 47.3078 90.7356 49.1129 91.4837C49.7339 91.7427 50.4126 91.901 50.8892 91.3543C52.261 89.8149 53.8784 90.3904 55.207 91.0809C56.8243 91.9297 58.0663 91.4694 59.3659 90.6349C59.6259 90.4623 59.8425 90.189 60.1169 90.0739C61.3154 89.5416 62.2252 90.0739 62.4852 91.3687C62.6729 92.3182 62.5862 93.2533 62.3407 94.174C61.8931 95.8285 61.4454 97.4685 60.94 99.2812C62.0808 99.2956 63.1639 99.2237 63.8715 100.13C64.6224 101.08 65.3733 100.936 65.9654 100.072C66.4419 99.3819 67.0773 99.6409 67.655 99.569C68.2471 99.497 68.6803 100.461 69.359 99.8855C69.9366 99.3819 69.9366 98.6195 70.1244 97.9433C70.4709 96.7204 70.6154 95.4832 70.7453 94.2316C70.8753 92.9799 71.0486 91.7427 71.4529 90.5342C71.9295 89.0812 72.3771 88.5201 73.879 88.5489C75.9296 88.5777 77.8647 88.1605 79.8575 87.8008C82.0814 87.398 84.0598 86.6499 86.0959 85.873C88.0455 85.1249 88.0455 85.1249 87.3234 83.1971C86.8036 81.816 86.9624 81.2693 88.1177 80.3918C88.4209 80.1616 88.7819 79.9745 89.143 79.8163C89.8794 79.4998 90.0816 79.0394 89.6484 78.3345C89.3596 77.8741 89.0852 77.385 88.8108 76.9102C87.179 74.148 87.0635 74.7379 89.3596 72.4792C89.4462 72.4072 89.4029 72.2058 89.4318 71.9181C88.5076 71.3139 87.5112 70.6809 86.5436 70.0191C85.5472 69.3429 85.4605 68.9257 86.1104 67.9187C86.327 67.5878 86.6158 67.3288 86.8758 67.0267C88.2332 65.401 88.1321 65.0126 86.1537 64.2357C85.8649 64.1206 85.5472 64.0631 85.2439 63.9624C83.7276 63.4445 83.6699 63.2287 84.6519 61.8476C85.475 60.6679 85.4461 60.4808 84.4786 59.5601C84.002 59.1141 83.3955 58.9271 82.8756 58.5818C82.298 58.2078 81.6048 57.992 81.2871 57.2583C80.5362 55.5175 79.3521 54.2515 77.3304 54.0501C77.2581 54.0501 77.1859 53.9925 77.1137 53.9638C76.796 53.8199 76.5794 53.5753 76.5939 53.2588C76.6083 52.8416 76.8971 52.5251 77.287 52.3956C77.5758 52.3093 77.9224 52.2661 78.2257 52.3237C80.8106 52.8416 82.3991 51.4173 83.7565 49.5327C84.262 48.8278 84.7529 48.1228 85.2006 47.3891C86.2404 45.6771 85.966 44.0802 84.3342 42.2819C83.5977 41.4763 81.9803 41.2749 80.5795 41.8216C79.381 42.2819 78.4134 43.0156 77.5903 44.0371C76.4495 45.4613 75.8718 45.3031 75.222 43.5479C75.1642 43.4041 75.1353 43.2458 75.1209 43.0876C75.0487 41.7928 73.8934 41.8359 73.0847 41.5051C72.3049 41.1742 71.7995 41.9079 71.193 42.2244C69.5323 43.0876 68.9835 42.8286 68.637 41.0159C68.5648 40.6275 68.5214 40.239 68.3915 39.865C67.9294 38.527 67.4528 38.2681 66.0809 38.6565C65.1712 38.9155 64.2903 39.2751 63.3949 39.5629C62.5285 39.8362 61.5754 40.7713 60.7811 39.9801C59.8569 39.0593 60.9977 38.1242 61.2866 37.2035C61.5321 36.3978 62.7306 35.5778 62.1675 34.9448C61.3299 34.0241 60.319 35.1606 59.4237 35.4915C57.3442 36.2684 55.4813 37.4624 53.5174 38.4551C52.2899 39.0737 51.539 38.6421 51.3657 37.2898C51.2935 36.6712 51.3657 36.0382 51.3657 35.4052C51.3368 33.9953 50.9758 33.7507 49.6472 34.3262C49.0118 34.6139 48.4342 35.0455 47.8566 35.4483C47.3367 35.808 46.889 36.254 46.3547 36.5993C45.445 37.1891 44.7229 36.8726 44.4196 35.8224C44.2608 35.2757 44.3908 34.729 44.4485 34.1823C44.4919 33.65 44.5785 33.0746 43.8998 32.643C42.8023 33.2616 42.0802 34.2686 41.3437 35.2901C40.9394 35.8655 40.5495 36.4842 40.0296 36.9445C39.1054 37.7646 38.239 37.5056 37.8635 36.3403C37.6613 35.7505 37.6469 35.1031 37.4736 34.4988C37.1126 33.1753 36.5349 33.0458 35.4808 34.0097C34.6432 34.7722 34.1522 35.7648 33.5746 36.6856C33.2858 37.1459 32.9103 37.6926 32.2605 37.3761C31.5817 37.0452 31.8561 36.4698 32.0438 35.9375C32.4771 34.6715 33.5457 33.7651 34.1233 32.4559C33.2135 31.751 32.3471 31.0892 31.4806 30.4131C31.0763 30.0966 30.542 29.8951 30.2243 30.3411C29.5889 31.2331 28.9246 32.1538 28.578 33.1753C28.3181 33.9378 29.2856 34.283 29.7333 34.8153C30.1521 35.3189 30.3687 35.9087 30.5709 36.4986C30.8308 37.2179 32.0872 37.9084 30.903 38.6709C29.8344 39.3615 29.3723 38.1242 28.8957 37.5344C28.0004 36.4266 27.0329 35.5634 25.5455 35.7648C24.6934 35.8799 23.8414 36.1245 23.0472 36.4554C20.6356 37.4337 19.6536 39.5197 20.3756 41.9942C20.8811 43.7062 21.7186 45.1736 23.3793 46.0512C23.7692 46.2526 24.2891 46.5403 24.1591 47.1014C24.0147 47.6625 23.5237 47.9646 22.975 48.1516C22.1952 48.425 21.4009 48.1228 20.6211 48.2235C19.8124 48.3386 18.6138 47.8351 18.2962 48.8422C17.964 49.878 19.2926 49.8061 19.8558 50.2233C20.9533 51.0433 21.0544 52.0216 19.9424 52.8848C19.4514 53.2588 18.8593 53.5178 18.3106 53.8199C16.1733 55.014 14.1661 56.3951 12.462 58.1646C11.2779 59.3875 11.3068 59.4882 12.8375 60.4521C14.1805 61.3009 14.3249 62.0058 13.3141 63.2718C12.4332 64.3796 11.4367 65.401 10.5559 66.4944C9.53055 67.7604 8.70742 69.1271 8.89515 70.9254C9.66052 70.7528 10.2382 69.9328 10.9169 70.7528C11.4079 71.357 11.8266 72.0188 12.592 72.3641C12.9819 72.5367 12.9964 73.0259 12.9242 73.4143C12.5631 75.1838 12.5776 76.9678 12.5343 78.7661C12.4909 80.6651 12.4187 80.737 14.1083 80.2623C14.2527 80.2191 14.3827 80.1184 14.5415 80.0752C16.621 79.5286 17.9351 80.5356 17.8485 82.6504C17.8485 83.0389 17.7618 83.4273 17.733 83.8301C17.603 85.6716 17.733 85.8011 19.6247 85.9018C20.159 85.9306 20.6789 85.7435 21.2421 85.9737C22.4262 86.4485 22.7584 86.8081 22.2529 87.8727C21.2854 89.9588 20.9821 92.2462 20.2312 94.3898C19.9568 95.1955 19.9424 96.0874 19.8558 96.9362C19.8269 97.2383 19.8558 97.5836 20.2023 97.7419C20.5634 97.9145 20.7655 97.6412 20.9677 97.411C21.9641 96.3464 21.8486 96.5046 22.9605 97.2527C23.697 97.7419 23.5382 98.5187 24.1303 99.123L24.1591 99.0942ZM17.5885 20.5583C16.7077 21.2776 16.4477 22.1984 16.1589 23.0903C15.408 25.4066 14.7293 27.7516 14.3249 30.1541C14.0217 31.938 13.7617 33.722 13.5307 35.5059C13.4151 36.3547 13.1696 37.0884 12.231 37.2323C11.4079 37.3617 10.9746 36.7 10.5703 36.1101C10.3537 35.7936 10.2237 35.4052 9.99266 35.0887C9.53055 34.4557 9.06845 33.8083 8.54857 33.2328C8.24532 32.9019 7.69656 32.8732 7.62436 33.3767C7.37887 34.988 6.87344 36.5993 7.3211 38.2537C7.49439 38.9299 7.86985 39.3327 8.63522 39.3759C10.2237 39.4766 11.7833 39.3183 13.2996 38.8292C13.7617 38.6853 14.0505 37.8653 14.7004 38.412C15.1625 38.8004 15.2491 39.3471 15.2491 39.9082C15.2491 40.4548 15.1625 41.0015 15.1336 41.5482C15.047 43.1163 14.9025 44.6845 14.917 46.2382C14.917 47.3604 15.4513 47.6337 16.4622 47.1589C17.0976 46.8568 17.6608 46.3677 18.3106 46.1231C19.2204 45.7778 19.3359 45.2599 18.8882 44.4974C18.1229 43.1595 17.6608 41.6201 17.9207 40.1959C18.325 38.0091 17.9207 36.0238 17.3431 33.9953C17.1553 33.3191 16.982 32.6286 16.7799 31.9524C16.39 30.6432 16.4333 29.3053 16.5921 27.9817C16.6499 27.5789 16.8665 27.2336 17.3286 27.2049C17.7907 27.1761 18.0795 27.4782 18.1517 27.881C18.2384 28.3414 18.2239 28.8162 18.2817 29.2765C18.455 30.9885 18.6283 32.7149 18.8305 34.4269C18.946 35.3476 19.4803 35.4196 20.1446 34.9592C20.7944 34.5132 21.4009 34.0097 22.0219 33.5205C22.9028 32.83 23.8703 32.1394 24.9967 32.197C26.8307 32.2833 27.9138 31.4057 28.7369 29.9527C28.9535 29.5786 29.5456 29.3485 29.2134 28.773C28.8524 28.14 28.3037 27.9386 27.6105 28.1256C25.5455 28.6723 23.3793 28.5572 21.2854 28.9456C20.8377 29.032 20.3612 29.2046 20.0002 28.7155C20.5489 28.1112 21.0688 27.7516 21.5598 27.6365C23.6104 27.1761 23.697 27.0754 23.1772 24.9462C23.0327 24.3707 23.1483 23.6514 22.3396 23.191C21.5309 23.8384 21.4154 24.903 20.9677 25.7662C20.7078 26.2554 20.4045 26.8308 19.7836 26.7589C19.1048 26.687 18.6427 26.169 18.5128 25.5073C18.3828 24.903 18.4117 24.2556 18.3684 23.637C18.2962 22.63 18.4117 21.5798 17.5885 20.5295V20.5583ZM13.3863 44.4974C13.2322 42.0805 12.0384 40.8912 9.80493 40.9296C9.32838 40.9296 8.86627 40.8864 8.41861 41.0878C8.04314 41.2461 7.58104 41.4619 7.60992 41.8503C7.72545 43.4616 7.30666 45.188 8.30308 46.6123C9.27062 47.9934 9.80493 49.5471 10.2237 51.1296C10.4259 51.8921 10.6281 52.6402 10.9891 53.3451C11.6967 54.6831 12.9097 55.0715 14.1949 54.2947C14.6571 54.0069 15.047 53.5897 15.4513 53.2157C16.3322 52.3956 16.3322 52.0072 15.5379 51.1296C15.047 50.5829 14.1805 50.4678 14.0939 49.432C13.935 47.6481 13.3285 45.9073 13.4007 44.4974H13.3863ZM110.082 22.2415C108.248 21.0187 106.66 20.1986 104.927 19.6376C104.335 19.4506 103.685 19.2635 103.064 19.5225C100.912 20.4001 99.0205 21.6517 97.692 23.5939C96.9266 24.7016 97.2587 25.1188 98.544 25.5073C100.089 25.982 101.317 25.0901 102.66 24.7879C105.086 24.2556 107.569 23.824 110.082 22.2415ZM10.5559 57.0569C9.28506 56.3663 7.91318 56.5389 6.6135 56.3951C5.15497 56.2368 4.77951 56.7404 5.24162 58.1934C5.94922 60.4377 6.75791 62.6388 8.14423 64.581C8.96736 65.7319 9.02512 65.7895 9.99266 64.768C10.1515 64.5954 10.3104 64.4227 10.4692 64.2357C11.6822 62.7827 11.5523 62.3942 9.73272 62.0346C8.15867 61.7325 7.89874 61.1426 8.82295 59.8478C9.44391 58.9703 10.3826 58.3085 10.5703 57.0569H10.5559ZM4.53402 50.8419C3.88418 51.8489 4.31741 52.669 4.47625 53.4746C4.59178 54.0788 5.02501 54.4241 5.60264 54.4961C6.6857 54.6399 7.76877 54.7838 8.85183 54.8557C9.41503 54.8845 9.77605 54.5104 9.54499 53.9638C9.11177 52.9279 8.9096 51.7626 8.05758 50.9282C6.96008 51.6955 5.78075 51.6667 4.51958 50.8419H4.53402ZM109.1 70.4651C107.642 69.6882 106.125 69.271 104.84 68.379C104.335 68.0338 103.988 68.451 103.757 68.8826C103.396 69.5875 103.714 70.091 104.291 70.4651C105.389 71.1556 106.53 71.8174 107.714 72.5367C108.205 71.803 108.609 71.1844 109.1 70.4651ZM95.0637 24.6441C94.9915 23.8816 94.0673 22.7163 93.5474 22.7019C93.0276 22.6875 92.4644 23.9679 92.5943 24.8455C92.7243 25.7375 93.4463 25.6224 94.0384 25.6224C94.6594 25.6224 95.0493 25.2771 95.0637 24.6441ZM24.4046 23.2342C24.2891 24.5865 24.8234 25.3922 25.0689 26.2554C25.2566 26.9459 25.9498 26.8021 26.4263 26.5431C26.874 26.2985 26.6574 25.8957 26.4697 25.5504C26.0076 24.7448 25.4155 24.0686 24.4046 23.2198V23.2342ZM73.3158 5.09283C72.2327 5.06405 71.0775 4.8051 69.8067 5.72583C71.2219 5.79777 72.3483 6.17181 73.3158 5.09283ZM90.6448 74.7091C91.0347 74.7091 91.1936 74.4789 91.208 74.148C91.208 74.0185 91.1502 73.774 91.078 73.7452C90.717 73.6589 90.5004 73.8747 90.3849 74.1912C90.2982 74.4214 90.3849 74.6228 90.6448 74.7091Z" fill="white"/>
<path d="M47.0196 64.6673C45.3734 66.3074 43.5827 67.1418 41.431 67.2712C39.4382 67.4007 38.8028 65.847 37.8785 64.6097C37.0843 63.5308 37.7486 62.7251 38.3118 61.9195C39.4093 62.0633 39.4093 63.0704 39.9291 63.6171C40.7234 64.4515 41.2866 65.7175 42.7307 65.3866C44.2903 65.027 45.3156 63.9048 45.8066 62.4374C46.182 61.3296 46.2109 60.1499 46.2254 58.9558C46.2542 55.0139 47.5395 53.9493 51.4818 54.4673C51.8717 54.5248 52.2616 54.568 52.6371 54.6974C54.0234 55.1722 54.2545 55.8196 53.2147 56.8842C51.814 58.3228 51.0342 60.1499 49.8933 61.7324C48.9691 63.0272 49.2868 64.2932 50.6154 65.4298C51.5974 66.2642 52.9837 66.2642 54.0956 65.4298C54.8754 64.8399 55.3087 64.0055 55.7852 63.1999C56.0307 62.797 56.3628 62.3511 56.8972 62.5381C57.5037 62.7683 57.6192 63.4013 57.4603 63.9336C56.8683 65.847 55.6264 67.3288 53.7635 67.9474C52.045 68.5229 50.3266 68.0193 48.9547 66.7533C48.3337 66.1779 47.785 65.4873 47.0196 64.6529V64.6673Z" fill="white"/>
<path d="M63.4537 54.8701C62.3417 54.8989 61.3453 54.2659 61.3164 53.5034C61.2731 52.4963 62.645 51.1728 63.8147 51.1296C64.6956 51.0865 65.3888 51.777 65.4465 52.7409C65.5187 53.8775 64.6378 54.827 63.4537 54.8701Z" fill="white"/>
<path d="M81.186 46.4396C78.8899 46.4109 78.4278 46.7849 77.6047 49.3745C77.5036 49.691 77.3303 49.9787 76.9837 49.9643C76.5794 49.9499 76.2328 49.7485 76.1317 49.3025C76.0162 48.8278 76.1606 48.3962 76.3772 47.9646C77.2147 46.2382 79.9441 44.7564 81.8503 45.0297C82.399 45.1161 83.0489 45.2312 82.9478 45.9505C82.8467 46.6986 82.2113 46.5835 81.6481 46.4684C81.5037 46.4396 81.3304 46.4396 81.186 46.4252V46.4396Z" fill="white"/>
<path d="M38.6873 51.1728C38.6729 52.2086 37.7486 53.2732 36.8533 53.3164C36.0302 53.3452 34.9904 52.2806 35.0482 51.4605C35.106 50.6261 36.3046 49.4752 37.1277 49.4752C38.023 49.4752 38.7017 50.2089 38.6873 51.1872V51.1728Z" fill="white"/>
<path d="M25.7622 38.7716C26.6143 38.7572 27.163 38.7716 27.6684 39.0306C28.6793 39.5341 28.9826 40.6706 28.3472 41.6057C28.1161 41.951 27.784 42.1524 27.3507 42.0373C27.0186 41.951 26.7875 41.7208 26.8453 41.3612C27.033 40.1815 26.3254 40.0664 25.4301 40.1527C25.1991 40.1815 24.968 40.2534 24.7369 40.2678C24.3326 40.311 23.8994 40.2678 23.8272 39.7787C23.7405 39.2032 24.1449 38.9442 24.6647 38.8579C25.1268 38.786 25.6034 38.7716 25.7622 38.7716Z" fill="white"/>
<path d="M70.9335 46.454C70.8324 47.0439 68.7673 48.7271 68.1753 48.6695C67.9298 48.6408 67.7565 48.4825 67.7854 48.1948C67.8576 47.5474 69.345 45.7203 69.9226 45.5764C70.4858 45.4182 71.0346 45.8929 70.9335 46.454Z" fill="white"/>
<path d="M63.6553 45.8786C63.713 45.4182 63.7419 45.188 63.7564 44.9578C63.7852 44.1666 63.9152 43.1739 64.8972 43.4185C65.7636 43.6343 65.6337 44.6413 65.3882 45.4038C65.2726 45.7635 65.0994 46.1231 64.9261 46.4684C64.7817 46.7561 64.5362 46.9863 64.2185 46.9719C63.713 46.9288 63.6986 46.4972 63.6553 46.1087C63.6553 45.9505 63.6553 45.8066 63.6553 45.8786Z" fill="white"/>
<path d="M60.8969 47.6481C60.8969 48.166 60.6369 48.4393 60.247 48.5832C59.9005 48.6983 59.655 48.5113 59.4528 48.2523C59.0196 47.6912 58.673 47.087 58.5141 46.3965C58.4419 46.0656 58.5141 45.7491 58.8174 45.5908C59.1784 45.4038 59.6261 45.3319 59.9005 45.6484C60.4203 46.2238 60.7091 46.9575 60.8969 47.6481Z" fill="white"/>
<path d="M34.1672 43.5335C34.6582 43.5911 35.0481 43.7925 35.1925 44.3104C35.3658 44.9146 35.4958 45.5189 35.077 46.0656C34.9326 46.2526 34.6726 46.3677 34.4705 46.195C33.7773 45.634 33.5318 44.8427 33.5029 43.9939C33.5029 43.6486 33.8639 43.5623 34.1816 43.5335H34.1672Z" fill="white"/>
<path d="M71.6842 51.2879C71.1644 51.2159 70.4857 51.2879 70.3701 50.6261C70.269 50.0794 70.7889 49.8636 71.2943 49.8204C71.9586 49.7485 72.6662 49.9068 72.7529 50.6117C72.8251 51.1008 72.1897 51.2591 71.6842 51.3022V51.2879Z" fill="white"/>
<path d="M32.3767 47.8207C32.3478 48.1516 32.2323 48.4106 31.8424 48.4106C31.1492 48.4106 30.1817 47.6337 30.2106 47.0583C30.225 46.7274 30.4705 46.526 30.8027 46.4828C31.5247 46.4109 32.2901 47.0583 32.3623 47.8207H32.3767Z" fill="white"/>
<path d="M37.9645 44.2529C38.3977 44.3536 38.8598 44.5406 38.8021 45.1305C38.7443 45.6915 38.5277 46.267 37.8345 46.2238C37.2714 46.1807 37.1269 45.6484 37.1558 45.1736C37.1703 44.7132 37.2425 44.1953 37.979 44.2529H37.9645Z" fill="white"/>
<path d="M30.1522 52.41C29.7912 52.2805 29.719 51.964 29.8056 51.6619C30.0078 51.0001 30.4555 50.6117 31.192 50.7412C31.423 50.7843 31.6396 50.885 31.6107 51.1872C31.5819 51.7626 30.6865 52.5107 30.1378 52.41H30.1522Z" fill="white"/>
<path d="M40.6655 47.1014C40.5788 46.9575 40.3478 46.713 40.3911 46.5979C40.6655 45.9505 41.0554 45.3606 41.9074 45.4469C42.0374 45.4469 42.2251 45.5908 42.254 45.6915C42.4128 46.2094 41.3009 47.2309 40.6655 47.1014Z" fill="white"/>
<path d="M71.685 54.2802C71.2807 54.2802 70.8474 54.3234 70.7897 53.8055C70.7319 53.23 71.1363 52.9854 71.6417 52.9998C72.1327 52.9998 72.5804 53.2588 72.5515 53.7911C72.537 54.2946 72.0027 54.1939 71.685 54.2946V54.2802Z" fill="white"/>
<path d="M112.928 54.4241C111.787 55.0859 111.224 54.1652 110.516 53.5753C110.011 53.1581 109.693 52.1942 108.826 52.6114C107.917 53.0574 107.05 53.6329 106.574 54.6112C106.415 54.9421 106.603 55.2154 106.819 55.4456C107.238 55.9347 107.787 56.2225 108.379 56.467C108.798 56.6397 109.476 56.7116 109.375 57.2727C109.245 57.9632 108.567 57.8913 108.018 57.733C107.411 57.5604 106.819 57.3446 106.227 57.1432C105.664 56.9562 105.173 56.8986 104.826 57.5604C104.451 58.3085 104.032 58.0927 103.57 57.5604C102.169 55.9203 101.259 55.7333 99.3677 56.6828C98.0969 57.3158 96.985 58.2078 95.9308 59.1717C95.3965 59.6608 94.8189 60.078 94.0679 60.0493C93.8658 60.0493 93.6347 59.8622 93.4903 59.7184C93.3026 59.517 93.3892 59.2436 93.5481 59.0854C93.8658 58.7401 94.2123 58.4092 94.5734 58.1215C95.4687 57.3734 96.3929 56.7116 97.1294 55.7477C98.0103 54.5968 99.5699 54.4098 100.927 54.0213C102.848 53.489 102.862 53.489 102.819 51.5325C102.805 50.5973 102.689 49.6478 102.66 48.7127C102.646 48.0941 102.602 47.4323 102.747 46.8425C102.862 46.3677 103.108 45.6484 103.787 45.8066C104.509 45.9649 104.364 46.5979 104.205 47.159C103.642 49.2162 104.581 51.1728 104.451 53.2444C106.79 52.6834 107.527 51.7195 107.585 49.058C108.783 49.7485 109.78 49.4176 110.689 48.5545C111.83 47.4755 113.014 46.4396 114.17 45.375C114.574 45.001 114.877 44.5118 115.469 44.3968C115.801 44.3392 116.09 44.3968 116.292 44.6989C116.48 44.9722 116.61 45.2887 116.379 45.5621C116.018 45.9793 115.628 46.3677 115.209 46.7274C113.967 47.8064 112.596 48.7559 111.44 49.9356C110.227 51.1728 110.242 51.1872 111.281 52.5827C111.772 53.2444 112.841 53.4746 112.812 54.5392L112.913 54.4385L112.928 54.4241Z" fill="white"/>
<path d="M95.2372 35.0167C95.6416 35.0743 95.7715 35.2613 95.8293 35.4915C95.9448 35.9806 95.8438 36.4554 95.4827 36.7719C93.8365 38.2105 92.0602 39.4478 90.0241 40.2534C89.6342 40.3973 89.0565 40.6131 88.8544 39.9657C88.7244 39.5197 89.1432 39.3039 89.4609 39.0737C91.1649 37.8653 92.8689 36.6424 94.5874 35.4339C94.8329 35.2613 95.0928 35.1174 95.2661 35.0023L95.2372 35.0167Z" fill="white"/>
<path d="M46.6442 27.1042C46.1677 27.061 45.6478 27.0178 45.5612 26.4424C45.489 25.9676 45.8933 25.795 46.2976 25.7087C48.0161 25.3058 49.0558 24.0398 50.0523 22.7163C50.4277 22.2128 50.7743 21.7092 51.1931 21.2489C51.2942 21.1482 51.6119 21.1913 51.8141 21.2489C51.8863 21.2776 51.9873 21.5654 51.9296 21.6517C50.861 23.4356 50.1389 25.4785 48.2038 26.615C47.7273 26.8884 47.2363 27.1185 46.6587 27.1042H46.6442Z" fill="white"/>
<path d="M99.699 37.3042C101.389 38.1962 102.356 39.3759 102.631 41.0591C102.732 41.6633 102.674 42.3107 102.703 42.9293C102.717 43.3465 102.645 43.7781 102.14 43.7494C101.793 43.7494 101.735 43.3609 101.721 43.03C101.663 41.3756 101.634 39.7211 100.204 38.5127C99.9012 38.2681 99.6846 37.966 99.6846 37.2898L99.699 37.3042Z" fill="white"/>
<path d="M112.927 54.4241L112.826 54.5248C112.898 54.5248 112.971 54.4961 113.043 54.4961C113.332 54.4961 113.678 54.4241 113.794 54.7838C113.866 55.0284 113.664 55.1866 113.433 55.1866C112.942 55.1578 112.826 54.8557 112.942 54.4241H112.927Z" fill="white"/>
</g>
<defs>
<clipPath id="clip0_331_375">
<rect width="125" height="104" fill="white"/>
</clipPath>
</defs>
</svg>
