<svg width="66" height="68" viewBox="0 0 66 68" fill="none" xmlns="http://www.w3.org/2000/svg">
<path d="M56.1967 32.6296C56.4226 32.8144 56.2994 32.3422 56.402 32.7117C56.2788 32.7528 56.1762 32.7733 56.1967 32.6296Z" fill="white"/>
<path d="M9.61504 31.9137C9.57413 30.7067 10.9448 30.2567 11.1698 29.1519C11.2107 29.0292 11.4767 29.4384 11.579 29.1519C11.7017 28.0063 12.9292 27.0244 14.0339 26.3902L14.0748 26.5129C14.2794 26.3902 14.1362 25.9197 14.3407 25.7765C14.4021 25.8174 14.3816 25.8992 14.5044 25.9401C14.3612 25.7355 14.6885 25.531 14.6067 25.3468C14.7499 25.3468 14.8931 25.4491 15.0363 25.4287L14.9135 25.1423C14.6271 24.4467 15.5273 24.4467 15.5682 23.833C15.6091 23.8944 15.6091 23.9557 15.6909 23.9762C15.8955 23.0761 16.5911 22.2987 17.0616 21.4804C17.123 21.5622 17.2252 21.7054 17.348 21.7259C17.1434 21.5008 17.2662 21.2349 17.3889 21.0099C17.6958 21.1121 17.4503 20.4984 17.7571 20.3757L17.798 20.437C17.6958 20.0688 18.1458 20.2938 17.9617 19.9256L18.2277 19.9665C17.9617 19.6392 18.5959 19.8642 18.5345 19.5778L18.4527 19.5369C18.4731 19.3323 18.6982 19.3937 18.7391 19.2301H18.78C18.9232 18.8823 19.2301 18.8618 18.9641 18.6777C19.2505 18.7391 18.8414 19.0255 19.271 19.1073C19.762 17.9412 20.5803 17.0206 21.3167 16.0591C21.5009 16.0387 21.5827 15.9978 21.7054 16.0591C21.7259 15.9159 21.9509 15.6704 21.8691 15.4659C21.8691 15.5068 22.0532 15.5068 22.0941 15.4659C22.3192 15.3636 21.9509 15.0567 22.2169 14.9544C22.2169 15.0772 22.2987 15.1795 22.401 15.2204C22.3192 14.8931 22.5237 14.7089 22.626 14.4635C22.626 14.5248 22.626 14.5862 22.7283 14.6476C22.6669 14.2589 23.0761 14.2998 23.0761 14.0134L23.1784 14.1975C23.5875 14.0338 22.9329 13.8702 23.2397 13.6861C23.2397 13.7884 23.3216 13.8088 23.3625 13.8702C23.2807 13.4201 23.6694 13.0928 23.7716 12.7859C23.7716 12.8064 23.833 12.8473 23.833 12.8473C23.9967 12.5609 24.3035 12.3563 24.4058 11.9676C24.549 11.9063 24.7331 12.295 24.8968 11.9676C24.5899 11.7426 25.1423 11.3948 24.6718 11.2925C24.8968 11.088 25.306 10.822 25.3264 10.5765C25.3469 10.7811 25.7765 10.7402 25.6537 10.9652H25.9401C26.0424 11.088 25.7765 11.088 25.9606 11.1493C26.022 11.0471 26.1243 10.6584 26.247 10.6174C26.2061 10.2901 26.0015 9.86052 26.1856 9.5332C26.1856 9.75823 26.5743 9.71732 26.5539 9.84006L26.3084 8.98084C26.3697 8.87856 26.5539 9.14451 26.5948 8.93993C26.5129 8.87856 26.5129 8.77627 26.472 8.69444C26.5334 8.69444 26.7175 8.22392 27.0448 8.40804C27.188 8.44895 26.9835 8.61261 27.1676 8.59215C27.3108 8.40804 27.2085 8.32621 27.3517 8.14209H27.3926C27.5358 8.08072 27.5358 7.71248 27.2699 7.71248C27.188 7.79431 27.4745 7.81477 27.2699 7.87614C27.1676 7.65111 27.2699 7.40562 27.4131 7.2215C27.4131 7.32379 27.4949 7.3647 27.5563 7.46699C27.5154 7.03738 27.6381 6.73052 27.7609 6.38274C27.6177 6.26 27.945 6.6896 27.8222 6.66915C28.2928 6.46457 28.1086 5.7281 28.6201 5.66673C28.6201 5.7281 28.395 5.54398 28.436 5.56444C28.5792 5.42124 28.7837 5.56444 28.7837 5.40078C28.9065 5.48261 28.8451 5.23712 28.9065 5.09392C28.8656 4.97117 28.9883 5.09392 28.9065 5.21666C28.9269 4.97117 29.2338 4.21425 29.7043 3.98921C29.6225 3.92784 29.5816 3.53915 29.6634 3.45732L29.8271 3.64144C29.9907 3.66189 30.0316 3.33457 30.2362 3.4164C30.1339 3.06863 29.8475 4.31653 29.868 3.90738C30.0726 3.96876 29.8475 3.33457 30.0521 3.60052C30.1748 3.43686 30.2158 2.94588 30.5431 2.88451C30.4612 2.92542 30.6044 3.31412 30.7477 3.13C30.9727 2.78222 30.7477 2.94588 30.9113 2.61856L30.9931 2.35261C30.8909 2.10712 31.2591 2.06621 31.0341 1.94346C31.1568 2.10712 31.4023 1.28882 31.525 1.75935L31.5864 2.14804C31.6887 1.98438 31.6682 1.55477 31.7296 1.26837C31.7501 1.26837 31.791 1.32974 31.8114 1.39111C31.7296 0.777385 32.0978 1.08425 32.1797 0.40915C32.3229 0.347778 32.4865 0.16366 32.6297 0C32.7729 0.225033 32.9161 0.450065 32.9571 0.736471C33.1616 0.756928 33.3867 0.797843 33.5912 1.20699C33.5299 1.20699 33.4685 1.14562 33.4276 1.24791C33.5299 1.59569 33.5912 1.47294 33.7344 1.55477C33.6935 1.59569 33.9186 2.20941 33.9595 2.53673C34.1845 2.61856 34.2663 2.3117 34.3686 2.18895C34.2868 2.80268 35.1051 2.65948 35.0642 3.2732C34.9414 3.23229 34.6346 3.08908 34.7164 3.35503C34.5527 3.86647 35.2892 3.53915 35.2892 3.90738L35.5347 3.62098C35.4324 3.86647 35.9848 3.84601 35.6575 4.05059C35.8211 4.05059 35.7802 4.41882 36.0461 4.15287C36.128 4.74614 36.9463 5.01209 36.6394 5.64627C36.7417 5.64627 36.8031 5.85085 36.9258 5.70764C37.0076 5.48261 36.7008 5.66673 36.7826 5.54398C36.8235 5.5849 36.9258 5.54398 36.9667 5.50307C37.0076 5.68719 37.0486 5.78947 36.7212 5.8713C36.7622 6.28045 37.4373 5.76902 37.6009 6.21908C37.4782 6.30091 37.4373 6.36228 37.5395 6.44411L37.8873 6.48503C38.0101 6.75098 37.7237 6.83281 37.5191 6.99647C37.6418 7.09875 37.7646 7.24196 37.9487 7.18058L37.8055 7.52836C37.9078 7.28287 38.0101 7.52836 38.0919 7.54882H37.9896C37.9896 7.54882 38.0919 7.71248 38.1737 7.77385C38.276 7.65111 38.2146 7.48745 38.1942 7.3647C38.3374 7.3647 38.3783 7.46699 38.5624 7.46699C38.3374 7.58974 38.5624 7.77385 38.6238 7.8966C38.6647 8.0398 38.8897 7.8966 38.9102 7.91705C38.8079 7.99888 39.0329 8.10117 38.8284 8.14209C38.767 8.14209 38.8693 7.97843 38.7261 7.97843C38.7261 8.10117 38.5215 8.24438 38.767 8.28529C38.9511 8.32621 39.1352 7.95797 39.1761 8.26483C39.0739 8.26483 38.992 8.30575 38.8897 8.30575L38.9511 8.59215L39.1352 8.46941C39.1352 8.46941 39.0739 8.53078 39.0739 8.55124C39.3193 8.46941 39.3807 8.81719 39.6262 8.69444C39.7285 8.77627 39.6671 9.0013 39.7285 9.12405H39.708C39.708 9.32862 39.8922 9.43091 40.0967 9.43091H40.0558C40.0558 9.43091 40.2399 9.65594 40.4036 9.65594C40.4036 9.92189 39.7694 10.2492 40.1376 10.2492C40.2809 10.4129 40.6695 10.2492 40.7309 10.0856C40.8537 10.4742 41.406 10.597 41.3446 11.088C41.4469 11.088 41.4674 11.0061 41.5901 11.0675C41.8561 11.5585 42.5312 11.8244 42.4493 12.4586C42.2652 12.3972 42.2652 12.5814 42.1629 12.6837C42.4084 12.6632 42.1016 12.9496 42.4084 12.7655C42.5516 12.6223 42.6539 12.5814 42.613 12.3972C42.8994 12.5814 43.2267 12.9905 43.1858 13.2565C43.1858 13.1337 43.2881 13.1337 43.3904 13.1542C43.1244 13.3383 43.2267 13.5633 43.4313 13.6452L43.595 13.5429L43.5131 13.7679C43.5131 13.7679 43.8814 13.5633 43.8609 13.8293C43.7995 13.8906 43.7586 13.9316 43.7177 14.0134C43.9632 14.0543 44.3519 14.0952 44.3519 14.3816L44.2292 14.6885C44.2292 14.6885 44.536 14.7499 44.5156 14.5657C44.5974 14.9544 44.7201 15.1386 44.5974 15.384C45.4566 15.4863 46.0294 16.1614 46.4386 16.7547L46.3158 16.8365C46.3158 17.082 46.5818 16.7547 46.5818 16.9184C46.4386 16.9593 46.4386 17.2252 46.1931 17.2252C46.234 17.5321 46.6227 17.348 46.7863 17.4503C46.95 17.348 46.6022 17.4093 46.8068 17.2866C46.8886 17.2866 46.9295 17.6753 47.175 17.5321C47.1341 17.6548 46.9295 17.7571 46.8068 17.798L47.0318 17.8389C46.8886 18.2072 46.2544 17.8389 46.0499 18.289L46.1726 18.3913C46.009 18.6982 45.6407 18.289 45.8044 18.6572C46.0294 18.6982 46.459 18.555 46.459 18.3504C46.7454 18.5754 47.1137 18.0435 47.3387 18.3504C47.2569 18.5345 47.1137 18.1458 46.9705 18.3504C46.8886 18.6368 47.2978 18.555 47.3182 18.7186C47.3182 18.514 47.6251 18.4322 47.7478 18.4936C47.7478 18.7391 47.441 18.5754 47.5842 18.8004C47.7478 18.7391 47.9933 18.8414 47.9524 18.5959C48.3207 18.4322 48.0342 18.8823 48.3616 18.8209C48.1979 19.0664 47.6865 18.9846 47.7683 19.3119C47.9524 19.1073 48.2797 19.3733 48.4843 19.005C48.4843 19.1482 48.3411 19.2914 48.157 19.3119C48.1365 19.5369 48.7912 19.3119 48.4025 19.7006L48.648 19.5778C48.648 19.5778 48.6071 19.7824 48.5457 19.9256C48.6275 20.0484 49.1185 20.0688 48.7912 20.3143C48.8525 20.3143 49.0367 20.6007 49.1799 20.3143C49.1799 20.0484 48.873 20.2529 49.098 19.9256C48.9548 20.2325 49.3231 20.1302 49.4663 20.1711L49.364 20.2938C49.364 20.2938 49.5276 20.4575 49.6913 20.3961C49.589 20.3961 49.5276 20.4984 49.5276 20.5598L49.7527 20.478C50.0186 20.6416 49.4663 20.7848 49.6913 20.9689L49.4049 20.9076C49.4049 20.9076 49.3435 21.1326 49.4867 21.194L50.1209 20.9485C50.305 21.0099 49.9777 21.1531 50.2437 21.1326H49.9163C49.9163 21.1326 49.7118 21.4599 49.855 21.6236C49.9982 21.685 50.3869 21.6645 50.3459 21.419C50.4073 21.5008 50.4073 21.7054 50.2232 21.7259C50.4278 21.8691 50.3869 21.5622 50.6324 21.644C50.571 21.8077 50.571 22.135 50.5096 22.401L50.08 22.4623L50.1618 22.5851C49.8141 22.626 50.0391 22.7897 49.7322 22.9124C49.7527 23.0147 49.9163 23.0556 50.0391 23.0761C50.2437 22.5442 50.7756 22.9124 51.0824 22.5646C51.4302 22.8101 50.3664 23.4443 51.1847 23.3216C51.2256 23.1988 51.6348 23.1374 51.3688 23.0147C51.4916 23.2397 51.8189 22.8715 51.8598 23.2193C51.5734 23.1579 51.6348 23.6898 51.2461 23.608C51.3688 23.5261 51.2461 23.4034 51.1642 23.3829C51.0824 23.567 50.796 23.6489 50.9597 23.8535C51.0824 23.9557 51.2256 24.0989 51.3893 23.9353C51.5939 23.7716 51.2256 23.7716 51.4916 23.6898C51.7575 23.8739 51.4916 24.1603 51.9212 23.9762C51.778 23.8535 51.9621 23.6489 52.0848 23.5261L52.3099 23.6284L52.1462 23.7103C52.269 24.0785 52.4531 23.608 52.6372 23.9148L52.4735 24.2626C52.1871 24.3853 52.2689 23.7716 51.9212 24.1194C52.0439 24.3035 52.2894 24.2217 52.3303 24.4672C52.269 24.4672 52.228 24.4058 52.1462 24.4058C52.1871 24.4876 51.7371 24.9377 52.228 24.9582C52.4531 24.9991 52.3917 24.8968 52.5349 24.774C52.8008 25.0195 53.0054 24.9991 53.1895 25.1627C52.8827 25.3468 53.4146 25.5105 52.985 25.531C53.0668 25.3059 52.719 24.8968 52.3917 24.9991C52.1462 25.3673 52.269 24.7331 51.8803 24.9377C52.0644 25.1832 51.7371 25.4082 51.5529 25.6128C51.5939 25.6946 51.7166 25.6742 51.7984 25.6946C52.0235 25.5719 51.9416 25.4901 52.1462 25.3264C52.2894 25.6333 52.5963 25.7969 52.9031 25.7765C52.8827 25.9401 52.6576 26.0629 52.5554 25.981C52.8622 26.247 53.0873 26.5948 53.2509 26.9221C53.4146 26.472 53.5782 27.188 53.7419 26.8403C53.701 26.6357 53.8033 26.3084 54.0283 26.2879C54.0897 26.4106 53.8851 26.3902 53.8442 26.4925C54.1101 26.4925 53.7214 26.9016 54.0897 26.8198C53.7624 26.6152 53.6601 27.0653 53.3737 27.2289C53.6805 27.3108 53.1895 27.3517 53.3532 27.5563C53.6601 27.6381 53.9669 27.8018 54.192 27.9859C54.192 28.4564 54.7443 28.7019 54.9489 28.9474C54.9284 29.1724 54.5806 29.3156 54.642 29.4997C54.7852 29.6634 54.8466 29.1315 54.908 29.4997H54.8261C54.9489 29.5406 54.9898 30.1339 55.4603 29.8884L55.0921 30.0521C55.0921 30.0521 55.2148 30.1135 55.2762 30.1135C55.1739 30.1953 55.133 30.318 55.0103 30.2976C54.9284 30.6249 55.2967 30.584 55.4399 30.7476L55.5422 30.5021C55.9104 30.6658 55.8695 31.0136 56.1559 31.2386L55.9718 31.3614L56.2173 31.4432C56.0127 31.5455 56.0127 31.7705 56.2173 31.75L55.4399 31.6682C55.4399 31.4636 55.7672 31.6273 55.8695 31.4227C55.9718 31.2386 55.7263 31.0136 55.5217 31.1159C55.5831 31.2386 55.624 31.1977 55.7467 31.2182C55.5217 31.4432 55.4194 31.3 55.1944 31.3409C55.2353 31.3818 55.2353 31.525 55.3171 31.4636C55.1125 31.4636 55.0103 31.3818 54.8875 31.2182C55.0716 31.2591 54.9898 31.034 55.0921 31.0136C54.8671 31.1772 54.6625 31.075 54.5602 30.809C54.7034 30.4612 54.0897 30.5431 53.9669 30.2567C54.2738 30.1748 54.5397 30.1544 54.7443 30.2567C54.7443 30.0112 54.6011 30.093 54.6011 29.8475C54.3761 29.9089 54.0897 30.0521 53.8237 29.9293L53.9874 29.7861C53.7623 29.6838 53.5169 29.868 53.3941 29.602C53.1691 29.1519 52.8622 28.7428 52.6372 28.4359L52.8008 28.2927C52.3303 28.395 52.2485 27.8427 51.9212 27.7404C51.778 27.2494 51.1233 27.0448 51.2461 26.6357C50.5914 26.0629 50.0186 25.5923 49.5276 24.8559L49.855 24.7945C49.589 24.7945 49.9368 24.6104 49.7936 24.5081C49.7118 24.7945 49.4254 24.5286 49.2003 24.5695C49.139 24.1194 48.6275 23.8739 48.2593 23.7307L48.4229 23.5875C47.891 23.5466 47.9115 23.0147 47.6865 22.626C47.7274 22.5237 47.8297 22.3601 47.7274 22.2578C47.3182 22.2782 47.2569 22.1759 46.8886 22.0327C46.725 21.8282 46.5408 21.4599 46.4795 21.1735C45.518 20.7235 45.1497 19.762 44.311 19.1687L44.4542 18.9641C43.4518 18.5345 43.0835 17.307 42.3675 16.8365L42.7358 16.632C42.6744 16.3455 42.2857 16.2433 42.1016 16.4683C42.0402 16.1819 41.5492 16.0796 41.7129 15.7523C41.6106 15.5068 41.3651 15.6091 41.181 15.4863C40.9764 14.9749 40.8332 14.8521 40.465 14.5044L40.5263 14.6271C40.6286 14.6271 40.7718 14.5044 40.7105 14.4021C40.5059 14.3203 40.3831 13.7884 40.0967 14.2589C39.9944 13.6656 39.1557 13.4406 39.1352 12.7859C39.0534 12.9087 38.9511 12.8269 38.8488 12.8269C38.5624 12.4586 38.4806 11.9063 38.051 11.7631C38.051 11.6608 38.2965 11.7222 38.1942 11.5585C38.0919 11.4971 38.051 11.6608 37.9078 11.5994C37.2327 11.1698 37.1713 10.2288 36.7008 9.73777C35.7393 8.93993 35.0642 7.85568 34.3073 6.97601L34.3891 6.91464C33.8572 6.85326 34.1231 5.95313 33.489 6.05542C33.489 5.93268 33.3048 5.74856 33.489 5.68719C33.2844 5.64627 33.2026 5.4417 33.1003 5.21666C33.0389 5.053 33.0594 4.99163 32.8957 5.07346C32.8957 5.07346 32.8957 5.07346 32.9571 5.053C32.998 4.74614 32.7729 4.95072 32.7525 4.6234C32.7729 4.58248 32.7934 4.56202 32.8343 4.43928C32.8343 4.11196 32.6502 4.86889 32.7116 4.17333C32.6911 4.15287 32.6502 4.50065 32.6707 4.50065C32.6297 4.39836 32.5888 4.33699 32.5479 4.27562C32.3229 4.50065 32.2001 5.03255 32.1592 5.21666C31.5455 5.52353 31.525 4.72568 31.4432 5.40078C31.3409 5.40078 31.566 5.54398 31.4841 5.48261C31.4432 5.74856 30.8295 5.4417 30.9318 5.7281C31.1977 5.85085 30.9931 5.91222 31.1363 6.03497C30.6863 6.30091 30.4203 6.19862 30.359 6.64869L30.2567 6.52594C30.318 7.13967 29.8271 7.40562 29.9907 8.01934C28.5587 10.0037 27.3108 12.0086 25.8992 13.9316C24.3649 15.7318 23.117 17.6753 21.419 19.3937C20.7439 19.5778 20.7235 19.6187 20.478 20.212C20.4371 20.1506 20.4575 20.1097 20.3757 20.1097C20.6212 20.3348 20.1302 20.478 20.3552 20.7235C19.762 21.3781 19.3324 22.0736 18.7596 22.7897C18.8209 22.6465 18.6573 22.4214 18.555 22.5851L18.6163 22.851L18.5345 22.8101C18.4936 22.9329 18.5345 23.1374 18.7186 23.117C17.5321 25.1014 15.6091 26.4516 14.2794 28.2518C13.8497 28.5791 13.4815 29.2542 13.1747 29.7452C11.7631 30.809 10.5152 31.8114 9.69687 33.3662C9.69687 33.3662 9.16498 32.6502 9.45138 31.9546L9.61504 31.9137Z" fill="white"/>
<path d="M55.9512 32.3843C56.0535 32.2411 55.9921 32.0161 56.2786 31.9956C56.1763 32.1184 56.0944 32.3025 55.9512 32.3843Z" fill="white"/>
<path d="M54.008 27.1273C54.008 27.1273 54.008 27.0247 54.008 27.0042C54.049 27.0452 54.2133 27.0041 54.1722 27.1068C54.1106 27.0657 54.0695 27.1068 53.9874 27.1479L54.008 27.1273Z" fill="white"/>
<path d="M53.251 26.0013C53.3737 25.9194 53.6601 26.0831 53.7829 26.2058L53.251 26.0013Z" fill="white"/>
<path d="M52.9442 24.6308C52.9852 24.4665 53.0468 24.446 53.1289 24.5692C53.0673 24.6308 53.0057 24.6102 52.9442 24.6308Z" fill="white"/>
<path d="M52.6373 24.7549C52.6373 24.7549 52.5963 24.5702 52.6373 24.488C52.5347 24.5702 52.8426 24.6318 52.6373 24.7549Z" fill="white"/>
<path d="M51.2669 22.3406C51.2669 22.3406 51.0206 22.2585 51.1232 22.1147C51.0822 22.2379 51.4722 22.2585 51.2669 22.3406Z" fill="white"/>
<path d="M50.3054 21.4611C50.3054 21.4611 50.3054 21.3995 50.2438 21.379C50.2438 21.2763 50.3875 21.2763 50.4285 21.3174L50.3054 21.4611Z" fill="white"/>
<path d="M35.4326 3.56006L35.5763 3.62165L35.4326 3.70377V3.56006Z" fill="white"/>
<path d="M27.3524 6.97602C27.3524 7.14026 27.1882 6.97602 27.1471 6.97602C27.2087 6.87336 27.2703 7.11973 27.3524 6.97602Z" fill="white"/>
<path d="M24.5284 11.7632L24.5695 11.7222L24.7953 11.9275L24.5284 11.7632Z" fill="white"/>
<path d="M51.0013 24.5703C50.9808 24.3239 50.7139 24.6524 50.9192 24.3855C51.0424 24.4471 51.1245 24.5087 51.0013 24.5703Z" fill="white"/>
<path d="M14.9342 25.203C15.8752 25.7963 15.3433 27.0033 16.0184 27.7398C16.0798 27.842 15.5888 27.8011 15.7525 28.0057C16.5299 28.7013 16.489 30.0719 16.2639 31.1971L16.1412 31.1562C16.1003 31.3607 16.5503 31.5039 16.5299 31.729C16.4481 31.729 16.4071 31.6881 16.3048 31.7699C16.5503 31.7699 16.489 32.1177 16.6935 32.1586C16.6117 32.2609 16.4276 32.3018 16.3458 32.4245L16.6322 32.4859C17.3482 32.67 16.7754 33.2837 17.205 33.652C17.1436 33.652 17.0822 33.6111 17.0209 33.652C17.5732 34.2657 17.696 35.1658 18.0233 35.9228C17.921 35.9228 17.7369 35.9228 17.655 36.0046C17.9414 35.9841 18.0847 36.2092 18.1869 36.4137C17.921 36.5774 18.5347 36.7206 18.4324 37.007H18.3711C18.7188 37.1093 18.2688 37.3139 18.6575 37.3752L18.4529 37.5389C18.8825 37.5389 18.3097 37.8458 18.5552 37.9481H18.637C18.7597 38.0503 18.5756 38.1731 18.6779 38.2754H18.637C18.8211 38.5822 18.637 38.8277 18.9439 38.7459C18.7188 38.9096 18.7597 38.4799 18.4324 38.7459C19.0052 39.6869 19.1689 40.7712 19.4144 41.7941C19.3121 41.9373 19.2916 42.0191 19.1689 42.0805C19.2507 42.1623 19.3121 42.4692 19.4962 42.4692C19.4962 42.4487 19.353 42.6124 19.353 42.6737C19.2916 42.9397 19.7213 42.6737 19.6394 42.9397C19.5371 42.9397 19.4553 42.9397 19.353 43.0624C19.619 43.0624 19.6394 43.3079 19.7417 43.4307C19.6803 43.4511 19.6599 43.4307 19.578 43.5329C19.7008 43.5329 19.7213 43.5943 19.7213 43.6966C19.8031 43.7171 19.8849 43.7989 20.069 43.6966L19.8645 43.8807C20.069 44.1058 20.2122 43.492 20.3964 43.6148C20.2941 43.6762 20.2941 43.758 20.2327 43.8194C20.6623 43.4716 20.9692 43.5943 21.2351 43.4716C21.2351 43.492 21.2351 43.5534 21.2351 43.5534C21.4806 43.5125 21.8079 43.6148 22.1148 43.4716C22.2375 43.5534 22.0739 43.9421 22.3807 43.8603C22.3807 43.4716 22.8922 43.6966 22.7285 43.267C22.9945 43.3284 23.4036 43.4716 23.5673 43.3488C23.4445 43.492 23.69 43.8194 23.4854 43.8398L23.6491 44.0648C23.6286 44.2285 23.4854 44.0035 23.5263 44.208C23.6286 44.208 23.956 44.0444 24.0582 44.1058C24.2628 43.8807 24.4469 43.4307 24.7743 43.3897C24.6311 43.533 24.8561 43.7989 24.7743 43.8807L25.2243 43.1443C25.3266 43.1443 25.2448 43.4511 25.4084 43.3488C25.4084 43.2465 25.4698 43.1852 25.5107 43.1033C25.5516 43.1443 25.9608 43.0011 26.0017 43.3897C26.0426 43.533 25.8176 43.4716 25.9403 43.5943C26.1449 43.5943 26.1449 43.4716 26.3495 43.4511V43.492C26.4927 43.5534 26.7382 43.3284 26.595 43.1238C26.5131 43.1238 26.6359 43.3488 26.4927 43.2465C26.595 43.0215 26.82 42.9601 27.0246 42.9601C26.9632 43.0215 26.9632 43.1238 26.9428 43.2261C27.2087 42.9397 27.4951 42.8374 27.802 42.7147C27.802 42.5305 27.6997 43.042 27.6383 42.9397C28.027 43.1852 28.4362 42.5919 28.743 42.9397C28.6816 42.9806 28.7226 42.6942 28.7226 42.7351C28.9067 42.7556 28.9067 43.0215 29.0294 42.9192C29.0294 43.0624 29.1726 42.8783 29.2954 42.8169C29.3567 42.7146 29.3363 42.8988 29.2135 42.8988C29.3772 42.776 30.0728 42.5305 30.4819 42.7556C30.4819 42.6533 30.7274 42.3873 30.8297 42.4078L30.7888 42.6328C30.8706 42.776 31.0956 42.6124 31.1161 42.8169C31.3207 42.5305 30.3592 43.0624 30.6251 42.8374C30.6865 43.042 30.9933 42.4692 30.932 42.776C31.1161 42.776 31.3002 42.5101 31.4639 42.7147C31.4025 42.6737 31.3207 43.042 31.4639 43.0215C31.7298 42.9806 31.5457 42.9192 31.7503 42.8374L31.8935 42.7351C31.8935 42.5101 32.1185 42.7556 32.0367 42.5101C32.0776 42.6942 32.4254 42.3873 32.3844 42.776L32.3435 43.0829C32.4663 43.0624 32.5277 42.776 32.6095 42.6328C32.6095 42.6533 32.6504 42.7146 32.6504 42.776C32.6504 42.326 32.9163 42.8169 33.0595 42.4692C33.305 42.6328 33.6733 42.4692 33.7756 42.776C33.9597 42.6328 34.1233 42.4692 34.3279 42.5714C34.287 42.6124 34.2256 42.6328 34.2256 42.7351C34.3484 42.8783 34.3893 42.7351 34.512 42.6737C34.4916 42.7351 34.778 42.9397 34.9212 43.1033C35.1053 42.9601 35.0439 42.7147 35.0644 42.5714C35.228 43.0215 35.5758 42.285 35.7804 42.6942C35.719 42.7556 35.5145 42.9192 35.6577 43.0215C35.8213 43.4716 35.985 42.6942 36.2714 42.8988L36.21 42.5305C36.3328 42.7556 36.5987 42.3055 36.5782 42.6942C36.6601 42.551 36.8851 42.8169 36.8646 42.4487C37.3147 42.7556 37.9284 42.2646 38.2148 42.9192C38.2762 42.8579 38.4399 42.9192 38.399 42.7351C38.2967 42.5305 38.2558 42.8783 38.2148 42.7351C38.2762 42.7351 38.2762 42.6328 38.2967 42.5714C38.4399 42.6533 38.5422 42.6737 38.4194 42.9806C38.7263 43.2056 38.7263 42.3669 39.115 42.5101C39.115 42.6533 39.115 42.7146 39.2377 42.6942L39.4627 42.4282C39.7082 42.4896 39.606 42.776 39.606 43.0215C39.7492 42.9806 39.9128 42.9806 39.9742 42.7965L40.1378 43.1238C40.0151 42.8988 40.2401 42.9601 40.3015 42.8988L40.2401 42.9601C40.2606 43.0624 40.4242 43.0011 40.5061 42.9601C40.5061 42.7965 40.322 42.7351 40.2401 42.6942C40.3015 42.5919 40.4242 42.6124 40.5061 42.4692C40.4856 42.7146 40.7311 42.6533 40.8334 42.6737C40.9561 42.7351 40.9766 42.4487 40.9971 42.4487C40.9971 42.5714 41.2016 42.4692 41.0993 42.6533C41.0584 42.6942 40.9971 42.5305 40.9357 42.6533C41.0175 42.7556 40.9971 42.9806 41.1812 42.8169C41.3039 42.6942 41.1403 42.326 41.3858 42.4896C41.3244 42.551 41.3039 42.6533 41.263 42.7351L41.488 42.8579V42.6328C41.488 42.6328 41.488 42.7147 41.529 42.7351C41.5903 42.4896 41.8767 42.6533 41.9176 42.3873C42.0404 42.3669 42.1631 42.551 42.2654 42.5714H42.245C42.3677 42.7351 42.5518 42.6328 42.6541 42.4896V42.5305C42.6541 42.5305 42.8996 42.5305 42.9814 42.3873C43.1656 42.551 43.0428 43.2465 43.2474 42.9601C43.4315 42.9601 43.5338 42.551 43.452 42.3873C43.7793 42.551 44.168 42.1623 44.4748 42.5305C44.5158 42.4487 44.4748 42.3873 44.5976 42.326C45.0272 42.4078 45.7637 42.06 45.825 42.5101C45.7637 42.6124 45.8455 42.7351 45.8864 42.8579C45.9069 42.6533 46.0091 43.0624 45.9682 42.7147C45.9069 42.5101 45.8864 42.4078 45.825 42.326C45.9069 42.2237 46.0296 42.2237 46.2137 42.4078C46.1319 42.3055 46.1114 42.2441 46.091 42.1828C46.2751 42.5101 46.4183 42.551 46.3978 42.4487L46.2546 42.2441L46.4592 42.4487C46.4592 42.4487 46.3365 42.2646 46.2956 42.2032C46.2546 42.1418 46.2546 42.1214 46.316 42.1828C46.3774 42.2441 46.4592 42.326 46.5001 42.3669C46.3774 42.1418 46.1319 41.8759 46.2956 41.9373C46.3774 41.9782 46.4797 42.0191 46.5615 42.06C46.541 41.9986 46.3774 41.8759 46.2956 41.8554C46.4797 41.8554 46.5001 41.7736 46.7661 41.7941C46.4797 41.6509 46.3774 41.3031 46.3365 40.9348C46.316 40.5871 46.3774 40.2393 46.4388 39.9324L46.582 39.9733C46.7456 39.8301 46.3365 39.8506 46.4592 39.7483C46.582 39.8301 46.7865 39.6665 46.9297 39.8301C47.1139 39.6256 46.7252 39.4824 46.6842 39.3187C46.5001 39.2573 46.7865 39.4619 46.541 39.4005C46.4797 39.3596 46.7456 39.0937 46.4592 39.0118C46.582 38.9709 46.7865 39.0528 46.9093 39.0937L46.7865 38.93C47.1548 38.8073 47.3389 39.421 47.789 39.2982V39.155C48.0958 39.0732 48.0549 39.5642 48.2186 39.2369C48.0958 39.0732 47.6867 38.8891 47.5435 38.9914C47.5025 38.6845 46.8684 38.7459 46.9297 38.4186C47.1139 38.3572 46.9297 38.6845 47.1752 38.6641C47.4412 38.5413 47.0934 38.3367 47.1752 38.214C47.032 38.3572 46.7661 38.1731 46.7252 38.0708C46.8888 37.9276 46.9911 38.214 47.0525 37.989C46.8888 37.9276 46.7865 37.6821 46.6433 37.8662C46.2751 37.723 46.7865 37.6412 46.5001 37.4571C46.7865 37.4162 47.0934 37.7844 47.2571 37.5594C46.9911 37.5594 46.9502 37.1911 46.541 37.273C46.6229 37.1911 46.8479 37.2116 46.9911 37.2934C47.1752 37.1707 46.5615 36.8638 47.0934 36.9047L46.8274 36.8229C46.8274 36.8229 46.9911 36.7411 47.1548 36.6797C47.1752 36.5569 46.8479 36.2092 47.2571 36.291C47.2161 36.2501 47.2775 35.9637 46.9911 36.025C46.7865 36.1887 47.1548 36.2705 46.7661 36.3114C47.0934 36.2296 46.7661 36.0455 46.6842 35.9228H46.8479C46.8479 35.9228 46.8479 35.7182 46.6842 35.6568C46.7661 35.7182 46.8684 35.7182 46.9297 35.6568L46.7047 35.5545C46.6229 35.2886 47.1343 35.5545 47.0934 35.309L47.2571 35.5136C47.2571 35.5136 47.4616 35.4113 47.4003 35.2886L46.7865 35.0226C46.7047 34.8794 47.032 35.0022 46.8479 34.8385L47.0729 35.0635C47.0729 35.0635 47.4412 35.0022 47.4616 34.8181C47.4003 34.6953 47.1139 34.4498 46.9707 34.6339C46.9707 34.5316 47.1343 34.4294 47.2775 34.5316C47.2366 34.3066 47.032 34.5316 46.9297 34.3271C47.0934 34.2657 47.3184 34.0816 47.5639 33.9793L47.8912 34.2248V34.102C48.1776 34.3066 48.1572 34.0611 48.4436 34.1839C48.505 34.102 48.4231 33.9793 48.3413 33.8975C47.8094 34.0816 47.7071 33.5088 47.2571 33.5088C47.1957 33.1405 48.3822 33.4679 47.7276 32.9973C47.6048 33.0382 47.298 32.8132 47.3798 33.0587C47.4616 32.8541 46.9502 32.8541 47.1752 32.6291C47.3389 32.8337 47.6662 32.5064 47.8912 32.8132C47.748 32.7723 47.748 32.936 47.789 32.9973C47.9731 32.936 48.239 33.0792 48.2595 32.8746C48.239 32.7314 48.2595 32.5473 48.014 32.5473C47.748 32.5064 48.014 32.7518 47.7685 32.6291C47.7276 32.3427 48.1163 32.3632 47.6867 32.179C47.6867 32.3427 47.4207 32.3632 47.2571 32.3222L47.1752 32.1177L47.3389 32.179C47.5025 31.8926 47.0525 32.0358 47.1343 31.7494L47.4821 31.6676C47.7685 31.7903 47.2775 32.0972 47.7685 32.0972C47.8094 31.9131 47.5844 31.8108 47.748 31.6267C47.789 31.6676 47.789 31.729 47.8299 31.7699C47.8503 31.7085 48.4845 31.729 48.1776 31.3812C48.0549 31.2175 48.014 31.3198 47.8503 31.2789C47.8503 30.9516 47.6867 30.8288 47.6867 30.6243C48.0344 30.7266 47.7685 30.2765 48.0958 30.5424C47.8708 30.6243 47.8299 31.0743 48.1367 31.238C48.5663 31.1766 48.0344 31.4835 48.4436 31.6062C48.4845 31.3607 48.8937 31.4221 49.1596 31.4221C49.1801 31.3607 49.0982 31.2789 49.0573 31.2175C48.8118 31.1562 48.8118 31.238 48.5459 31.2175C48.6482 30.9516 48.5459 30.6447 48.3413 30.4606C48.4845 30.3788 48.73 30.4606 48.73 30.5629C48.7095 30.2151 48.7914 29.8673 48.9141 29.5605C48.4845 29.7037 48.8732 29.1922 48.5254 29.2741C48.4027 29.4377 48.0958 29.54 47.9322 29.4173C47.9731 29.315 48.1163 29.4582 48.1981 29.4173C47.9935 29.2536 48.5868 29.2536 48.2595 29.0695C48.3413 29.3968 48.7505 29.2127 49.0573 29.315C48.9141 29.0695 49.2824 29.3559 49.3233 29.1309C49.1801 28.8854 49.0778 28.599 49.0573 28.333C49.4051 28.0671 49.1801 27.5556 49.221 27.2692C49.4051 27.1465 49.7529 27.3101 49.8347 27.1465C49.8552 26.9624 49.4256 27.2283 49.6301 26.9828L49.6915 27.0237C49.6915 27.0237 50.0188 26.5737 49.5074 26.41L49.8756 26.5532C49.8756 26.5532 49.8347 26.4509 49.7938 26.3896C49.9165 26.3896 50.0393 26.3691 50.1211 26.4509C50.4075 26.3282 50.1211 26.0827 50.1416 25.8986L49.8961 25.9804C49.7733 25.6326 50.0188 25.469 49.9984 25.1621L50.2234 25.203L50.1211 24.9984C50.3257 25.0803 50.4893 24.9371 50.3257 24.8143L50.7962 25.3667C50.653 25.469 50.5507 25.1826 50.3052 25.2235C50.1007 25.2644 50.1211 25.5508 50.3257 25.6326C50.3666 25.5303 50.3257 25.5099 50.2439 25.4281C50.5712 25.4281 50.5303 25.5917 50.7144 25.7145C50.7144 25.6531 50.8167 25.5917 50.7144 25.5713C50.8576 25.7145 50.8576 25.8167 50.8371 26.0009C50.7348 25.8577 50.6325 26.0418 50.5507 25.9804C50.8167 26.0418 50.878 26.2259 50.7757 26.4305C50.428 26.5532 50.919 26.8805 50.7757 27.126C50.5098 26.9828 50.3052 26.7987 50.2234 26.635C50.0597 26.7783 50.2029 26.8192 50.0393 26.9624C50.2439 27.0647 50.5507 27.1874 50.6325 27.4124H50.428C50.5098 27.5965 50.7962 27.6579 50.7144 27.883C50.5507 28.2921 50.4893 28.7217 50.4075 29.049H50.2029C50.6121 29.2741 50.2643 29.6628 50.428 29.9287C50.162 30.3174 50.4893 30.8493 50.1007 31.013C50.1416 31.7699 50.2029 32.4245 50.0188 33.161L49.7324 32.9973C49.937 33.161 49.5483 33.0587 49.5688 33.2019C49.8347 33.0792 49.8552 33.4269 50.0188 33.5497C49.7324 33.8565 49.9165 34.3271 50.0802 34.6544H49.8756C50.2234 35.0022 49.8143 35.309 49.6915 35.6773C49.6097 35.6977 49.4051 35.7386 49.4051 35.8614C49.712 36.1069 49.671 36.2092 49.8347 36.5569C49.7938 36.782 49.671 37.1093 49.5074 37.3139C49.8552 38.214 49.4256 38.9914 49.5688 39.8915H49.3233C49.5074 40.362 49.4665 40.8326 49.3642 41.2826L49.2414 41.9373C49.2005 42.1828 49.1596 42.5714 49.1801 42.8783L48.7914 42.6124C48.6277 42.8783 48.7914 43.4102 49.0573 43.5125C48.8937 43.7784 49.0982 44.5967 48.7505 44.5558C48.6686 44.7399 48.7505 44.9445 48.7914 45.1695C48.7505 45.2105 48.7095 45.2718 48.6073 45.2923C47.7071 45.1286 47.4821 45.1696 46.7661 45.2514H46.9502C46.9502 45.2514 46.9502 45.0059 46.7661 44.9854C46.541 45.1082 45.8046 44.8831 46.1319 45.3741C45.6409 45.2309 45.3954 45.2923 45.1499 45.3332C44.884 45.3741 44.618 45.415 44.393 45.2105C44.4339 45.3537 44.3112 45.3741 44.2703 45.456C43.8611 45.456 43.4315 45.19 43.1246 45.415C43.0633 45.3537 43.2269 45.19 43.0633 45.1695C42.961 45.2309 43.0633 45.3537 42.9405 45.415C42.2859 45.6605 41.6108 45.1491 41.0175 45.2105C39.9537 45.4764 38.849 45.3332 37.8261 45.3946V45.2923C37.4988 45.681 37.0488 44.9036 36.7624 45.4764C36.6805 45.3741 36.4555 45.4355 36.5169 45.2309C36.2509 45.4969 35.7599 44.9854 35.3712 45.3128C35.4122 45.3128 35.4326 45.3128 35.4735 45.2514C35.0848 45.0263 34.7371 45.3332 34.3075 45.1286C34.3484 45.0877 34.4302 45.0468 34.4302 44.9445C34.2665 44.7604 34.0415 45.3741 33.9597 44.8831C33.8574 44.8831 33.8983 45.1286 33.9597 45.1082C33.0391 44.9241 32.0776 45.2309 31.1161 45.3332C30.441 45.0468 31.0752 44.5149 30.5433 44.8831C30.5024 44.7809 30.5024 45.0673 30.5024 44.965C30.2978 45.1082 30.175 44.4331 30.0318 44.6786C30.0932 44.965 29.9295 44.8422 29.9295 45.0263C29.5204 44.8422 29.4386 44.5763 29.0908 44.8013V44.6377C28.7226 45.0673 28.2725 44.8422 27.9656 45.3537C25.838 45.4355 23.7923 45.7219 21.7261 45.7833H18.0028C17.7164 44.5558 17.43 43.3284 17.1436 42.1009C17.0004 41.4258 16.8777 40.7507 16.8163 40.0552C17.1027 39.4824 17.0822 39.4619 16.8163 38.9709C16.8777 38.9709 16.8981 39.0118 16.9595 38.9709C16.6322 39.0118 16.8367 38.6027 16.5299 38.6231C16.4276 37.8662 16.1616 37.1911 15.9775 36.4137C16.0389 36.5365 16.3253 36.5365 16.2639 36.3933L16.0184 36.291L16.1003 36.2501C16.1003 36.2501 15.8343 36.0864 15.7525 36.2092C15.016 34.3271 15.2411 32.2813 14.7092 30.3992C14.7501 29.9082 14.4637 29.2945 14.2796 28.824C14.3818 27.2692 14.4228 25.8781 13.7886 24.4666C13.7886 24.4666 14.6682 24.4666 15.016 25.0189L14.9342 25.203Z" fill="white"/>
<path d="M50.9801 24.8556C50.796 24.8761 50.6937 25.0398 50.4891 24.8556C50.6528 24.8556 50.8369 24.7943 50.9801 24.8556Z" fill="white"/>
<path d="M48.5668 29.173C48.5668 29.173 48.4847 29.2346 48.4641 29.2346C48.4641 29.173 48.3204 29.1114 48.4231 29.0703C48.4231 29.1319 48.5052 29.1319 48.5668 29.173Z" fill="white"/>
<path d="M48.3003 30.3182C48.1571 30.2773 48.0753 30.0114 48.0753 29.8682L48.3003 30.3182Z" fill="white"/>
<path d="M47.5235 31.3209C47.3798 31.403 47.3182 31.362 47.3387 31.2388C47.4209 31.2388 47.4619 31.2798 47.5235 31.3209Z" fill="white"/>
<path d="M47.8511 31.4633C47.8511 31.4633 47.7485 31.5865 47.6458 31.6275C47.769 31.6275 47.6047 31.4017 47.8511 31.4633Z" fill="white"/>
<path d="M47.0526 33.7544C47.0526 33.7544 47.1553 33.9597 46.991 33.9802C47.1142 33.9391 46.8473 33.6722 47.0526 33.7544Z" fill="white"/>
<path d="M47.094 34.8794C47.094 34.8794 47.0529 34.9205 47.094 34.982C47.0118 35.0436 46.9092 34.941 46.9092 34.8999H47.094V34.8794Z" fill="white"/>
<path d="M35.9437 42.6536L36.0669 42.592L36.0464 42.7358L35.9437 42.6536Z" fill="white"/>
<path d="M27.0658 42.6743C26.9426 42.7769 26.9837 42.5305 26.9631 42.51C27.0658 42.51 26.9221 42.6948 27.0658 42.6743Z" fill="white"/>
<path d="M22.2784 43.4104H22.3194V43.7173L22.2784 43.4104Z" fill="white"/>
<path d="M33.2849 2.04552C33.2233 1.88128 33.018 2.12765 33.1617 1.94287C33.2849 1.9634 33.367 1.98393 33.2849 2.04552Z" fill="white"/>
<path d="M33.1208 43.2673C32.3434 42.7763 33.1208 42.1216 32.6298 41.5897C32.5889 41.5284 33.0594 41.5898 32.9571 41.467C32.3434 40.9351 32.7116 40.1168 33.1821 39.4826L33.3049 39.5235C33.3867 39.4008 32.998 39.2576 33.0389 39.1144C33.1208 39.1144 33.1617 39.1553 33.264 39.1144C33.0185 39.0735 33.1617 38.8894 32.9776 38.828C33.0799 38.7871 33.264 38.7871 33.3663 38.7257L33.1003 38.6439C32.4457 38.4393 33.1412 38.1529 32.8139 37.8665C32.8753 37.8665 32.9367 37.9074 32.998 37.8665C32.6093 37.4164 32.6707 36.8641 32.5275 36.3526C32.6298 36.3526 32.7935 36.3935 32.9162 36.3526C32.6298 36.3322 32.548 36.1685 32.4866 36.0458C32.7935 35.9844 32.2206 35.8207 32.3843 35.6571H32.4457C32.1388 35.5548 32.6298 35.4934 32.2616 35.4116L32.4866 35.3298C32.057 35.2684 32.7116 35.1661 32.4866 35.0638H32.4048C32.3025 34.982 32.507 34.9206 32.4457 34.8388H32.4866C32.3843 34.6342 32.6093 34.5115 32.282 34.5319C32.548 34.4705 32.4048 34.716 32.773 34.6137C32.4457 33.9591 32.507 33.284 32.4866 32.6294C32.6093 32.5475 32.6503 32.5066 32.773 32.4862C32.7116 32.4248 32.7116 32.2407 32.548 32.1793C32.548 32.1998 32.7116 32.1384 32.7321 32.0975C32.8548 31.9747 32.3638 31.9747 32.5275 31.8315C32.6093 31.8929 32.7116 31.8929 32.8344 31.8929C32.5889 31.7906 32.6093 31.6269 32.5275 31.5042C32.5889 31.5247 32.6093 31.5656 32.7116 31.5451C32.4252 31.4019 32.773 31.2792 32.5889 31.1564L32.773 31.1973C32.998 30.9928 32.3843 31.136 32.507 30.9518C32.5684 30.9928 32.6503 30.9723 32.7116 30.9928C32.3638 30.8291 32.4866 30.5632 32.3638 30.3995C32.3843 30.3995 32.4457 30.3995 32.4457 30.3995C32.4048 30.2154 32.507 30.0313 32.3638 29.8471C32.4457 29.7858 32.8344 29.8676 32.7525 29.6835C32.3638 29.6835 32.5889 29.3562 32.1593 29.4789C32.2206 29.3152 32.3638 29.0698 32.2411 28.947C32.3843 29.0288 32.7116 28.8652 32.7321 29.0084L32.9571 28.9061C33.1208 28.9061 32.8957 29.0084 33.1003 28.9879C33.1003 28.9265 32.9367 28.722 32.998 28.6606C32.773 28.5379 32.3229 28.4151 32.282 28.2105C32.4252 28.3128 32.6912 28.1492 32.773 28.2105L32.0365 27.9241C32.0365 27.9241 32.3434 27.9241 32.2411 27.8218C32.1388 27.8218 32.0774 27.7809 31.9956 27.7605C32.0365 27.74 31.8933 27.4741 32.282 27.4536C32.4252 27.4332 32.3638 27.5559 32.4866 27.4945C32.4866 27.3718 32.3638 27.3718 32.3434 27.249H32.3843C32.3843 27.249 32.2206 27.0035 32.0161 27.0854C32.0161 27.1467 32.2411 27.0649 32.1388 27.1467C31.9138 27.0854 31.8524 26.9422 31.8524 26.8194C31.9138 26.8603 32.0161 26.8603 32.1184 26.8808C31.8319 26.7171 31.7297 26.533 31.6069 26.3489C31.4228 26.3489 31.9342 26.4103 31.832 26.4512C32.0774 26.2057 31.4842 25.9602 31.832 25.7556C31.8729 25.7966 31.5865 25.7556 31.6274 25.7556C31.6478 25.6329 31.9138 25.6533 31.8115 25.5715C31.9547 25.5715 31.7706 25.4692 31.7092 25.4079C31.6069 25.3669 31.791 25.4079 31.791 25.4488C31.6683 25.3465 31.4228 24.9169 31.6478 24.6714C31.5455 24.6714 31.2796 24.5282 31.3001 24.4668H31.5251C31.6683 24.4464 31.5251 24.3032 31.7092 24.2827C31.4228 24.16 31.9547 24.7532 31.7297 24.5896C31.9342 24.5486 31.3614 24.3645 31.6683 24.4054C31.6683 24.2827 31.4023 24.1804 31.6069 24.0781C31.566 24.119 31.9342 24.1804 31.9138 24.0781C31.8729 23.9145 31.8115 24.0372 31.7297 23.894L31.6274 23.8122C31.4023 23.8122 31.6478 23.669 31.4023 23.7303C31.5865 23.7303 31.2796 23.4849 31.6683 23.5053H31.9752C31.9752 23.5053 31.6683 23.403 31.5251 23.3621C31.5455 23.3621 31.6069 23.3417 31.6683 23.3417C31.2182 23.3417 31.7092 23.178 31.3614 23.0962C31.5251 22.953 31.3614 22.7279 31.6683 22.6461C31.5251 22.5234 31.3614 22.4211 31.4637 22.2983C31.5046 22.3188 31.5251 22.3597 31.6274 22.3597C31.7706 22.2779 31.6274 22.2574 31.566 22.1756C31.6274 22.1756 31.832 22.0119 31.9956 21.9301C31.8524 21.8073 31.6069 21.8483 31.4637 21.8483C31.9138 21.746 31.1773 21.5209 31.5865 21.3982C31.6478 21.4391 31.8115 21.5618 31.9138 21.4596C32.3638 21.3573 31.5865 21.255 31.791 21.0913L31.4228 21.1322C31.6478 21.0504 31.1978 20.8867 31.5865 20.9072C31.4433 20.8458 31.7092 20.7026 31.341 20.7231C31.6478 20.4571 31.1569 20.0684 31.8115 19.8843C31.7501 19.8434 31.8115 19.7411 31.6274 19.7616C31.4228 19.823 31.7706 19.8434 31.6274 19.8843C31.6274 19.8434 31.5251 19.8434 31.4637 19.8434C31.5455 19.7616 31.566 19.7002 31.8729 19.782C32.0979 19.5979 31.2591 19.5775 31.4023 19.3524C31.5455 19.3524 31.6069 19.3524 31.5865 19.2706L31.3205 19.1274C31.3819 18.9637 31.6683 19.0456 31.9138 19.0456C31.8729 18.9637 31.8729 18.8615 31.6887 18.8205L32.0161 18.7183C31.791 18.8001 31.8524 18.6569 31.791 18.616L31.8524 18.6569C31.9547 18.6569 31.8933 18.5546 31.8524 18.4932C31.6887 18.4932 31.6274 18.5955 31.5865 18.6569C31.4842 18.616 31.5046 18.5546 31.3614 18.4932C31.6069 18.4932 31.5455 18.35 31.566 18.2886C31.6274 18.2068 31.341 18.2068 31.341 18.1864C31.4637 18.1864 31.3614 18.0636 31.5455 18.125C31.5865 18.1454 31.4228 18.1864 31.5455 18.2273C31.6478 18.1864 31.8729 18.1864 31.7092 18.0841C31.5865 18.0022 31.2182 18.0841 31.3819 17.9613C31.4433 18.0022 31.5455 18.0022 31.6274 18.0432L31.7501 17.9H31.5251C31.5251 17.9 31.6069 17.9 31.6274 17.9C31.3819 17.859 31.5455 17.6954 31.2796 17.6545C31.2591 17.5931 31.4433 17.5113 31.4637 17.4499C31.6069 17.3885 31.5046 17.2658 31.3614 17.2044H31.4023C31.4023 17.2044 31.4023 17.0612 31.2591 16.9998C31.4228 16.8771 32.1184 16.9589 31.832 16.8362C31.832 16.7134 31.4228 16.652 31.2591 16.693C31.4228 16.4884 31.0341 16.2634 31.4023 16.0588C31.3205 16.0383 31.2591 16.0588 31.1978 15.9769C31.2796 15.6701 30.9318 15.3428 31.3819 15.0973C31.4842 15.1791 31.6069 15.0973 31.7297 15.0973C31.5251 15.0154 31.9342 15.0154 31.5865 14.9745C31.3819 14.9745 31.2796 14.9745 31.1978 15.0564C31.0955 14.8722 31.0955 14.6063 31.2796 14.504C31.1773 14.5449 31.1159 14.504 31.0546 14.4836C31.3819 14.4836 31.4228 14.3608 31.3205 14.2585H31.1159L31.3205 14.1767C31.3205 14.1767 30.9114 14.1358 31.0955 14.0335C31.1773 14.0335 31.2591 14.0335 31.3001 14.013C31.1364 13.9107 30.85 13.7675 31.0341 13.6448L31.3205 13.5425C31.3205 13.5425 31.1159 13.4198 31.0341 13.5016C31.2182 13.3175 31.2387 13.1947 31.4842 13.1334C30.8704 12.806 30.85 12.3151 30.8909 11.9468H31.0341C31.1773 11.865 30.7682 11.9059 30.8704 11.8241C31.0137 11.865 31.1773 11.7422 31.3614 11.8241C31.5251 11.6809 31.0955 11.64 31.0341 11.5377C30.8295 11.5377 31.1569 11.6195 30.9114 11.599C30.85 11.599 31.0546 11.3945 30.7682 11.374C30.8909 11.3331 31.0955 11.374 31.2182 11.374L31.075 11.2922C31.4228 11.1899 31.6887 11.5377 32.1184 11.4354L32.0774 11.3535C32.3843 11.2717 32.4252 11.5786 32.5275 11.3535C32.3843 11.2717 31.9547 11.1899 31.8115 11.2717C31.7297 11.0876 31.0955 11.1899 31.1364 10.9853C31.3205 10.9239 31.1773 11.149 31.4228 11.1081C31.6683 11.0058 31.2796 10.9239 31.3819 10.8217C31.2796 10.9239 30.9727 10.8217 30.9114 10.7807C31.0546 10.6785 31.1978 10.8421 31.2182 10.6989C31.0546 10.6785 30.9114 10.5353 30.7886 10.658C30.3999 10.5966 30.8909 10.5148 30.6045 10.433C30.8704 10.392 31.2387 10.5762 31.3819 10.433C31.1159 10.4534 31.0137 10.2284 30.625 10.3102C30.7068 10.2488 30.9114 10.2488 31.075 10.2898C31.2387 10.2079 30.584 10.0647 31.1159 10.0443L30.85 10.0034C30.85 10.0034 31.0136 9.94198 31.1569 9.88061C31.1569 9.79878 30.7886 9.63512 31.1978 9.63512C31.1569 9.61466 31.1773 9.43054 30.8909 9.49192C30.7272 9.61466 31.0955 9.61466 30.7068 9.67603C31.0137 9.5942 30.6659 9.51237 30.5636 9.451H30.7272C30.7272 9.451 30.7068 9.3078 30.5227 9.28734C30.6045 9.3078 30.7272 9.28734 30.7682 9.28734L30.5227 9.24643C30.3999 9.08277 30.9523 9.20551 30.8704 9.06231L31.0546 9.18505C31.0546 9.18505 31.2387 9.10322 31.1569 9.04185C30.9318 9.02139 30.6659 8.96002 30.5022 8.93956C30.3999 8.85773 30.7477 8.89865 30.5227 8.81682L30.7886 8.91911C30.7886 8.91911 31.1569 8.83728 31.1364 8.73499C31.0546 8.65316 30.7477 8.55087 30.625 8.65316C30.625 8.59179 30.7477 8.50996 30.9114 8.55087C30.8295 8.42813 30.6863 8.55087 30.5431 8.44858C30.6863 8.40767 30.8909 8.26447 31.1159 8.16218L31.4842 8.28492V8.20309C31.791 8.30538 31.7092 8.14172 32.0161 8.20309C32.057 8.14172 31.9547 8.08035 31.8729 8.03943C31.3819 8.20309 31.1978 7.85532 30.7477 7.91669C30.625 7.71211 31.8524 7.77349 31.1364 7.54845C31.0137 7.58937 30.6659 7.48708 30.8091 7.60983C30.85 7.46662 30.359 7.528 30.5431 7.36434C30.7272 7.48708 30.9932 7.24159 31.2796 7.40525C31.1364 7.40525 31.1569 7.50754 31.2182 7.52799C31.3819 7.46662 31.6683 7.528 31.6683 7.40525C31.6274 7.32342 31.6069 7.20068 31.3819 7.22113C31.1159 7.22113 31.4023 7.34388 31.1569 7.30296C31.075 7.1393 31.4637 7.11884 30.9932 7.03701C31.0341 7.1393 30.7682 7.15976 30.584 7.15976L30.4818 7.03701H30.6454C30.7682 6.87335 30.3386 6.9961 30.3795 6.81198L30.7272 6.73015C31.0137 6.77107 30.6045 6.9961 31.075 6.97564C31.075 6.8529 30.85 6.81198 30.9727 6.68924C31.0137 6.70969 31.0341 6.75061 31.075 6.77107C31.075 6.73015 31.7297 6.68924 31.3614 6.50512C31.2182 6.42329 31.1978 6.48466 31.0136 6.48466C30.9523 6.28009 30.7682 6.21871 30.7477 6.09597C31.0955 6.11643 30.7886 5.87094 31.1364 6.01414C30.9318 6.07551 30.9523 6.36192 31.2796 6.44375C31.6887 6.36192 31.2182 6.60741 31.6478 6.64832C31.6478 6.48466 32.057 6.50512 32.3229 6.4642C32.3229 6.42329 32.2206 6.38237 32.1797 6.34146C31.9342 6.34146 31.9342 6.38237 31.6683 6.38237C31.7297 6.19826 31.5865 6.0346 31.3614 5.93231C31.4842 5.87094 31.7297 5.89139 31.7501 5.95277C31.6683 5.74819 31.7092 5.52316 31.791 5.31858C31.3819 5.44133 31.6887 5.09355 31.3614 5.17538C31.2796 5.27767 30.9727 5.37996 30.7886 5.31858C30.8091 5.25721 30.9727 5.31858 31.0546 5.29813C30.8295 5.2163 31.4023 5.17538 31.0546 5.07309C31.1773 5.25721 31.5455 5.11401 31.8729 5.15492C31.6887 5.01172 32.0979 5.15492 32.0979 5.03218C31.9138 4.88898 31.7706 4.72532 31.7092 4.56166C32.0161 4.37754 31.7092 4.07068 31.7092 3.90702C31.8729 3.82519 32.2411 3.88656 32.3025 3.78427C32.3025 3.66153 31.9138 3.8661 32.0774 3.70244H32.1593C32.1593 3.70244 32.4048 3.41604 31.8933 3.35466L32.282 3.41604C32.282 3.41604 32.2206 3.35466 32.1797 3.33421C32.3025 3.33421 32.4252 3.29329 32.507 3.33421C32.773 3.23192 32.4661 3.10917 32.4457 3.00689L32.2206 3.08872C32.0365 2.88414 32.2616 2.7614 32.1797 2.57728H32.4048L32.2616 2.47499C32.4866 2.49545 32.6298 2.39316 32.4457 2.33179L32.998 2.61819C32.8548 2.70002 32.7321 2.53636 32.507 2.57728C32.3025 2.61819 32.3638 2.80231 32.5889 2.82277C32.6093 2.7614 32.5684 2.7614 32.4866 2.70002C32.7935 2.67957 32.7935 2.78185 32.998 2.82277C32.998 2.78185 33.0799 2.74094 32.998 2.72048C33.1617 2.78185 33.1821 2.86368 33.1821 2.96597C33.0594 2.88414 32.9776 3.00689 32.8957 2.96597C33.1821 2.96597 33.264 3.08872 33.1821 3.23192C32.8548 3.33421 33.3867 3.49787 33.3049 3.66153C33.0185 3.60015 32.7935 3.51832 32.6912 3.41604C32.548 3.51832 32.6912 3.53878 32.548 3.64107C32.7525 3.68198 33.0799 3.7229 33.2026 3.8661H32.998C33.1003 3.98885 33.4072 3.98885 33.3458 4.15251C33.2435 4.41845 33.2435 4.6844 33.2231 4.88898H33.0185C33.4685 5.01172 33.1821 5.27767 33.3867 5.42087C33.1821 5.68682 33.5913 5.97322 33.2231 6.11643C33.3867 6.56649 33.5299 6.97564 33.4686 7.44617L33.1617 7.36434C33.3867 7.44617 32.998 7.42571 33.0389 7.50754C33.2844 7.40525 33.3458 7.63028 33.5299 7.69166C33.3049 7.89623 33.5504 8.18264 33.755 8.36675H33.5504C33.9391 8.57133 33.5913 8.79636 33.5504 9.02139C33.4686 9.04185 33.264 9.08277 33.2844 9.1646C33.6118 9.28734 33.5913 9.34871 33.7959 9.55329C33.7959 9.69649 33.714 9.92152 33.5913 10.0443C34.0618 10.5557 33.755 11.0876 34.0414 11.6195L33.7959 11.6604C34.3073 12.1719 33.8368 12.806 34.1027 13.2561L33.6936 13.2152C33.5708 13.3584 33.7959 13.522 34.1027 13.5016C33.98 13.6448 34.3073 13.8494 33.9595 13.9312C33.8777 14.0744 34.1436 14.1153 34.205 14.2176C34.0414 14.504 34.0823 14.6063 34.1641 14.8722V14.8109C34.1641 14.8109 33.9186 14.77 33.8982 14.8518C34.0209 14.9541 33.7959 15.22 34.2869 15.1177C34.0004 15.4041 34.5119 15.7928 34.1232 16.0588C34.2664 16.0383 34.2868 16.0997 34.3687 16.1406C34.3687 16.3861 34.1027 16.652 34.3278 16.8566C34.2664 16.8975 34.1027 16.7952 34.0823 16.8975C34.1436 16.9589 34.2664 16.8975 34.3278 16.9794C34.5733 17.3885 34.0618 17.7977 34.1232 18.1659C34.3891 18.8205 34.2459 19.5161 34.3073 20.1298H34.205C34.5937 20.3344 33.8163 20.6208 34.3891 20.7845C34.2869 20.8254 34.3482 20.9686 34.1436 20.9277C34.4096 21.0913 33.8982 21.3982 34.2255 21.6437C34.2255 21.6232 34.2255 21.6028 34.1641 21.5823C33.9391 21.8278 34.2459 22.0528 34.0414 22.2983C34.0004 22.2779 33.9595 22.2165 33.8572 22.2165C33.6731 22.3188 34.2869 22.462 33.7959 22.5029C33.7959 22.5643 34.0414 22.5438 34.0209 22.5029C33.8368 23.0757 34.1436 23.669 34.2459 24.2622C33.9595 24.6918 33.4276 24.2827 33.7959 24.6305C33.6936 24.6509 33.98 24.6305 33.8777 24.6509C34.0209 24.7737 33.3458 24.8555 33.5913 24.9373C33.8777 24.8964 33.755 24.9987 33.9391 24.9987C33.755 25.2647 33.489 25.3056 33.714 25.5101H33.5504C33.98 25.7352 33.755 26.0011 34.2664 26.2057C34.3482 27.515 34.6346 28.7833 34.696 30.0722C34.5937 31.3405 34.8187 32.5884 34.5528 33.8773C34.1436 34.1841 34.1641 34.2046 34.3278 34.5319C34.2664 34.5319 34.2459 34.491 34.1846 34.5319C34.5119 34.5319 34.2255 34.7569 34.5323 34.7979C34.471 35.2684 34.5528 35.7184 34.5733 36.2094C34.5323 36.1276 34.2664 36.0867 34.2869 36.189L34.4914 36.2913H34.3891C34.3891 36.2913 34.5937 36.4345 34.7165 36.3731C35.0029 37.6005 34.3278 38.828 34.4096 40.035C34.2664 40.3214 34.4096 40.7305 34.471 41.0374C34.0209 41.958 33.6527 42.7967 33.98 43.7378C33.98 43.7378 33.1208 43.615 32.9162 43.2264L33.1208 43.2673Z" fill="white"/>
<path d="M33.3253 2.22974C33.1617 2.27065 33.0594 2.37294 32.8344 2.29111C32.998 2.29111 33.1617 2.22974 33.3253 2.22974Z" fill="white"/>
<path d="M31.5873 5.11457C31.5873 5.11457 31.5257 5.15563 31.4846 5.15563C31.4846 5.11457 31.3204 5.09404 31.423 5.05298C31.423 5.09404 31.5052 5.07351 31.5873 5.09404V5.11457Z" fill="white"/>
<path d="M31.4842 5.8304C31.341 5.8304 31.2182 5.66674 31.1978 5.56445L31.4842 5.8304Z" fill="white"/>
<path d="M30.871 6.52617C30.7478 6.58776 30.6657 6.56723 30.6862 6.48511C30.7684 6.48511 30.8094 6.50564 30.871 6.52617Z" fill="white"/>
<path d="M31.2188 6.56616C31.2188 6.56616 31.1367 6.64828 31.0546 6.68934C31.1777 6.68934 30.9724 6.56616 31.2188 6.56616Z" fill="white"/>
<path d="M30.7891 8.05966C30.7891 8.05966 30.9328 8.18285 30.7686 8.20338C30.8917 8.16232 30.5838 8.03913 30.7891 8.05966Z" fill="white"/>
<path d="M31.0142 8.73438C31.0142 8.73438 30.9732 8.77544 31.0142 8.79597C30.9527 8.83703 30.8295 8.79597 30.8295 8.75491H31.0142V8.73438Z" fill="white"/>
<path d="M31.6071 21.296L31.5455 21.2139L31.6892 21.2344L31.6071 21.296Z" fill="white"/>
<path d="M31.6077 26.7988C31.6077 26.7988 31.464 26.8604 31.4435 26.8604C31.4435 26.7988 31.6283 26.881 31.6077 26.7988Z" fill="white"/>
<path d="M32.3638 29.7655V29.7246L32.6706 29.7451L32.3638 29.7655Z" fill="white"/>
<path d="M47.0115 44.1067C47.2168 44.2093 47.1141 43.8398 47.1962 44.1067C47.0936 44.1683 47.0115 44.2093 47.0115 44.1067Z" fill="white"/>
<path d="M32.323 2.63901C33.0799 3.33456 32.2821 4.19378 32.7526 4.95071C32.7935 5.03254 32.323 4.93025 32.4253 5.11437C32.9776 5.83038 32.6912 6.93508 32.2412 7.83522L32.1184 7.7943C32.0366 7.95796 32.4457 8.14208 32.3844 8.3262C32.3025 8.3262 32.2616 8.26482 32.1593 8.3262C32.4048 8.36711 32.2821 8.63306 32.4662 8.71489C32.3639 8.79672 32.1798 8.79672 32.0775 8.89901L32.3639 8.98084C33.0186 9.22633 32.3639 9.65593 32.7321 10.0242C32.6708 10.0242 32.6094 9.98325 32.548 10.0242C32.9981 10.597 32.9981 11.3539 33.2231 12.029C33.1208 12.029 32.9367 12.029 32.8344 12.0699C33.1208 12.0699 33.2027 12.2745 33.305 12.4382C33.0186 12.5609 33.6323 12.7041 33.5095 12.9291H33.4482C33.7755 13.0314 33.305 13.1746 33.7141 13.236L33.5095 13.3792C33.9391 13.3792 33.3459 13.6452 33.5709 13.727H33.6527C33.7755 13.8088 33.5709 13.9111 33.6527 14.0134H33.6118C33.7755 14.2793 33.5709 14.4635 33.8778 14.4021C33.6323 14.5453 33.7141 14.177 33.3663 14.4021C33.8369 15.1999 34.0823 16.0591 34.3074 16.9184C34.2051 17.0616 34.1846 17.1229 34.0823 17.1843C34.1642 17.2457 34.2665 17.4707 34.4506 17.4912C34.4506 17.4707 34.3074 17.5934 34.3278 17.6548C34.2665 17.8594 34.737 17.6957 34.6552 17.9003C34.5529 17.8594 34.4301 17.9003 34.3278 17.9412C34.6142 17.9821 34.6552 18.1867 34.7984 18.3095C34.737 18.3095 34.6961 18.289 34.5938 18.3095C34.9416 18.3708 34.6756 18.6572 34.9006 18.7391H34.6961C34.5938 19.1073 35.0848 18.6572 35.0438 18.9436C34.962 18.9232 34.9006 18.9641 34.8393 18.9846C35.228 19.0459 35.3303 19.3937 35.5348 19.5165C35.5144 19.5165 35.453 19.5369 35.453 19.5369C35.6167 19.721 35.6371 19.987 35.9031 20.1302C35.8826 20.2529 35.4939 20.3552 35.678 20.5393C35.9849 20.3348 36.0258 20.8257 36.3122 20.4575C36.394 20.6621 36.4963 21.0099 36.6804 21.0303C36.4963 21.0303 36.3736 21.3985 36.2508 21.2758L36.1486 21.5213C36.0054 21.6031 36.1076 21.3781 35.9644 21.5213C36.0463 21.5827 36.3327 21.7054 36.3327 21.8077C36.6191 21.8077 37.0487 21.6236 37.2328 21.8077C37.0487 21.8077 36.9669 22.1555 36.8646 22.135C37.1305 22.0736 37.3965 21.9714 37.6624 21.8691C37.7442 21.91 37.4578 22.0941 37.6215 22.1146C37.6829 22.0327 37.7647 22.0327 37.8465 21.9918C37.8465 22.0532 38.1738 22.1555 37.9488 22.4623C37.8874 22.6055 37.7852 22.4214 37.7852 22.5851C37.9079 22.6874 37.9897 22.5851 38.1329 22.7078V22.7487C38.1329 22.8715 38.4398 22.8306 38.4807 22.5851C38.4398 22.5237 38.358 22.7897 38.358 22.626C38.5421 22.5033 38.7057 22.5851 38.8489 22.626C38.7671 22.6465 38.7262 22.7283 38.6444 22.8101C38.9921 22.6874 39.2376 22.7283 39.4831 22.7283C39.5854 22.5851 39.2376 22.9533 39.2581 22.851C39.4013 23.2193 39.9332 22.8919 39.9946 23.3011C39.9332 23.3011 40.0969 23.0761 40.0764 23.117C40.1991 23.1988 40.0764 23.4238 40.1991 23.3625C40.1378 23.5057 40.3219 23.3625 40.4446 23.3625C40.5265 23.2806 40.4446 23.4443 40.3628 23.4238C40.5469 23.3625 41.0993 23.342 41.3038 23.6898C41.3243 23.5875 41.6107 23.3829 41.6721 23.4238L41.5698 23.6489C41.5698 23.7921 41.7948 23.6898 41.7539 23.8944C41.9789 23.6693 41.1197 23.9762 41.3857 23.8125C41.3857 24.0171 41.7744 23.5261 41.6312 23.8125C41.7744 23.833 41.9789 23.6284 42.0403 23.8739C42.0199 23.833 41.8357 24.1603 41.9585 24.1603C42.1631 24.1603 42.0403 24.0785 42.2244 24.0376L42.3472 23.9762C42.4086 23.7512 42.5108 24.058 42.5108 23.7921C42.5108 23.9762 42.8177 23.7512 42.7154 24.1194L42.6336 24.4058C42.6336 24.4058 42.8382 24.1194 42.9404 23.9966C42.9404 24.0171 42.9404 24.0785 42.9404 24.1399C43.0427 23.6898 43.145 24.2012 43.3087 23.8739C43.4723 24.058 43.7587 23.9557 43.8201 24.2626C43.9633 24.1399 44.3316 24.0376 44.5566 24.1399C44.4748 24.1808 44.4134 24.1808 44.3725 24.2831C44.4952 24.4263 44.577 24.3035 44.7612 24.2421C44.6998 24.3035 44.9862 24.5081 45.0476 24.6717C45.334 24.549 45.4363 24.2831 45.559 24.1399C45.4363 24.5899 46.5001 23.8534 46.4387 24.2626C46.2955 24.324 45.9068 24.4876 45.9682 24.6104C45.7022 25.0809 46.7046 24.2831 46.8069 24.5081L47.1547 24.1194C47.0115 24.3649 48.0344 23.8534 47.482 24.2626C47.8093 24.1194 47.748 24.3649 48.2594 23.9762C48.3821 24.2831 50.3256 23.6489 49.3027 24.3853C49.5278 24.3035 49.5891 24.3853 49.9778 24.1603C50.3051 23.9353 49.4459 24.3444 49.7119 24.1808C49.8142 24.1808 50.0597 24.0376 50.1824 23.9966C50.1824 24.0785 50.2642 24.0989 49.3846 24.4672C49.18 24.7127 51.2871 23.7102 51.5121 23.833C51.0825 24.0171 50.9802 24.0785 51.1848 24.0376L52.2077 23.7102C52.4123 23.7512 51.4099 24.1194 50.6734 24.4263C50.9598 24.3649 51.1234 24.3649 51.7781 24.1194L50.9802 24.5081C51.5735 24.2217 51.594 24.3035 51.8804 24.2217L51.594 24.3035C51.2871 24.4263 51.6758 24.3444 51.8804 24.3035C52.3918 24.0989 52.3918 24.0376 52.4327 23.9966L53.517 23.6898C53.0055 23.8739 52.9851 23.9148 52.9851 23.9557L52.76 24.0989C52.4327 24.2626 53.3738 23.9353 53.2919 23.9762C52.8419 24.1399 52.9851 24.1603 52.4941 24.3035C52.3918 24.3035 53.026 24.0785 52.7191 24.1603C52.2895 24.3444 51.5531 24.5899 51.9213 24.5285C52.1872 24.4876 53.5783 23.9353 52.7805 24.324C52.6578 24.324 52.3509 24.4467 52.1054 24.4876L51.4508 24.7945L52.1668 24.5695L51.7985 24.6922C52.4736 24.5081 51.6553 24.8968 52.3918 24.6922C52.31 24.774 51.6349 25.04 51.4508 25.1423H51.4098C50.878 25.3673 50.9393 25.4287 51.2257 25.4082H51.103C50.9802 25.5105 50.878 25.6333 51.103 25.6333C50.4483 25.8992 48.8731 26.1856 49.3846 26.1651C49.2414 26.2879 50.0597 26.1856 50.4893 26.0629C49.7528 26.4311 50.0187 26.697 48.955 27.0653C49.0777 27.1062 49.2209 27.0653 49.18 27.1471C48.4435 27.5972 48.1776 28.2518 47.1547 28.4973C47.2161 28.3336 46.9092 28.4155 46.766 28.3746C46.8887 28.5382 46.4182 28.4155 46.766 28.5791C46.991 28.6405 47.0933 28.7019 47.3183 28.5791C47.1342 28.9065 46.6228 29.377 46.3568 29.4384C46.5 29.4179 46.5 29.4997 46.5 29.602C46.2546 29.377 46.0091 29.602 46.0295 29.7452L46.1727 29.8884L45.9682 29.827C45.9682 29.827 46.2546 30.1339 46.0295 30.093C45.9682 30.0521 45.9068 30.0112 45.8454 29.9907C45.8863 30.1953 45.9886 30.4817 45.784 30.5021L45.4976 30.4203C45.4976 30.4203 45.5999 30.6658 45.7022 30.6249C45.4363 30.7272 45.3544 30.8295 45.0885 30.7681C45.3953 31.4227 45.1499 31.8728 44.9862 32.2615L44.843 32.2001C44.6589 32.2615 45.068 32.3433 44.9453 32.3842C44.8225 32.3024 44.618 32.3638 44.4952 32.2001C44.2906 32.3024 44.6589 32.507 44.6793 32.6093C44.8635 32.6911 44.5975 32.4865 44.8225 32.6093C44.8839 32.6502 44.5975 32.7729 44.8635 32.8752C44.7407 32.8752 44.5361 32.7934 44.4338 32.732L44.5566 32.8752C44.1884 32.8957 44.0451 32.4047 43.5951 32.4047C43.5951 32.4456 43.5951 32.4865 43.5951 32.5274C43.2678 32.5274 43.3496 32.1387 43.1655 32.3842C43.2882 32.5479 43.6769 32.7525 43.8201 32.6911C43.8406 32.9366 44.4748 32.9775 44.4134 33.2025C44.2293 33.223 44.4134 33.0184 44.1679 32.998C43.9019 33.0593 44.2497 33.2434 44.1679 33.3253C44.3111 33.2434 44.577 33.4071 44.618 33.4685C44.4543 33.5503 44.352 33.3457 44.2906 33.4889C44.4543 33.5503 44.5566 33.714 44.6998 33.6117C45.068 33.7344 44.5566 33.7549 44.843 33.8776C44.5566 33.8776 44.2497 33.6117 44.0861 33.7753C44.352 33.7753 44.4134 34.0413 44.8021 34.0004C44.7202 34.0617 44.5157 34.0413 44.352 33.9799C44.1884 34.0617 44.8225 34.2663 44.2906 34.2459L44.5566 34.3072L44.2497 34.4095C44.2497 34.4095 44.5975 34.6959 44.1884 34.6959C44.2293 34.7164 44.1884 34.921 44.4952 34.8391C44.6793 34.7164 44.2906 34.6959 44.6793 34.6346C44.3725 34.7164 44.6998 34.7982 44.8021 34.88H44.6384C44.6384 34.88 44.6384 35.0233 44.843 35.0437C44.7407 35.0233 44.6384 35.0437 44.618 35.0642L44.8635 35.1051C45.0067 35.2687 44.4543 35.1665 44.5361 35.3301L44.3316 35.2074C44.3316 35.2074 44.1679 35.3097 44.2497 35.3915L44.9044 35.4529C45.0067 35.5347 44.6589 35.5142 44.9044 35.5756L44.6384 35.4938C44.6384 35.4938 44.2906 35.6165 44.3111 35.7393C44.3929 35.8211 44.7202 35.8825 44.8225 35.7393C44.8225 35.8006 44.6998 35.9029 44.5566 35.8825C44.6384 36.0052 44.7816 35.8211 44.9248 35.9234C44.7816 36.0052 44.618 36.1893 44.4338 36.3325L44.0452 36.2712V36.3734C43.7383 36.3121 43.861 36.4757 43.5337 36.4757C43.5133 36.5576 43.636 36.6189 43.7178 36.6598C44.1474 36.3734 44.4338 36.7008 44.843 36.5371C45.0271 36.7212 43.8201 36.9872 44.5566 37.0281C44.6589 36.9463 45.0067 36.9667 44.8635 36.8644C44.8635 37.0281 45.3135 36.8235 45.1908 37.0485C44.9657 36.9872 44.8021 37.3349 44.4748 37.2327C44.618 37.1917 44.5361 37.0895 44.4952 37.069C44.352 37.1917 44.0451 37.1917 44.1065 37.3554C44.1884 37.4372 44.2497 37.56 44.4543 37.4781C44.6998 37.3963 44.3725 37.3349 44.6384 37.3145C44.8021 37.4577 44.4338 37.6418 44.9044 37.5395C44.8225 37.4372 45.068 37.3145 45.2317 37.2531L45.3749 37.3349L45.2112 37.3759C45.1703 37.6214 45.5181 37.3145 45.559 37.5395L45.2726 37.7646C44.9862 37.8259 45.2726 37.4168 44.843 37.6418C44.8839 37.785 45.1089 37.7441 45.0476 37.9078C45.0067 37.9078 44.9657 37.8668 44.9248 37.8464C44.9248 37.9078 44.3725 38.1942 44.7816 38.2555C44.9657 38.2965 44.9453 38.2146 45.1089 38.1328C45.2726 38.3169 45.4567 38.2965 45.559 38.4192C45.2317 38.5419 45.6408 38.6647 45.2521 38.6851C45.3953 38.5215 45.2317 38.2351 44.8839 38.2965C44.5566 38.5419 44.843 38.1123 44.4543 38.2146C44.5157 38.3987 44.1474 38.5624 43.9224 38.7056C43.9224 38.767 44.0656 38.767 44.1065 38.7874C44.352 38.7056 44.3111 38.6442 44.5361 38.5215C44.577 38.7465 44.8021 38.8897 45.068 38.8693C44.9862 38.992 44.7612 39.0943 44.6998 39.0329C44.8839 39.2375 44.9862 39.5034 45.068 39.7489C45.334 39.4012 45.2931 39.9331 45.5385 39.6671C45.5385 39.5034 45.7227 39.258 45.9272 39.217C45.9477 39.2989 45.7636 39.2989 45.7227 39.3807C45.9682 39.3398 45.4976 39.708 45.8659 39.6057C45.6204 39.483 45.4158 39.8308 45.1294 39.974C45.3749 40.0353 44.9248 40.0967 45.0271 40.2399C45.2726 40.3013 45.4976 40.4036 45.6817 40.5263C45.5795 40.8946 46.05 41.0378 46.1932 41.2014C46.1523 41.3855 45.8045 41.5492 45.8454 41.6924C45.9477 41.7947 46.0704 41.3651 46.0909 41.631H46.0295C46.1318 41.6515 46.1114 42.1425 46.541 41.8356L46.1932 42.0402C46.1932 42.0402 46.2955 42.0606 46.3364 42.0606C46.2341 42.1425 46.1932 42.2652 46.0704 42.2652C45.9682 42.5516 46.2955 42.4698 46.4182 42.5721L46.5205 42.347C46.8274 42.4084 46.7865 42.6948 47.0115 42.8176L46.8478 42.9812H47.0524C46.8683 43.1244 46.8683 43.329 47.0524 43.2472L46.3773 43.3699C46.3773 43.1858 46.6637 43.2676 46.766 43.0631C46.8683 42.8789 46.6637 42.7562 46.4796 42.8789C46.5205 42.9608 46.5614 42.9403 46.6637 42.9198C46.4591 43.1653 46.3773 43.063 46.1727 43.1449C46.2136 43.1653 46.1932 43.2881 46.275 43.2267C46.0909 43.2676 46.0091 43.2267 45.8863 43.104C46.05 43.104 45.9886 42.9198 46.0909 42.8994C45.8863 43.0835 45.7022 43.0221 45.6408 42.8176C45.784 42.4902 45.2521 42.6744 45.1499 42.4289C45.4363 42.3266 45.6817 42.2652 45.8454 42.2857C45.8454 42.0811 45.7431 42.1629 45.7636 41.9788C45.559 42.0606 45.2726 42.2243 45.0476 42.1629L45.2112 42.0197C45.0271 41.9583 44.7816 42.1425 44.6998 41.9379C44.5566 41.5697 44.3111 41.2628 44.1884 41.0173L44.352 40.8946C43.9019 40.9968 43.9224 40.5263 43.6565 40.4649C43.6155 40.0558 43.1041 39.8512 43.3087 39.5239C42.8382 39.0329 42.5313 38.5215 42.3472 37.8464H42.6745C42.429 37.8259 42.8177 37.7236 42.7359 37.6418C42.5313 37.8464 42.3881 37.5804 42.204 37.5395C42.3472 37.1713 41.9994 36.8644 41.7334 36.6189L41.938 36.578C41.5084 36.353 41.8153 35.9438 41.8357 35.5961C41.9176 35.5551 42.1017 35.4733 42.0608 35.371C41.6925 35.2074 41.713 35.1051 41.5289 34.8187C41.5289 34.6141 41.6312 34.2663 41.7744 34.0617C41.5289 33.6526 41.5903 33.2434 41.6721 32.8343C41.7539 32.4251 41.8153 32.016 41.8562 31.5864H42.1017C41.9994 31.1568 42.1631 30.7067 42.3676 30.318C42.6131 29.9498 42.8586 29.6225 42.9404 29.2747L43.2678 29.5611C43.4928 29.4588 43.4314 29.0906 43.1655 28.9678C43.3701 28.8451 43.3087 28.4155 43.6769 28.5178C43.8815 28.395 43.6769 28.1904 43.7587 28.0268C43.9838 27.8631 43.9838 27.9245 44.0247 27.8836C44.0656 27.8427 44.0656 27.8017 44.0452 27.7404H44.0042C44.0042 27.7404 44.2497 27.8836 44.2906 27.8631C44.2088 27.7813 44.5361 27.7404 43.9838 27.6381C44.4134 27.6176 43.8201 27.4949 44.4338 27.4131C44.2293 27.4131 44.2088 27.4131 44.0656 27.4131C44.0861 27.3926 44.6384 27.2289 44.2906 27.2699C44.4338 27.2289 44.6998 27.188 44.7612 27.1676L44.3111 27.2699C43.861 27.3517 45.068 26.963 45.0885 26.9016H44.9657C44.4543 27.0653 44.4748 27.0039 44.2293 27.0448L44.3929 26.9425C43.7587 27.2903 44.7407 26.5948 43.9224 27.1062C44.0247 27.0244 43.9224 27.0653 44.1474 26.8812C43.8201 27.1267 44.1884 26.6357 43.7997 26.9425C43.7997 26.9425 43.7997 26.9425 43.861 26.9016C43.9019 26.697 43.6565 26.963 43.636 26.7789C43.6565 26.738 43.6974 26.7175 43.7383 26.6152C43.7383 26.4311 43.4928 27.0039 43.6155 26.5334C43.6155 26.5334 43.5746 26.7789 43.5746 26.7584C42.8791 26.472 41.8562 26.6152 40.9765 26.4516C40.4446 26.0015 41.1811 25.6742 40.5878 25.8787C40.5878 25.7765 40.506 26.0424 40.5265 25.9401C40.3014 25.981 40.4242 25.3264 40.2196 25.5105C40.1582 25.8174 40.0764 25.6333 40.015 25.7969C39.7286 25.4696 39.7695 25.1832 39.3808 25.265L39.4627 25.1423C38.9308 25.4082 38.6853 24.9786 38.1534 25.2446C37.1919 24.774 36.394 24.1399 35.5553 23.4852C34.8393 22.7487 34.0619 22.0123 33.5709 21.1326C32.5889 19.3733 31.8116 17.6344 31.5865 15.7114C31.8525 15.1795 31.8525 15.159 31.5865 14.7294C31.6479 14.7294 31.6684 14.7703 31.7297 14.7294C31.4024 14.7703 31.6479 14.4021 31.3206 14.4225C31.2592 13.727 31.0342 13.1133 30.9319 12.4177C30.9728 12.52 31.2592 12.5404 31.2183 12.4177L30.9933 12.3154L31.0751 12.2745C31.0751 12.2745 30.8501 12.1108 30.7478 12.2131C30.5227 11.3539 30.5227 10.4742 30.5637 9.59456C30.625 8.71489 30.7682 7.87613 30.6864 7.01691C30.8091 6.60776 30.6659 6.03496 30.6046 5.60535C31.0751 4.31652 31.4638 3.19136 31.1978 1.88208C31.1978 1.88208 32.0571 2.08665 32.2412 2.63901H32.323Z" fill="white"/>
<path d="M46.7865 43.9424C46.8683 43.7787 46.8274 43.615 47.0729 43.5332C46.9706 43.6559 46.9092 43.8401 46.7865 43.9424Z" fill="white"/>
<path d="M45.6407 39.913C45.6407 39.913 45.6613 39.8308 45.6818 39.8103C45.7229 39.8514 45.8666 39.8103 45.805 39.8719C45.7639 39.8514 45.7023 39.8719 45.6407 39.913Z" fill="white"/>
<path d="M45.2727 39.0945C45.4159 39.0331 45.6 39.1558 45.6819 39.2377C45.5387 39.1968 45.4159 39.1558 45.2727 39.0945Z" fill="white"/>
<path d="M45.4363 38.0927C45.5184 37.9695 45.6005 37.9695 45.6211 38.0516C45.5595 38.0927 45.4979 38.0721 45.4363 38.0927Z" fill="white"/>
<path d="M45.1089 38.174C45.1089 38.174 45.15 38.0508 45.2116 37.9893C45.0884 38.0508 45.3348 38.0919 45.1089 38.174Z" fill="white"/>
<path d="M44.9661 36.435C44.9661 36.435 44.8019 36.3529 44.9661 36.2708C44.8635 36.3323 45.192 36.4145 44.9661 36.435Z" fill="white"/>
<path d="M44.6179 35.7596C44.6179 35.7596 44.659 35.7186 44.6179 35.698C44.6795 35.6364 44.8027 35.698 44.8232 35.698L44.6385 35.7391L44.6179 35.7596Z" fill="white"/>
<path d="M46.8276 24.2633L47.0739 24.2017L46.8892 24.3454L46.8276 24.2633Z" fill="white"/>
<path d="M39.1766 22.4838C39.0534 22.5044 39.1971 22.3401 39.1971 22.3196C39.2793 22.3401 39.0739 22.4633 39.1766 22.4838Z" fill="white"/>
<path d="M36.0882 20.2937L36.1087 20.3142L35.8418 20.4785L36.0882 20.2937Z" fill="white"/>
<path d="M64.7001 34.5899C64.7001 52.2454 50.3875 66.558 32.732 66.558C15.0765 66.558 0.763925 52.2454 0.763925 34.5899C0.763925 16.9344 15.0765 2.62183 32.732 2.62183C50.3875 2.62183 64.7001 16.9344 64.7001 34.5899Z" fill="#898A8D" stroke="#6C846D" stroke-width="1.52785"/>
<path d="M32.3638 58.8319C32.6502 58.8319 32.5683 58.75 32.507 58.7091C32.4865 58.6887 32.4456 58.6682 32.4661 58.6682H32.5479L32.6297 58.7091H32.732V58.7296V58.7705L32.6911 58.8114C32.6911 58.8114 32.6502 58.8523 32.6093 58.8728C32.5479 58.8932 32.4865 58.8728 32.3842 58.8319H32.3638Z" fill="white"/>
<path d="M34.5731 58.5864C35.4323 58.1773 36.4143 57.9523 37.4576 57.85C38.46 57.6045 39.5647 57.5022 40.3626 56.8885C40.5672 56.7862 40.4444 57.3181 40.8945 57.0317C42.4697 55.8861 45.1701 54.8836 47.2772 53.7994L47.2363 53.9835C47.6455 53.7789 47.85 53.1652 48.2183 52.8993C48.2796 52.9606 48.1773 53.0834 48.341 53.1038C48.2796 52.8379 48.8934 52.4492 48.9138 52.1832C49.1184 52.1219 49.2207 52.2855 49.4866 52.1832V51.7946C49.5685 50.833 50.755 50.5262 51.1641 49.5442C51.1846 49.6261 51.1641 49.7283 51.2664 49.7079C51.9415 48.194 53.1485 46.5983 53.7622 44.9208C53.8236 45.0231 53.9464 45.1663 54.0896 45.1254C53.8645 44.9208 54.0486 44.3889 54.1919 43.9389C54.5805 43.8775 54.2328 43.0797 54.5805 42.6296L54.6215 42.691C54.4783 42.2 55.0102 42.1795 54.7647 41.7499L55.0715 41.5863C54.7237 41.2998 55.4398 41.0748 55.317 40.6861H55.2352C55.2352 40.3383 55.4602 40.2361 55.4602 39.9292H55.5216C55.6034 39.2132 55.8694 38.8654 55.542 38.8245C55.8285 38.6404 55.542 39.52 55.9921 39.2132C56.0944 36.881 56.2376 34.5284 56.0535 32.2372C56.1558 31.9712 56.1558 31.7871 56.2785 31.7257C56.1762 31.5007 56.0944 30.8665 55.8898 30.6824C55.8898 30.7642 56.033 30.4983 56.033 30.3755C56.0944 29.9255 55.6239 29.9868 55.6443 29.5163C55.7671 29.68 55.8898 29.7209 55.9921 29.6391C55.6443 29.3117 55.542 28.7799 55.3579 28.3502C55.4193 28.4116 55.4807 28.5139 55.583 28.473C55.1738 28.0638 55.4193 27.5524 55.0715 27.1842L55.317 27.2865C55.2761 26.5295 54.867 27.2046 54.7851 26.5909C54.8874 26.7136 54.9488 26.6318 55.0306 26.6318C54.5192 26.2022 54.3146 25.2816 53.9259 24.8316C53.9668 24.8316 54.0077 24.8316 54.0077 24.8316C53.6804 24.2997 53.5372 23.6246 53.0258 23.1131C52.9644 22.8472 53.4758 22.9495 53.0667 22.4176C52.7598 22.6426 52.3507 21.5379 52.187 22.0902C51.9824 21.5584 51.5119 20.8014 51.1846 20.5559C51.4505 20.6787 51.3892 20.0445 51.696 20.4127L51.6551 19.9831C51.8188 19.9218 51.8392 20.3104 51.9211 20.1059C51.7574 19.9218 51.2255 19.4308 51.1232 19.2467C50.6322 19.0625 50.039 19.0421 49.548 18.5716C49.8753 18.7148 49.7321 18.1419 49.9162 18.2647C49.5275 18.1829 49.1184 18.101 48.7092 18.0806C48.5251 17.9374 48.8729 17.8351 48.566 17.6714C48.5047 17.7533 48.3615 17.7123 48.2387 17.6919C48.1978 17.6101 47.4613 17.1191 47.625 16.7713C47.625 16.5872 47.9523 16.9759 47.85 16.6895C47.5227 16.3826 47.4 16.5053 47.0726 16.2394V16.1985C46.8885 15.9735 46.3157 15.8098 46.4589 16.178C46.6021 16.3008 46.5407 15.953 46.7044 16.2189C46.418 16.2803 45.9884 16.0348 45.6406 15.7689C45.7838 15.8098 45.8247 15.7075 45.9475 15.6666C45.3133 15.5643 44.7405 15.3597 44.1472 15.1347C44.0449 15.2779 44.5154 14.971 44.5564 15.1142C43.9836 14.4391 42.9198 14.5823 42.4697 13.9891C42.5924 13.9891 42.4083 14.2346 42.4288 14.1936C42.081 14.0095 42.2038 13.7845 41.9378 13.7436C41.9787 13.6004 41.6309 13.6413 41.365 13.6004C41.2013 13.6618 41.3241 13.5186 41.5491 13.5799C41.14 13.5799 39.7284 13.2321 38.9715 12.8435C38.9715 12.9457 38.3782 13.0685 38.1941 13.0071L38.3168 12.8025C38.1736 12.6184 37.6826 12.6593 37.7031 12.4548C37.2326 12.6184 39.3192 12.6184 38.7055 12.7003C38.6032 12.4752 37.8668 12.8639 38.0509 12.5775C37.6622 12.4957 37.253 12.6389 36.9257 12.3729C37.028 12.4343 37.2939 12.107 36.9871 12.0661C36.4347 12.0252 36.803 12.1479 36.3529 12.1684L36.0665 12.2297C36.0256 12.4548 35.5755 12.1274 35.7596 12.4138C35.7187 12.2093 34.9618 12.4138 35.0436 12.0456L35.1459 11.7592C34.9004 11.7592 34.7163 12.0456 34.5322 12.1684C34.5117 12.1479 34.4504 12.0865 34.4504 12.0252C34.389 12.4752 33.8775 11.9638 33.5707 12.2911C33.0797 12.0865 32.3023 12.2297 32.0568 11.9842C31.6681 12.1479 31.3408 12.332 30.8907 12.2502C30.9726 12.2093 31.0953 12.1888 31.1158 12.0865C30.8294 11.9638 30.768 12.0865 30.5225 12.1684C30.5634 12.0865 29.9497 11.9842 29.6224 11.8615C29.2541 12.0456 29.4178 12.2706 29.4178 12.4343C29.0087 12.0661 28.3949 12.8435 27.904 12.5775C28.0062 12.4752 28.4154 12.2297 28.0676 12.1888C27.6175 11.841 27.4539 12.7003 26.8402 12.6184L27.0652 12.9457C26.7583 12.7821 26.3287 13.3549 26.2674 12.9867C26.1241 13.1503 25.5923 13.0685 25.7764 13.3958C24.7944 13.4163 23.7511 14.3164 22.9941 14.0095C22.8919 14.1323 22.5645 14.2141 22.7077 14.3573C22.9941 14.4391 22.9328 14.0914 23.0555 14.1732C22.9532 14.2346 22.9737 14.3369 22.9737 14.3778C22.6873 14.4187 22.4623 14.5005 22.5645 14.1118C21.869 14.1936 22.2372 14.9301 21.4803 15.237C21.4394 15.0938 21.3575 15.0733 21.153 15.2165L20.9075 15.6666C20.437 15.8916 20.4779 15.5234 20.3142 15.3188C20.0892 15.5029 19.7823 15.6666 19.8028 15.9121L19.3323 15.8507C19.6596 15.8916 19.23 16.1167 19.1686 16.2394L19.23 16.1167C19.1277 16.0553 18.9026 16.3212 18.7799 16.444C18.9026 16.5463 19.2095 16.4031 19.3936 16.3212C19.3527 16.5053 19.1481 16.6076 19.0868 16.8327C18.9845 16.5872 18.6162 16.9759 18.4117 17.0782C18.1662 17.1804 18.3298 17.4464 18.2685 17.4873C18.1866 17.385 17.9411 17.7533 17.9821 17.4873C18.023 17.4055 18.2071 17.4464 18.248 17.2623C18.0639 17.3032 17.9207 17.1191 17.7775 17.4873C17.6547 17.7533 18.1457 17.8146 17.6752 18.0397C17.7366 17.8965 17.6752 17.8146 17.6957 17.6714L17.266 17.8965L17.4092 18.0806C17.4092 18.0806 17.3479 18.0397 17.307 18.0397C17.3683 18.3056 16.816 18.5716 16.9387 18.8375C16.7955 19.0216 16.4887 19.083 16.325 19.2467V19.2057C16.0591 19.3285 15.8749 19.6558 15.834 19.9218V19.8808C15.6908 19.9831 15.4658 20.2695 15.4658 20.4946C15.0975 20.6991 14.7293 20.065 14.6884 20.5764C14.4634 20.9037 14.6475 21.3129 14.8725 21.2719C14.3202 21.722 14.177 22.5812 13.5632 22.9495C13.5837 23.0927 13.6655 23.0518 13.6042 23.2563C12.9495 24.0542 12.8677 25.2612 12.0903 25.7931C12.1312 25.4862 11.8857 25.6908 11.763 25.6294C11.8448 25.9363 11.4561 25.8135 11.763 26.0385C11.9675 26.0999 12.0289 26.1613 12.2335 25.9158C12.1108 26.5295 11.8243 27.3683 11.5175 27.6342C11.6607 27.5115 11.6811 27.6342 11.7016 27.7979C11.3947 27.6547 11.1902 28.0638 11.2311 28.4321L11.4152 28.5344L11.1697 28.698C11.1902 28.8412 11.5379 28.9435 11.272 29.2095C11.1902 29.2095 11.1083 29.2095 11.047 29.2504C11.1288 29.6391 11.2311 30.1505 11.047 30.4983L10.7196 30.7438C10.7196 30.9074 10.8628 31.2143 10.9856 30.9483C10.7196 31.5621 10.6378 31.9712 10.3514 32.1349C10.8628 33.3214 10.8015 34.8762 10.8628 36.1446H10.7196C10.5969 36.4719 10.9856 36.2673 10.9038 36.5128C10.7606 36.4105 10.6174 36.7992 10.4128 36.5537C10.2696 37.0651 10.7196 37.1674 10.8424 37.4743C11.047 37.4948 10.6787 37.2288 10.9447 37.2697C11.0265 37.3106 10.9038 37.9653 11.2106 37.9857C11.1083 38.1289 10.8833 38.0676 10.7606 38.0062L10.9447 38.2926C10.6583 38.7222 10.2082 37.5357 9.83997 37.9857L9.9218 38.2721C9.65585 38.5995 9.45128 37.5561 9.47173 38.2926C9.65585 38.5995 10.1264 38.7836 10.2082 38.4767C10.3923 39.1109 10.9447 38.6608 11.047 39.3155C10.9038 39.5405 10.8833 38.7836 10.6787 38.9677C10.4742 39.3359 10.9651 39.5814 10.9447 39.8678C10.9651 39.5405 11.3334 39.7246 11.4357 39.9087C11.3947 40.277 11.1083 39.7655 11.1902 40.2361C11.3743 40.277 11.6198 40.6657 11.6402 40.2565C12.0494 40.3179 11.6402 40.768 12.0085 40.9316C11.7834 41.1566 11.272 40.6247 11.272 41.1771C11.4766 41.0339 11.8243 41.6885 12.1108 41.3203C12.1108 41.5453 11.9266 41.6272 11.7221 41.5249C11.6811 41.8522 12.4176 42.0363 11.9675 42.3227H12.254C12.213 42.4455 12.1926 42.5887 12.1108 42.7932C12.1926 43.0592 12.7449 43.4479 12.3767 43.5706C12.4585 43.632 12.704 44.1844 12.8472 43.857C12.8472 43.4479 12.479 43.5502 12.7245 43.2229C12.5608 43.5911 12.9904 43.6934 13.1745 43.8366L13.0518 43.9389C13.1541 44.0207 13.2564 44.3071 13.4405 44.3071C13.3177 44.2662 13.2359 44.348 13.2564 44.4708H13.5223C13.8496 44.8799 13.195 44.7776 13.4814 45.2072C13.3587 45.1254 13.2564 45.0436 13.1541 44.9413C13.2359 45.0027 13.0927 45.2686 13.2973 45.4323C13.5428 45.4118 13.8496 45.4323 14.0542 45.4323C14.2792 45.6164 13.911 45.6573 14.2383 45.78L13.8292 45.5959C13.8292 45.5959 13.6451 45.9846 13.8496 46.3119C14.0338 46.4756 14.5043 46.6393 14.402 46.2506C14.5043 46.4142 14.5247 46.7211 14.3202 46.6597C14.6066 46.987 14.4838 46.4756 14.7907 46.7211C14.7498 46.9257 14.8725 47.4166 14.8725 47.7849L14.3406 47.6826L14.5043 47.9076C14.0542 47.8053 14.4225 48.1736 14.0542 48.194C14.136 48.3781 14.3406 48.5009 14.5247 48.5827C14.6066 47.8667 15.4249 48.6441 15.6704 48.2349C16.1818 48.7259 15.0975 49.2783 16.1409 49.401C16.1409 49.2374 16.6319 49.2578 16.2432 49.0123C16.5091 49.3806 16.7751 48.9305 16.9796 49.4419C16.5909 49.2783 16.9183 50.0557 16.3455 49.8306C16.4887 49.7488 16.2227 49.5238 16.1204 49.4829C16.1204 49.7283 15.7522 49.7488 16.0795 50.0966C16.3045 50.2807 16.5705 50.5671 16.6932 50.3625C16.8774 50.1784 16.3864 50.0557 16.6932 50.0148C17.1228 50.3625 16.9183 50.7103 17.4092 50.5262C17.1228 50.3216 17.2456 50.0557 17.3888 49.9534C17.4911 50.0352 17.6343 50.0761 17.757 50.158L17.5729 50.2193C17.9616 50.7308 17.9207 50.117 18.3503 50.5671V51.0172C18.023 51.1399 17.757 50.3216 17.5115 50.7308C17.7979 51.0172 18.0639 50.9353 18.2685 51.2831C18.1866 51.2627 18.0843 51.1808 17.9821 51.1604C18.0843 51.2627 17.7775 51.8559 18.4526 51.9582C18.7799 52.04 18.6162 51.8764 18.739 51.7536C19.3118 52.1014 19.5573 52.081 19.9255 52.306C19.6596 52.531 20.4983 52.7765 19.9255 52.797C19.8641 52.4901 19.1072 51.9582 18.6981 52.0605C18.6162 52.531 18.3298 51.6923 17.9616 51.8968C18.3503 52.2651 18.0843 52.5719 17.9821 52.8174C18.1048 52.9197 18.2889 52.9197 18.3912 52.9402C18.5958 52.7765 18.4321 52.6742 18.5958 52.4492C19.0458 52.8583 19.5982 53.1038 19.9869 53.1038C20.0687 53.3289 19.8846 53.4925 19.68 53.3698C20.2938 53.7585 20.9689 54.1267 21.5007 54.5768C21.3166 54.004 22.1963 54.8836 22.1145 54.4336C21.8485 54.1676 21.7258 53.7585 21.9917 53.6971C22.1758 53.8403 21.8894 53.8403 21.9304 53.9835C22.2781 53.9426 22.1349 54.5154 22.5645 54.3313C21.9304 54.1676 22.2168 54.72 21.9508 54.945C22.4623 54.9859 21.8281 55.1291 22.2577 55.3542C22.7691 55.4155 23.3624 55.5383 23.8534 55.7019C24.3648 56.2134 25.4286 56.2952 25.9809 56.4793C26.2264 56.7044 25.9196 57.0112 26.2469 57.1544C26.6356 57.2567 26.0628 56.7044 26.5947 57.0112L26.5128 57.0726C26.697 57.0317 27.5153 57.584 27.8017 57.1135L27.5357 57.4408C27.5357 57.4408 27.7607 57.4408 27.863 57.4408C27.8426 57.5636 27.9449 57.7068 27.7403 57.7477C28.0472 58.1159 28.5177 57.8295 28.9268 57.9113L28.7018 57.6454C29.3973 57.5636 29.827 57.8704 30.4816 57.8704L30.4407 58.0955L30.8498 57.9727C30.7271 58.1773 31.0953 58.341 31.3204 58.1773C30.9726 58.341 30.6043 58.5251 30.2361 58.6683C29.9702 58.5046 30.5839 58.4432 30.4202 58.1978C30.277 57.9932 29.6838 57.9523 29.5406 58.1568C29.7656 58.2182 29.786 58.1568 29.9906 58.1159C30.0315 58.4432 29.6838 58.3819 29.4587 58.5455C29.5815 58.5455 29.7451 58.6683 29.786 58.5864C29.5201 58.7092 29.2746 58.6887 28.845 58.6274C29.1519 58.5455 28.7223 58.4023 28.845 58.341C28.7632 58.6069 28.354 58.6274 27.863 58.4842C27.5766 58.075 26.8811 58.4432 26.3083 58.1978C26.6151 57.9932 26.9629 57.85 27.3516 57.8295C27.0243 57.6045 26.9424 57.7272 26.6356 57.5022C26.4106 57.6659 26.206 57.9318 25.6945 57.9318L25.7355 57.7272C25.2854 57.6863 25.1831 57.9727 24.6717 57.7272C24.2216 57.5022 23.7715 57.3181 23.3419 57.134L22.2168 56.5611L22.2781 56.3566C21.7053 56.5816 20.9689 55.9065 20.4165 55.7633C19.7005 55.1291 18.5549 54.8427 18.3912 54.229C17.6547 53.7994 17.0001 53.3902 16.3864 52.8583C15.7522 52.3674 15.1589 51.8355 14.627 51.1399H15.0362C14.6679 51.0785 15.0362 50.8944 14.7907 50.6898C14.8521 51.099 14.2792 50.5876 13.9928 50.5466C13.6655 49.8102 12.9086 49.1555 12.2949 48.7259L12.4585 48.5827C11.7425 48.2145 11.5993 47.2939 11.2106 46.537C11.2106 46.4142 11.3334 46.1687 11.2106 45.9642C10.6992 45.6982 10.6174 45.4527 10.1264 44.9208C9.88088 44.4708 9.69677 43.6525 9.63539 43.1206C8.48977 41.484 8.38748 39.4587 7.83513 37.5152L8.06016 37.3515C7.36461 35.449 7.83513 33.0146 7.83513 31.3575L8.22382 31.5621C8.4284 31.0711 8.2852 30.3755 7.97833 30.4574C8.16245 29.9664 7.99879 29.1276 8.44886 28.8821C8.65343 28.3912 8.4284 28.207 8.48977 27.757C8.89892 26.7546 9.08304 26.4068 9.32853 25.4044L9.22624 25.6294C9.26716 25.7726 9.43082 25.834 9.55356 25.6294C9.55356 25.2202 10.1877 24.4019 9.57402 24.5451C10.29 23.6859 10.4742 22.1312 11.3947 21.4356C11.2311 21.4356 11.3538 21.1901 11.3334 21.0469C11.8039 20.1877 12.704 19.6149 12.9495 18.8375C13.0927 18.7557 12.9904 19.1648 13.2359 18.8784C13.3382 18.6534 13.0927 18.7557 13.2155 18.4897C13.6451 17.8351 14.2179 17.2827 14.8111 16.7918C15.4249 16.3212 16.0591 15.9121 16.5705 15.4211C18.3298 13.6208 20.662 12.332 22.8509 11.3296V11.4319C23.4647 10.7772 24.7535 11.1455 25.1831 10.3681C25.3877 10.3886 25.8991 10.2249 25.8173 10.4295C26.3696 10.0408 27.5971 10.1635 28.4358 9.73391C28.354 9.73391 28.3131 9.77483 28.2108 9.81574C29.1723 9.91803 29.9292 9.40659 30.9317 9.59071C30.8294 9.63163 30.6657 9.67254 30.6453 9.77483C31.0339 9.93849 31.5045 9.3043 31.75 9.77483C31.9545 9.77483 31.8932 9.52934 31.75 9.5498C33.8775 9.59071 36.1688 9.5498 38.4191 9.87712C39.9125 10.5522 38.3168 10.6954 39.6261 10.6545C39.7079 10.7772 39.7489 10.4908 39.7284 10.5931C40.2398 10.5931 40.3012 11.3091 40.6899 11.1864C40.649 10.8591 40.9558 11.1046 41.0172 10.9409C41.8764 11.4728 41.9583 11.7592 42.7356 11.841L42.6129 11.9638C43.5949 11.9638 44.4541 12.5775 45.3542 12.5366C49.773 14.9301 53.4758 18.4079 55.8489 22.8267C56.9741 25.0361 57.731 27.3683 58.2629 29.7618C58.7334 32.1758 58.8153 34.6512 58.4879 37.1265C57.9356 38.2517 57.9151 38.3131 57.8947 39.6019C57.8333 39.5405 57.8333 39.4587 57.7515 39.52C58.0992 39.6428 57.5878 40.3997 57.8742 40.5838C57.3832 42.3636 56.9332 44.0002 56.1149 45.7187C56.2171 45.4323 56.033 45.1868 55.8898 45.5141L55.9307 45.9437H55.8285C55.7671 46.1892 55.808 46.5165 56.0126 46.3324C55.0511 48.5418 53.619 50.5057 51.9211 52.1423C50.2436 53.8198 48.341 55.1905 46.3975 56.4384C45.4156 56.9294 44.0654 57.7272 43.0016 58.3C39.5238 59.282 36.4143 59.5275 32.8956 59.8753C32.8956 59.8753 33.3661 58.9956 34.7368 58.7092L34.5731 58.5864Z" fill="white"/>
<path d="M31.6887 58.8316C31.5659 58.6679 31.1977 58.5452 31.5046 58.3406C31.525 58.5042 31.7296 58.6884 31.6887 58.8316Z" fill="white"/>
<path d="M22.4418 54.6588C22.4418 54.6588 22.3395 54.536 22.3395 54.4951C22.4622 54.536 22.6259 54.4542 22.6668 54.5769C22.5441 54.536 22.5236 54.6179 22.4418 54.6588Z" fill="white"/>
<path d="M20.3552 53.3286C20.478 53.2263 20.9894 53.39 21.2554 53.5332L20.3552 53.3286Z" fill="white"/>
<path d="M18.8824 51.4878C18.8208 51.2619 18.8824 51.2619 19.1082 51.4056C19.0671 51.4878 18.985 51.4672 18.8824 51.4878Z" fill="white"/>
<path d="M18.555 51.6516C18.4117 51.5289 18.3913 51.4061 18.3913 51.2629C18.3095 51.3652 18.7595 51.488 18.555 51.6516Z" fill="white"/>
<path d="M15.4863 47.8259C15.4863 47.8259 15.1589 47.6009 15.2203 47.4167C15.2203 47.5804 15.7113 47.7645 15.4863 47.8259Z" fill="white"/>
<path d="M14.0137 46.0879C14.0137 46.0879 13.9931 45.9852 13.911 45.9236C13.911 45.7799 14.0753 45.8415 14.1368 45.9236L14.0137 46.0879Z" fill="white"/>
<path d="M27.4342 12.6597L27.2084 12.7829V12.6392L27.4342 12.6597Z" fill="white"/>
<path d="M45.2726 15.8093C45.5395 15.8709 45.3342 16.0352 45.3547 16.0762C45.1699 15.953 45.5395 15.9736 45.2726 15.8093Z" fill="white"/>
<path d="M52.7802 22.6634L52.7188 22.602L53.0052 22.4792L52.7802 22.6634Z" fill="white"/>
<path d="M27.4136 37.4542C27.1878 37.5158 27.5163 37.7211 27.2494 37.5774C27.2905 37.4542 27.3315 37.3721 27.4136 37.4542Z" fill="white"/>
<path d="M27.6176 51.7537C26.8403 50.9763 27.6176 49.9739 27.1267 49.1352C27.0857 49.0329 27.5563 49.1556 27.454 48.9306C26.8403 48.1123 27.2085 46.8235 27.679 45.8415L27.8018 45.9029C27.8836 45.7188 27.4949 45.4733 27.5358 45.2892C27.6176 45.2892 27.6586 45.3505 27.7608 45.2892C27.5153 45.2482 27.6586 44.9209 27.4744 44.8391C27.5767 44.7573 27.7608 44.7777 27.8631 44.6754L27.5972 44.5527C26.9425 44.2254 27.6381 43.7753 27.3108 43.3457C27.3721 43.3662 27.4335 43.4071 27.4949 43.3662C27.1062 42.6706 27.1676 41.7909 27.0244 41.0135C27.1267 41.0545 27.2903 41.0749 27.4131 41.0135C27.1267 40.9726 27.0448 40.7271 26.9835 40.5226C27.2903 40.4203 26.7175 40.1543 26.8812 39.9088H26.9425C26.6357 39.7452 27.1267 39.6633 26.7584 39.5201L26.9835 39.3974C26.5538 39.3156 27.2085 39.1315 26.9835 38.9882H26.9016C26.7993 38.845 27.0039 38.7837 26.9425 38.6405H26.9835C26.8812 38.3132 27.1062 38.1495 26.7789 38.1495C27.0448 38.0472 26.9016 38.4564 27.2699 38.2722C26.9425 37.2698 27.0039 36.2265 26.9835 35.2036C27.1062 35.0809 27.1471 35.0195 27.2699 34.9786C27.2085 34.8763 27.2085 34.5899 27.0448 34.5081C27.0448 34.549 27.2085 34.4467 27.2289 34.3853C27.3517 34.2012 26.8607 34.1807 27.0244 33.9762C27.1062 34.058 27.2085 34.0784 27.3312 34.058C27.0857 33.8943 27.1062 33.6488 27.0244 33.4443C27.0857 33.4852 27.1062 33.5261 27.2085 33.5261C26.9221 33.3011 27.2699 33.1169 27.0857 32.9124L27.2699 32.9942C27.4949 32.6873 26.8812 32.8919 27.0039 32.626C27.0653 32.6873 27.1471 32.6669 27.2085 32.6873C26.8607 32.4418 26.9835 32.0122 26.8607 31.7667C26.8812 31.7667 26.9425 31.7667 26.9425 31.7667C26.9016 31.4803 27.0039 31.1939 26.8607 30.8871C26.9425 30.7848 27.3312 30.928 27.2494 30.6211C26.8607 30.6211 27.0857 30.1301 26.6561 30.2938C26.7175 30.0483 26.8607 29.6392 26.738 29.4755C26.8812 29.5983 27.2085 29.3528 27.2289 29.5573L27.454 29.3937C27.6176 29.4141 27.3926 29.5573 27.5972 29.496C27.5972 29.3937 27.4335 29.0868 27.4949 28.9845C27.2699 28.8004 26.8198 28.6163 26.7789 28.3094C26.9221 28.4526 27.188 28.2276 27.2699 28.3094L26.5334 27.8798C26.5334 27.7775 26.8403 27.8594 26.738 27.7162C26.6357 27.7162 26.5743 27.6548 26.4925 27.6139C26.5334 27.573 26.3902 27.1843 26.7789 27.1434C26.9221 27.1024 26.8607 27.307 26.9835 27.2047C26.9835 27.0206 26.8607 27.0001 26.8403 26.816H26.8812C26.9425 26.6933 26.7175 26.4478 26.5129 26.5705C26.5129 26.6524 26.738 26.5296 26.6357 26.6728C26.4106 26.591 26.3493 26.366 26.3493 26.1614C26.4106 26.2228 26.5129 26.2228 26.6152 26.2432C26.3288 25.9773 26.2265 25.7113 26.1038 25.4249C25.9197 25.4249 26.4311 25.5272 26.3288 25.5681C26.5743 25.1999 25.981 24.8112 26.3288 24.5043C26.3697 24.5452 26.0833 24.5248 26.1242 24.5248C26.1447 24.3407 26.4106 24.3611 26.3084 24.2384C26.4516 24.2384 26.2674 24.0952 26.2061 23.9724C26.1038 23.8702 26.2879 23.9724 26.2879 24.0543C26.1652 23.9111 25.9401 22.8064 26.1447 22.3358H26.1652C26.0424 22.2745 26.0629 22.0494 26.2061 22.029L26.3288 22.1313C26.4925 22.1313 26.5948 21.9676 26.7175 22.0085C26.738 21.9267 26.5948 22.029 26.4925 22.1517C26.3902 22.2745 26.3493 22.4177 26.3493 22.2949C26.5334 22.3154 26.3902 21.9676 26.5538 22.0903C26.6766 21.9676 26.7789 21.8449 26.9835 21.7835C26.9221 21.7835 26.9425 21.9062 27.0244 21.8039C27.1267 21.6812 27.1267 21.6812 27.1267 21.7017H27.3312C27.3312 21.7017 27.5563 21.7017 27.454 21.7017H27.7608C27.8631 21.7017 27.945 21.7017 28.0268 21.7017L28.0677 21.6812C28.0677 21.6198 28.3336 21.4971 28.4564 21.2925C28.6814 21.1493 29.0292 20.7197 29.1315 20.8834C29.2338 20.5356 29.6429 20.556 29.8066 20.6379C29.7657 20.6788 29.7043 20.6788 29.6838 20.7811C29.8066 20.9243 29.8475 20.8015 29.9703 20.7402C29.9293 20.8015 30.2157 21.0266 30.3385 21.2107C30.5431 21.0879 30.5021 20.8424 30.5431 20.6992C30.6453 21.1493 31.1159 20.4947 31.2591 20.9243C31.1772 20.9652 30.9522 21.0879 31.0954 21.2311C31.1772 21.7017 31.4841 20.9652 31.7091 21.2311V20.8629C31.791 21.1084 32.1592 20.7197 32.0569 21.0879C32.1797 20.9856 32.3433 21.2925 32.4047 20.9243C32.7729 21.313 33.5299 21.0061 33.6117 21.7426C33.6935 21.7017 33.8163 21.8039 33.8572 21.6198C33.8163 21.3948 33.6731 21.7221 33.6731 21.5585C33.7344 21.5585 33.7753 21.4766 33.7958 21.4357C33.8981 21.5585 34.0004 21.6198 33.7958 21.8653C34.0208 22.1722 34.3072 21.3743 34.6346 21.6607C34.5732 21.8039 34.5732 21.8653 34.6959 21.8858L35.0028 21.7221C35.2278 21.8653 35.0028 22.0903 34.921 22.3358C35.0642 22.3358 35.2074 22.4177 35.3506 22.2745V22.6427C35.3506 22.3768 35.5347 22.5609 35.6165 22.52H35.5347C35.5142 22.6632 35.6779 22.6632 35.7597 22.6632C35.8211 22.52 35.6984 22.3768 35.637 22.2949C35.7393 22.2335 35.8416 22.2949 35.9848 22.2131C35.8416 22.4177 36.1075 22.479 36.1893 22.5404C36.2712 22.6427 36.4144 22.3972 36.4553 22.4381C36.3939 22.5609 36.6394 22.5609 36.4553 22.6632C36.3939 22.6632 36.4348 22.4995 36.3121 22.5813C36.3325 22.7041 36.2302 22.8882 36.4553 22.8268C36.6189 22.7859 36.6599 22.3768 36.8031 22.6427C36.7212 22.6427 36.6599 22.745 36.5576 22.7859L36.7008 23.0109L36.8235 22.8268C36.8235 22.8268 36.7826 22.9086 36.7826 22.9291C36.9667 22.7654 37.1304 23.0519 37.3145 22.8473C37.4372 22.8882 37.4577 23.1132 37.5191 23.1951H37.4986C37.5395 23.3996 37.7441 23.4201 37.9282 23.3792L37.8873 23.4201C37.8873 23.4201 38.1123 23.5633 38.276 23.5019C38.3374 23.7474 37.8055 24.2179 38.1328 24.1156C38.276 24.2384 38.6238 23.9929 38.6647 23.8292C38.8284 24.177 39.4012 24.177 39.3807 24.6884C39.483 24.668 39.5035 24.6066 39.6262 24.6475C39.9331 25.0771 40.5877 25.4045 40.465 25.9977C40.3013 25.9159 40.2604 26.1205 40.1581 26.1818C40.4036 26.1818 40.0558 26.4273 40.3831 26.2841C40.5468 26.1614 40.6491 26.1205 40.6286 25.9364C40.8946 26.1614 41.1605 26.6319 41.0582 26.8774C41.0991 26.7547 41.2014 26.7956 41.2833 26.8365C40.9764 26.9592 41.0173 27.2047 41.2014 27.3275L41.406 27.2866L41.2628 27.4707C41.2628 27.4707 41.6924 27.4093 41.5697 27.6548C41.5083 27.6957 41.4265 27.7162 41.3855 27.7775C41.5901 27.9207 41.9174 28.1458 41.8151 28.3913L41.5697 28.6163C41.5697 28.6163 41.8356 28.8209 41.8765 28.6572C41.7538 29.0664 41.7333 29.3118 41.5083 29.4346C42.1834 30.0279 42.0811 31.0712 41.8356 31.8077L41.6924 31.7463C41.5083 31.9099 41.9174 31.9304 41.7742 32.0327C41.6515 31.9304 41.4265 32.0736 41.3037 31.869C41.0582 32.0736 41.4265 32.2986 41.406 32.4828C41.5697 32.585 41.3446 32.2986 41.5697 32.4214C41.631 32.4828 41.2833 32.7283 41.5287 32.8919C41.3855 32.8919 41.2219 32.7692 41.1196 32.6873L41.181 32.9124C40.7923 32.9328 40.8127 32.2373 40.3217 32.2577V32.4009C39.9944 32.4009 40.1172 31.9304 39.9126 32.1964C39.9944 32.3805 40.3013 32.6873 40.4854 32.626C40.4036 32.9533 41.0378 33.076 40.8332 33.4033C40.6286 33.4033 40.9355 33.1169 40.69 33.0556C40.4036 33.0965 40.6286 33.4238 40.4854 33.5261C40.6695 33.4238 40.8536 33.7102 40.8332 33.8534C40.6082 33.9352 40.6695 33.6079 40.4854 33.8125C40.6082 33.9352 40.5672 34.2217 40.7923 34.1194C41.0582 34.4262 40.5263 34.3035 40.69 34.5899C40.424 34.4876 40.3422 33.9762 40.0558 34.1398C40.3013 34.2626 40.1172 34.6513 40.5263 34.774C40.3831 34.8354 40.2195 34.7126 40.1581 34.5285C39.9331 34.5694 40.2604 35.1422 39.8308 34.8354L39.9944 35.0604C39.9944 35.0604 39.7899 35.0604 39.6262 35.0195C39.5239 35.1218 39.5648 35.6128 39.2989 35.3264C39.2989 35.3877 39.0329 35.5923 39.3193 35.715C39.5853 35.715 39.3602 35.4082 39.708 35.5923C39.3807 35.49 39.5239 35.8173 39.5034 35.981L39.3807 35.8787C39.3807 35.8787 39.217 36.0628 39.2989 36.206C39.2989 36.1037 39.1966 36.0424 39.1148 36.0424L39.217 36.2674C39.0738 36.5538 38.8897 36.0015 38.7261 36.2265L38.767 35.9401C38.767 35.9401 38.5419 35.8992 38.501 36.0424C38.6033 36.2469 38.6852 36.5129 38.7465 36.6765C38.6852 36.8402 38.5419 36.5129 38.5419 36.7993V36.472C38.5419 36.472 38.2146 36.2674 38.051 36.3901C37.9896 36.5333 38.0101 36.9016 38.2555 36.8811C38.1737 36.9425 37.9691 36.922 37.9487 36.7379C37.8055 36.9425 38.1123 36.922 38.0101 37.1471C37.8668 37.0857 37.5191 37.0448 37.294 36.9425V36.5333L37.1508 36.5947C37.1508 36.2674 36.9667 36.4515 36.8849 36.1447C36.7826 36.1447 36.7417 36.2879 36.7212 36.4106C37.2122 36.697 36.8235 37.1471 37.1099 37.4949C36.844 37.8017 36.3735 36.6561 36.3735 37.4539C36.4757 37.5358 36.4757 37.9245 36.6394 37.6994C36.4144 37.7608 36.7008 38.1699 36.3735 38.129C36.4757 37.8631 35.9848 37.8222 36.128 37.4539C36.1689 37.5971 36.3325 37.4744 36.353 37.4335C36.1893 37.3312 36.1689 37.0243 35.9643 37.1266C35.862 37.2289 35.6984 37.3107 35.8211 37.5153C35.9438 37.7403 36.0052 37.3926 36.0257 37.679C35.8006 37.8835 35.5961 37.5562 35.6779 38.0267C35.8211 37.9245 35.9848 38.129 36.0461 38.2927L35.9029 38.4768L35.862 38.2927C35.4938 38.3132 35.9029 38.62 35.5551 38.7018L35.2892 38.4564C35.2483 38.1495 35.7802 38.395 35.5347 37.9858C35.3301 38.0472 35.3506 38.2927 35.1255 38.2518C35.146 38.1904 35.2074 38.1699 35.2278 38.1086C35.146 38.1086 34.8391 37.5562 34.7164 38.0267C34.6346 38.2109 34.7369 38.2109 34.7982 38.3745C34.5118 38.5586 34.4709 38.7428 34.2663 38.845C34.205 38.4973 33.8776 38.9269 34.0004 38.5177C34.164 38.6814 34.6346 38.5177 34.6346 38.1495C34.3686 37.8017 34.9005 38.1086 34.8187 37.6994C34.5732 37.7813 34.43 37.413 34.3072 37.1675C34.2459 37.1675 34.205 37.3107 34.1845 37.3517C34.2459 37.5971 34.3277 37.5562 34.43 37.8017C34.1436 37.8426 33.9186 38.0472 33.8367 38.3336C33.714 38.2518 33.6526 38.0063 33.7549 37.9449C33.448 38.129 33.0798 38.1904 32.7525 38.1904C33.0593 38.5382 32.4252 38.3745 32.6502 38.6609C32.8343 38.7018 33.0593 38.9473 33.0184 39.1519C32.8957 39.1519 32.9775 38.9678 32.9161 38.9064C32.8343 39.1519 32.6093 38.62 32.5684 38.9882C32.8548 38.7837 32.507 38.4973 32.507 38.1699C32.3229 38.395 32.4661 37.9449 32.241 38.0063C32.0569 38.2313 31.8319 38.4154 31.5864 38.5382C31.2182 38.2927 30.809 38.6814 30.5226 38.7018C30.3589 38.5586 30.4203 38.1904 30.2567 38.1495C30.0725 38.1699 30.4408 38.5177 30.1544 38.395V38.3132C30.1544 38.3132 29.6634 38.1086 29.6225 38.6405L29.6838 38.2313C29.6838 38.2313 29.5816 38.2927 29.5611 38.3336C29.5611 38.2109 29.4793 38.0881 29.5611 38.0063C29.377 37.7608 29.2133 38.0677 29.0497 38.0881L29.1724 38.3132C28.8655 38.4973 28.661 38.2927 28.3541 38.3745V38.1495L28.1904 38.2927C28.2314 38.0677 28.0677 37.9245 27.9859 38.1086C28.1495 37.9245 28.2927 37.7403 28.4359 37.5562C28.5587 37.679 28.2927 37.8426 28.3746 38.0472C28.4359 38.2313 28.7223 38.1699 28.7633 37.9449C28.661 37.9245 28.661 37.9654 28.5791 38.0677C28.5382 37.7608 28.7019 37.7608 28.7633 37.5562C28.7019 37.5562 28.6405 37.4744 28.6201 37.5767C28.7223 37.413 28.8246 37.3926 28.9883 37.3721C28.886 37.4949 29.0701 37.5562 29.0292 37.6585C29.0292 37.3721 29.1929 37.2903 29.4179 37.3517C29.602 37.6585 29.8066 37.1062 30.0521 37.1675C29.9907 37.4539 29.868 37.6994 29.7248 37.8222C29.8884 37.9449 29.9089 37.8017 30.0725 37.9245C30.1339 37.6994 30.1544 37.3721 30.3385 37.2289L30.3794 37.4335C30.5431 37.3107 30.5226 37.0039 30.7476 37.0243C31.1568 37.0652 31.5659 37.0039 31.8523 36.963L31.9137 37.1675C31.9955 36.697 32.4252 36.8811 32.6093 36.6356C33.0389 36.7379 33.3457 36.206 33.6526 36.4924C34.2459 36.1242 34.7164 35.756 35.371 35.5105V35.8378C35.412 35.5923 35.5552 35.9605 35.637 35.8583C35.3915 35.715 35.637 35.5105 35.637 35.3059C36.0052 35.3673 36.2302 34.9377 36.3325 34.6308L36.4553 34.7945C36.4553 34.3239 36.8849 34.4262 37.2122 34.2626C37.294 34.3035 37.4577 34.4058 37.5191 34.3239C37.4372 33.9557 37.5191 33.8943 37.5804 33.5875C37.7236 33.4647 37.9691 33.3011 38.1942 33.2397C38.276 32.4214 38.9102 32.0327 38.8693 31.3167L39.1148 31.3576C38.8284 30.6211 39.4012 30.0074 39.0534 29.4755H39.4625C39.5853 29.2914 39.3193 29.1073 39.0329 29.2096C39.1148 29.0254 38.7465 28.8822 39.0534 28.6981C39.0943 28.514 38.8079 28.5549 38.7056 28.4526C38.7465 28.0844 38.6442 27.9821 38.4192 27.7571V27.8389C38.5215 27.8389 38.6851 27.7366 38.6647 27.6548C38.5215 27.5934 38.5215 27.2047 38.1737 27.573C38.1942 27.1229 37.5191 27.082 37.56 26.5705C37.4782 26.6933 37.3963 26.6319 37.3145 26.6728C37.1099 26.4683 37.0076 26.0386 36.6803 26.0386C36.6803 25.9568 36.8849 25.9159 36.7826 25.8136C36.6803 25.8136 36.6803 25.9568 36.5371 25.9568C35.9848 25.8545 35.8006 25.1385 35.3097 24.9339C34.3891 24.7498 33.5912 24.2793 32.732 24.0747L32.7729 23.9724C32.4047 24.2588 32.2001 23.4201 31.8319 23.9315C31.791 23.8292 31.5864 23.8292 31.6682 23.6451C31.3818 23.8701 31.0545 23.2769 30.6658 23.5633C30.6863 23.5633 30.7067 23.5633 30.7681 23.5224C30.4612 23.236 30.1135 23.5224 29.7657 23.2973C29.8066 23.2564 29.868 23.236 29.8884 23.1337C29.7248 22.9291 29.5816 23.5224 29.5816 23.0314C29.5406 23.0314 29.5816 23.2769 29.5816 23.2564C29.3156 23.0928 29.0497 23.2564 29.0087 23.3996C29.0087 23.3996 29.0701 23.5428 29.0906 23.6042C28.8042 23.5837 28.2723 23.0518 28.6405 23.4815C28.5382 23.461 28.8246 23.5837 28.7223 23.5428C28.8042 23.6451 28.1904 23.461 28.4359 23.6247C28.7223 23.686 28.5996 23.7269 28.7837 23.7679C28.5996 23.9111 28.3337 23.8292 28.5587 24.177H28.395C28.8246 24.5248 28.5996 24.9544 29.111 25.2613C29.1929 27.307 29.4793 29.2709 29.5406 31.2758C29.4384 33.2601 29.6634 35.1832 29.3974 37.188C28.9883 37.6585 29.0087 37.6994 29.1724 38.2109C29.111 38.1904 29.0906 38.1495 29.0292 38.2109C29.3565 38.2313 29.0701 38.5791 29.377 38.62C29.3156 39.3565 29.3974 40.052 29.4179 40.809C29.377 40.6862 29.111 40.6249 29.1315 40.7681L29.3361 40.9113H29.2338C29.2747 41.034 29.4384 41.1363 29.5611 41.034C29.8475 42.957 29.1724 44.8391 29.2542 46.7212C29.111 47.1713 29.2542 47.8054 29.3156 48.276C28.8655 49.708 28.4973 50.9968 28.8246 52.4697C28.8246 52.4697 27.9654 52.2856 27.7608 51.6719L27.6176 51.7537Z" fill="white"/>
<path d="M27.6995 37.4133C27.7404 37.577 27.904 37.6793 27.7608 37.9043C27.7608 37.7407 27.679 37.577 27.6995 37.4133Z" fill="white"/>
<path d="M32.3433 38.6819C32.3433 38.6819 32.4254 38.7229 32.446 38.764C32.3844 38.7845 32.3638 38.9488 32.3022 38.8667C32.3638 38.8461 32.3228 38.764 32.3433 38.6819Z" fill="white"/>
<path d="M33.5504 38.4771C33.5709 38.6203 33.3663 38.8248 33.2026 38.8862C33.3254 38.7635 33.4277 38.6203 33.5504 38.4771Z" fill="white"/>
<path d="M34.8594 38.6819C35.0031 38.764 35.0031 38.8461 34.8594 38.8872C34.8184 38.8256 34.8594 38.764 34.8594 38.6819Z" fill="white"/>
<path d="M34.8186 38.333C34.8186 38.333 34.9828 38.3535 35.065 38.4151C35.0239 38.2919 34.8802 38.5794 34.8186 38.333Z" fill="white"/>
<path d="M37.3348 37.5977C37.3348 37.5977 37.4375 37.3718 37.5812 37.495C37.458 37.4334 37.417 37.8235 37.3348 37.5977Z" fill="white"/>
<path d="M38.2554 36.7386C38.2554 36.7386 38.317 36.7386 38.3376 36.677C38.4402 36.677 38.4402 36.8207 38.3991 36.8618L38.2554 36.7386Z" fill="white"/>
<path d="M31.5863 20.9857L31.73 20.9241L31.6684 21.0678L31.5863 20.9857Z" fill="white"/>
<path d="M26.1043 26.1404C26.207 26.2636 25.9606 26.2225 25.9401 26.243C25.9401 26.1404 26.1248 26.2841 26.1043 26.1404Z" fill="white"/>
<path d="M26.8606 30.7433V30.7024L27.1675 30.7228L26.8606 30.7433Z" fill="white"/>
</svg>
