<svg width="20" height="19" viewBox="0 0 20 19" fill="none" xmlns="http://www.w3.org/2000/svg">
<path d="M19.8401 0.382155C19.7762 0.326259 19.6985 0.289115 19.6152 0.274741C19.532 0.260367 19.4465 0.26931 19.3679 0.300604L0.603845 7.73487C0.412561 7.81004 0.250595 7.94612 0.142359 8.1226C0.0341222 8.29908 -0.0145193 8.5064 0.00376559 8.7133C0.0220505 8.92021 0.106271 9.11549 0.243733 9.26972C0.381195 9.42395 0.564449 9.52876 0.765875 9.56836L5.92677 10.5938V16.3905C5.92674 16.6148 5.99293 16.8339 6.11683 17.0198C6.24073 17.2057 6.41669 17.3499 6.62212 17.4338C6.75431 17.4875 6.8954 17.5152 7.03784 17.5154C7.18693 17.515 7.33442 17.4843 7.47154 17.425C7.60866 17.3658 7.73259 17.2792 7.83596 17.1704L10.4284 14.452L14.4098 17.9869C14.6116 18.1671 14.8712 18.267 15.1403 18.2681C15.2578 18.2676 15.3746 18.2489 15.4866 18.2128C15.6699 18.154 15.8347 18.0476 15.9647 17.9042C16.0947 17.7607 16.1852 17.5853 16.2273 17.3954L19.9882 0.841465C20.0071 0.758503 20.0032 0.671914 19.9771 0.590994C19.951 0.510073 19.9037 0.437877 19.8401 0.382155ZM0.741802 8.64599C0.736371 8.60065 0.74646 8.55479 0.770386 8.51607C0.794312 8.47734 0.830629 8.4481 0.873278 8.43321L17.0439 2.0263L6.21102 9.88612L0.909388 8.83252C0.864451 8.82586 0.823187 8.80363 0.792629 8.76961C0.76207 8.7356 0.744108 8.69191 0.741802 8.64599ZM7.30357 16.6492C7.25237 16.7026 7.18663 16.7394 7.11472 16.7548C7.04281 16.7703 6.96798 16.7637 6.89977 16.736C6.83156 16.7082 6.77304 16.6606 6.73168 16.5991C6.69031 16.5375 6.66797 16.4649 6.66748 16.3905V11.1131L9.86921 13.9534L7.30357 16.6492ZM15.5051 17.2248C15.4908 17.2884 15.4603 17.3472 15.4166 17.3953C15.373 17.4433 15.3177 17.479 15.2563 17.4988C15.1948 17.5186 15.1293 17.5218 15.0663 17.5081C15.0032 17.4944 14.9448 17.4643 14.8968 17.4207L6.89248 10.3145L19.0864 1.46763L15.5051 17.2248Z" fill="white"/>
</svg>
