<svg width="48" height="48" viewBox="0 0 48 48" fill="none" xmlns="http://www.w3.org/2000/svg">
<path d="M42.0161 24.048C42.0161 20.784 41.2001 17.76 39.5841 14.992C37.9681 12.224 35.7761 10.032 33.0081 8.416C30.2401 6.8 27.2321 6 23.9841 6C21.5521 6 19.2161 6.48 16.9921 7.424C14.7681 8.368 12.8641 9.664 11.2481 11.264C9.63206 12.864 8.35206 14.784 7.40806 17.024C6.46406 19.264 5.98406 21.584 5.98406 24.048C5.98406 26.48 6.46406 28.816 7.40806 31.04C8.35206 33.264 9.64806 35.184 11.2481 36.784C12.8481 38.384 14.7681 39.664 16.9921 40.608C19.2161 41.552 21.5361 42.032 23.9841 42.032C26.4321 42.032 28.7841 41.552 31.0081 40.608C33.2321 39.664 35.1521 38.368 36.7681 36.768C38.3841 35.168 39.6481 33.248 40.6081 31.04C41.5681 28.832 42.0161 26.496 42.0161 24.048ZM38.0481 24.048C38.0481 27.84 36.6721 31.136 33.9041 33.936C31.1361 36.704 27.8401 38.08 23.9841 38.08C21.4561 38.08 19.1041 37.456 16.9601 36.192C14.8161 34.928 13.0881 33.232 11.8241 31.072C10.5601 28.912 9.92006 26.576 9.92006 24.048C9.92006 21.52 10.5601 19.168 11.8241 17.008C13.0881 14.848 14.8001 13.136 16.9601 11.872C19.1201 10.608 21.4561 9.984 23.9841 9.984C26.5121 9.984 28.8641 10.608 31.0081 11.872C33.1521 13.136 34.8801 14.848 36.1601 17.008C37.4401 19.168 38.0481 21.52 38.0481 24.048ZM32.7841 24.032C32.7841 23.664 32.6561 23.344 32.4001 23.088C32.1441 22.832 31.8241 22.704 31.4561 22.704H25.3921V13.392C25.3921 13.024 25.2641 12.704 25.0081 12.448C24.7521 12.192 24.4321 12.064 24.0641 12.064C23.6961 12.064 23.3761 12.192 23.1201 12.448C22.8641 12.704 22.7361 13.024 22.7361 13.392V24.064C22.7361 24.432 22.8641 24.752 23.1201 25.008C23.3761 25.264 23.6961 25.392 24.0641 25.392C24.2241 25.392 24.3201 25.392 24.3681 25.376H31.4721C31.8401 25.376 32.1601 25.248 32.4161 24.976C32.6521 24.7182 32.7834 24.3815 32.7841 24.032Z" fill="#898A8D"/>
</svg>
