<svg width="20" height="20" viewBox="0 0 20 20" fill="none" xmlns="http://www.w3.org/2000/svg">
<path d="M19.5 17.2222C19.5 18.4805 18.4805 19.5 17.2222 19.5H2.77778C1.51997 19.5 0.5 18.4805 0.5 17.2222V2.77778C0.5 1.51954 1.51997 0.5 2.77778 0.5H17.2222C18.4805 0.5 19.5 1.51948 19.5 2.77778V17.2222Z" stroke="white"/>
<path d="M16.6317 6.68917C16.6572 6.60528 16.6694 6.52751 16.6661 6.45806C16.6578 6.25695 16.5194 6.11084 16.1939 6.11084H14.7394C14.3722 6.11084 14.2028 6.33306 14.1039 6.55584C14.1039 6.55584 13.1972 8.42195 12.1522 9.65251C11.8133 10.0086 11.6411 9.99973 11.4578 9.99973C11.3594 9.99973 11.1111 9.88084 11.1111 9.55473V6.67417C11.1111 6.28862 11.015 6.11084 10.7044 6.11084H8.12166C7.89555 6.11084 7.77777 6.28862 7.77777 6.46695C7.77777 6.83751 8.27666 6.9264 8.33333 7.96473V9.97751C8.33333 10.4664 8.24833 10.5553 8.065 10.5553C7.57055 10.5553 6.59722 8.88862 5.94555 6.70417C5.80444 6.27417 5.66333 6.11084 5.29611 6.11084H3.82777C3.40388 6.11084 3.33333 6.31862 3.33333 6.54084C3.33333 6.9414 3.66666 9.10695 5.48611 11.597C6.80555 13.4025 8.54388 14.4442 10.0828 14.4442C11.015 14.4442 11.1106 14.207 11.1106 13.8364V12.1853C11.1111 11.7403 11.2128 11.6664 11.5094 11.6664C11.7211 11.6664 12.1528 11.8053 12.9861 12.7775C13.9472 13.8986 14.1217 14.4442 14.6728 14.4442H16.1272C16.465 14.4442 16.6589 14.3025 16.6667 14.0275C16.6683 13.9575 16.6583 13.8792 16.6356 13.792C16.5278 13.472 16.0333 12.6897 15.4167 11.9442C15.075 11.5314 14.7378 11.1225 14.5828 10.9003C14.4789 10.7553 14.4394 10.6531 14.4444 10.5553C14.4494 10.4525 14.5028 10.3547 14.5828 10.2181C14.5683 10.2181 16.4483 7.57862 16.6317 6.68917Z" stroke="white"/>
</svg>
