<svg width="644" height="5" viewBox="0 0 644 5" fill="none" xmlns="http://www.w3.org/2000/svg">
<path d="M55.3128 4.93457C57.8052 4.93457 56.4678 4.42863 57.0149 4.11231C59.9936 3.98578 58.4131 4.4918 59.4465 4.80812C61.331 4.68159 62.7899 4.17544 64.1881 4.17544C64.3096 4.2387 64.5528 4.30202 64.1881 4.42855C66.1941 3.9857 70.0847 4.42857 72.3947 3.8592C72.577 3.8592 72.6378 3.92239 72.6986 3.98565C72.3339 3.7326 72.2731 3.41631 72.3339 3.22652C73.4889 3.22652 74.4007 2.9102 74.8263 3.22652C74.1576 3.22652 74.0968 3.3531 73.732 3.47963L74.887 3.35298C75.9813 3.85909 73.2457 3.54294 73.2457 3.92252C75.5557 3.73273 78.2305 3.3531 79.9934 3.47963C80.3581 3.98574 75.8597 3.66946 78.2305 4.11231L75.4949 3.92252C77.5618 4.68169 73.8536 3.92249 75.7381 4.68166C79.3247 4.80819 79.7502 4.42848 83.3368 4.55501C84.1271 4.30195 83.0936 4.17552 83.8839 3.8592C88.9902 3.35309 87.896 5.12445 91.665 4.42855C92.6376 4.11223 93.0024 3.47955 95.6771 3.79587L94.7653 4.36522C98.2303 4.36522 96.7713 3.54294 100.419 3.92252C99.75 4.11231 97.6832 4.11217 98.2303 4.17544C100.601 4.61829 99.9324 3.8592 101.695 3.8592L102.06 4.36522C105.768 4.30196 109.841 3.92246 113.975 3.8592C113.732 3.98572 113.063 4.17556 113.975 4.30209C119.142 4.04903 125.039 4.30207 130.023 4.68166L131.908 4.23876C132.333 4.23876 132.759 4.42861 132.273 4.49187C134.218 4.68167 132.394 4.23877 133.306 4.04898C134.4 4.04898 134.765 4.30202 134.096 4.42855C137.561 4.04896 143.883 3.66946 147.531 4.11231L146.801 4.23876C149.598 4.42856 149.962 3.35296 152.576 3.73255H152.09C158.23 3.9856 164.977 3.60613 169.658 4.23876C170.57 3.60613 175.737 4.49184 176.102 3.66941C179.628 4.11226 178.594 4.23869 183.518 4.55501C184.856 4.55501 185.463 4.04905 187.105 3.92252V4.36522L189.354 3.92252L190.509 4.42855L192.029 4.30209C191.421 4.30209 190.752 4.11218 190.813 3.98565C193.184 3.79586 196.649 4.30195 196.649 4.55501L202.302 4.17544C202.302 4.17544 201.208 4.42848 200.479 4.55501C203.457 4.11216 201.026 4.99785 203.761 4.55501C203.396 4.42848 203.944 4.30197 204.004 4.17544C205.402 4.42849 208.503 4.42849 210.813 4.36522L210.387 4.68166C214.582 4.74492 219.202 4.55501 223.883 4.55501C222.18 4.42848 222.606 3.85913 223.943 3.79587L224.49 4.23876C225.402 3.92244 223.031 4.04886 224.855 3.73255C226.618 3.73255 226.01 4.23876 225.038 4.42855L227.165 4.23876C227.165 4.23876 226.8 4.42854 226.679 4.61833C227.53 4.30201 230.326 5.06118 231.603 4.61833L231.724 4.74479C236.405 4.74479 238.533 4.55501 242.363 4.55501C242.423 4.17542 243.943 4.23884 245.098 3.92252C247.894 4.04905 250.995 4.36522 254.399 4.36522C256.77 4.17543 255.068 4.04893 256.162 3.79587C256.344 4.17545 259.688 4.11223 257.986 4.42855C262.058 4.42855 263.153 4.3653 268.32 4.04898C267.773 3.92245 267.165 3.85907 267.469 3.73255C268.381 3.73255 269.596 3.85919 269.475 4.04898H269.232C275.007 3.54287 282.545 5.18765 287.104 4.36522H286.861L291.602 3.98565C293.791 4.04892 290.265 4.23882 291.906 4.49187C297.013 3.85924 299.991 4.55502 304.247 4.17544C307.529 5.25092 315.857 4.11221 320.295 4.80812L320.052 4.55501C321.207 4.30195 321.45 4.68153 322.301 4.74479C322.179 4.555 321.085 4.49175 321.754 4.36522C331.419 4.0489 341.693 4.74484 351.602 4.9979C355.249 5.06116 353.669 3.66945 358.228 4.30209L356.951 4.80812C364.246 4.23874 371.905 4.80807 379.079 4.36522C378.653 4.49175 378.653 4.61833 377.924 4.61833C379.443 4.99792 383.516 4.61828 383.516 4.36522C384.61 4.36522 383.759 4.61826 384.489 4.74479C386.009 4.93458 388.319 4.30201 389.109 4.61833C389.23 4.61833 388.683 4.74479 388.379 4.74479C389.352 4.555 392.999 4.74481 392.027 4.36522C394.702 4.55501 397.194 4.17543 399.322 4.36522C400.72 3.92238 403.942 4.55516 404.367 3.92252C404.185 4.55516 409.109 4.42863 410.811 4.11231C410.264 4.3021 412.27 4.30201 411.601 4.61833C413.546 4.61833 415.309 4.49176 415.005 4.17544C418.592 4.93461 422.178 3.54278 424.185 4.55501C429.96 4.17542 435.309 3.98566 440.476 3.79587C440.294 4.42851 434.762 3.8591 434.944 4.55501C439.868 4.30195 442.725 3.73267 447.589 3.8592C448.865 3.92246 446.859 4.11224 446.434 4.23876C451.358 3.98571 455.917 4.23884 460.294 3.92252C460.294 3.92252 459.807 4.04904 459.382 4.11231C460.233 4.11231 461.388 4.23884 461.266 3.92252H460.415C459.017 3.54294 463.819 3.10001 464.002 2.84695C462.543 3.66938 468.318 3.03682 466.008 4.11231C466.555 4.11231 467.284 3.92234 467.163 3.73255C468.014 3.73255 468.257 3.92251 467.406 4.11231C470.506 3.92251 469.412 3.60615 472.208 3.66941C472.208 3.79594 471.661 3.85919 471.357 4.04898C472.755 3.79592 474.214 3.47956 476.585 3.60609C476.464 3.66935 476.707 3.79587 476.038 3.79587C480.111 3.79587 482.968 3.03679 487.406 3.28984C486.068 3.92248 488.926 3.47961 489.169 4.04898L491.54 3.8592L490.567 3.60609C492.634 3.60609 494.518 3.22651 496.342 3.4163L494.761 3.66941L498.713 3.54276L496.463 3.35298C498.591 3.09992 496.22 2.65716 499.017 2.84695C498.47 2.84695 501.144 2.84687 502.178 3.16319C503.211 2.9734 504.305 2.78362 505.825 2.97341C506.251 3.1632 505.521 3.54288 505.764 3.66941C506.798 3.22657 510.688 3.54285 511.965 3.03674C511.539 3.16326 511.539 3.41636 511.661 3.47963L512.512 3.10006C513.485 3.22659 513.606 3.28984 513.485 3.47963C516.403 3.54289 512.573 2.78374 516.038 3.10006C515.795 3.10006 515.916 3.16326 515.308 3.22652C518.773 3.35305 522.056 2.97346 525.217 3.22652C526.19 3.79589 522.421 3.35302 523.515 3.79587C528.135 3.66934 533.059 3.16332 537.557 3.28984H536.706C537.314 2.46741 540.05 3.60616 542.299 3.28984C541.752 3.28984 541.569 3.73261 541.752 3.60609C544.791 3.73261 548.013 3.41625 552.633 3.16319L552.086 3.35298C553.91 3.54277 556.828 3.4795 558.773 3.54276C559.381 3.35297 560.475 3.35312 559.806 3.10006C565.825 4.23881 571.235 2.46734 576.584 3.4163C575.976 3.4163 575.065 3.60609 575.551 3.60609L580.11 3.4163C579.745 3.09998 579.502 3.22646 578.59 2.97341C579.137 2.78362 580.475 2.59384 581.569 2.59384C579.502 2.8469 581.569 3.16332 582.481 3.28984C582.359 3.16332 582.663 3.09994 582.542 2.97341C584.912 3.54278 582.967 2.27765 586.189 2.72049L586.007 2.91028C587.222 2.84701 588.317 2.5939 589.654 2.65717C590.201 3.03675 588.377 2.84687 588.256 3.16319C590.08 3.16319 591.903 2.40404 593.545 2.78363C592.754 2.91015 591.66 2.91015 590.87 2.97341C592.694 3.41626 592.876 3.28978 594.213 3.4163H594.092L597.192 3.60609L596.402 3.47963C598.712 2.46741 601.083 3.28981 604.183 2.65717C601.204 3.28981 603.696 3.03678 603.453 3.47963C604.244 3.60616 605.459 3.73267 605.095 3.8592C606.554 3.47961 607.526 4.1122 609.593 3.60609C609.715 3.73261 611.174 3.60607 610.809 3.98565C612.693 3.85913 610.383 3.73255 610.505 3.54276C613.423 3.03665 617.374 4.11227 621.629 3.47963C625.277 3.22657 625.945 2.72044 629.289 2.46738C630.444 2.72044 628.377 2.97341 628.377 2.97341C630.201 3.1632 631.599 3.1632 633.301 2.97341C632.936 3.09994 633.301 3.22645 633.848 3.35298C635.246 3.35298 634.76 2.84694 636.584 3.03674C636.28 3.16326 635.854 3.4163 635.185 3.60609C636.827 3.47956 638.407 3.22659 640.109 3.10006C640.535 3.35312 639.076 3.47956 638.468 3.60609C640.353 3.47956 643.392 3.35299 644 2.97341L642.784 2.84695C643.453 2.84695 643.149 3.16326 642.602 3.22652C640.961 3.54284 640.231 3.09994 640.17 2.97341H641.386C640.17 2.02445 636.523 2.97341 634.091 2.97341L635.125 2.34093L632.632 2.84695C632.085 2.72042 631.721 2.34086 632.936 2.2776C631.173 1.96128 631.417 2.46727 629.897 2.15095C629.714 2.15095 629.836 2.08775 629.958 2.02449L628.255 2.21427C628.559 2.08775 627.952 1.7715 629.046 1.89803C626.006 1.51845 624.122 2.34088 622.967 1.89803H623.21C618.955 2.08782 622.784 2.27758 619.623 2.84695L617.496 1.77138L617.07 2.21427C616.645 2.21427 615.794 2.21422 615.915 1.96116C614.274 2.27748 616.219 2.15106 615.247 2.46738C613.119 2.0878 609.471 2.65707 608.985 1.96116C608.256 2.27748 610.991 2.21433 608.742 2.46738C608.073 1.70822 606.128 2.59392 604.244 2.2776C604.852 1.89802 606.675 2.0877 604.73 1.77138C603.575 2.40402 600.961 1.64485 599.38 1.77138C599.32 2.27749 595.855 1.96116 593.119 2.15095C593.301 1.96116 588.013 1.83471 585.46 1.64492H585.52C585.034 2.08777 582.42 1.96129 580.536 2.08782C580.596 1.7715 580.961 1.64499 581.995 1.51846H580.232C579.806 1.70826 579.259 1.77144 578.104 1.83471L578.53 1.45514C576.159 1.45514 573.727 1.89798 570.688 1.64492C570.505 2.02451 573.119 2.65722 569.897 2.91028C569.776 2.72049 569.654 2.34086 570.505 2.2776C570.201 2.2776 569.533 2.46745 568.986 2.34093L570.262 2.02449C568.864 1.89796 569.533 2.2776 568.438 2.2776C568.438 1.96128 567.587 2.08776 567.77 1.83471C568.074 1.83471 568.742 1.96123 569.168 1.83471C567.891 1.83471 566.372 1.5816 565.885 1.39181C566.007 1.5816 565.885 1.77144 564.973 1.83471C562.603 1.83471 564.183 1.51847 562.785 1.32868C562.238 1.51847 560.718 1.32853 560.657 1.77138C559.989 1.77138 559.806 1.58167 559.563 1.45514C558.347 1.64493 553.788 1.45505 555.186 1.96116H555.49C555.49 1.96116 555.369 1.96116 555.308 1.96116C551.296 2.40401 546.919 1.70811 542.907 1.96116V1.83471C540.536 2.0245 537.618 1.96122 535.916 2.21427C535.187 2.21427 534.275 1.96117 534.579 1.77138C532.755 1.89791 532.573 2.02444 529.898 1.77138C531.721 1.51833 529.29 1.51833 531.782 1.5816C529.411 1.45507 528.864 1.20201 526.311 1.5816C527.162 1.20201 524.548 1.13877 523.393 1.20203L525.035 1.45514C523.758 1.45514 522.664 1.45514 521.509 1.45514L522.117 0.949112C517.254 0.379738 513.363 1.96133 509.655 0.949112C508.378 1.26543 512.269 1.20201 511.114 1.5816C508.865 1.51833 506.555 0.822461 505.886 0.822461C502.846 0.569406 503.029 1.51847 499.807 1.32868C500.232 1.51847 500.597 1.96116 498.226 2.15095C495.977 2.08768 495.491 1.45515 496.889 1.26535C497.436 1.26535 497.679 1.26529 497.679 1.39181C498.409 1.39181 499.321 1.26536 498.47 1.07557L498.166 1.26535C497.071 1.07556 493.971 1.13878 494.701 0.822461C492.998 1.01225 493.971 1.0755 495.248 1.20203C492.391 0.948973 490.749 1.20204 487.831 1.01225C488.318 1.07551 488.743 1.32868 488.257 1.32868C483.941 1.13889 486.372 1.64498 483.394 1.70825C481.752 1.45519 484.002 1.07562 481.023 1.32868C479.199 1.13889 480.658 0.885856 481.388 0.759329C478.713 1.07565 476.342 0.569483 474.822 0.506219L476.221 0.379568C475.369 0.442832 474.701 0.442893 473.971 0.442893L474.762 0.759329C473.91 0.759329 473.242 0.759143 473.242 0.569352C472.391 0.822407 473.91 1.13882 472.208 1.45514C471.114 1.26535 468.804 1.64488 468.439 1.20203C471.904 1.32856 468.075 0.759267 470.993 0.696003C470.446 0.696003 469.716 0.696003 468.865 0.696003C468.743 0.696003 468.987 0.632616 469.23 0.569352C465.886 0.189768 467.71 1.07557 464.245 1.07557C464.671 0.822515 463.455 0.569413 462.908 0.632677C464.306 0.632677 463.576 1.07556 462.3 1.26535C460.111 1.07556 459.868 1.39181 458.713 1.39181H460.05C459.625 1.7714 458.47 1.70812 456.95 1.77138C456.829 1.58159 458.348 1.64499 457.801 1.51846C456.099 1.96131 453.911 1.07562 451.54 1.32868C450.446 1.13889 451.418 0.822531 450.446 0.696003C447.771 1.01232 447.528 0.316358 444.731 0.632677C445.522 0.948997 445.704 0.88571 443.698 1.20203L448.318 0.949112L445.339 1.45514C446.738 1.45514 448.318 1.26535 449.108 1.26535C447.71 1.51841 447.832 1.45506 448.5 1.77138C446.616 1.26527 444.731 2.0877 442.482 1.77138V0.885787C439.2 0.506204 436.646 1.32869 432.33 1.1389L433.729 1.26535C433.121 1.58167 431.054 1.26535 429.656 1.45514C429.777 1.13882 428.926 1.07558 428.318 0.885787C428.379 1.07558 425.157 0.885764 424.792 1.45514L422.847 1.07557C419.382 0.949043 418.896 1.89791 415.492 1.77138C416.525 1.45506 415.005 1.2653 417.194 1.01225C416.099 1.01225 415.066 1.01237 415.066 1.1389C414.397 0.949105 411.966 1.51841 410.932 1.26535C410.446 1.39188 410.324 1.70819 409.048 1.64492C408.926 1.64492 409.048 1.51846 409.048 1.51846C409.048 1.64499 407.103 1.70817 408.197 2.02449C404.732 1.1388 398.592 2.08785 395.553 1.32868C393.121 1.45521 390.142 1.51846 387.954 1.51846C388.075 1.4552 387.954 1.39181 388.379 1.39181C385.34 1.13876 386.495 2.21435 383.03 1.89803C381.267 1.45518 384.854 1.64493 383.759 1.45514C383.273 0.50618 379.565 1.58162 377.194 1.01225H377.741C375.978 0.632662 373.364 1.32862 370.446 1.26535C370.446 1.26535 370.568 1.20216 370.446 1.1389C368.44 1.64501 364.671 1.7715 361.875 1.89803C362.726 1.51845 363.152 1.70826 362.605 1.32868C361.328 1.32868 362.969 1.96123 360.477 2.02449C359.687 1.8347 357.863 1.64494 357.62 1.26535H359.991C358.775 0.69598 356.89 1.26529 355.675 1.20203L355.857 0.949112C352.21 1.01238 352.149 1.5816 348.258 1.5816L348.684 1.77138C346.556 2.34076 346.921 1.45518 344.732 1.89803L344.064 1.32868C342.666 1.45521 339.14 1.8979 336.587 1.96116C338.046 1.51832 340.963 1.32863 342.787 1.07557C341.389 1.07557 338.046 1.07549 337.316 1.39181C337.863 1.39181 338.593 1.20209 339.14 1.26535C337.438 1.7082 335.188 1.9613 332.392 1.89803C332.878 0.759282 325.158 1.64502 323.091 0.759329C318.167 1.13891 313.304 0.569413 307.59 0.632677C309.657 1.51837 305.888 0.63277 306.253 1.51846C304.915 1.51846 304.429 1.51846 304.307 1.51846L300.234 1.01225C299.262 0.75919 301.511 0.822469 301.389 0.632677C298.471 0.569413 300.174 0.253055 298.228 0C298.654 0.316319 297.195 0.442963 295.554 0.316435L297.924 0.696003C293.851 1.13885 294.399 -0.0632175 290.265 0.442893L291.541 0.189784C289.414 0.379575 283.76 0.189884 281.633 0.885787C281.268 0.759259 280.782 0.569483 281.694 0.506219C276.648 0.379691 270.447 1.26531 266.496 0.822461L266.861 0.632677C265.888 0.632677 265.22 1.01225 264.065 0.822461C264.125 0.759197 264.429 0.632616 264.065 0.569352C263.578 0.632616 261.572 0.948989 260.296 0.822461L261.39 0.569352C256.466 0.316296 253.791 1.13889 249.657 1.32868C249.657 0.696042 245.767 0.506096 243.822 0.379568H243.882C238.107 0.189776 234.095 0.822515 228.807 1.07557C225.524 0.379668 217.621 0.759151 212.333 0.379568C213.123 0.506096 212.211 0.885849 211.238 0.949112C210.023 0.822585 207.773 1.39184 208.016 0.822461H208.442C207.53 0.253086 204.916 0.442832 202.971 0.379568L202.667 1.1389C197.439 0.000146685 188.989 1.51831 186.132 0.569352C184.856 0.759143 183.336 0.759321 182.059 0.949112V0.569352C178.655 0.442824 176.892 0.442824 172.576 0.569352L173.427 0.25311C170.996 0.25311 170.327 1.45514 168.078 1.45514L167.409 0.822461C163.154 0.822461 158.838 0.31635 154.643 0.822461C154.704 0.759197 154.825 0.569483 155.555 0.506219C153.549 0.506219 147.835 0.0634183 148.564 0.949112C148.564 0.379738 144.187 0.949105 141.877 1.1389L142.242 0.759329C140.297 1.26544 140.236 1.39181 137.561 1.5816C136.893 1.5816 137.014 1.26529 137.865 1.39181C135.738 1.20202 136.224 1.77139 133.61 1.5816L134.583 1.32868C132.394 1.32868 132.576 1.45519 131.361 1.70825C129.962 1.89804 127.166 1.58167 126.862 1.26535C126.558 1.51841 125.342 1.77151 124.066 1.70825C123.884 1.58172 124.37 1.45514 124.613 1.45514C120.966 1.20208 119.142 1.89805 116.589 1.51846C116.589 1.39194 116.346 1.32862 116.163 1.26535C119.081 1.26535 121.452 1.26535 121.209 1.26535C121.209 0.885771 118.838 0.822546 120.722 0.316435C118.838 0.569491 115.616 1.20204 113.306 1.01225C113.185 1.01225 113.063 0.949051 113.002 0.885787H113.245C112.698 0.822523 112.212 0.885787 111.786 0.885787C111.057 0.885787 110.571 0.759329 109.902 0.759329C109.659 0.443009 107.166 0.569352 106.011 0.569352C106.133 0.948935 104.552 0.885771 106.011 1.26535C105.829 1.26535 106.255 1.26529 107.045 1.20203C107.227 1.20203 107.41 1.20203 107.531 1.20203C107.531 1.20203 107.531 1.20203 107.47 1.20203C108.261 1.20203 109.233 1.20203 110.388 1.20203C109.476 1.39182 108.504 1.58174 107.166 1.32868C106.558 1.58174 105.89 1.83464 105.525 1.96116C103.945 1.39179 100.783 1.07565 100.358 0.759329C96.7713 1.01238 91.9081 0.885756 89.6589 1.64492C88.6255 1.77145 88.5039 1.45521 88.0784 1.32868C88.6863 1.26542 89.355 1.26542 89.6589 1.1389C87.5921 1.32869 83.58 1.20201 83.0937 1.77138C80.5405 1.51833 84.5526 1.26529 81.0268 1.39181L81.5131 1.20203C74.5831 0.316335 70.2063 2.59389 62.486 1.45514C63.0331 1.5184 63.2762 1.58166 63.3978 1.64492C54.5833 1.13881 45.2825 2.08785 36.5895 1.32868C34.0972 1.20215 33.854 1.51833 32.3343 1.77138L31.7872 1.32868L29.234 1.83471C25.5866 2.21429 22.9119 0.759236 18.2919 1.45514L18.8997 1.77138C17.2584 1.77138 13.6718 1.96118 13.915 1.5816C13.7326 1.5816 13.3679 1.89804 12.6992 1.70825V1.45514L8.5655 1.83471C5.40444 1.64491 9.05182 0.949051 4.4318 0.885787C2.72969 0.949051 -0.431356 1.58172 0.176541 1.70825C0.845227 1.70825 1.93944 1.83476 2.00023 2.08782L0.419682 2.21427C0.115733 2.91018 -1.10006 3.60613 2.79048 4.04898L5.46524 3.60609L6.31629 3.92252H4.06708C5.34366 4.23884 6.13391 3.9224 7.04576 3.79587C7.28892 3.98566 7.65366 4.11217 8.13997 4.17544L10.7539 3.54276C11.0579 3.79582 9.59894 4.04897 11.3618 4.23876C12.5776 3.92244 10.2068 3.66942 12.2129 3.47963C13.4895 3.79595 13.1247 4.04893 14.6445 3.79587C14.8268 3.98566 14.5229 4.11217 13.915 4.17544C15.2524 3.98565 17.4408 4.11213 18.1703 3.73255C19.5077 4.11213 22.6687 3.60619 22.5471 4.30209C22.9727 4.17556 24.9179 3.79587 26.1337 3.79587C23.8845 4.55504 30.7537 3.79596 30.1458 4.68166C31.7872 3.98575 36.164 4.36524 39.0819 3.98565C38.8996 3.98565 38.5956 4.17557 38.3525 4.11231C39.9938 4.11231 40.4801 4.36535 41.5743 4.49187C41.8175 3.9225 44.3706 3.79589 45.7688 3.4163C47.7749 3.98568 44.553 4.11222 45.1609 4.61833C45.0393 4.17548 48.6867 4.17545 48.018 3.79587C49.5985 4.11219 49.3554 3.9857 50.1456 4.42855C50.3888 3.73265 51.6046 4.30204 52.8812 3.8592C55.1304 4.23878 53.4891 4.55515 55.9207 4.30209C57.0757 4.49188 54.8873 4.74479 54.8873 4.74479L55.3128 4.93457ZM114.157 3.73255C113.671 3.73255 113.245 3.73255 112.941 3.73255C113.185 3.73255 113.549 3.73255 114.157 3.73255ZM119.081 3.73255C118.473 3.73255 117.744 3.73255 116.954 3.73255C116.771 3.60602 116.953 3.41636 117.44 3.47963C117.197 3.54289 118.352 3.66934 119.081 3.79587V3.73255ZM108.625 0.885787C109.416 0.885787 109.659 0.885717 109.78 1.01225C109.416 1.01225 108.99 1.01225 108.382 1.01225C108.382 1.01225 108.321 1.01225 108.261 1.01225C108.321 0.948981 108.443 0.885725 108.565 0.822461L108.625 0.885787Z" fill="white"/>
</svg>
