<svg width="24" height="25" viewBox="0 0 24 25" fill="none" xmlns="http://www.w3.org/2000/svg">
<path d="M14.792 11.0431L11.124 8.93107C10.9086 8.80708 10.6645 8.74191 10.416 8.74209C10.1675 8.74227 9.92337 8.8078 9.70819 8.93211C9.49301 9.05641 9.31431 9.23512 9.19001 9.4503C9.06571 9.66548 9.00018 9.90956 9 10.1581V14.3801C8.997 14.8861 9.267 15.3541 9.706 15.6041C9.92124 15.7298 10.166 15.7962 10.4152 15.7966C10.6645 15.7969 10.9094 15.7312 11.125 15.6061L14.792 13.4941C15.0074 13.3702 15.1864 13.1918 15.3108 12.9767C15.4352 12.7616 15.5008 12.5175 15.5008 12.2691C15.5008 12.0206 15.4352 11.7765 15.3108 11.5614C15.1864 11.3464 15.0074 11.1679 14.792 11.0441V11.0431ZM14.292 12.6251L10.626 14.7381C10.5625 14.7753 10.4902 14.795 10.4165 14.795C10.3428 14.795 10.2705 14.7753 10.207 14.7381C10.1434 14.7021 10.0907 14.6497 10.0543 14.5864C10.0179 14.523 9.99912 14.4511 10 14.3781V10.1581C9.9993 10.0852 10.0181 10.0135 10.0545 9.95033C10.0909 9.8872 10.1436 9.83497 10.207 9.79907C10.27 9.76074 10.3423 9.74047 10.416 9.74047C10.4897 9.74047 10.562 9.76074 10.625 9.79907L14.292 11.9121C14.3552 11.9478 14.4079 11.9997 14.4445 12.0624C14.4811 12.1251 14.5004 12.1964 14.5004 12.2691C14.5004 12.3417 14.4811 12.413 14.4445 12.4757C14.4079 12.5385 14.3552 12.5894 14.292 12.6251ZM19 4.26807H5C4.20459 4.26886 3.44199 4.58519 2.87956 5.14762C2.31712 5.71006 2.00079 6.47266 2 7.26807V17.2681C2.00079 18.0635 2.31712 18.8261 2.87956 19.3885C3.44199 19.9509 4.20459 20.2673 5 20.2681H19C19.7954 20.2673 20.558 19.9509 21.1204 19.3885C21.6829 18.8261 21.9992 18.0635 22 17.2681V7.26807C21.9992 6.47266 21.6829 5.71006 21.1204 5.14762C20.558 4.58519 19.7954 4.26886 19 4.26807ZM21 17.2681C20.9992 17.7983 20.7882 18.3065 20.4133 18.6814C20.0384 19.0563 19.5302 19.2673 19 19.2681H5C4.46981 19.2673 3.96156 19.0563 3.58666 18.6814C3.21176 18.3065 3.00079 17.7983 3 17.2681V7.26807C3.00079 6.73788 3.21176 6.22963 3.58666 5.85473C3.96156 5.47983 4.46981 5.26886 5 5.26807H19C19.5302 5.26886 20.0384 5.47983 20.4133 5.85473C20.7882 6.22963 20.9992 6.73788 21 7.26807V17.2681Z" fill="white"/>
</svg>
